G04*
G04 #@! TF.GenerationSoftware,Altium Limited,CircuitStudio,1.5.2 (1.5.2.30)*
G04*
G04 Layer_Color=11767835*
%FSLAX44Y44*%
%MOMM*%
G71*
G01*
G75*
%ADD15C,0.0254*%
%ADD16C,1.0000*%
%ADD17C,6.0000*%
%ADD18C,3.6000*%
%ADD19C,1.5000*%
%ADD20R,1.5000X1.5000*%
%ADD21C,2.0000*%
%ADD22C,1.5240*%
%ADD23R,1.5240X1.5240*%
%ADD24O,2.5000X1.5000*%
%ADD25C,1.7780*%
%ADD26R,1.7780X1.7780*%
%ADD27R,1.7780X1.7780*%
%ADD43R,0.7000X1.3000*%
%ADD44R,0.8128X0.9144*%
%ADD45R,1.3000X1.6000*%
G04:AMPARAMS|DCode=46|XSize=1.3mm|YSize=0.7mm|CornerRadius=0mm|HoleSize=0mm|Usage=FLASHONLY|Rotation=315.000|XOffset=0mm|YOffset=0mm|HoleType=Round|Shape=Rectangle|*
%AMROTATEDRECTD46*
4,1,4,-0.7071,0.2121,-0.2121,0.7071,0.7071,-0.2121,0.2121,-0.7071,-0.7071,0.2121,0.0*
%
%ADD46ROTATEDRECTD46*%

%ADD47O,1.3710X0.3510*%
%ADD48R,1.3000X0.7000*%
%ADD49R,5.7000X1.6000*%
%ADD50R,1.6000X1.3000*%
%ADD51R,1.5240X1.0000*%
%ADD52R,2.1000X1.6000*%
%ADD53R,0.3500X0.6000*%
%ADD54O,2.2000X0.6000*%
G04:AMPARAMS|DCode=55|XSize=1.4mm|YSize=1.2mm|CornerRadius=0mm|HoleSize=0mm|Usage=FLASHONLY|Rotation=135.000|XOffset=0mm|YOffset=0mm|HoleType=Round|Shape=Rectangle|*
%AMROTATEDRECTD55*
4,1,4,0.9192,-0.0707,0.0707,-0.9192,-0.9192,0.0707,-0.0707,0.9192,0.9192,-0.0707,0.0*
%
%ADD55ROTATEDRECTD55*%

%ADD56R,1.0000X1.5240*%
%ADD57O,2.2000X0.5000*%
%ADD58R,2.4000X3.1000*%
%ADD59R,1.2000X3.0000*%
%ADD60R,0.6000X1.4000*%
%ADD61R,0.6000X1.4500*%
%ADD62R,1.3710X0.3510*%
%ADD63O,0.3510X1.3710*%
D15*
X585622Y473186D02*
G03*
X585622Y473186I-762J0D01*
G01*
X578866Y479536D02*
X609854D01*
X578866Y448548D02*
Y479536D01*
Y448548D02*
X609854D01*
Y479536D01*
X578866Y474456D02*
X583946Y479536D01*
D16*
X1045000Y805000D02*
X1090000D01*
X965000Y885000D02*
X1045000Y805000D01*
X965000Y885000D02*
Y1030000D01*
X1090000Y360000D02*
Y520000D01*
X980000Y250000D02*
X1090000Y360000D01*
X965000Y250000D02*
X980000D01*
X1130000Y725000D02*
Y765000D01*
X1115000Y710000D02*
X1130000Y725000D01*
Y560000D02*
Y605000D01*
X1115000Y620000D02*
X1130000Y605000D01*
X1115000Y620000D02*
Y710000D01*
X1090000Y520000D02*
X1130000Y560000D01*
X120000Y250000D02*
X965000D01*
X1090000Y805000D02*
X1130000Y765000D01*
X120000Y1030000D02*
X965000D01*
X120000Y250000D02*
Y1030000D01*
D17*
X924000Y329000D02*
D03*
X212000D02*
D03*
Y654500D02*
D03*
Y980000D02*
D03*
X924000Y986000D02*
D03*
X653300Y964000D02*
D03*
D18*
X864250Y400250D02*
D03*
X750250D02*
D03*
X864250Y932000D02*
D03*
X750250D02*
D03*
D19*
X832250Y325250D02*
D03*
X807250D02*
D03*
X782250D02*
D03*
X832250Y470250D02*
D03*
Y857000D02*
D03*
X807250D02*
D03*
X782250D02*
D03*
X832250Y1002000D02*
D03*
D20*
X782250Y470250D02*
D03*
Y1002000D02*
D03*
D21*
X155600Y871500D02*
D03*
X181000D02*
D03*
X219100D02*
D03*
X244500D02*
D03*
X269900D02*
D03*
X295300D02*
D03*
X555300D02*
D03*
X529900D02*
D03*
X504500D02*
D03*
X479100D02*
D03*
X453700D02*
D03*
X428300D02*
D03*
X396900D02*
D03*
X371500D02*
D03*
X320700D02*
D03*
X346100D02*
D03*
D22*
X311750Y574750D02*
D03*
Y600150D02*
D03*
Y676350D02*
D03*
Y650950D02*
D03*
Y625550D02*
D03*
Y536650D02*
D03*
Y511250D02*
D03*
Y727150D02*
D03*
Y701750D02*
D03*
D23*
Y752550D02*
D03*
D24*
X834000Y748000D02*
D03*
Y768000D02*
D03*
Y788000D02*
D03*
Y808000D02*
D03*
X834000Y694000D02*
D03*
Y674000D02*
D03*
Y654000D02*
D03*
Y634000D02*
D03*
Y579000D02*
D03*
Y559000D02*
D03*
Y539000D02*
D03*
Y519000D02*
D03*
D25*
X924800Y429500D02*
D03*
X646000Y303700D02*
D03*
D26*
X950200Y429500D02*
D03*
D27*
X646000Y278300D02*
D03*
D43*
X1010719Y449906D02*
D03*
X991719D02*
D03*
X775250Y660000D02*
D03*
X794250D02*
D03*
X775250Y640000D02*
D03*
X794250D02*
D03*
X775250Y540000D02*
D03*
X794250D02*
D03*
X775250Y520000D02*
D03*
X794250D02*
D03*
X411750Y758250D02*
D03*
X430750D02*
D03*
X484644Y426770D02*
D03*
X465644D02*
D03*
D44*
X999643Y409318D02*
D03*
X1009295Y430494D02*
D03*
X990143D02*
D03*
D45*
X990719Y472406D02*
D03*
X1009719D02*
D03*
X447250Y823250D02*
D03*
X428250D02*
D03*
X484610Y403520D02*
D03*
X465610D02*
D03*
X558736Y317270D02*
D03*
X539736D02*
D03*
X472250Y761000D02*
D03*
X491250D02*
D03*
X478860Y291270D02*
D03*
X497860D02*
D03*
Y316020D02*
D03*
X478860D02*
D03*
X608250Y601000D02*
D03*
X589250D02*
D03*
X570750Y761750D02*
D03*
X551750D02*
D03*
D46*
X371283Y665032D02*
D03*
X385282Y651282D02*
D03*
X398717Y664717D02*
D03*
X384717Y678467D02*
D03*
D47*
X475750Y661250D02*
D03*
Y666250D02*
D03*
Y646250D02*
D03*
Y651250D02*
D03*
Y656250D02*
D03*
Y671250D02*
D03*
Y676250D02*
D03*
Y681250D02*
D03*
Y686250D02*
D03*
Y691250D02*
D03*
Y696250D02*
D03*
Y701250D02*
D03*
Y706250D02*
D03*
Y711250D02*
D03*
Y716250D02*
D03*
X589750D02*
D03*
Y711250D02*
D03*
Y706250D02*
D03*
Y701250D02*
D03*
Y696250D02*
D03*
Y691250D02*
D03*
Y686250D02*
D03*
Y681250D02*
D03*
Y676250D02*
D03*
Y671250D02*
D03*
Y666250D02*
D03*
Y661250D02*
D03*
Y656250D02*
D03*
Y651250D02*
D03*
Y646250D02*
D03*
Y641250D02*
D03*
D48*
X681998Y752000D02*
D03*
Y771000D02*
D03*
X702000D02*
D03*
Y752000D02*
D03*
X805000Y824000D02*
D03*
Y805000D02*
D03*
X784000D02*
D03*
Y824000D02*
D03*
X638750Y663500D02*
D03*
Y682500D02*
D03*
X450750Y554500D02*
D03*
Y573500D02*
D03*
X474750Y554500D02*
D03*
Y573500D02*
D03*
X498750Y554500D02*
D03*
Y573500D02*
D03*
X522750Y554500D02*
D03*
Y573500D02*
D03*
X546750Y554500D02*
D03*
Y573500D02*
D03*
X570750Y554500D02*
D03*
Y573500D02*
D03*
X783625Y279750D02*
D03*
Y298750D02*
D03*
X804000D02*
D03*
Y279750D02*
D03*
X450750Y698500D02*
D03*
Y717500D02*
D03*
X619500Y663500D02*
D03*
Y682500D02*
D03*
X620000Y338770D02*
D03*
Y357770D02*
D03*
X600000Y338770D02*
D03*
Y357770D02*
D03*
X580110D02*
D03*
Y338770D02*
D03*
D49*
X409110Y435770D02*
D03*
Y388770D02*
D03*
D50*
X771750Y757750D02*
D03*
Y776750D02*
D03*
X773750Y701750D02*
D03*
Y682750D02*
D03*
X796750Y701750D02*
D03*
Y682750D02*
D03*
X654360Y469020D02*
D03*
Y450020D02*
D03*
X629360Y469020D02*
D03*
Y450020D02*
D03*
X795750Y583500D02*
D03*
Y564500D02*
D03*
X772750Y583500D02*
D03*
Y564500D02*
D03*
X639250Y592750D02*
D03*
Y573750D02*
D03*
X346750Y756250D02*
D03*
Y737250D02*
D03*
X394860Y359270D02*
D03*
Y340270D02*
D03*
X557110Y340020D02*
D03*
Y359020D02*
D03*
X449750Y739500D02*
D03*
Y758500D02*
D03*
X442250Y634500D02*
D03*
Y615500D02*
D03*
X639500Y616250D02*
D03*
Y635250D02*
D03*
X356250Y532250D02*
D03*
Y513250D02*
D03*
D51*
X795000Y777160D02*
D03*
Y756840D02*
D03*
X570550Y526160D02*
D03*
Y505840D02*
D03*
X546430Y526160D02*
D03*
Y505840D02*
D03*
X522310Y526160D02*
D03*
Y505840D02*
D03*
X498190Y526160D02*
D03*
Y505840D02*
D03*
X474070Y526160D02*
D03*
Y505840D02*
D03*
X449950Y526160D02*
D03*
Y505840D02*
D03*
X370000Y736340D02*
D03*
Y756660D02*
D03*
X418250Y634910D02*
D03*
Y614590D02*
D03*
X379764Y512510D02*
D03*
Y532830D02*
D03*
D52*
X594360Y464520D02*
D03*
D53*
X584860Y450520D02*
D03*
X594360D02*
D03*
X603860D02*
D03*
Y478520D02*
D03*
X594360D02*
D03*
X584860D02*
D03*
D54*
X734250Y572800D02*
D03*
Y560100D02*
D03*
Y547400D02*
D03*
Y534700D02*
D03*
X686250Y572800D02*
D03*
Y560100D02*
D03*
Y547400D02*
D03*
Y534700D02*
D03*
X734000Y692050D02*
D03*
Y679350D02*
D03*
Y666650D02*
D03*
Y653950D02*
D03*
X686000Y692050D02*
D03*
Y679350D02*
D03*
Y666650D02*
D03*
Y653950D02*
D03*
D55*
X644935Y727129D02*
D03*
X629379Y742685D02*
D03*
X633621Y715815D02*
D03*
X618065Y731371D02*
D03*
D56*
X427257Y800236D02*
D03*
X447577D02*
D03*
X598950Y375520D02*
D03*
X619270D02*
D03*
D57*
X464160Y339470D02*
D03*
Y352170D02*
D03*
Y364870D02*
D03*
Y377570D02*
D03*
X521560Y339470D02*
D03*
Y352170D02*
D03*
Y364870D02*
D03*
Y377570D02*
D03*
D58*
X492860Y358520D02*
D03*
D59*
X532860Y457520D02*
D03*
Y403520D02*
D03*
D60*
X413750Y703000D02*
D03*
Y724000D02*
D03*
D61*
X429750Y703000D02*
D03*
Y724000D02*
D03*
D62*
X475750Y641250D02*
D03*
D63*
X495250Y735750D02*
D03*
X500250D02*
D03*
X505250D02*
D03*
X510250D02*
D03*
X515250D02*
D03*
X520250D02*
D03*
X525250D02*
D03*
X530250D02*
D03*
X535250D02*
D03*
X540250D02*
D03*
X545250D02*
D03*
X550250D02*
D03*
X555250D02*
D03*
X560250D02*
D03*
X565250D02*
D03*
X570250D02*
D03*
Y621750D02*
D03*
X565250D02*
D03*
X560250D02*
D03*
X555250D02*
D03*
X550250D02*
D03*
X545250D02*
D03*
X540250D02*
D03*
X535250D02*
D03*
X530250D02*
D03*
X525250D02*
D03*
X520250D02*
D03*
X515250D02*
D03*
X510250D02*
D03*
X505250D02*
D03*
X500250D02*
D03*
X495250D02*
D03*
M02*
