G04*
G04 #@! TF.GenerationSoftware,Altium Limited,CircuitStudio,1.5.2 (1.5.2.30)*
G04*
G04 Layer_Color=8150272*
%FSLAX44Y44*%
%MOMM*%
G71*
G01*
G75*
%ADD15C,0.0254*%
%ADD16C,1.0000*%
%ADD68C,6.2032*%
%ADD69C,3.8032*%
%ADD70C,1.7032*%
%ADD71R,1.7032X1.7032*%
%ADD72C,0.2032*%
%ADD73C,2.2032*%
%ADD74C,1.7272*%
%ADD75R,1.7272X1.7272*%
%ADD76O,2.7032X1.7032*%
%ADD77C,1.9812*%
%ADD78R,1.9812X1.9812*%
%ADD79R,1.9812X1.9812*%
%ADD80C,0.8032*%
%ADD81R,0.9032X1.5032*%
%ADD82R,1.0160X1.1176*%
%ADD83R,1.5032X1.8032*%
G04:AMPARAMS|DCode=84|XSize=1.5032mm|YSize=0.9032mm|CornerRadius=0mm|HoleSize=0mm|Usage=FLASHONLY|Rotation=315.000|XOffset=0mm|YOffset=0mm|HoleType=Round|Shape=Rectangle|*
%AMROTATEDRECTD84*
4,1,4,-0.8508,0.2121,-0.2121,0.8508,0.8508,-0.2121,0.2121,-0.8508,-0.8508,0.2121,0.0*
%
%ADD84ROTATEDRECTD84*%

%ADD85O,1.5742X0.5542*%
%ADD86R,1.5032X0.9032*%
%ADD87R,5.9032X1.8032*%
%ADD88R,1.8032X1.5032*%
%ADD89R,1.7272X1.2032*%
%ADD90R,2.3032X1.8032*%
%ADD91R,0.5532X0.8032*%
%ADD92O,2.4032X0.8032*%
G04:AMPARAMS|DCode=93|XSize=1.6032mm|YSize=1.4032mm|CornerRadius=0mm|HoleSize=0mm|Usage=FLASHONLY|Rotation=135.000|XOffset=0mm|YOffset=0mm|HoleType=Round|Shape=Rectangle|*
%AMROTATEDRECTD93*
4,1,4,1.0629,-0.0707,0.0707,-1.0629,-1.0629,0.0707,-0.0707,1.0629,1.0629,-0.0707,0.0*
%
%ADD93ROTATEDRECTD93*%

%ADD94R,1.2032X1.7272*%
%ADD95O,2.3400X0.6400*%
%ADD96R,2.5400X3.2400*%
%ADD97R,1.4032X3.2032*%
%ADD98R,0.8032X1.6032*%
%ADD99R,0.8032X1.6532*%
%ADD100R,1.5742X0.5542*%
%ADD101O,0.5542X1.5742*%
D15*
X585622Y473186D02*
G03*
X585622Y473186I-762J0D01*
G01*
X578866Y479536D02*
X609854D01*
X578866Y448548D02*
Y479536D01*
Y448548D02*
X609854D01*
Y479536D01*
X578866Y474456D02*
X583946Y479536D01*
D16*
X1045000Y805000D02*
X1090000D01*
X965000Y885000D02*
X1045000Y805000D01*
X965000Y885000D02*
Y1030000D01*
X1090000Y360000D02*
Y520000D01*
X980000Y250000D02*
X1090000Y360000D01*
X965000Y250000D02*
X980000D01*
X1130000Y725000D02*
Y765000D01*
X1115000Y710000D02*
X1130000Y725000D01*
Y560000D02*
Y605000D01*
X1115000Y620000D02*
X1130000Y605000D01*
X1115000Y620000D02*
Y710000D01*
X1090000Y520000D02*
X1130000Y560000D01*
X120000Y250000D02*
X965000D01*
X1090000Y805000D02*
X1130000Y765000D01*
X120000Y1030000D02*
X965000D01*
X120000Y250000D02*
Y1030000D01*
D68*
X924000Y329000D02*
D03*
X212000D02*
D03*
Y654500D02*
D03*
Y980000D02*
D03*
X924000Y986000D02*
D03*
X653300Y964000D02*
D03*
D69*
X864250Y400250D02*
D03*
X750250D02*
D03*
X864250Y932000D02*
D03*
X750250D02*
D03*
D70*
X832250Y325250D02*
D03*
X807250D02*
D03*
X782250D02*
D03*
X832250Y470250D02*
D03*
Y857000D02*
D03*
X807250D02*
D03*
X782250D02*
D03*
X832250Y1002000D02*
D03*
D71*
X782250Y470250D02*
D03*
Y1002000D02*
D03*
D72*
X1010000Y350000D02*
D03*
X1055000Y715000D02*
D03*
Y625000D02*
D03*
D73*
X155600Y871500D02*
D03*
X181000D02*
D03*
X219100D02*
D03*
X244500D02*
D03*
X269900D02*
D03*
X295300D02*
D03*
X555300D02*
D03*
X529900D02*
D03*
X504500D02*
D03*
X479100D02*
D03*
X453700D02*
D03*
X428300D02*
D03*
X396900D02*
D03*
X371500D02*
D03*
X320700D02*
D03*
X346100D02*
D03*
D74*
X311750Y574750D02*
D03*
Y600150D02*
D03*
Y676350D02*
D03*
Y650950D02*
D03*
Y625550D02*
D03*
Y536650D02*
D03*
Y511250D02*
D03*
Y727150D02*
D03*
Y701750D02*
D03*
D75*
Y752550D02*
D03*
D76*
X834000Y748000D02*
D03*
Y768000D02*
D03*
Y788000D02*
D03*
Y808000D02*
D03*
X834000Y694000D02*
D03*
Y674000D02*
D03*
Y654000D02*
D03*
Y634000D02*
D03*
Y579000D02*
D03*
Y559000D02*
D03*
Y539000D02*
D03*
Y519000D02*
D03*
D77*
X924800Y429500D02*
D03*
X646000Y303700D02*
D03*
D78*
X950200Y429500D02*
D03*
D79*
X646000Y278300D02*
D03*
D80*
X611500Y434500D02*
D03*
X673860Y450020D02*
D03*
X569500Y464500D02*
D03*
X489500Y659750D02*
D03*
X667500Y770500D02*
D03*
X718000Y763500D02*
D03*
X525500Y758000D02*
D03*
X481500Y731000D02*
D03*
X515750Y748000D02*
D03*
X669000Y469000D02*
D03*
X535000Y751000D02*
D03*
X519250Y677000D02*
D03*
X540250D02*
D03*
X489500Y651000D02*
D03*
X655250Y698500D02*
D03*
X663500Y692500D02*
D03*
X606000Y683000D02*
D03*
X386090Y736340D02*
D03*
X753750Y776750D02*
D03*
X748750Y804250D02*
D03*
X791500Y417500D02*
D03*
X745250Y280250D02*
D03*
X494500Y587500D02*
D03*
X474250D02*
D03*
X451500D02*
D03*
X430250Y506000D02*
D03*
X704250Y488500D02*
D03*
X510750Y492000D02*
D03*
X527000Y584250D02*
D03*
X535500Y493750D02*
D03*
X763000Y311750D02*
D03*
X522500Y608500D02*
D03*
X536500Y608000D02*
D03*
X639500Y650250D02*
D03*
X653500Y666650D02*
D03*
X669650D02*
D03*
X686250Y583750D02*
D03*
X686000Y701250D02*
D03*
X686000Y642750D02*
D03*
X639500Y604625D02*
D03*
X603250Y584500D02*
D03*
X489500Y671500D02*
D03*
X528250Y602500D02*
D03*
X449950Y542000D02*
D03*
X570550D02*
D03*
X546430D02*
D03*
X521750D02*
D03*
X497750D02*
D03*
X473750D02*
D03*
X486860Y347020D02*
D03*
X498860D02*
D03*
Y358520D02*
D03*
X486860D02*
D03*
X499360Y370520D02*
D03*
X487360D02*
D03*
X461750Y706000D02*
D03*
X594750Y584000D02*
D03*
X403570Y635000D02*
D03*
X402750Y614000D02*
D03*
X404750Y704000D02*
D03*
X666750Y534700D02*
D03*
X753100Y679350D02*
D03*
X754000Y667250D02*
D03*
X753750Y548000D02*
D03*
X752850Y560100D02*
D03*
X655000Y738000D02*
D03*
X605250Y722750D02*
D03*
X538360Y352520D02*
D03*
X442360D02*
D03*
X580110Y327770D02*
D03*
X511360Y316520D02*
D03*
X464360Y329520D02*
D03*
X394360Y323520D02*
D03*
X594360Y464520D02*
D03*
X654360Y489520D02*
D03*
X639360D02*
D03*
X624360D02*
D03*
X659360Y434520D02*
D03*
X635430Y434500D02*
D03*
X404750Y724000D02*
D03*
X450750Y772000D02*
D03*
X545250Y603000D02*
D03*
X543750Y583500D02*
D03*
X551000Y594250D02*
D03*
X559000Y603750D02*
D03*
X555750Y778000D02*
D03*
X565750D02*
D03*
X573750Y685500D02*
D03*
X567250Y679000D02*
D03*
X575750Y640250D02*
D03*
X575770Y648750D02*
D03*
X550935Y640500D02*
D03*
X530000Y715000D02*
D03*
X520000Y720000D02*
D03*
X565000Y633000D02*
D03*
X564303Y663442D02*
D03*
X563999Y640499D02*
D03*
X364000Y448000D02*
D03*
X364500Y430500D02*
D03*
X364000Y440000D02*
D03*
X414000Y800000D02*
D03*
X461500Y795500D02*
D03*
X498500D02*
D03*
X517500Y813500D02*
D03*
D81*
X1010719Y449906D02*
D03*
X991719D02*
D03*
X775250Y660000D02*
D03*
X794250D02*
D03*
X775250Y640000D02*
D03*
X794250D02*
D03*
X775250Y540000D02*
D03*
X794250D02*
D03*
X775250Y520000D02*
D03*
X794250D02*
D03*
X411750Y758250D02*
D03*
X430750D02*
D03*
X484644Y426770D02*
D03*
X465644D02*
D03*
D82*
X999643Y409318D02*
D03*
X1009295Y430494D02*
D03*
X990143D02*
D03*
D83*
X990719Y472406D02*
D03*
X1009719D02*
D03*
X447250Y823250D02*
D03*
X428250D02*
D03*
X484610Y403520D02*
D03*
X465610D02*
D03*
X558736Y317270D02*
D03*
X539736D02*
D03*
X472250Y761000D02*
D03*
X491250D02*
D03*
X478860Y291270D02*
D03*
X497860D02*
D03*
Y316020D02*
D03*
X478860D02*
D03*
X608250Y601000D02*
D03*
X589250D02*
D03*
X570750Y761750D02*
D03*
X551750D02*
D03*
D84*
X371283Y665032D02*
D03*
X385282Y651282D02*
D03*
X398717Y664717D02*
D03*
X384717Y678467D02*
D03*
D85*
X475750Y661250D02*
D03*
Y666250D02*
D03*
Y646250D02*
D03*
Y651250D02*
D03*
Y656250D02*
D03*
Y671250D02*
D03*
Y676250D02*
D03*
Y681250D02*
D03*
Y686250D02*
D03*
Y691250D02*
D03*
Y696250D02*
D03*
Y701250D02*
D03*
Y706250D02*
D03*
Y711250D02*
D03*
Y716250D02*
D03*
X589750D02*
D03*
Y711250D02*
D03*
Y706250D02*
D03*
Y701250D02*
D03*
Y696250D02*
D03*
Y691250D02*
D03*
Y686250D02*
D03*
Y681250D02*
D03*
Y676250D02*
D03*
Y671250D02*
D03*
Y666250D02*
D03*
Y661250D02*
D03*
Y656250D02*
D03*
Y651250D02*
D03*
Y646250D02*
D03*
Y641250D02*
D03*
D86*
X681998Y752000D02*
D03*
Y771000D02*
D03*
X702000D02*
D03*
Y752000D02*
D03*
X805000Y824000D02*
D03*
Y805000D02*
D03*
X784000D02*
D03*
Y824000D02*
D03*
X638750Y663500D02*
D03*
Y682500D02*
D03*
X450750Y554500D02*
D03*
Y573500D02*
D03*
X474750Y554500D02*
D03*
Y573500D02*
D03*
X498750Y554500D02*
D03*
Y573500D02*
D03*
X522750Y554500D02*
D03*
Y573500D02*
D03*
X546750Y554500D02*
D03*
Y573500D02*
D03*
X570750Y554500D02*
D03*
Y573500D02*
D03*
X783625Y279750D02*
D03*
Y298750D02*
D03*
X804000D02*
D03*
Y279750D02*
D03*
X450750Y698500D02*
D03*
Y717500D02*
D03*
X619500Y663500D02*
D03*
Y682500D02*
D03*
X620000Y338770D02*
D03*
Y357770D02*
D03*
X600000Y338770D02*
D03*
Y357770D02*
D03*
X580110D02*
D03*
Y338770D02*
D03*
D87*
X409110Y435770D02*
D03*
Y388770D02*
D03*
D88*
X771750Y757750D02*
D03*
Y776750D02*
D03*
X773750Y701750D02*
D03*
Y682750D02*
D03*
X796750Y701750D02*
D03*
Y682750D02*
D03*
X654360Y469020D02*
D03*
Y450020D02*
D03*
X629360Y469020D02*
D03*
Y450020D02*
D03*
X795750Y583500D02*
D03*
Y564500D02*
D03*
X772750Y583500D02*
D03*
Y564500D02*
D03*
X639250Y592750D02*
D03*
Y573750D02*
D03*
X346750Y756250D02*
D03*
Y737250D02*
D03*
X394860Y359270D02*
D03*
Y340270D02*
D03*
X557110Y340020D02*
D03*
Y359020D02*
D03*
X449750Y739500D02*
D03*
Y758500D02*
D03*
X442250Y634500D02*
D03*
Y615500D02*
D03*
X639500Y616250D02*
D03*
Y635250D02*
D03*
X356250Y532250D02*
D03*
Y513250D02*
D03*
D89*
X795000Y777160D02*
D03*
Y756840D02*
D03*
X570550Y526160D02*
D03*
Y505840D02*
D03*
X546430Y526160D02*
D03*
Y505840D02*
D03*
X522310Y526160D02*
D03*
Y505840D02*
D03*
X498190Y526160D02*
D03*
Y505840D02*
D03*
X474070Y526160D02*
D03*
Y505840D02*
D03*
X449950Y526160D02*
D03*
Y505840D02*
D03*
X370000Y736340D02*
D03*
Y756660D02*
D03*
X418250Y634910D02*
D03*
Y614590D02*
D03*
X379764Y512510D02*
D03*
Y532830D02*
D03*
D90*
X594360Y464520D02*
D03*
D91*
X584860Y450520D02*
D03*
X594360D02*
D03*
X603860D02*
D03*
Y478520D02*
D03*
X594360D02*
D03*
X584860D02*
D03*
D92*
X734250Y572800D02*
D03*
Y560100D02*
D03*
Y547400D02*
D03*
Y534700D02*
D03*
X686250Y572800D02*
D03*
Y560100D02*
D03*
Y547400D02*
D03*
Y534700D02*
D03*
X734000Y692050D02*
D03*
Y679350D02*
D03*
Y666650D02*
D03*
Y653950D02*
D03*
X686000Y692050D02*
D03*
Y679350D02*
D03*
Y666650D02*
D03*
Y653950D02*
D03*
D93*
X644935Y727129D02*
D03*
X629379Y742685D02*
D03*
X633621Y715815D02*
D03*
X618065Y731371D02*
D03*
D94*
X427257Y800236D02*
D03*
X447577D02*
D03*
X598950Y375520D02*
D03*
X619270D02*
D03*
D95*
X464160Y339470D02*
D03*
Y352170D02*
D03*
Y364870D02*
D03*
Y377570D02*
D03*
X521560Y339470D02*
D03*
Y352170D02*
D03*
Y364870D02*
D03*
Y377570D02*
D03*
D96*
X492860Y358520D02*
D03*
D97*
X532860Y457520D02*
D03*
Y403520D02*
D03*
D98*
X413750Y703000D02*
D03*
Y724000D02*
D03*
D99*
X429750Y703000D02*
D03*
Y724000D02*
D03*
D100*
X475750Y641250D02*
D03*
D101*
X495250Y735750D02*
D03*
X500250D02*
D03*
X505250D02*
D03*
X510250D02*
D03*
X515250D02*
D03*
X520250D02*
D03*
X525250D02*
D03*
X530250D02*
D03*
X535250D02*
D03*
X540250D02*
D03*
X545250D02*
D03*
X550250D02*
D03*
X555250D02*
D03*
X560250D02*
D03*
X565250D02*
D03*
X570250D02*
D03*
Y621750D02*
D03*
X565250D02*
D03*
X560250D02*
D03*
X555250D02*
D03*
X550250D02*
D03*
X545250D02*
D03*
X540250D02*
D03*
X535250D02*
D03*
X530250D02*
D03*
X525250D02*
D03*
X520250D02*
D03*
X515250D02*
D03*
X510250D02*
D03*
X505250D02*
D03*
X500250D02*
D03*
X495250D02*
D03*
M02*
