G04*
G04 #@! TF.GenerationSoftware,Altium Limited,CircuitStudio,1.5.2 (1.5.2.30)*
G04*
G04 Layer_Color=16764230*
%FSLAX44Y44*%
%MOMM*%
G71*
G01*
G75*
%ADD12C,0.2540*%
%ADD15C,0.0254*%
%ADD16C,1.0000*%
D12*
X1006219Y449906D02*
G03*
X1006219Y449906I-5000J0D01*
G01*
X686998Y761500D02*
G03*
X686998Y761500I-5000J0D01*
G01*
X707000D02*
G03*
X707000Y761500I-5000J0D01*
G01*
X810000Y814500D02*
G03*
X810000Y814500I-5000J0D01*
G01*
X789000D02*
G03*
X789000Y814500I-5000J0D01*
G01*
X789750Y660000D02*
G03*
X789750Y660000I-5000J0D01*
G01*
Y640000D02*
G03*
X789750Y640000I-5000J0D01*
G01*
X789750Y540000D02*
G03*
X789750Y540000I-5000J0D01*
G01*
Y520000D02*
G03*
X789750Y520000I-5000J0D01*
G01*
X643750Y673000D02*
G03*
X643750Y673000I-5000J0D01*
G01*
X455750Y564000D02*
G03*
X455750Y564000I-5000J0D01*
G01*
X479750D02*
G03*
X479750Y564000I-5000J0D01*
G01*
X503750D02*
G03*
X503750Y564000I-5000J0D01*
G01*
X527750D02*
G03*
X527750Y564000I-5000J0D01*
G01*
X551750D02*
G03*
X551750Y564000I-5000J0D01*
G01*
X575750D02*
G03*
X575750Y564000I-5000J0D01*
G01*
X788625Y289250D02*
G03*
X788625Y289250I-5000J0D01*
G01*
X809000D02*
G03*
X809000Y289250I-5000J0D01*
G01*
X426250Y758250D02*
G03*
X426250Y758250I-5000J0D01*
G01*
X455750Y708000D02*
G03*
X455750Y708000I-5000J0D01*
G01*
X397000Y658000D02*
G03*
X397000Y658000I-5000J0D01*
G01*
X383000Y671750D02*
G03*
X383000Y671750I-5000J0D01*
G01*
X624500Y673000D02*
G03*
X624500Y673000I-5000J0D01*
G01*
X625000Y348270D02*
G03*
X625000Y348270I-5000J0D01*
G01*
X480144Y426770D02*
G03*
X480144Y426770I-5000J0D01*
G01*
X605000Y348270D02*
G03*
X605000Y348270I-5000J0D01*
G01*
X585110D02*
G03*
X585110Y348270I-5000J0D01*
G01*
X540295Y677000D02*
G03*
X540295Y677000I-11045J0D01*
G01*
X1001219Y444906D02*
Y454906D01*
X996219Y449906D02*
X1006219D01*
X676998Y761500D02*
X686998D01*
X681998Y756500D02*
Y766500D01*
X697000Y761500D02*
X707000D01*
X702000Y756500D02*
Y766500D01*
X805000Y809500D02*
Y819500D01*
X800000Y814500D02*
X810000D01*
X784000Y809500D02*
Y819500D01*
X779000Y814500D02*
X789000D01*
X779750Y660000D02*
X789750D01*
X784750Y655000D02*
Y665000D01*
X779750Y640000D02*
X789750D01*
X784750Y635000D02*
Y645000D01*
X779750Y540000D02*
X789750D01*
X784750Y535000D02*
Y545000D01*
X779750Y520000D02*
X789750D01*
X784750Y515000D02*
Y525000D01*
X638750Y668000D02*
Y678000D01*
X633750Y673000D02*
X643750D01*
X450750Y559000D02*
Y569000D01*
X445750Y564000D02*
X455750D01*
X474750Y559000D02*
Y569000D01*
X469750Y564000D02*
X479750D01*
X498750Y559000D02*
Y569000D01*
X493750Y564000D02*
X503750D01*
X522750Y559000D02*
Y569000D01*
X517750Y564000D02*
X527750D01*
X546750Y559000D02*
Y569000D01*
X541750Y564000D02*
X551750D01*
X570750Y559000D02*
Y569000D01*
X565750Y564000D02*
X575750D01*
X783625Y284250D02*
Y294250D01*
X778625Y289250D02*
X788625D01*
X804000Y284250D02*
Y294250D01*
X799000Y289250D02*
X809000D01*
X416250Y758250D02*
X426250D01*
X421250Y753250D02*
Y763250D01*
X450750Y703000D02*
Y713000D01*
X445750Y708000D02*
X455750D01*
X388464Y654464D02*
X395535Y661535D01*
X388464D02*
X395535Y654464D01*
X374464Y668214D02*
X381535Y675285D01*
X374464D02*
X381535Y668214D01*
X619500Y668000D02*
Y678000D01*
X614500Y673000D02*
X624500D01*
X620000Y343270D02*
Y353270D01*
X615000Y348270D02*
X625000D01*
X475144Y421770D02*
Y431770D01*
X470144Y426770D02*
X480144D01*
X600000Y343270D02*
Y353270D01*
X595000Y348270D02*
X605000D01*
X580110Y343270D02*
Y353270D01*
X575110Y348270D02*
X585110D01*
X518250Y677000D02*
X540250D01*
X529250Y665955D02*
Y687000D01*
D15*
X585622Y473186D02*
G03*
X585622Y473186I-762J0D01*
G01*
X578866Y479536D02*
X609854D01*
X578866Y448548D02*
Y479536D01*
Y448548D02*
X609854D01*
Y479536D01*
X578866Y474456D02*
X583946Y479536D01*
D16*
X1045000Y805000D02*
X1090000D01*
X965000Y885000D02*
X1045000Y805000D01*
X965000Y885000D02*
Y1030000D01*
X1090000Y360000D02*
Y520000D01*
X980000Y250000D02*
X1090000Y360000D01*
X965000Y250000D02*
X980000D01*
X1130000Y725000D02*
Y765000D01*
X1115000Y710000D02*
X1130000Y725000D01*
Y560000D02*
Y605000D01*
X1115000Y620000D02*
X1130000Y605000D01*
X1115000Y620000D02*
Y710000D01*
X1090000Y520000D02*
X1130000Y560000D01*
X120000Y250000D02*
X965000D01*
X1090000Y805000D02*
X1130000Y765000D01*
X120000Y1030000D02*
X965000D01*
X120000Y250000D02*
Y1030000D01*
M02*
