G04*
G04 #@! TF.GenerationSoftware,Altium Limited,CircuitStudio,1.5.2 (1.5.2.30)*
G04*
G04 Layer_Color=2752767*
%FSLAX44Y44*%
%MOMM*%
G71*
G01*
G75*
%ADD12C,0.2540*%
%ADD15C,0.0254*%
%ADD16C,1.0000*%
%ADD110C,0.0847*%
%ADD111C,0.3810*%
%ADD112C,0.4064*%
D12*
X902873Y1476230D02*
Y1491465D01*
X910490D01*
X913029Y1488926D01*
Y1483847D01*
X910490Y1481308D01*
X902873D01*
X907951D02*
X913029Y1476230D01*
X920647D02*
X925725D01*
X928265Y1478769D01*
Y1483847D01*
X925725Y1486387D01*
X920647D01*
X918108Y1483847D01*
Y1478769D01*
X920647Y1476230D01*
X933343Y1486387D02*
Y1478769D01*
X935882Y1476230D01*
X943500D01*
Y1486387D01*
X948578Y1476230D02*
Y1486387D01*
X956196D01*
X958735Y1483847D01*
Y1476230D01*
X973970Y1491465D02*
Y1476230D01*
X966352D01*
X963813Y1478769D01*
Y1483847D01*
X966352Y1486387D01*
X973970D01*
X913029Y1450826D02*
X910490Y1453365D01*
X905412D01*
X902873Y1450826D01*
Y1448287D01*
X905412Y1445747D01*
X910490D01*
X913029Y1443208D01*
Y1440669D01*
X910490Y1438130D01*
X905412D01*
X902873Y1440669D01*
X918108Y1438130D02*
X923186D01*
X920647D01*
Y1453365D01*
X918108D01*
X933343Y1438130D02*
X938421D01*
X940960Y1440669D01*
Y1445747D01*
X938421Y1448287D01*
X933343D01*
X930804Y1445747D01*
Y1440669D01*
X933343Y1438130D01*
X948578Y1450826D02*
Y1448287D01*
X946039D01*
X951117D01*
X948578D01*
Y1440669D01*
X951117Y1438130D01*
X902873Y1400030D02*
Y1415265D01*
X910490D01*
X913029Y1412726D01*
Y1407647D01*
X910490Y1405108D01*
X902873D01*
X907951D02*
X913029Y1400030D01*
X920647D02*
X925725D01*
X928265Y1402569D01*
Y1407647D01*
X925725Y1410187D01*
X920647D01*
X918108Y1407647D01*
Y1402569D01*
X920647Y1400030D01*
X933343Y1410187D02*
Y1402569D01*
X935882Y1400030D01*
X943500D01*
Y1410187D01*
X948578Y1400030D02*
Y1410187D01*
X956196D01*
X958735Y1407647D01*
Y1400030D01*
X973970Y1415265D02*
Y1400030D01*
X966352D01*
X963813Y1402569D01*
Y1407647D01*
X966352Y1410187D01*
X973970D01*
X902873Y1361930D02*
Y1377165D01*
X910490D01*
X913029Y1374626D01*
Y1369547D01*
X910490Y1367008D01*
X902873D01*
X907951D02*
X913029Y1361930D01*
X920647D02*
X925725D01*
X928265Y1364469D01*
Y1369547D01*
X925725Y1372087D01*
X920647D01*
X918108Y1369547D01*
Y1364469D01*
X920647Y1361930D01*
X933343Y1372087D02*
Y1364469D01*
X935882Y1361930D01*
X943500D01*
Y1372087D01*
X948578Y1361930D02*
Y1372087D01*
X956196D01*
X958735Y1369547D01*
Y1361930D01*
X973970Y1377165D02*
Y1361930D01*
X966352D01*
X963813Y1364469D01*
Y1369547D01*
X966352Y1372087D01*
X973970D01*
X902873Y1323830D02*
Y1339065D01*
X910490D01*
X913029Y1336526D01*
Y1331447D01*
X910490Y1328908D01*
X902873D01*
X907951D02*
X913029Y1323830D01*
X920647D02*
X925725D01*
X928265Y1326369D01*
Y1331447D01*
X925725Y1333987D01*
X920647D01*
X918108Y1331447D01*
Y1326369D01*
X920647Y1323830D01*
X933343Y1333987D02*
Y1326369D01*
X935882Y1323830D01*
X943500D01*
Y1333987D01*
X948578Y1323830D02*
Y1333987D01*
X956196D01*
X958735Y1331447D01*
Y1323830D01*
X973970Y1339065D02*
Y1323830D01*
X966352D01*
X963813Y1326369D01*
Y1331447D01*
X966352Y1333987D01*
X973970D01*
X902873Y1285730D02*
Y1300965D01*
X910490D01*
X913029Y1298426D01*
Y1293347D01*
X910490Y1290808D01*
X902873D01*
X907951D02*
X913029Y1285730D01*
X920647D02*
X925725D01*
X928265Y1288269D01*
Y1293347D01*
X925725Y1295887D01*
X920647D01*
X918108Y1293347D01*
Y1288269D01*
X920647Y1285730D01*
X933343Y1295887D02*
Y1288269D01*
X935882Y1285730D01*
X943500D01*
Y1295887D01*
X948578Y1285730D02*
Y1295887D01*
X956196D01*
X958735Y1293347D01*
Y1285730D01*
X973970Y1300965D02*
Y1285730D01*
X966352D01*
X963813Y1288269D01*
Y1293347D01*
X966352Y1295887D01*
X973970D01*
X902873Y1247630D02*
Y1262865D01*
X910490D01*
X913029Y1260326D01*
Y1255247D01*
X910490Y1252708D01*
X902873D01*
X907951D02*
X913029Y1247630D01*
X920647D02*
X925725D01*
X928265Y1250169D01*
Y1255247D01*
X925725Y1257787D01*
X920647D01*
X918108Y1255247D01*
Y1250169D01*
X920647Y1247630D01*
X933343Y1257787D02*
Y1250169D01*
X935882Y1247630D01*
X943500D01*
Y1257787D01*
X948578Y1247630D02*
Y1257787D01*
X956196D01*
X958735Y1255247D01*
Y1247630D01*
X973970Y1262865D02*
Y1247630D01*
X966352D01*
X963813Y1250169D01*
Y1255247D01*
X966352Y1257787D01*
X973970D01*
X902873Y1209530D02*
Y1224765D01*
X910490D01*
X913029Y1222226D01*
Y1217147D01*
X910490Y1214608D01*
X902873D01*
X907951D02*
X913029Y1209530D01*
X920647D02*
X925725D01*
X928265Y1212069D01*
Y1217147D01*
X925725Y1219687D01*
X920647D01*
X918108Y1217147D01*
Y1212069D01*
X920647Y1209530D01*
X933343Y1219687D02*
Y1212069D01*
X935882Y1209530D01*
X943500D01*
Y1219687D01*
X948578Y1209530D02*
Y1219687D01*
X956196D01*
X958735Y1217147D01*
Y1209530D01*
X973970Y1224765D02*
Y1209530D01*
X966352D01*
X963813Y1212069D01*
Y1217147D01*
X966352Y1219687D01*
X973970D01*
X774380Y1476230D02*
Y1491465D01*
X784537Y1476230D01*
Y1491465D01*
X789615Y1476230D02*
Y1491465D01*
X797233D01*
X799772Y1488926D01*
Y1483847D01*
X797233Y1481308D01*
X789615D01*
X804850Y1491465D02*
X815007D01*
X809929D01*
Y1476230D01*
X820086Y1491465D02*
Y1476230D01*
Y1483847D01*
X830242D01*
Y1491465D01*
Y1476230D01*
X774380Y1438130D02*
Y1453365D01*
X784537Y1438130D01*
Y1453365D01*
X789615Y1438130D02*
Y1453365D01*
X797233D01*
X799772Y1450826D01*
Y1445747D01*
X797233Y1443208D01*
X789615D01*
X804850Y1453365D02*
X815007D01*
X809929D01*
Y1438130D01*
X820086Y1453365D02*
Y1438130D01*
Y1445747D01*
X830242D01*
Y1453365D01*
Y1438130D01*
X774380Y1400030D02*
Y1415265D01*
X781998D01*
X784537Y1412726D01*
Y1407647D01*
X781998Y1405108D01*
X774380D01*
X789615Y1415265D02*
X799772D01*
X794694D01*
Y1400030D01*
X804850Y1415265D02*
Y1400030D01*
Y1407647D01*
X815007D01*
Y1415265D01*
Y1400030D01*
X774380Y1361930D02*
Y1377165D01*
X781998D01*
X784537Y1374626D01*
Y1369547D01*
X781998Y1367008D01*
X774380D01*
X789615Y1377165D02*
X799772D01*
X794694D01*
Y1361930D01*
X804850Y1377165D02*
Y1361930D01*
Y1369547D01*
X815007D01*
Y1377165D01*
Y1361930D01*
X774380Y1323830D02*
Y1339065D01*
X784537Y1323830D01*
Y1339065D01*
X789615Y1323830D02*
Y1339065D01*
X797233D01*
X799772Y1336526D01*
Y1331447D01*
X797233Y1328908D01*
X789615D01*
X804850Y1339065D02*
X815007D01*
X809929D01*
Y1323830D01*
X820086Y1339065D02*
Y1323830D01*
Y1331447D01*
X830242D01*
Y1339065D01*
Y1323830D01*
X774380Y1285730D02*
Y1300965D01*
X781998D01*
X784537Y1298426D01*
Y1293347D01*
X781998Y1290808D01*
X774380D01*
X789615Y1300965D02*
X799772D01*
X794694D01*
Y1285730D01*
X804850Y1300965D02*
Y1285730D01*
Y1293347D01*
X815007D01*
Y1300965D01*
Y1285730D01*
X774380Y1247630D02*
Y1262865D01*
X781998D01*
X784537Y1260326D01*
Y1255247D01*
X781998Y1252708D01*
X774380D01*
X789615Y1262865D02*
X799772D01*
X794694D01*
Y1247630D01*
X804850Y1262865D02*
Y1247630D01*
Y1255247D01*
X815007D01*
Y1262865D01*
Y1247630D01*
X774380Y1209530D02*
Y1224765D01*
X781998D01*
X784537Y1222226D01*
Y1217147D01*
X781998Y1214608D01*
X774380D01*
X789615Y1224765D02*
X799772D01*
X794694D01*
Y1209530D01*
X804850Y1224765D02*
Y1209530D01*
Y1217147D01*
X815007D01*
Y1224765D01*
Y1209530D01*
X432597Y1488926D02*
X435136Y1491465D01*
X440215D01*
X442754Y1488926D01*
Y1486387D01*
X440215Y1483847D01*
X437675D01*
X440215D01*
X442754Y1481308D01*
Y1478769D01*
X440215Y1476230D01*
X435136D01*
X432597Y1478769D01*
X447832Y1476230D02*
Y1478769D01*
X450371D01*
Y1476230D01*
X447832D01*
X470685Y1491465D02*
X460528D01*
Y1483847D01*
X465606Y1486387D01*
X468145D01*
X470685Y1483847D01*
Y1478769D01*
X468145Y1476230D01*
X463067D01*
X460528Y1478769D01*
X475763Y1488926D02*
X478302Y1491465D01*
X483381D01*
X485920Y1488926D01*
Y1478769D01*
X483381Y1476230D01*
X478302D01*
X475763Y1478769D01*
Y1488926D01*
X490998D02*
X493537Y1491465D01*
X498616D01*
X501155Y1488926D01*
Y1478769D01*
X498616Y1476230D01*
X493537D01*
X490998Y1478769D01*
Y1488926D01*
X506233Y1476230D02*
Y1486387D01*
X508772D01*
X511311Y1483847D01*
Y1476230D01*
Y1483847D01*
X513851Y1486387D01*
X516390Y1483847D01*
Y1476230D01*
X521468D02*
Y1486387D01*
X524007D01*
X526547Y1483847D01*
Y1476230D01*
Y1483847D01*
X529086Y1486387D01*
X531625Y1483847D01*
Y1476230D01*
X557017D02*
X551938Y1481308D01*
Y1486387D01*
X557017Y1491465D01*
X564634Y1476230D02*
X569713D01*
X567173D01*
Y1491465D01*
X564634Y1488926D01*
X577330D02*
X579869Y1491465D01*
X584948D01*
X587487Y1488926D01*
Y1486387D01*
X584948Y1483847D01*
X582408D01*
X584948D01*
X587487Y1481308D01*
Y1478769D01*
X584948Y1476230D01*
X579869D01*
X577330Y1478769D01*
X592565Y1491465D02*
X602722D01*
Y1488926D01*
X592565Y1478769D01*
Y1476230D01*
X607800D02*
Y1478769D01*
X610339D01*
Y1476230D01*
X607800D01*
X620496Y1488926D02*
X623035Y1491465D01*
X628114D01*
X630653Y1488926D01*
Y1486387D01*
X628114Y1483847D01*
X630653Y1481308D01*
Y1478769D01*
X628114Y1476230D01*
X623035D01*
X620496Y1478769D01*
Y1481308D01*
X623035Y1483847D01*
X620496Y1486387D01*
Y1488926D01*
X623035Y1483847D02*
X628114D01*
X635731Y1488926D02*
X638270Y1491465D01*
X643349D01*
X645888Y1488926D01*
Y1478769D01*
X643349Y1476230D01*
X638270D01*
X635731Y1478769D01*
Y1488926D01*
X650966Y1476230D02*
Y1486387D01*
X653505D01*
X656045Y1483847D01*
Y1476230D01*
Y1483847D01*
X658584Y1486387D01*
X661123Y1483847D01*
Y1476230D01*
X666201D02*
X671280D01*
X668740D01*
Y1486387D01*
X666201D01*
X678897Y1476230D02*
X683976D01*
X681436D01*
Y1491465D01*
X678897D01*
X691593Y1476230D02*
X696672Y1481308D01*
Y1486387D01*
X691593Y1491465D01*
X442754Y1438130D02*
X432597D01*
X442754Y1448287D01*
Y1450826D01*
X440215Y1453365D01*
X435136D01*
X432597Y1450826D01*
X447832Y1438130D02*
Y1440669D01*
X450371D01*
Y1438130D01*
X447832D01*
X460528Y1450826D02*
X463067Y1453365D01*
X468145D01*
X470685Y1450826D01*
Y1440669D01*
X468145Y1438130D01*
X463067D01*
X460528Y1440669D01*
Y1450826D01*
X475763D02*
X478302Y1453365D01*
X483381D01*
X485920Y1450826D01*
Y1440669D01*
X483381Y1438130D01*
X478302D01*
X475763Y1440669D01*
Y1450826D01*
X490998D02*
X493537Y1453365D01*
X498616D01*
X501155Y1450826D01*
Y1440669D01*
X498616Y1438130D01*
X493537D01*
X490998Y1440669D01*
Y1450826D01*
X506233Y1438130D02*
Y1448287D01*
X508772D01*
X511311Y1445747D01*
Y1438130D01*
Y1445747D01*
X513851Y1448287D01*
X516390Y1445747D01*
Y1438130D01*
X521468D02*
Y1448287D01*
X524007D01*
X526547Y1445747D01*
Y1438130D01*
Y1445747D01*
X529086Y1448287D01*
X531625Y1445747D01*
Y1438130D01*
X557017D02*
X551938Y1443208D01*
Y1448287D01*
X557017Y1453365D01*
X564634D02*
X574791D01*
Y1450826D01*
X564634Y1440669D01*
Y1438130D01*
X579869Y1450826D02*
X582408Y1453365D01*
X587487D01*
X590026Y1450826D01*
Y1448287D01*
X587487Y1445747D01*
X590026Y1443208D01*
Y1440669D01*
X587487Y1438130D01*
X582408D01*
X579869Y1440669D01*
Y1443208D01*
X582408Y1445747D01*
X579869Y1448287D01*
Y1450826D01*
X582408Y1445747D02*
X587487D01*
X595104Y1438130D02*
Y1440669D01*
X597644D01*
Y1438130D01*
X595104D01*
X607800Y1453365D02*
X617957D01*
Y1450826D01*
X607800Y1440669D01*
Y1438130D01*
X630653D02*
Y1453365D01*
X623035Y1445747D01*
X633192D01*
X638270Y1438130D02*
Y1448287D01*
X640810D01*
X643349Y1445747D01*
Y1438130D01*
Y1445747D01*
X645888Y1448287D01*
X648427Y1445747D01*
Y1438130D01*
X653505D02*
X658584D01*
X656045D01*
Y1448287D01*
X653505D01*
X666201Y1438130D02*
X671280D01*
X668740D01*
Y1453365D01*
X666201D01*
X678897Y1438130D02*
X683976Y1443208D01*
Y1448287D01*
X678897Y1453365D01*
X432597Y1400030D02*
X437675D01*
X435136D01*
Y1415265D01*
X432597Y1412726D01*
X445293Y1400030D02*
Y1402569D01*
X447832D01*
Y1400030D01*
X445293D01*
X457989Y1412726D02*
X460528Y1415265D01*
X465606D01*
X468145Y1412726D01*
Y1402569D01*
X465606Y1400030D01*
X460528D01*
X457989Y1402569D01*
Y1412726D01*
X473224Y1400030D02*
X478302D01*
X475763D01*
Y1415265D01*
X473224Y1412726D01*
X496076Y1415265D02*
X490998Y1412726D01*
X485920Y1407647D01*
Y1402569D01*
X488459Y1400030D01*
X493537D01*
X496076Y1402569D01*
Y1405108D01*
X493537Y1407647D01*
X485920D01*
X501155Y1400030D02*
Y1410187D01*
X503694D01*
X506233Y1407647D01*
Y1400030D01*
Y1407647D01*
X508772Y1410187D01*
X511311Y1407647D01*
Y1400030D01*
X516390D02*
Y1410187D01*
X518929D01*
X521468Y1407647D01*
Y1400030D01*
Y1407647D01*
X524007Y1410187D01*
X526547Y1407647D01*
Y1400030D01*
X551938D02*
X546860Y1405108D01*
Y1410187D01*
X551938Y1415265D01*
X567173Y1400030D02*
Y1415265D01*
X559556Y1407647D01*
X569713D01*
X574791Y1412726D02*
X577330Y1415265D01*
X582408D01*
X584948Y1412726D01*
Y1402569D01*
X582408Y1400030D01*
X577330D01*
X574791Y1402569D01*
Y1412726D01*
X590026Y1400030D02*
Y1402569D01*
X592565D01*
Y1400030D01*
X590026D01*
X602722Y1412726D02*
X605261Y1415265D01*
X610339D01*
X612879Y1412726D01*
Y1402569D01*
X610339Y1400030D01*
X605261D01*
X602722Y1402569D01*
Y1412726D01*
X617957D02*
X620496Y1415265D01*
X625574D01*
X628114Y1412726D01*
Y1402569D01*
X625574Y1400030D01*
X620496D01*
X617957Y1402569D01*
Y1412726D01*
X633192Y1400030D02*
Y1410187D01*
X635731D01*
X638270Y1407647D01*
Y1400030D01*
Y1407647D01*
X640810Y1410187D01*
X643349Y1407647D01*
Y1400030D01*
X648427D02*
X653505D01*
X650966D01*
Y1410187D01*
X648427D01*
X661123Y1400030D02*
X666201D01*
X663662D01*
Y1415265D01*
X661123D01*
X673819Y1400030D02*
X678897Y1405108D01*
Y1410187D01*
X673819Y1415265D01*
X442754Y1361930D02*
X432597D01*
X442754Y1372087D01*
Y1374626D01*
X440215Y1377165D01*
X435136D01*
X432597Y1374626D01*
X447832Y1361930D02*
Y1364469D01*
X450371D01*
Y1361930D01*
X447832D01*
X470685Y1377165D02*
X465606Y1374626D01*
X460528Y1369547D01*
Y1364469D01*
X463067Y1361930D01*
X468145D01*
X470685Y1364469D01*
Y1367008D01*
X468145Y1369547D01*
X460528D01*
X475763Y1374626D02*
X478302Y1377165D01*
X483381D01*
X485920Y1374626D01*
Y1364469D01*
X483381Y1361930D01*
X478302D01*
X475763Y1364469D01*
Y1374626D01*
X490998D02*
X493537Y1377165D01*
X498616D01*
X501155Y1374626D01*
Y1364469D01*
X498616Y1361930D01*
X493537D01*
X490998Y1364469D01*
Y1374626D01*
X506233Y1361930D02*
Y1372087D01*
X508772D01*
X511311Y1369547D01*
Y1361930D01*
Y1369547D01*
X513851Y1372087D01*
X516390Y1369547D01*
Y1361930D01*
X521468D02*
Y1372087D01*
X524007D01*
X526547Y1369547D01*
Y1361930D01*
Y1369547D01*
X529086Y1372087D01*
X531625Y1369547D01*
Y1361930D01*
X557017D02*
X551938Y1367008D01*
Y1372087D01*
X557017Y1377165D01*
X564634Y1361930D02*
X569713D01*
X567173D01*
Y1377165D01*
X564634Y1374626D01*
X577330D02*
X579869Y1377165D01*
X584948D01*
X587487Y1374626D01*
Y1364469D01*
X584948Y1361930D01*
X579869D01*
X577330Y1364469D01*
Y1374626D01*
X602722Y1361930D02*
X592565D01*
X602722Y1372087D01*
Y1374626D01*
X600183Y1377165D01*
X595104D01*
X592565Y1374626D01*
X607800Y1361930D02*
Y1364469D01*
X610339D01*
Y1361930D01*
X607800D01*
X620496Y1374626D02*
X623035Y1377165D01*
X628114D01*
X630653Y1374626D01*
Y1372087D01*
X628114Y1369547D01*
X625574D01*
X628114D01*
X630653Y1367008D01*
Y1364469D01*
X628114Y1361930D01*
X623035D01*
X620496Y1364469D01*
X645888Y1377165D02*
X640810Y1374626D01*
X635731Y1369547D01*
Y1364469D01*
X638270Y1361930D01*
X643349D01*
X645888Y1364469D01*
Y1367008D01*
X643349Y1369547D01*
X635731D01*
X650966Y1361930D02*
Y1372087D01*
X653505D01*
X656045Y1369547D01*
Y1361930D01*
Y1369547D01*
X658584Y1372087D01*
X661123Y1369547D01*
Y1361930D01*
X666201D02*
X671280D01*
X668740D01*
Y1372087D01*
X666201D01*
X678897Y1361930D02*
X683976D01*
X681436D01*
Y1377165D01*
X678897D01*
X691593Y1361930D02*
X696672Y1367008D01*
Y1372087D01*
X691593Y1377165D01*
X432597Y1336526D02*
X435136Y1339065D01*
X440215D01*
X442754Y1336526D01*
Y1333987D01*
X440215Y1331447D01*
X437675D01*
X440215D01*
X442754Y1328908D01*
Y1326369D01*
X440215Y1323830D01*
X435136D01*
X432597Y1326369D01*
X447832Y1323830D02*
Y1326369D01*
X450371D01*
Y1323830D01*
X447832D01*
X460528Y1336526D02*
X463067Y1339065D01*
X468145D01*
X470685Y1336526D01*
Y1326369D01*
X468145Y1323830D01*
X463067D01*
X460528Y1326369D01*
Y1336526D01*
X475763D02*
X478302Y1339065D01*
X483381D01*
X485920Y1336526D01*
Y1326369D01*
X483381Y1323830D01*
X478302D01*
X475763Y1326369D01*
Y1336526D01*
X490998D02*
X493537Y1339065D01*
X498616D01*
X501155Y1336526D01*
Y1326369D01*
X498616Y1323830D01*
X493537D01*
X490998Y1326369D01*
Y1336526D01*
X506233Y1323830D02*
Y1333987D01*
X508772D01*
X511311Y1331447D01*
Y1323830D01*
Y1331447D01*
X513851Y1333987D01*
X516390Y1331447D01*
Y1323830D01*
X521468D02*
Y1333987D01*
X524007D01*
X526547Y1331447D01*
Y1323830D01*
Y1331447D01*
X529086Y1333987D01*
X531625Y1331447D01*
Y1323830D01*
X557017D02*
X551938Y1328908D01*
Y1333987D01*
X557017Y1339065D01*
X564634Y1323830D02*
X569713D01*
X567173D01*
Y1339065D01*
X564634Y1336526D01*
X577330Y1323830D02*
X582408D01*
X579869D01*
Y1339065D01*
X577330Y1336526D01*
X590026D02*
X592565Y1339065D01*
X597644D01*
X600183Y1336526D01*
Y1333987D01*
X597644Y1331447D01*
X600183Y1328908D01*
Y1326369D01*
X597644Y1323830D01*
X592565D01*
X590026Y1326369D01*
Y1328908D01*
X592565Y1331447D01*
X590026Y1333987D01*
Y1336526D01*
X592565Y1331447D02*
X597644D01*
X605261Y1323830D02*
Y1326369D01*
X607800D01*
Y1323830D01*
X605261D01*
X617957D02*
X623035D01*
X620496D01*
Y1339065D01*
X617957Y1336526D01*
X630653Y1323830D02*
X635731D01*
X633192D01*
Y1339065D01*
X630653Y1336526D01*
X643349Y1323830D02*
Y1333987D01*
X645888D01*
X648427Y1331447D01*
Y1323830D01*
Y1331447D01*
X650966Y1333987D01*
X653505Y1331447D01*
Y1323830D01*
X658584D02*
X663662D01*
X661123D01*
Y1333987D01*
X658584D01*
X671280Y1323830D02*
X676358D01*
X673819D01*
Y1339065D01*
X671280D01*
X683976Y1323830D02*
X689054Y1328908D01*
Y1333987D01*
X683976Y1339065D01*
X432597Y1298426D02*
X435136Y1300965D01*
X440215D01*
X442754Y1298426D01*
Y1288269D01*
X440215Y1285730D01*
X435136D01*
X432597Y1288269D01*
Y1298426D01*
X447832Y1285730D02*
Y1288269D01*
X450371D01*
Y1285730D01*
X447832D01*
X460528Y1298426D02*
X463067Y1300965D01*
X468145D01*
X470685Y1298426D01*
Y1295887D01*
X468145Y1293347D01*
X470685Y1290808D01*
Y1288269D01*
X468145Y1285730D01*
X463067D01*
X460528Y1288269D01*
Y1290808D01*
X463067Y1293347D01*
X460528Y1295887D01*
Y1298426D01*
X463067Y1293347D02*
X468145D01*
X475763Y1298426D02*
X478302Y1300965D01*
X483381D01*
X485920Y1298426D01*
Y1288269D01*
X483381Y1285730D01*
X478302D01*
X475763Y1288269D01*
Y1298426D01*
X490998D02*
X493537Y1300965D01*
X498616D01*
X501155Y1298426D01*
Y1288269D01*
X498616Y1285730D01*
X493537D01*
X490998Y1288269D01*
Y1298426D01*
X506233Y1285730D02*
Y1295887D01*
X508772D01*
X511311Y1293347D01*
Y1285730D01*
Y1293347D01*
X513851Y1295887D01*
X516390Y1293347D01*
Y1285730D01*
X521468D02*
Y1295887D01*
X524007D01*
X526547Y1293347D01*
Y1285730D01*
Y1293347D01*
X529086Y1295887D01*
X531625Y1293347D01*
Y1285730D01*
X557017D02*
X551938Y1290808D01*
Y1295887D01*
X557017Y1300965D01*
X564634Y1298426D02*
X567173Y1300965D01*
X572252D01*
X574791Y1298426D01*
Y1295887D01*
X572252Y1293347D01*
X569713D01*
X572252D01*
X574791Y1290808D01*
Y1288269D01*
X572252Y1285730D01*
X567173D01*
X564634Y1288269D01*
X579869Y1285730D02*
X584948D01*
X582408D01*
Y1300965D01*
X579869Y1298426D01*
X592565Y1285730D02*
Y1288269D01*
X595104D01*
Y1285730D01*
X592565D01*
X615418Y1300965D02*
X605261D01*
Y1293347D01*
X610339Y1295887D01*
X612879D01*
X615418Y1293347D01*
Y1288269D01*
X612879Y1285730D01*
X607800D01*
X605261Y1288269D01*
X620496Y1298426D02*
X623035Y1300965D01*
X628114D01*
X630653Y1298426D01*
Y1288269D01*
X628114Y1285730D01*
X623035D01*
X620496Y1288269D01*
Y1298426D01*
X635731Y1285730D02*
Y1295887D01*
X638270D01*
X640810Y1293347D01*
Y1285730D01*
Y1293347D01*
X643349Y1295887D01*
X645888Y1293347D01*
Y1285730D01*
X650966D02*
X656045D01*
X653505D01*
Y1295887D01*
X650966D01*
X663662Y1285730D02*
X668740D01*
X666201D01*
Y1300965D01*
X663662D01*
X676358Y1285730D02*
X681436Y1290808D01*
Y1295887D01*
X676358Y1300965D01*
X432597Y1247630D02*
X437675D01*
X435136D01*
Y1262865D01*
X432597Y1260326D01*
X445293Y1247630D02*
Y1250169D01*
X447832D01*
Y1247630D01*
X445293D01*
X457989Y1260326D02*
X460528Y1262865D01*
X465606D01*
X468145Y1260326D01*
Y1250169D01*
X465606Y1247630D01*
X460528D01*
X457989Y1250169D01*
Y1260326D01*
X473224D02*
X475763Y1262865D01*
X480841D01*
X483381Y1260326D01*
Y1250169D01*
X480841Y1247630D01*
X475763D01*
X473224Y1250169D01*
Y1260326D01*
X488459D02*
X490998Y1262865D01*
X496076D01*
X498616Y1260326D01*
Y1250169D01*
X496076Y1247630D01*
X490998D01*
X488459Y1250169D01*
Y1260326D01*
X503694Y1247630D02*
Y1257787D01*
X506233D01*
X508772Y1255247D01*
Y1247630D01*
Y1255247D01*
X511311Y1257787D01*
X513851Y1255247D01*
Y1247630D01*
X518929D02*
Y1257787D01*
X521468D01*
X524007Y1255247D01*
Y1247630D01*
Y1255247D01*
X526547Y1257787D01*
X529086Y1255247D01*
Y1247630D01*
X554478D02*
X549399Y1252708D01*
Y1257787D01*
X554478Y1262865D01*
X562095Y1260326D02*
X564634Y1262865D01*
X569713D01*
X572252Y1260326D01*
Y1257787D01*
X569713Y1255247D01*
X567173D01*
X569713D01*
X572252Y1252708D01*
Y1250169D01*
X569713Y1247630D01*
X564634D01*
X562095Y1250169D01*
X577330D02*
X579869Y1247630D01*
X584948D01*
X587487Y1250169D01*
Y1260326D01*
X584948Y1262865D01*
X579869D01*
X577330Y1260326D01*
Y1257787D01*
X579869Y1255247D01*
X587487D01*
X592565Y1247630D02*
Y1250169D01*
X595104D01*
Y1247630D01*
X592565D01*
X605261Y1260326D02*
X607800Y1262865D01*
X612879D01*
X615418Y1260326D01*
Y1257787D01*
X612879Y1255247D01*
X610339D01*
X612879D01*
X615418Y1252708D01*
Y1250169D01*
X612879Y1247630D01*
X607800D01*
X605261Y1250169D01*
X620496Y1262865D02*
X630653D01*
Y1260326D01*
X620496Y1250169D01*
Y1247630D01*
X635731D02*
Y1257787D01*
X638270D01*
X640810Y1255247D01*
Y1247630D01*
Y1255247D01*
X643349Y1257787D01*
X645888Y1255247D01*
Y1247630D01*
X650966D02*
X656045D01*
X653505D01*
Y1257787D01*
X650966D01*
X663662Y1247630D02*
X668740D01*
X666201D01*
Y1262865D01*
X663662D01*
X676358Y1247630D02*
X681436Y1252708D01*
Y1257787D01*
X676358Y1262865D01*
X432597Y1222226D02*
X435136Y1224765D01*
X440215D01*
X442754Y1222226D01*
Y1212069D01*
X440215Y1209530D01*
X435136D01*
X432597Y1212069D01*
Y1222226D01*
X447832Y1209530D02*
Y1212069D01*
X450371D01*
Y1209530D01*
X447832D01*
X460528Y1222226D02*
X463067Y1224765D01*
X468145D01*
X470685Y1222226D01*
Y1219687D01*
X468145Y1217147D01*
X465606D01*
X468145D01*
X470685Y1214608D01*
Y1212069D01*
X468145Y1209530D01*
X463067D01*
X460528Y1212069D01*
X475763Y1222226D02*
X478302Y1224765D01*
X483381D01*
X485920Y1222226D01*
Y1212069D01*
X483381Y1209530D01*
X478302D01*
X475763Y1212069D01*
Y1222226D01*
X490998D02*
X493537Y1224765D01*
X498616D01*
X501155Y1222226D01*
Y1212069D01*
X498616Y1209530D01*
X493537D01*
X490998Y1212069D01*
Y1222226D01*
X506233Y1209530D02*
Y1219687D01*
X508772D01*
X511311Y1217147D01*
Y1209530D01*
Y1217147D01*
X513851Y1219687D01*
X516390Y1217147D01*
Y1209530D01*
X521468D02*
Y1219687D01*
X524007D01*
X526547Y1217147D01*
Y1209530D01*
Y1217147D01*
X529086Y1219687D01*
X531625Y1217147D01*
Y1209530D01*
X557017D02*
X551938Y1214608D01*
Y1219687D01*
X557017Y1224765D01*
X564634Y1209530D02*
X569713D01*
X567173D01*
Y1224765D01*
X564634Y1222226D01*
X577330Y1209530D02*
X582408D01*
X579869D01*
Y1224765D01*
X577330Y1222226D01*
X590026Y1209530D02*
Y1212069D01*
X592565D01*
Y1209530D01*
X590026D01*
X602722Y1222226D02*
X605261Y1224765D01*
X610339D01*
X612879Y1222226D01*
Y1219687D01*
X610339Y1217147D01*
X612879Y1214608D01*
Y1212069D01*
X610339Y1209530D01*
X605261D01*
X602722Y1212069D01*
Y1214608D01*
X605261Y1217147D01*
X602722Y1219687D01*
Y1222226D01*
X605261Y1217147D02*
X610339D01*
X617957Y1209530D02*
X623035D01*
X620496D01*
Y1224765D01*
X617957Y1222226D01*
X630653Y1209530D02*
Y1219687D01*
X633192D01*
X635731Y1217147D01*
Y1209530D01*
Y1217147D01*
X638270Y1219687D01*
X640810Y1217147D01*
Y1209530D01*
X645888D02*
X650966D01*
X648427D01*
Y1219687D01*
X645888D01*
X658584Y1209530D02*
X663662D01*
X661123D01*
Y1224765D01*
X658584D01*
X671280Y1209530D02*
X676358Y1214608D01*
Y1219687D01*
X671280Y1224765D01*
X255352Y1171430D02*
X260431D01*
X257892D01*
Y1186665D01*
X255352Y1184126D01*
X278205Y1186665D02*
X273127Y1184126D01*
X268048Y1179047D01*
Y1173969D01*
X270587Y1171430D01*
X275666D01*
X278205Y1173969D01*
Y1176508D01*
X275666Y1179047D01*
X268048D01*
X283283Y1173969D02*
X285822Y1171430D01*
X290901D01*
X293440Y1173969D01*
Y1184126D01*
X290901Y1186665D01*
X285822D01*
X283283Y1184126D01*
Y1181587D01*
X285822Y1179047D01*
X293440D01*
X313753Y1186665D02*
X323910D01*
X318832D01*
Y1171430D01*
X331528D02*
X336606D01*
X339145Y1173969D01*
Y1179047D01*
X336606Y1181587D01*
X331528D01*
X328988Y1179047D01*
Y1173969D01*
X331528Y1171430D01*
X346763Y1184126D02*
Y1181587D01*
X344224D01*
X349302D01*
X346763D01*
Y1173969D01*
X349302Y1171430D01*
X359459Y1181587D02*
X364537D01*
X367076Y1179047D01*
Y1171430D01*
X359459D01*
X356919Y1173969D01*
X359459Y1176508D01*
X367076D01*
X372155Y1171430D02*
X377233D01*
X374694D01*
Y1186665D01*
X372155D01*
X255352Y1476230D02*
X260431D01*
X257892D01*
Y1491465D01*
X255352Y1488926D01*
Y1450826D02*
X257892Y1453365D01*
X262970D01*
X265509Y1450826D01*
Y1448287D01*
X262970Y1445747D01*
X260431D01*
X262970D01*
X265509Y1443208D01*
Y1440669D01*
X262970Y1438130D01*
X257892D01*
X255352Y1440669D01*
X262970Y1400030D02*
Y1415265D01*
X255352Y1407647D01*
X265509D01*
X262970Y1361930D02*
Y1377165D01*
X255352Y1369547D01*
X265509D01*
Y1339065D02*
X255352D01*
Y1331447D01*
X260431Y1333987D01*
X262970D01*
X265509Y1331447D01*
Y1326369D01*
X262970Y1323830D01*
X257892D01*
X255352Y1326369D01*
Y1285730D02*
X260431D01*
X257892D01*
Y1300965D01*
X255352Y1298426D01*
X278205Y1285730D02*
X268048D01*
X278205Y1295887D01*
Y1298426D01*
X275666Y1300965D01*
X270587D01*
X268048Y1298426D01*
X255352Y1260326D02*
X257892Y1262865D01*
X262970D01*
X265509Y1260326D01*
Y1257787D01*
X262970Y1255247D01*
X260431D01*
X262970D01*
X265509Y1252708D01*
Y1250169D01*
X262970Y1247630D01*
X257892D01*
X255352Y1250169D01*
X280744Y1262865D02*
X275666Y1260326D01*
X270587Y1255247D01*
Y1250169D01*
X273127Y1247630D01*
X278205D01*
X280744Y1250169D01*
Y1252708D01*
X278205Y1255247D01*
X270587D01*
X255352Y1209530D02*
X260431D01*
X257892D01*
Y1224765D01*
X255352Y1222226D01*
X268048D02*
X270587Y1224765D01*
X275666D01*
X278205Y1222226D01*
Y1212069D01*
X275666Y1209530D01*
X270587D01*
X268048Y1212069D01*
Y1222226D01*
X290901Y1209530D02*
Y1224765D01*
X283283Y1217147D01*
X293440D01*
D15*
X585622Y473186D02*
G03*
X585622Y473186I-762J0D01*
G01*
X578866Y479536D02*
X609854D01*
X578866Y448548D02*
Y479536D01*
Y448548D02*
X609854D01*
Y479536D01*
X578866Y474456D02*
X583946Y479536D01*
D16*
X1045000Y805000D02*
X1090000D01*
X965000Y885000D02*
X1045000Y805000D01*
X965000Y885000D02*
Y1030000D01*
X1090000Y360000D02*
Y520000D01*
X980000Y250000D02*
X1090000Y360000D01*
X965000Y250000D02*
X980000D01*
X1130000Y725000D02*
Y765000D01*
X1115000Y710000D02*
X1130000Y725000D01*
Y560000D02*
Y605000D01*
X1115000Y620000D02*
X1130000Y605000D01*
X1115000Y620000D02*
Y710000D01*
X1090000Y520000D02*
X1130000Y560000D01*
X120000Y250000D02*
X965000D01*
X1090000Y805000D02*
X1130000Y765000D01*
X120000Y1030000D02*
X965000D01*
X120000Y250000D02*
Y1030000D01*
D110*
X134004Y1292080D02*
G03*
X134004Y1292080I-6350J0D01*
G01*
X838233Y519000D02*
G03*
X838233Y519000I-4233J0D01*
G01*
Y539000D02*
G03*
X838233Y539000I-4233J0D01*
G01*
Y559000D02*
G03*
X838233Y559000I-4233J0D01*
G01*
Y579000D02*
G03*
X838233Y579000I-4233J0D01*
G01*
Y634000D02*
G03*
X838233Y634000I-4233J0D01*
G01*
Y654000D02*
G03*
X838233Y654000I-4233J0D01*
G01*
Y674000D02*
G03*
X838233Y674000I-4233J0D01*
G01*
Y694000D02*
G03*
X838233Y694000I-4233J0D01*
G01*
X838233Y808000D02*
G03*
X838233Y808000I-4233J0D01*
G01*
Y788000D02*
G03*
X838233Y788000I-4233J0D01*
G01*
Y768000D02*
G03*
X838233Y768000I-4233J0D01*
G01*
Y748000D02*
G03*
X838233Y748000I-4233J0D01*
G01*
X121304Y1476230D02*
Y1479405D01*
X124479Y1482580D01*
X121304Y1485755D02*
X124479Y1482580D01*
X121304Y1485755D02*
Y1488930D01*
X124479D01*
X127654Y1485755D01*
X130829Y1488930D01*
X134004D01*
Y1485755D02*
Y1488930D01*
X130829Y1482580D02*
X134004Y1485755D01*
X130829Y1482580D02*
X134004Y1479405D01*
Y1476230D02*
Y1479405D01*
X130829Y1476230D02*
X134004D01*
X127654Y1479405D02*
X130829Y1476230D01*
X124479D02*
X127654Y1479405D01*
X121304Y1476230D02*
X124479D01*
X127654Y1438130D02*
X134004Y1450830D01*
X121304D02*
X134004D01*
X121304D02*
X127654Y1438130D01*
X123844Y1402570D02*
X131464D01*
Y1410190D01*
X123844D02*
X131464D01*
X123844Y1402570D02*
Y1410190D01*
X121304Y1400030D02*
X134004D01*
Y1412730D01*
X121304D02*
X134004D01*
X121304Y1400030D02*
Y1412730D01*
Y1361930D02*
X127654Y1365105D01*
X134004Y1361930D01*
X130829Y1368280D02*
X134004Y1361930D01*
X130829Y1368280D02*
X134004Y1374630D01*
X127654Y1371455D02*
X134004Y1374630D01*
X121304D02*
X127654Y1371455D01*
X121304Y1374630D02*
X124479Y1368280D01*
X121304Y1361930D02*
X124479Y1368280D01*
X121304Y1327005D02*
X124479D01*
X121304D02*
Y1333355D01*
X124479D01*
Y1336530D01*
X130829D01*
Y1333355D02*
Y1336530D01*
Y1333355D02*
X134004D01*
Y1327005D02*
Y1333355D01*
X130829Y1327005D02*
X134004D01*
X130829Y1323830D02*
Y1327005D01*
X124479Y1323830D02*
X130829D01*
X124479D02*
Y1327005D01*
X121304Y1253980D02*
X127654Y1247630D01*
X134004Y1253980D01*
X127654Y1260330D02*
X134004Y1253980D01*
X121304D02*
X127654Y1260330D01*
X121304Y1209530D02*
X134004D01*
Y1222230D01*
X121304D02*
X134004D01*
X121304Y1209530D02*
Y1222230D01*
X513267Y809267D02*
X521733D01*
Y817733D01*
X513267D02*
X521733D01*
X513267Y809267D02*
Y817733D01*
X494267Y791267D02*
X502733D01*
Y799733D01*
X494267D02*
X502733D01*
X494267Y791267D02*
Y799733D01*
X457267Y791267D02*
X465733D01*
Y799733D01*
X457267D02*
X465733D01*
X457267Y791267D02*
Y799733D01*
X409767Y795767D02*
X418233D01*
Y804233D01*
X409767D02*
X418233D01*
X409767Y795767D02*
Y804233D01*
X359767Y435767D02*
X368233D01*
Y444233D01*
X359767D02*
X368233D01*
X359767Y435767D02*
Y444233D01*
X360267Y426267D02*
X368733D01*
Y434733D01*
X360267D02*
X368733D01*
X360267Y426267D02*
Y434733D01*
X359767Y443767D02*
X368233D01*
Y452233D01*
X359767D02*
X368233D01*
X359767Y443767D02*
Y452233D01*
X559766Y636266D02*
X568232D01*
Y644732D01*
X559766D02*
X568232D01*
X559766Y636266D02*
Y644732D01*
X560070Y659208D02*
X568537D01*
Y667675D01*
X560070D02*
X568537D01*
X560070Y659208D02*
Y667675D01*
X560767Y628767D02*
X569233D01*
Y637233D01*
X560767D02*
X569233D01*
X560767Y628767D02*
Y637233D01*
X515767Y715767D02*
X524233D01*
Y724233D01*
X515767D02*
X524233D01*
X515767Y715767D02*
Y724233D01*
X525767Y710767D02*
X534233D01*
Y719233D01*
X525767D02*
X534233D01*
X525767Y710767D02*
Y719233D01*
X546702Y636267D02*
X555168D01*
Y644733D01*
X546702D02*
X555168D01*
X546702Y636267D02*
Y644733D01*
X571537Y644517D02*
X580003D01*
Y652983D01*
X571537D02*
X580003D01*
X571537Y644517D02*
Y652983D01*
X571517Y636017D02*
X579983D01*
Y644483D01*
X571517D02*
X579983D01*
X571517Y636017D02*
Y644483D01*
X563017Y674767D02*
X571483D01*
Y683233D01*
X563017D02*
X571483D01*
X563017Y674767D02*
Y683233D01*
X569517Y681267D02*
X577983D01*
Y689733D01*
X569517D02*
X577983D01*
X569517Y681267D02*
Y689733D01*
X561517Y773767D02*
X569983D01*
Y782233D01*
X561517D02*
X569983D01*
X561517Y773767D02*
Y782233D01*
X551517Y773767D02*
X559983D01*
Y782233D01*
X551517D02*
X559983D01*
X551517Y773767D02*
Y782233D01*
X554767Y599517D02*
X563233D01*
Y607983D01*
X554767D02*
X563233D01*
X554767Y599517D02*
Y607983D01*
X546767Y590017D02*
X555233D01*
Y598483D01*
X546767D02*
X555233D01*
X546767Y590017D02*
Y598483D01*
X539517Y579267D02*
X547983D01*
Y587733D01*
X539517D02*
X547983D01*
X539517Y579267D02*
Y587733D01*
X541017Y598767D02*
X549483D01*
Y607233D01*
X541017D02*
X549483D01*
X541017Y598767D02*
Y607233D01*
X446517Y767767D02*
X454983D01*
Y776233D01*
X446517D02*
X454983D01*
X446517Y767767D02*
Y776233D01*
X400517Y719767D02*
X408983D01*
Y728233D01*
X400517D02*
X408983D01*
X400517Y719767D02*
Y728233D01*
X631197Y430267D02*
X639663D01*
Y438733D01*
X631197D02*
X639663D01*
X631197Y430267D02*
Y438733D01*
X655127Y430286D02*
X663593D01*
Y438753D01*
X655127D02*
X663593D01*
X655127Y430286D02*
Y438753D01*
X620127Y485286D02*
X628593D01*
Y493753D01*
X620127D02*
X628593D01*
X620127Y485286D02*
Y493753D01*
X635127Y485286D02*
X643593D01*
Y493753D01*
X635127D02*
X643593D01*
X635127Y485286D02*
Y493753D01*
X650127Y485286D02*
X658593D01*
Y493753D01*
X650127D02*
X658593D01*
X650127Y485286D02*
Y493753D01*
X590127Y460286D02*
X598593D01*
Y468753D01*
X590127D02*
X598593D01*
X590127Y460286D02*
Y468753D01*
X390127Y319286D02*
X398593D01*
Y327753D01*
X390127D02*
X398593D01*
X390127Y319286D02*
Y327753D01*
X460127Y325286D02*
X468593D01*
Y333753D01*
X460127D02*
X468593D01*
X460127Y325286D02*
Y333753D01*
X507127Y312286D02*
X515593D01*
Y320753D01*
X507127D02*
X515593D01*
X507127Y312286D02*
Y320753D01*
X575877Y323537D02*
X584343D01*
Y332003D01*
X575877D02*
X584343D01*
X575877Y323537D02*
Y332003D01*
X438127Y348287D02*
X446593D01*
Y356753D01*
X438127D02*
X446593D01*
X438127Y348287D02*
Y356753D01*
X534127Y348287D02*
X542593D01*
Y356753D01*
X534127D02*
X542593D01*
X534127Y348287D02*
Y356753D01*
X601017Y718517D02*
X609483D01*
Y726983D01*
X601017D02*
X609483D01*
X601017Y718517D02*
Y726983D01*
X650767Y733767D02*
X659233D01*
Y742233D01*
X650767D02*
X659233D01*
X650767Y733767D02*
Y742233D01*
X748617Y555867D02*
X757083D01*
Y564333D01*
X748617D02*
X757083D01*
X748617Y555867D02*
Y564333D01*
X749517Y543767D02*
X757983D01*
Y552233D01*
X749517D02*
X757983D01*
X749517Y543767D02*
Y552233D01*
X749767Y663017D02*
X758233D01*
Y671483D01*
X749767D02*
X758233D01*
X749767Y663017D02*
Y671483D01*
X748867Y675117D02*
X757333D01*
Y683583D01*
X748867D02*
X757333D01*
X748867Y675117D02*
Y683583D01*
X662517Y530467D02*
X670983D01*
Y538933D01*
X662517D02*
X670983D01*
X662517Y530467D02*
Y538933D01*
X400517Y699767D02*
X408983D01*
Y708233D01*
X400517D02*
X408983D01*
X400517Y699767D02*
Y708233D01*
X398517Y609767D02*
X406983D01*
Y618233D01*
X398517D02*
X406983D01*
X398517Y609767D02*
Y618233D01*
X399337Y630767D02*
X407803D01*
Y639233D01*
X399337D02*
X407803D01*
X399337Y630767D02*
Y639233D01*
X590517Y579767D02*
X598983D01*
Y588233D01*
X590517D02*
X598983D01*
X590517Y579767D02*
Y588233D01*
X457517Y701767D02*
X465983D01*
Y710233D01*
X457517D02*
X465983D01*
X457517Y701767D02*
Y710233D01*
X483127Y366287D02*
X491593D01*
Y374753D01*
X483127D02*
X491593D01*
X483127Y366287D02*
Y374753D01*
X495127Y366287D02*
X503593D01*
Y374753D01*
X495127D02*
X503593D01*
X495127Y366287D02*
Y374753D01*
X482627Y354286D02*
X491093D01*
Y362753D01*
X482627D02*
X491093D01*
X482627Y354286D02*
Y362753D01*
X494627Y354286D02*
X503093D01*
Y362753D01*
X494627D02*
X503093D01*
X494627Y354286D02*
Y362753D01*
Y342786D02*
X503093D01*
Y351253D01*
X494627D02*
X503093D01*
X494627Y342786D02*
Y351253D01*
X482627Y342786D02*
X491093D01*
Y351253D01*
X482627D02*
X491093D01*
X482627Y342786D02*
Y351253D01*
X469517Y537767D02*
X477983D01*
Y546233D01*
X469517D02*
X477983D01*
X469517Y537767D02*
Y546233D01*
X493517Y537767D02*
X501983D01*
Y546233D01*
X493517D02*
X501983D01*
X493517Y537767D02*
Y546233D01*
X517517Y537767D02*
X525983D01*
Y546233D01*
X517517D02*
X525983D01*
X517517Y537767D02*
Y546233D01*
X542197Y537767D02*
X550663D01*
Y546233D01*
X542197D02*
X550663D01*
X542197Y537767D02*
Y546233D01*
X566316Y537767D02*
X574783D01*
Y546233D01*
X566316D02*
X574783D01*
X566316Y537767D02*
Y546233D01*
X445717Y537767D02*
X454183D01*
Y546233D01*
X445717D02*
X454183D01*
X445717Y537767D02*
Y546233D01*
X524017Y598267D02*
X532483D01*
Y606733D01*
X524017D02*
X532483D01*
X524017Y598267D02*
Y606733D01*
X485267Y667267D02*
X493733D01*
Y675733D01*
X485267D02*
X493733D01*
X485267Y667267D02*
Y675733D01*
X599017Y580267D02*
X607483D01*
Y588733D01*
X599017D02*
X607483D01*
X599017Y580267D02*
Y588733D01*
X635267Y600392D02*
X643733D01*
Y608858D01*
X635267D02*
X643733D01*
X635267Y600392D02*
Y608858D01*
X681767Y638517D02*
X690233D01*
Y646983D01*
X681767D02*
X690233D01*
X681767Y638517D02*
Y646983D01*
X681767Y697017D02*
X690233D01*
Y705483D01*
X681767D02*
X690233D01*
X681767Y697017D02*
Y705483D01*
X682017Y579517D02*
X690483D01*
Y587983D01*
X682017D02*
X690483D01*
X682017Y579517D02*
Y587983D01*
X665417Y662417D02*
X673883D01*
Y670883D01*
X665417D02*
X673883D01*
X665417Y662417D02*
Y670883D01*
X649267Y662417D02*
X657733D01*
Y670883D01*
X649267D02*
X657733D01*
X649267Y662417D02*
Y670883D01*
X635267Y646017D02*
X643733D01*
Y654483D01*
X635267D02*
X643733D01*
X635267Y646017D02*
Y654483D01*
X532267Y603767D02*
X540733D01*
Y612233D01*
X532267D02*
X540733D01*
X532267Y603767D02*
Y612233D01*
X518267Y604267D02*
X526733D01*
Y612733D01*
X518267D02*
X526733D01*
X518267Y604267D02*
Y612733D01*
X758767Y307517D02*
X767233D01*
Y315983D01*
X758767D02*
X767233D01*
X758767Y307517D02*
Y315983D01*
X531267Y489517D02*
X539733D01*
Y497983D01*
X531267D02*
X539733D01*
X531267Y489517D02*
Y497983D01*
X522767Y580017D02*
X531233D01*
Y588483D01*
X522767D02*
X531233D01*
X522767Y580017D02*
Y588483D01*
X506517Y487767D02*
X514983D01*
Y496233D01*
X506517D02*
X514983D01*
X506517Y487767D02*
Y496233D01*
X700017Y484267D02*
X708483D01*
Y492733D01*
X700017D02*
X708483D01*
X700017Y484267D02*
Y492733D01*
X426017Y501767D02*
X434483D01*
Y510233D01*
X426017D02*
X434483D01*
X426017Y501767D02*
Y510233D01*
X447267Y583267D02*
X455733D01*
Y591733D01*
X447267D02*
X455733D01*
X447267Y583267D02*
Y591733D01*
X470017Y583267D02*
X478483D01*
Y591733D01*
X470017D02*
X478483D01*
X470017Y583267D02*
Y591733D01*
X490267Y583267D02*
X498733D01*
Y591733D01*
X490267D02*
X498733D01*
X490267Y583267D02*
Y591733D01*
X741017Y276017D02*
X749483D01*
Y284483D01*
X741017D02*
X749483D01*
X741017Y276017D02*
Y284483D01*
X787267Y413267D02*
X795733D01*
Y421733D01*
X787267D02*
X795733D01*
X787267Y413267D02*
Y421733D01*
X744517Y800017D02*
X752983D01*
Y808483D01*
X744517D02*
X752983D01*
X744517Y800017D02*
Y808483D01*
X749517Y772517D02*
X757983D01*
Y780983D01*
X749517D02*
X757983D01*
X749517Y772517D02*
Y780983D01*
X381857Y732107D02*
X390323D01*
Y740573D01*
X381857D02*
X390323D01*
X381857Y732107D02*
Y740573D01*
X601767Y678767D02*
X610233D01*
Y687233D01*
X601767D02*
X610233D01*
X601767Y678767D02*
Y687233D01*
X659267Y688267D02*
X667733D01*
Y696733D01*
X659267D02*
X667733D01*
X659267Y688267D02*
Y696733D01*
X651017Y694267D02*
X659483D01*
Y702733D01*
X651017D02*
X659483D01*
X651017Y694267D02*
Y702733D01*
X485267Y646767D02*
X493733D01*
Y655233D01*
X485267D02*
X493733D01*
X485267Y646767D02*
Y655233D01*
X536017Y672767D02*
X544483D01*
Y681233D01*
X536017D02*
X544483D01*
X536017Y672767D02*
Y681233D01*
X515017Y672767D02*
X523483D01*
Y681233D01*
X515017D02*
X523483D01*
X515017Y672767D02*
Y681233D01*
X530767Y746767D02*
X539233D01*
Y755233D01*
X530767D02*
X539233D01*
X530767Y746767D02*
Y755233D01*
X664767Y464767D02*
X673233D01*
Y473233D01*
X664767D02*
X673233D01*
X664767Y464767D02*
Y473233D01*
X511517Y743767D02*
X519983D01*
Y752233D01*
X511517D02*
X519983D01*
X511517Y743767D02*
Y752233D01*
X477267Y726767D02*
X485733D01*
Y735233D01*
X477267D02*
X485733D01*
X477267Y726767D02*
Y735233D01*
X521267Y753767D02*
X529733D01*
Y762233D01*
X521267D02*
X529733D01*
X521267Y753767D02*
Y762233D01*
X713767Y759267D02*
X722233D01*
Y767733D01*
X713767D02*
X722233D01*
X713767Y759267D02*
Y767733D01*
X663267Y766267D02*
X671733D01*
Y774733D01*
X663267D02*
X671733D01*
X663267Y766267D02*
Y774733D01*
X485267Y655517D02*
X493733D01*
Y663983D01*
X485267D02*
X493733D01*
X485267Y655517D02*
Y663983D01*
X565266Y460267D02*
X573733D01*
Y468733D01*
X565266D02*
X573733D01*
X565266Y460267D02*
Y468733D01*
X669627Y445786D02*
X678093D01*
Y454253D01*
X669627D02*
X678093D01*
X669627Y445786D02*
Y454253D01*
X607267Y430267D02*
X615733D01*
Y438733D01*
X607267D02*
X615733D01*
X607267Y430267D02*
Y438733D01*
X643460Y275760D02*
X648540D01*
Y280840D01*
X643460D02*
X648540D01*
X643460Y275760D02*
Y280840D01*
X641766Y274067D02*
X650233D01*
Y282533D01*
X641766D02*
X650233D01*
X641766Y274067D02*
Y282533D01*
X643460Y301160D02*
X648540D01*
Y306240D01*
X643460D02*
X648540D01*
X643460Y301160D02*
Y306240D01*
X641766Y299467D02*
X650233D01*
Y307933D01*
X641766D02*
X650233D01*
X641766Y299467D02*
Y307933D01*
X947660Y426960D02*
X952740D01*
Y432040D01*
X947660D02*
X952740D01*
X947660Y426960D02*
Y432040D01*
X945966Y425267D02*
X954433D01*
Y433733D01*
X945966D02*
X954433D01*
X945966Y425267D02*
Y433733D01*
X922260Y426960D02*
X927340D01*
Y432040D01*
X922260D02*
X927340D01*
X922260Y426960D02*
Y432040D01*
X920566Y425267D02*
X929033D01*
Y433733D01*
X920566D02*
X929033D01*
X920566Y425267D02*
Y433733D01*
X307517Y701750D02*
X311750Y697517D01*
X315983Y701750D01*
X311750Y705983D02*
X315983Y701750D01*
X307517D02*
X311750Y705983D01*
X307517Y727150D02*
X311750Y722917D01*
X315983Y727150D01*
X311750Y731383D02*
X315983Y727150D01*
X307517D02*
X311750Y731383D01*
X307517Y511250D02*
X311750Y507017D01*
X315983Y511250D01*
X311750Y515483D02*
X315983Y511250D01*
X307517D02*
X311750Y515483D01*
X307517Y536650D02*
X311750Y532417D01*
X315983Y536650D01*
X311750Y540883D02*
X315983Y536650D01*
X307517D02*
X311750Y540883D01*
X307517Y625550D02*
X311750Y621317D01*
X315983Y625550D01*
X311750Y629783D02*
X315983Y625550D01*
X307517D02*
X311750Y629783D01*
X307517Y650950D02*
X311750Y646717D01*
X315983Y650950D01*
X311750Y655183D02*
X315983Y650950D01*
X307517D02*
X311750Y655183D01*
X307517Y676350D02*
X311750Y672117D01*
X315983Y676350D01*
X311750Y680583D02*
X315983Y676350D01*
X307517D02*
X311750Y680583D01*
X307517Y752550D02*
X311750Y748317D01*
X315983Y752550D01*
X311750Y756783D02*
X315983Y752550D01*
X307517D02*
X311750Y756783D01*
X307517Y600150D02*
X311750Y595917D01*
X315983Y600150D01*
X311750Y604383D02*
X315983Y600150D01*
X307517D02*
X311750Y604383D01*
X307517Y574750D02*
X311750Y570517D01*
X315983Y574750D01*
X311750Y578983D02*
X315983Y574750D01*
X307517D02*
X311750Y578983D01*
X341867Y871500D02*
X346100Y867267D01*
X350333Y871500D01*
X346100Y875733D02*
X350333Y871500D01*
X341867D02*
X346100Y875733D01*
X316467Y871500D02*
X320700Y867267D01*
X324933Y871500D01*
X320700Y875733D02*
X324933Y871500D01*
X316467D02*
X320700Y875733D01*
X649067Y959767D02*
Y961883D01*
X651183Y964000D01*
X649067Y966116D02*
X651183Y964000D01*
X649067Y966116D02*
Y968233D01*
X651183D01*
X653300Y966116D01*
X655416Y968233D01*
X657533D01*
Y966116D02*
Y968233D01*
X655416Y964000D02*
X657533Y966116D01*
X655416Y964000D02*
X657533Y961883D01*
Y959767D02*
Y961883D01*
X655416Y959767D02*
X657533D01*
X653300Y961883D02*
X655416Y959767D01*
X651183D02*
X653300Y961883D01*
X649067Y959767D02*
X651183D01*
X367267Y871500D02*
X371500Y867267D01*
X375733Y871500D01*
X371500Y875733D02*
X375733Y871500D01*
X367267D02*
X371500Y875733D01*
X392667Y871500D02*
X396900Y867267D01*
X401133Y871500D01*
X396900Y875733D02*
X401133Y871500D01*
X392667D02*
X396900Y875733D01*
X424067Y871500D02*
X428300Y867267D01*
X432533Y871500D01*
X428300Y875733D02*
X432533Y871500D01*
X424067D02*
X428300Y875733D01*
X449467Y871500D02*
X453700Y867267D01*
X457933Y871500D01*
X453700Y875733D02*
X457933Y871500D01*
X449467D02*
X453700Y875733D01*
X474867Y871500D02*
X479100Y867267D01*
X483333Y871500D01*
X479100Y875733D02*
X483333Y871500D01*
X474867D02*
X479100Y875733D01*
X500267Y871500D02*
X504500Y867267D01*
X508733Y871500D01*
X504500Y875733D02*
X508733Y871500D01*
X500267D02*
X504500Y875733D01*
X525667Y871500D02*
X529900Y867267D01*
X534133Y871500D01*
X529900Y875733D02*
X534133Y871500D01*
X525667D02*
X529900Y875733D01*
X551067Y871500D02*
X555300Y867267D01*
X559533Y871500D01*
X555300Y875733D02*
X559533Y871500D01*
X551067D02*
X555300Y875733D01*
X291067Y871500D02*
X295300Y867267D01*
X299533Y871500D01*
X295300Y875733D02*
X299533Y871500D01*
X291067D02*
X295300Y875733D01*
X265667Y871500D02*
X269900Y867267D01*
X274133Y871500D01*
X269900Y875733D02*
X274133Y871500D01*
X265667D02*
X269900Y875733D01*
X240267Y871500D02*
X244500Y867267D01*
X248733Y871500D01*
X244500Y875733D02*
X248733Y871500D01*
X240267D02*
X244500Y875733D01*
X214867Y871500D02*
X219100Y867267D01*
X223333Y871500D01*
X219100Y875733D02*
X223333Y871500D01*
X214867D02*
X219100Y875733D01*
X176767Y871500D02*
X181000Y867267D01*
X185233Y871500D01*
X181000Y875733D02*
X185233Y871500D01*
X176767D02*
X181000Y875733D01*
X151367Y871500D02*
X155600Y867267D01*
X159833Y871500D01*
X155600Y875733D02*
X159833Y871500D01*
X151367D02*
X155600Y875733D01*
X1055000Y620767D02*
X1059233Y629233D01*
X1050767D02*
X1059233D01*
X1050767D02*
X1055000Y620767D01*
Y710767D02*
X1059233Y719233D01*
X1050767D02*
X1059233D01*
X1050767D02*
X1055000Y710767D01*
X1010000Y345767D02*
X1014233Y354233D01*
X1005767D02*
X1014233D01*
X1005767D02*
X1010000Y345767D01*
X746017Y927767D02*
X750250Y929883D01*
X754483Y927767D01*
X752367Y932000D02*
X754483Y927767D01*
X752367Y932000D02*
X754483Y936233D01*
X750250Y934117D02*
X754483Y936233D01*
X746017D02*
X750250Y934117D01*
X746017Y936233D02*
X748133Y932000D01*
X746017Y927767D02*
X748133Y932000D01*
X778017Y1002000D02*
X782250Y997767D01*
X786483Y1002000D01*
X782250Y1006233D02*
X786483Y1002000D01*
X778017D02*
X782250Y1006233D01*
X828017Y1002000D02*
X832250Y997767D01*
X836483Y1002000D01*
X832250Y1006233D02*
X836483Y1002000D01*
X828017D02*
X832250Y1006233D01*
X778017Y857000D02*
X782250Y852767D01*
X786483Y857000D01*
X782250Y861233D02*
X786483Y857000D01*
X778017D02*
X782250Y861233D01*
X803017Y857000D02*
X807250Y852767D01*
X811483Y857000D01*
X807250Y861233D02*
X811483Y857000D01*
X803017D02*
X807250Y861233D01*
X828017Y857000D02*
X832250Y852767D01*
X836483Y857000D01*
X832250Y861233D02*
X836483Y857000D01*
X828017D02*
X832250Y861233D01*
X860017Y927767D02*
X864250Y929883D01*
X868483Y927767D01*
X866367Y932000D02*
X868483Y927767D01*
X866367Y932000D02*
X868483Y936233D01*
X864250Y934117D02*
X868483Y936233D01*
X860017D02*
X864250Y934117D01*
X860017Y936233D02*
X862133Y932000D01*
X860017Y927767D02*
X862133Y932000D01*
X746017Y396017D02*
X750250Y398133D01*
X754483Y396017D01*
X752367Y400250D02*
X754483Y396017D01*
X752367Y400250D02*
X754483Y404483D01*
X750250Y402367D02*
X754483Y404483D01*
X746017D02*
X750250Y402367D01*
X746017Y404483D02*
X748133Y400250D01*
X746017Y396017D02*
X748133Y400250D01*
X778017Y470250D02*
X782250Y466017D01*
X786483Y470250D01*
X782250Y474483D02*
X786483Y470250D01*
X778017D02*
X782250Y474483D01*
X828017Y470250D02*
X832250Y466017D01*
X836483Y470250D01*
X832250Y474483D02*
X836483Y470250D01*
X828017D02*
X832250Y474483D01*
X778017Y325250D02*
X782250Y321017D01*
X786483Y325250D01*
X782250Y329483D02*
X786483Y325250D01*
X778017D02*
X782250Y329483D01*
X803017Y325250D02*
X807250Y321017D01*
X811483Y325250D01*
X807250Y329483D02*
X811483Y325250D01*
X803017D02*
X807250Y329483D01*
X828017Y325250D02*
X832250Y321017D01*
X836483Y325250D01*
X832250Y329483D02*
X836483Y325250D01*
X828017D02*
X832250Y329483D01*
X860017Y396017D02*
X864250Y398133D01*
X868483Y396017D01*
X866367Y400250D02*
X868483Y396017D01*
X866367Y400250D02*
X868483Y404483D01*
X864250Y402367D02*
X868483Y404483D01*
X860017D02*
X864250Y402367D01*
X860017Y404483D02*
X862133Y400250D01*
X860017Y396017D02*
X862133Y400250D01*
X919767Y983883D02*
X921883D01*
X919767D02*
Y988117D01*
X921883D01*
Y990233D01*
X926116D01*
Y988117D02*
Y990233D01*
Y988117D02*
X928233D01*
Y983883D02*
Y988117D01*
X926116Y983883D02*
X928233D01*
X926116Y981767D02*
Y983883D01*
X921883Y981767D02*
X926116D01*
X921883D02*
Y983883D01*
X207767Y977883D02*
X209883D01*
X207767D02*
Y982117D01*
X209883D01*
Y984233D01*
X214117D01*
Y982117D02*
Y984233D01*
Y982117D02*
X216233D01*
Y977883D02*
Y982117D01*
X214117Y977883D02*
X216233D01*
X214117Y975767D02*
Y977883D01*
X209883Y975767D02*
X214117D01*
X209883D02*
Y977883D01*
X207767Y652383D02*
X209883D01*
X207767D02*
Y656617D01*
X209883D01*
Y658733D01*
X214117D01*
Y656617D02*
Y658733D01*
Y656617D02*
X216233D01*
Y652383D02*
Y656617D01*
X214117Y652383D02*
X216233D01*
X214117Y650267D02*
Y652383D01*
X209883Y650267D02*
X214117D01*
X209883D02*
Y652383D01*
X207767Y326883D02*
X209883D01*
X207767D02*
Y331117D01*
X209883D01*
Y333233D01*
X214117D01*
Y331117D02*
Y333233D01*
Y331117D02*
X216233D01*
Y326883D02*
Y331117D01*
X214117Y326883D02*
X216233D01*
X214117Y324767D02*
Y326883D01*
X209883Y324767D02*
X214117D01*
X209883D02*
Y326883D01*
X919767D02*
X921883D01*
X919767D02*
Y331117D01*
X921883D01*
Y333233D01*
X926117D01*
Y331117D02*
Y333233D01*
Y331117D02*
X928233D01*
Y326883D02*
Y331117D01*
X926117Y326883D02*
X928233D01*
X926117Y324767D02*
Y326883D01*
X921883Y324767D02*
X926117D01*
X921883D02*
Y326883D01*
D111*
X104000Y1502900D02*
X1089258D01*
X104000Y1198100D02*
X1089258D01*
X104000Y1160000D02*
X1089258D01*
Y1541000D01*
X104000D02*
X1089258D01*
X104000Y1160000D02*
Y1541000D01*
X891443Y1160000D02*
Y1541000D01*
X762950Y1160000D02*
Y1541000D01*
X421167Y1160000D02*
Y1541000D01*
X243922Y1160000D02*
Y1541000D01*
D112*
X902873Y1532612D02*
Y1514330D01*
Y1523471D01*
X915061D01*
Y1532612D01*
Y1514330D01*
X924202D02*
X930296D01*
X933343Y1517377D01*
Y1523471D01*
X930296Y1526518D01*
X924202D01*
X921155Y1523471D01*
Y1517377D01*
X924202Y1514330D01*
X939437D02*
X945531D01*
X942484D01*
Y1532612D01*
X939437D01*
X963813Y1514330D02*
X957719D01*
X954672Y1517377D01*
Y1523471D01*
X957719Y1526518D01*
X963813D01*
X966860Y1523471D01*
Y1520424D01*
X954672D01*
X991236Y1532612D02*
X1003424D01*
X997330D01*
Y1514330D01*
X1009518Y1526518D02*
Y1517377D01*
X1012565Y1514330D01*
X1021706D01*
Y1511283D01*
X1018659Y1508236D01*
X1015612D01*
X1021706Y1514330D02*
Y1526518D01*
X1027800Y1508236D02*
Y1526518D01*
X1036941D01*
X1039988Y1523471D01*
Y1517377D01*
X1036941Y1514330D01*
X1027800D01*
X1055223D02*
X1049129D01*
X1046083Y1517377D01*
Y1523471D01*
X1049129Y1526518D01*
X1055223D01*
X1058270Y1523471D01*
Y1520424D01*
X1046083D01*
X774380Y1514330D02*
Y1532612D01*
X783521D01*
X786568Y1529565D01*
Y1523471D01*
X783521Y1520424D01*
X774380D01*
X792662Y1514330D02*
X798756D01*
X795710D01*
Y1532612D01*
X792662D01*
X810945Y1526518D02*
X817039D01*
X820086Y1523471D01*
Y1514330D01*
X810945D01*
X807897Y1517377D01*
X810945Y1520424D01*
X820086D01*
X829227Y1529565D02*
Y1526518D01*
X826180D01*
X832274D01*
X829227D01*
Y1517377D01*
X832274Y1514330D01*
X850556D02*
X844462D01*
X841415Y1517377D01*
Y1523471D01*
X844462Y1526518D01*
X850556D01*
X853603Y1523471D01*
Y1520424D01*
X841415D01*
X871885Y1532612D02*
Y1514330D01*
X862744D01*
X859697Y1517377D01*
Y1523471D01*
X862744Y1526518D01*
X871885D01*
X444785Y1532612D02*
X432597D01*
Y1523471D01*
X438691D01*
X432597D01*
Y1514330D01*
X450879D02*
X456973D01*
X453926D01*
Y1526518D01*
X450879D01*
X466114Y1514330D02*
Y1526518D01*
X475255D01*
X478302Y1523471D01*
Y1514330D01*
X484396D02*
X490490D01*
X487443D01*
Y1526518D01*
X484396D01*
X499631Y1514330D02*
X508772D01*
X511819Y1517377D01*
X508772Y1520424D01*
X502678D01*
X499631Y1523471D01*
X502678Y1526518D01*
X511819D01*
X517913Y1532612D02*
Y1514330D01*
Y1523471D01*
X520960Y1526518D01*
X527054D01*
X530101Y1523471D01*
Y1514330D01*
X545336D02*
X539242D01*
X536195Y1517377D01*
Y1523471D01*
X539242Y1526518D01*
X545336D01*
X548383Y1523471D01*
Y1520424D01*
X536195D01*
X566666Y1532612D02*
Y1514330D01*
X557524D01*
X554478Y1517377D01*
Y1523471D01*
X557524Y1526518D01*
X566666D01*
X591042Y1532612D02*
Y1514330D01*
Y1523471D01*
X603230D01*
Y1532612D01*
Y1514330D01*
X612371D02*
X618465D01*
X621512Y1517377D01*
Y1523471D01*
X618465Y1526518D01*
X612371D01*
X609324Y1523471D01*
Y1517377D01*
X612371Y1514330D01*
X627606D02*
X633700D01*
X630653D01*
Y1532612D01*
X627606D01*
X651982Y1514330D02*
X645888D01*
X642841Y1517377D01*
Y1523471D01*
X645888Y1526518D01*
X651982D01*
X655029Y1523471D01*
Y1520424D01*
X642841D01*
X691593Y1529565D02*
X688546Y1532612D01*
X682452D01*
X679405Y1529565D01*
Y1526518D01*
X682452Y1523471D01*
X688546D01*
X691593Y1520424D01*
Y1517377D01*
X688546Y1514330D01*
X682452D01*
X679405Y1517377D01*
X697687Y1514330D02*
X703781D01*
X700734D01*
Y1526518D01*
X697687D01*
X712922D02*
X725110D01*
X712922Y1514330D01*
X725110D01*
X740345D02*
X734251D01*
X731204Y1517377D01*
Y1523471D01*
X734251Y1526518D01*
X740345D01*
X743392Y1523471D01*
Y1520424D01*
X731204D01*
X255352Y1532612D02*
Y1514330D01*
Y1523471D01*
X267540D01*
Y1532612D01*
Y1514330D01*
X273634D02*
X279728D01*
X276681D01*
Y1526518D01*
X273634D01*
X291917Y1529565D02*
Y1526518D01*
X288869D01*
X294963D01*
X291917D01*
Y1517377D01*
X294963Y1514330D01*
X334575Y1529565D02*
X331528Y1532612D01*
X325434D01*
X322387Y1529565D01*
Y1517377D01*
X325434Y1514330D01*
X331528D01*
X334575Y1517377D01*
X343716Y1514330D02*
X349810D01*
X352857Y1517377D01*
Y1523471D01*
X349810Y1526518D01*
X343716D01*
X340669Y1523471D01*
Y1517377D01*
X343716Y1514330D01*
X358951Y1526518D02*
Y1517377D01*
X361998Y1514330D01*
X371139D01*
Y1526518D01*
X377233Y1514330D02*
Y1526518D01*
X386374D01*
X389421Y1523471D01*
Y1514330D01*
X398562Y1529565D02*
Y1526518D01*
X395515D01*
X401609D01*
X398562D01*
Y1517377D01*
X401609Y1514330D01*
X139048Y1529565D02*
X136001Y1532612D01*
X129907D01*
X126860Y1529565D01*
Y1526518D01*
X129907Y1523471D01*
X136001D01*
X139048Y1520424D01*
Y1517377D01*
X136001Y1514330D01*
X129907D01*
X126860Y1517377D01*
X145142Y1526518D02*
Y1517377D01*
X148189Y1514330D01*
X157330D01*
Y1511283D01*
X154283Y1508236D01*
X151236D01*
X157330Y1514330D02*
Y1526518D01*
X163424Y1514330D02*
Y1526518D01*
X166471D01*
X169518Y1523471D01*
Y1514330D01*
Y1523471D01*
X172565Y1526518D01*
X175612Y1523471D01*
Y1514330D01*
X181706Y1532612D02*
Y1514330D01*
X190847D01*
X193894Y1517377D01*
Y1520424D01*
Y1523471D01*
X190847Y1526518D01*
X181706D01*
X203035Y1514330D02*
X209129D01*
X212176Y1517377D01*
Y1523471D01*
X209129Y1526518D01*
X203035D01*
X199988Y1523471D01*
Y1517377D01*
X203035Y1514330D01*
X218270D02*
X224364D01*
X221317D01*
Y1532612D01*
X218270D01*
M02*
