M48
;Layer_Color=6321
;FILE_FORMAT=4:4
METRIC,LZ
;TYPE=PLATED
T1F00S00C0.3000
T2F00S00C0.8000
T3F00S00C1.0000
T4F00S00C1.0160
T5F00S00C2.6000
%
T01
X0039436Y0032352
X0046436Y0032952
X0048686Y0034702
Y0035852
X0049886
Y0034702
X0049936Y0037052
X0048736
X0044236Y0035252
X0053836
X0051136Y0031652
X0058011Y0032777
X00763Y0031175
X0074525Y0028025
X007915Y004175
X0065936Y0043452
X0063543Y004345
X006115
X0059436Y0046452
X005695Y004645
X005355Y0049375
X0051075Y00492
X0052175Y00542
X0049775
X0047375
X0044995
X004515Y005875
X0047425
X004945
X00527Y0058425
X0054375Y005835
X00551Y0059425
X0054525Y00603
X005365Y00608
X0052825Y006025
X005225Y006085
X00559Y0060375
X00565Y00633
X00563999Y00640499
X0057575Y0064025
X0057577Y0064875
X00564303Y00663442
X0056725Y00679
X0057375Y006855
X00606Y00683
X0060525Y0072275
X00655Y00738
X0065525Y006985
X006635Y006925
X00686Y0070125
X0066965Y0066665
X006535
X006395Y0065025
Y00604625
X0060325Y005845
X0059475Y00584
X0057055Y00542
X0054643
X00550935Y006405
X0054025Y00677
X0051925
X004895Y006715
Y0065975
Y00651
X0046175Y00706
X004815Y00731
X0052Y0072
X0053Y00715
X00535Y00751
X005255Y00758
X0051575Y00748
X0055575Y00778
X0056575
X006675Y007705
X00718Y007635
X0075375Y0077675
X007531Y0067935
X00754Y0066725
X00686Y0064275
X0068625Y0058375
X0066675Y005347
X0065436Y0048952
X0063936
X0062436
X00669Y00469
X0067386Y0045002
X0070425Y004885
X0075375Y00548
X0075285Y005601
X0043025Y00506
X0040275Y00614
X0040357Y00635
X0040475Y00704
Y00724
X0045075Y00772
X0038609Y0073634
X00364Y00448
Y0044
X003645Y004305
X00414Y008
X004615Y007955
X004985
X005175Y008135
X0074875Y0080425
T02
X00834Y00519
Y00539
Y00559
Y00579
Y00634
Y00654
Y00674
Y00694
X00834Y00748
Y00768
Y00788
Y00808
T03
X0078225Y0032525
X0080725
X0083225
Y0047025
X0078225
X0031175Y0051125
Y0053665
Y0057475
Y0060015
Y0062555
Y0065095
Y0067635
Y0070175
Y0072715
Y0075255
X003207Y008715
X002953
X002699
X002445
X002191
X00181
X001556
X003461
X003715
X003969
X004283
X004537
X004791
X005045
X005299
X005553
X0078225Y00857
Y01002
X0083225
Y00857
X0080725
T04
X00646Y002783
Y003037
X009248Y004295
X009502
T05
X0086425Y0040025
X0075025
Y00932
X0086425
M30
