G04*
G04 #@! TF.GenerationSoftware,Altium Limited,CircuitStudio,1.5.2 (1.5.2.30)*
G04*
G04 Layer_Color=128*
%FSLAX44Y44*%
%MOMM*%
G71*
G01*
G75*
%ADD15C,0.0254*%
%ADD16C,1.0000*%
%ADD109C,0.1270*%
D15*
X585622Y473186D02*
G03*
X585622Y473186I-762J0D01*
G01*
X578866Y479536D02*
X609854D01*
X578866Y448548D02*
Y479536D01*
Y448548D02*
X609854D01*
Y479536D01*
X578866Y474456D02*
X583946Y479536D01*
D16*
X1045000Y805000D02*
X1090000D01*
X965000Y885000D02*
X1045000Y805000D01*
X965000Y885000D02*
Y1030000D01*
X1090000Y360000D02*
Y520000D01*
X980000Y250000D02*
X1090000Y360000D01*
X965000Y250000D02*
X980000D01*
X1130000Y725000D02*
Y765000D01*
X1115000Y710000D02*
X1130000Y725000D01*
Y560000D02*
Y605000D01*
X1115000Y620000D02*
X1130000Y605000D01*
X1115000Y620000D02*
Y710000D01*
X1090000Y520000D02*
X1130000Y560000D01*
X120000Y250000D02*
X965000D01*
X1090000Y805000D02*
X1130000Y765000D01*
X120000Y1030000D02*
X965000D01*
X120000Y250000D02*
Y1030000D01*
D109*
X909000Y329000D02*
X939000D01*
X924000Y314000D02*
Y344000D01*
X197000Y329000D02*
X227000D01*
X212000Y314000D02*
Y344000D01*
X197000Y654500D02*
X227000D01*
X212000Y639500D02*
Y669500D01*
X197000Y980000D02*
X227000D01*
X212000Y965000D02*
Y995000D01*
X909000Y986000D02*
X939000D01*
X924000Y971000D02*
Y1001000D01*
X851250Y400250D02*
X877250D01*
X864250Y387250D02*
Y413250D01*
X827250Y325250D02*
X837250D01*
X832250Y320250D02*
Y330250D01*
X802250Y325250D02*
X812250D01*
X807250Y320250D02*
Y330250D01*
X777250Y325250D02*
X787250D01*
X782250Y320250D02*
Y330250D01*
X827250Y470250D02*
X837250D01*
X832250Y465250D02*
Y475250D01*
X777250Y470250D02*
X787250D01*
X782250Y465250D02*
Y475250D01*
X737250Y400250D02*
X763250D01*
X750250Y387250D02*
Y413250D01*
X851250Y932000D02*
X877250D01*
X864250Y919000D02*
Y945000D01*
X827250Y857000D02*
X837250D01*
X832250Y852000D02*
Y862000D01*
X802250Y857000D02*
X812250D01*
X807250Y852000D02*
Y862000D01*
X777250Y857000D02*
X787250D01*
X782250Y852000D02*
Y862000D01*
X827250Y1002000D02*
X837250D01*
X832250Y997000D02*
Y1007000D01*
X777250Y1002000D02*
X787250D01*
X782250Y997000D02*
Y1007000D01*
X737250Y932000D02*
X763250D01*
X750250Y919000D02*
Y945000D01*
X1000000Y350000D02*
X1020000D01*
X1010000Y340000D02*
Y360000D01*
X1045000Y715000D02*
X1065000D01*
X1055000Y705000D02*
Y725000D01*
X1045000Y625000D02*
X1065000D01*
X1055000Y615000D02*
Y635000D01*
X150600Y871500D02*
X160600D01*
X155600Y866500D02*
Y876500D01*
X176000Y871500D02*
X186000D01*
X181000Y866500D02*
Y876500D01*
X214100Y871500D02*
X224100D01*
X219100Y866500D02*
Y876500D01*
X239500Y871500D02*
X249500D01*
X244500Y866500D02*
Y876500D01*
X264900Y871500D02*
X274900D01*
X269900Y866500D02*
Y876500D01*
X290300Y871500D02*
X300300D01*
X295300Y866500D02*
Y876500D01*
X550300Y871500D02*
X560300D01*
X555300Y866500D02*
Y876500D01*
X524900Y871500D02*
X534900D01*
X529900Y866500D02*
Y876500D01*
X499500Y871500D02*
X509500D01*
X504500Y866500D02*
Y876500D01*
X474100Y871500D02*
X484100D01*
X479100Y866500D02*
Y876500D01*
X448700Y871500D02*
X458700D01*
X453700Y866500D02*
Y876500D01*
X423300Y871500D02*
X433300D01*
X428300Y866500D02*
Y876500D01*
X391900Y871500D02*
X401900D01*
X396900Y866500D02*
Y876500D01*
X366500Y871500D02*
X376500D01*
X371500Y866500D02*
Y876500D01*
X635800Y964000D02*
X670800D01*
X653300Y946500D02*
Y981500D01*
X315700Y871500D02*
X325700D01*
X320700Y866500D02*
Y876500D01*
X341100Y871500D02*
X351100D01*
X346100Y866500D02*
Y876500D01*
X306750Y574750D02*
X316750D01*
X311750Y569750D02*
Y579750D01*
X306750Y600150D02*
X316750D01*
X311750Y595150D02*
Y605150D01*
X306750Y752550D02*
X316750D01*
X311750Y747550D02*
Y757550D01*
X306750Y676350D02*
X316750D01*
X311750Y671350D02*
Y681350D01*
X306750Y650950D02*
X316750D01*
X311750Y645950D02*
Y655950D01*
X306750Y625550D02*
X316750D01*
X311750Y620550D02*
Y630550D01*
X306750Y536650D02*
X316750D01*
X311750Y531650D02*
Y541650D01*
X306750Y511250D02*
X316750D01*
X311750Y506250D02*
Y516250D01*
X306750Y727150D02*
X316750D01*
X311750Y722150D02*
Y732150D01*
X306750Y701750D02*
X316750D01*
X311750Y696750D02*
Y706750D01*
X830000Y748000D02*
X838000D01*
X834000Y744000D02*
Y752000D01*
X830000Y768000D02*
X838000D01*
X834000Y764000D02*
Y772000D01*
X830000Y788000D02*
X838000D01*
X834000Y784000D02*
Y792000D01*
X830000Y808000D02*
X838000D01*
X834000Y804000D02*
Y812000D01*
X830000Y694000D02*
X838000D01*
X834000Y690000D02*
Y698000D01*
X830000Y674000D02*
X838000D01*
X834000Y670000D02*
Y678000D01*
X830000Y654000D02*
X838000D01*
X834000Y650000D02*
Y658000D01*
X830000Y634000D02*
X838000D01*
X834000Y630000D02*
Y638000D01*
X830000Y579000D02*
X838000D01*
X834000Y575000D02*
Y583000D01*
X830000Y559000D02*
X838000D01*
X834000Y555000D02*
Y563000D01*
X830000Y539000D02*
X838000D01*
X834000Y535000D02*
Y543000D01*
X830000Y519000D02*
X838000D01*
X834000Y515000D02*
Y523000D01*
X919720Y429500D02*
X929880D01*
X924800Y424420D02*
Y434580D01*
X945120Y429500D02*
X955280D01*
X950200Y424420D02*
Y434580D01*
X640920Y303700D02*
X651080D01*
X646000Y298620D02*
Y308780D01*
X640920Y278300D02*
X651080D01*
X646000Y273220D02*
Y283380D01*
X610000Y434500D02*
X613000D01*
X611500Y433000D02*
Y436000D01*
X672360Y450020D02*
X675360D01*
X673860Y448520D02*
Y451520D01*
X568000Y464500D02*
X571000D01*
X569500Y463000D02*
Y466000D01*
X488000Y659750D02*
X491000D01*
X489500Y658250D02*
Y661250D01*
X666000Y770500D02*
X669000D01*
X667500Y769000D02*
Y772000D01*
X716500Y763500D02*
X719500D01*
X718000Y762000D02*
Y765000D01*
X524000Y758000D02*
X527000D01*
X525500Y756500D02*
Y759500D01*
X480000Y731000D02*
X483000D01*
X481500Y729500D02*
Y732500D01*
X514250Y748000D02*
X517250D01*
X515750Y746500D02*
Y749500D01*
X667500Y469000D02*
X670500D01*
X669000Y467500D02*
Y470500D01*
X533500Y751000D02*
X536500D01*
X535000Y749500D02*
Y752500D01*
X517750Y677000D02*
X520750D01*
X519250Y675500D02*
Y678500D01*
X538750Y677000D02*
X541750D01*
X540250Y675500D02*
Y678500D01*
X488000Y651000D02*
X491000D01*
X489500Y649500D02*
Y652500D01*
X653750Y698500D02*
X656750D01*
X655250Y697000D02*
Y700000D01*
X662000Y692500D02*
X665000D01*
X663500Y691000D02*
Y694000D01*
X604500Y683000D02*
X607500D01*
X606000Y681500D02*
Y684500D01*
X384590Y736340D02*
X387590D01*
X386090Y734840D02*
Y737840D01*
X752250Y776750D02*
X755250D01*
X753750Y775250D02*
Y778250D01*
X747250Y804250D02*
X750250D01*
X748750Y802750D02*
Y805750D01*
X790000Y417500D02*
X793000D01*
X791500Y416000D02*
Y419000D01*
X743750Y280250D02*
X746750D01*
X745250Y278750D02*
Y281750D01*
X493000Y587500D02*
X496000D01*
X494500Y586000D02*
Y589000D01*
X472750Y587500D02*
X475750D01*
X474250Y586000D02*
Y589000D01*
X450000Y587500D02*
X453000D01*
X451500Y586000D02*
Y589000D01*
X428750Y506000D02*
X431750D01*
X430250Y504500D02*
Y507500D01*
X702750Y488500D02*
X705750D01*
X704250Y487000D02*
Y490000D01*
X509250Y492000D02*
X512250D01*
X510750Y490500D02*
Y493500D01*
X525500Y584250D02*
X528500D01*
X527000Y582750D02*
Y585750D01*
X534000Y493750D02*
X537000D01*
X535500Y492250D02*
Y495250D01*
X761500Y311750D02*
X764500D01*
X763000Y310250D02*
Y313250D01*
X521000Y608500D02*
X524000D01*
X522500Y607000D02*
Y610000D01*
X535000Y608000D02*
X538000D01*
X536500Y606500D02*
Y609500D01*
X638000Y650250D02*
X641000D01*
X639500Y648750D02*
Y651750D01*
X652000Y666650D02*
X655000D01*
X653500Y665150D02*
Y668150D01*
X668150Y666650D02*
X671150D01*
X669650Y665150D02*
Y668150D01*
X684750Y583750D02*
X687750D01*
X686250Y582250D02*
Y585250D01*
X684500Y701250D02*
X687500D01*
X686000Y699750D02*
Y702750D01*
X684500Y642750D02*
X687500D01*
X686000Y641250D02*
Y644250D01*
X638000Y604625D02*
X641000D01*
X639500Y603125D02*
Y606125D01*
X601750Y584500D02*
X604750D01*
X603250Y583000D02*
Y586000D01*
X488000Y671500D02*
X491000D01*
X489500Y670000D02*
Y673000D01*
X526750Y602500D02*
X529750D01*
X528250Y601000D02*
Y604000D01*
X448450Y542000D02*
X451450D01*
X449950Y540500D02*
Y543500D01*
X569050Y542000D02*
X572050D01*
X570550Y540500D02*
Y543500D01*
X544930Y542000D02*
X547930D01*
X546430Y540500D02*
Y543500D01*
X520250Y542000D02*
X523250D01*
X521750Y540500D02*
Y543500D01*
X496250Y542000D02*
X499250D01*
X497750Y540500D02*
Y543500D01*
X472250Y542000D02*
X475250D01*
X473750Y540500D02*
Y543500D01*
X485360Y347020D02*
X488360D01*
X486860Y345520D02*
Y348520D01*
X497360Y347020D02*
X500360D01*
X498860Y345520D02*
Y348520D01*
X497360Y358520D02*
X500360D01*
X498860Y357020D02*
Y360020D01*
X485360Y358520D02*
X488360D01*
X486860Y357020D02*
Y360020D01*
X497860Y370520D02*
X500860D01*
X499360Y369020D02*
Y372020D01*
X485860Y370520D02*
X488860D01*
X487360Y369020D02*
Y372020D01*
X460250Y706000D02*
X463250D01*
X461750Y704500D02*
Y707500D01*
X593250Y584000D02*
X596250D01*
X594750Y582500D02*
Y585500D01*
X402070Y635000D02*
X405070D01*
X403570Y633500D02*
Y636500D01*
X401250Y614000D02*
X404250D01*
X402750Y612500D02*
Y615500D01*
X403250Y704000D02*
X406250D01*
X404750Y702500D02*
Y705500D01*
X665250Y534700D02*
X668250D01*
X666750Y533200D02*
Y536200D01*
X751600Y679350D02*
X754600D01*
X753100Y677850D02*
Y680850D01*
X752500Y667250D02*
X755500D01*
X754000Y665750D02*
Y668750D01*
X752250Y548000D02*
X755250D01*
X753750Y546500D02*
Y549500D01*
X751350Y560100D02*
X754350D01*
X752850Y558600D02*
Y561600D01*
X653500Y738000D02*
X656500D01*
X655000Y736500D02*
Y739500D01*
X603750Y722750D02*
X606750D01*
X605250Y721250D02*
Y724250D01*
X536860Y352520D02*
X539860D01*
X538360Y351020D02*
Y354020D01*
X440860Y352520D02*
X443860D01*
X442360Y351020D02*
Y354020D01*
X578610Y327770D02*
X581610D01*
X580110Y326270D02*
Y329270D01*
X509860Y316520D02*
X512860D01*
X511360Y315020D02*
Y318020D01*
X462860Y329520D02*
X465860D01*
X464360Y328020D02*
Y331020D01*
X392860Y323520D02*
X395860D01*
X394360Y322020D02*
Y325020D01*
X592860Y464520D02*
X595860D01*
X594360Y463020D02*
Y466020D01*
X652860Y489520D02*
X655860D01*
X654360Y488020D02*
Y491020D01*
X637860Y489520D02*
X640860D01*
X639360Y488020D02*
Y491020D01*
X622860Y489520D02*
X625860D01*
X624360Y488020D02*
Y491020D01*
X657860Y434520D02*
X660860D01*
X659360Y433020D02*
Y436020D01*
X633930Y434500D02*
X636930D01*
X635430Y433000D02*
Y436000D01*
X403250Y724000D02*
X406250D01*
X404750Y722500D02*
Y725500D01*
X449250Y772000D02*
X452250D01*
X450750Y770500D02*
Y773500D01*
X543750Y603000D02*
X546750D01*
X545250Y601500D02*
Y604500D01*
X542250Y583500D02*
X545250D01*
X543750Y582000D02*
Y585000D01*
X549500Y594250D02*
X552500D01*
X551000Y592750D02*
Y595750D01*
X557500Y603750D02*
X560500D01*
X559000Y602250D02*
Y605250D01*
X554250Y778000D02*
X557250D01*
X555750Y776500D02*
Y779500D01*
X564250Y778000D02*
X567250D01*
X565750Y776500D02*
Y779500D01*
X572250Y685500D02*
X575250D01*
X573750Y684000D02*
Y687000D01*
X565750Y679000D02*
X568750D01*
X567250Y677500D02*
Y680500D01*
X574250Y640250D02*
X577250D01*
X575750Y638750D02*
Y641750D01*
X574270Y648750D02*
X577270D01*
X575770Y647250D02*
Y650250D01*
X549435Y640500D02*
X552435D01*
X550935Y639000D02*
Y642000D01*
X528500Y715000D02*
X531500D01*
X530000Y713500D02*
Y716500D01*
X518500Y720000D02*
X521500D01*
X520000Y718500D02*
Y721500D01*
X563500Y633000D02*
X566500D01*
X565000Y631500D02*
Y634500D01*
X562803Y663442D02*
X565803D01*
X564303Y661942D02*
Y664942D01*
X562499Y640499D02*
X565499D01*
X563999Y638999D02*
Y641999D01*
X362500Y448000D02*
X365500D01*
X364000Y446500D02*
Y449500D01*
X363000Y430500D02*
X366000D01*
X364500Y429000D02*
Y432000D01*
X362500Y440000D02*
X365500D01*
X364000Y438500D02*
Y441500D01*
X412500Y800000D02*
X415500D01*
X414000Y798500D02*
Y801500D01*
X460000Y795500D02*
X463000D01*
X461500Y794000D02*
Y797000D01*
X497000Y795500D02*
X500000D01*
X498500Y794000D02*
Y797000D01*
X516000Y813500D02*
X519000D01*
X517500Y812000D02*
Y815000D01*
M02*
