G04*
G04 #@! TF.GenerationSoftware,Altium Limited,CircuitStudio,1.5.2 (1.5.2.30)*
G04*
G04 Layer_Color=15065295*
%FSLAX44Y44*%
%MOMM*%
G71*
G01*
G75*
%ADD11C,0.5000*%
%ADD12C,0.2540*%
%ADD15C,0.0254*%
%ADD16C,1.0000*%
%ADD65C,0.2000*%
%ADD66C,0.2030*%
D11*
X727000Y866500D02*
Y1006000D01*
X587800D02*
X727000D01*
X587800Y860500D02*
Y1006000D01*
X130000Y836500D02*
Y859300D01*
Y836500D02*
X727000D01*
X130000Y859300D02*
X725000D01*
X727000Y836500D02*
Y866500D01*
D12*
X520250Y643000D02*
G03*
X520250Y643000I-2000J0D01*
G01*
X201500Y706500D02*
Y721735D01*
X206578Y716657D01*
X211657Y721735D01*
Y706500D01*
X226892Y721735D02*
X216735D01*
Y714117D01*
X221813Y716657D01*
X224352D01*
X226892Y714117D01*
Y709039D01*
X224352Y706500D01*
X219274D01*
X216735Y709039D01*
X201500Y922000D02*
Y937235D01*
X206578Y932157D01*
X211657Y937235D01*
Y922000D01*
X224352D02*
Y937235D01*
X216735Y929617D01*
X226892D01*
X201500Y373000D02*
Y388235D01*
X206578Y383157D01*
X211657Y388235D01*
Y373000D01*
X216735Y385696D02*
X219274Y388235D01*
X224352D01*
X226892Y385696D01*
Y383157D01*
X224352Y380617D01*
X221813D01*
X224352D01*
X226892Y378078D01*
Y375539D01*
X224352Y373000D01*
X219274D01*
X216735Y375539D01*
X915000Y922000D02*
Y937395D01*
X920132Y932263D01*
X925263Y937395D01*
Y922000D01*
X940658D02*
X930395D01*
X940658Y932263D01*
Y934829D01*
X938092Y937395D01*
X932961D01*
X930395Y934829D01*
X914000Y373000D02*
Y388235D01*
X919078Y383157D01*
X924157Y388235D01*
Y373000D01*
X929235D02*
X934313D01*
X931774D01*
Y388235D01*
X929235Y385696D01*
X627000Y843500D02*
Y853497D01*
X630332Y850164D01*
X633664Y853497D01*
Y843500D01*
X641995Y853497D02*
X638663D01*
X636997Y851831D01*
Y845166D01*
X638663Y843500D01*
X641995D01*
X643661Y845166D01*
Y851831D01*
X641995Y853497D01*
X646993D02*
Y843500D01*
X651992D01*
X653658Y845166D01*
Y851831D01*
X651992Y853497D01*
X646993D01*
X663655Y843500D02*
X656990D01*
X663655Y850164D01*
Y851831D01*
X661989Y853497D01*
X658656D01*
X656990Y851831D01*
X896665Y878331D02*
X894998Y879997D01*
X891666D01*
X890000Y878331D01*
Y876665D01*
X891666Y874998D01*
X894998D01*
X896665Y873332D01*
Y871666D01*
X894998Y870000D01*
X891666D01*
X890000Y871666D01*
X899997Y879997D02*
Y870000D01*
X903329Y873332D01*
X906661Y870000D01*
Y879997D01*
X909994Y870000D02*
X913326D01*
X911660D01*
Y879997D01*
X909994Y878331D01*
X882664Y464330D02*
X880998Y465997D01*
X877666D01*
X876000Y464330D01*
Y462664D01*
X877666Y460998D01*
X880998D01*
X882664Y459332D01*
Y457666D01*
X880998Y456000D01*
X877666D01*
X876000Y457666D01*
X885997Y465997D02*
Y456000D01*
X889329Y459332D01*
X892661Y456000D01*
Y465997D01*
X902658Y456000D02*
X895993D01*
X902658Y462664D01*
Y464330D01*
X900992Y465997D01*
X897660D01*
X895993Y464330D01*
X520125Y723109D02*
X518458Y724775D01*
X515126D01*
X513460Y723109D01*
Y721442D01*
X515126Y719776D01*
X518458D01*
X520125Y718110D01*
Y716444D01*
X518458Y714778D01*
X515126D01*
X513460Y716444D01*
X523457Y724775D02*
Y714778D01*
X526789Y718110D01*
X530121Y714778D01*
Y724775D01*
X533453Y723109D02*
X535120Y724775D01*
X538452D01*
X540118Y723109D01*
Y721442D01*
X538452Y719776D01*
X536786D01*
X538452D01*
X540118Y718110D01*
Y716444D01*
X538452Y714778D01*
X535120D01*
X533453Y716444D01*
X307000Y445500D02*
Y455497D01*
X310332Y452164D01*
X313664Y455497D01*
Y445500D01*
X321995Y455497D02*
X318663D01*
X316997Y453830D01*
Y447166D01*
X318663Y445500D01*
X321995D01*
X323661Y447166D01*
Y453830D01*
X321995Y455497D01*
X326993D02*
Y445500D01*
X331992D01*
X333658Y447166D01*
Y453830D01*
X331992Y455497D01*
X326993D01*
X336990Y445500D02*
X340322D01*
X338656D01*
Y455497D01*
X336990Y453830D01*
X1063235Y542882D02*
Y547961D01*
X1060696Y550500D01*
X1050539D01*
X1048000Y547961D01*
Y542882D01*
X1050539Y540343D01*
X1060696D01*
X1063235Y542882D01*
X1048000Y535265D02*
X1058157D01*
Y527647D01*
X1055617Y525108D01*
X1048000D01*
Y509873D02*
X1058157Y520030D01*
X1063235Y497177D02*
Y502256D01*
X1060696Y504795D01*
X1050539D01*
X1048000Y502256D01*
Y497177D01*
X1050539Y494638D01*
X1060696D01*
X1063235Y497177D01*
X1048000Y487020D02*
X1060696D01*
X1055617D01*
Y489560D01*
Y484481D01*
Y487020D01*
X1060696D01*
X1063235Y484481D01*
X1048000Y474324D02*
X1060696D01*
X1055617D01*
Y476864D01*
Y471785D01*
Y474324D01*
X1060696D01*
X1063235Y471785D01*
X1060696Y438776D02*
X1063235Y441315D01*
Y446394D01*
X1060696Y448933D01*
X1050539D01*
X1048000Y446394D01*
Y441315D01*
X1050539Y438776D01*
X1048000Y433698D02*
X1063235D01*
X1048000Y423541D01*
X1063235D01*
Y418463D02*
Y408306D01*
Y413384D01*
X1048000D01*
Y403228D02*
X1063235D01*
Y395610D01*
X1060696Y393071D01*
X1055617D01*
X1053078Y395610D01*
Y403228D01*
Y398149D02*
X1048000Y393071D01*
X1063235Y387993D02*
X1048000D01*
Y377836D01*
X257500Y541330D02*
X259166Y542997D01*
X262498D01*
X264164Y541330D01*
Y539664D01*
X262498Y537998D01*
X260832D01*
X262498D01*
X264164Y536332D01*
Y534666D01*
X262498Y533000D01*
X259166D01*
X257500Y534666D01*
X267497Y539664D02*
X270829Y533000D01*
X274161Y539664D01*
X277493Y541330D02*
X279160Y542997D01*
X282492D01*
X284158Y541330D01*
Y539664D01*
X282492Y537998D01*
X280826D01*
X282492D01*
X284158Y536332D01*
Y534666D01*
X282492Y533000D01*
X279160D01*
X277493Y534666D01*
X264164Y513830D02*
X262498Y515497D01*
X259166D01*
X257500Y513830D01*
Y507166D01*
X259166Y505500D01*
X262498D01*
X264164Y507166D01*
Y510498D01*
X260832D01*
X267497Y505500D02*
Y515497D01*
X274161Y505500D01*
Y515497D01*
X277493D02*
Y505500D01*
X282492D01*
X284158Y507166D01*
Y513830D01*
X282492Y515497D01*
X277493D01*
X259250Y755047D02*
Y748382D01*
X262582Y745050D01*
X265914Y748382D01*
Y755047D01*
X269247D02*
Y746716D01*
X270913Y745050D01*
X274245D01*
X275911Y746716D01*
Y755047D01*
X285908Y753381D02*
X284242Y755047D01*
X280910D01*
X279244Y753381D01*
Y751714D01*
X280910Y750048D01*
X284242D01*
X285908Y748382D01*
Y746716D01*
X284242Y745050D01*
X280910D01*
X279244Y746716D01*
X289240Y755047D02*
Y745050D01*
X294239D01*
X295905Y746716D01*
Y748382D01*
X294239Y750048D01*
X289240D01*
X294239D01*
X295905Y751714D01*
Y753381D01*
X294239Y755047D01*
X289240D01*
X258184Y729747D02*
Y719750D01*
X263182D01*
X264848Y721416D01*
Y728081D01*
X263182Y729747D01*
X258184D01*
X268181Y724748D02*
X274845D01*
X271513Y728081D02*
Y721416D01*
X258184Y704363D02*
Y694367D01*
X263182D01*
X264848Y696033D01*
Y702697D01*
X263182Y704363D01*
X258184D01*
X268181Y699365D02*
X274845D01*
X258184Y643600D02*
Y653597D01*
X263182D01*
X264848Y651931D01*
Y648598D01*
X263182Y646932D01*
X258184D01*
X268181Y653597D02*
X274845D01*
X271513D01*
Y643600D01*
X278177D02*
Y650265D01*
X281510Y653597D01*
X284842Y650265D01*
Y643600D01*
Y648598D01*
X278177D01*
X288174Y653597D02*
X294839D01*
Y651931D01*
X288174Y645266D01*
Y643600D01*
X258184Y618217D02*
Y628214D01*
X263182D01*
X264848Y626547D01*
Y623215D01*
X263182Y621549D01*
X258184D01*
X268181Y628214D02*
X274845D01*
X271513D01*
Y618217D01*
X278177Y628214D02*
Y618217D01*
X283176D01*
X284842Y619883D01*
Y621549D01*
X283176Y623215D01*
X278177D01*
X283176D01*
X284842Y624881D01*
Y626547D01*
X283176Y628214D01*
X278177D01*
X288174Y626547D02*
X289840Y628214D01*
X293172D01*
X294839Y626547D01*
Y619883D01*
X293172Y618217D01*
X289840D01*
X288174Y619883D01*
Y626547D01*
X258184Y592833D02*
Y602830D01*
X263182D01*
X264848Y601164D01*
Y597832D01*
X263182Y596166D01*
X258184D01*
X268181Y602830D02*
X274845D01*
X271513D01*
Y592833D01*
X278177Y602830D02*
Y592833D01*
X283176D01*
X284842Y594500D01*
Y596166D01*
X283176Y597832D01*
X278177D01*
X283176D01*
X284842Y599498D01*
Y601164D01*
X283176Y602830D01*
X278177D01*
X288174Y592833D02*
X291506D01*
X289840D01*
Y602830D01*
X288174Y601164D01*
X258184Y567450D02*
Y577447D01*
X263182D01*
X264848Y575781D01*
Y572449D01*
X263182Y570782D01*
X258184D01*
X261516D02*
X264848Y567450D01*
X274845Y575781D02*
X273179Y577447D01*
X269847D01*
X268181Y575781D01*
Y574115D01*
X269847Y572449D01*
X273179D01*
X274845Y570782D01*
Y569116D01*
X273179Y567450D01*
X269847D01*
X268181Y569116D01*
X278177Y577447D02*
X284842D01*
X281510D01*
Y567450D01*
X258184Y668983D02*
Y678980D01*
X263182D01*
X264848Y677314D01*
Y673982D01*
X263182Y672316D01*
X258184D01*
X268181Y678980D02*
X274845D01*
X271513D01*
Y668983D01*
X278177D02*
Y675648D01*
X281510Y678980D01*
X284842Y675648D01*
Y668983D01*
Y673982D01*
X278177D01*
X294839Y678980D02*
X291506Y677314D01*
X288174Y673982D01*
Y670649D01*
X289840Y668983D01*
X293172D01*
X294839Y670649D01*
Y672316D01*
X293172Y673982D01*
X288174D01*
D15*
X585622Y473186D02*
G03*
X585622Y473186I-762J0D01*
G01*
X578866Y479536D02*
X609854D01*
X578866Y448548D02*
Y479536D01*
Y448548D02*
X609854D01*
Y479536D01*
X578866Y474456D02*
X583946Y479536D01*
D16*
X1045000Y805000D02*
X1090000D01*
X965000Y885000D02*
X1045000Y805000D01*
X965000Y885000D02*
Y1030000D01*
X1090000Y360000D02*
Y520000D01*
X980000Y250000D02*
X1090000Y360000D01*
X965000Y250000D02*
X980000D01*
X1130000Y725000D02*
Y765000D01*
X1115000Y710000D02*
X1130000Y725000D01*
Y560000D02*
Y605000D01*
X1115000Y620000D02*
X1130000Y605000D01*
X1115000Y620000D02*
Y710000D01*
X1090000Y520000D02*
X1130000Y560000D01*
X120000Y250000D02*
X965000D01*
X1090000Y805000D02*
X1130000Y765000D01*
X120000Y1030000D02*
X965000D01*
X120000Y250000D02*
Y1030000D01*
D65*
X840510Y333250D02*
X869750D01*
Y380750D01*
X843350Y467250D02*
X869750D01*
Y419750D02*
Y467250D01*
X744750Y333250D02*
X773990D01*
X744750D02*
Y380750D01*
Y467250D02*
X771150D01*
X744750Y419750D02*
Y467250D01*
X840510Y865000D02*
X869750D01*
Y912500D01*
X843350Y999000D02*
X869750D01*
Y951500D02*
Y999000D01*
X744750Y865000D02*
X773990D01*
X744750D02*
Y912500D01*
Y999000D02*
X771150D01*
X744750Y951500D02*
Y999000D01*
D66*
X299250Y462250D02*
Y802250D01*
Y462250D02*
X356750D01*
Y802250D01*
X299250D02*
X356750D01*
X324250Y500050D02*
Y552550D01*
X299250Y500050D02*
X324250D01*
X299250D02*
Y552550D01*
X324250D01*
X299250Y765050D02*
X324250D01*
X299250Y562550D02*
Y765050D01*
Y562550D02*
X324250D01*
Y765050D01*
M02*
