G04*
G04 #@! TF.GenerationSoftware,Altium Limited,CircuitStudio,1.5.2 (1.5.2.30)*
G04*
G04 Layer_Physical_Order=2*
G04 Layer_Color=11993160*
%FSLAX44Y44*%
%MOMM*%
G71*
G01*
G75*
%ADD15C,0.0254*%
%ADD16C,1.0000*%
%ADD29C,1.0160*%
%ADD30C,4.0000*%
%ADD31C,3.6000*%
%ADD32C,2.0000*%
G04:AMPARAMS|DCode=33|XSize=6mm|YSize=3mm|CornerRadius=0mm|HoleSize=0mm|Usage=FLASHONLY|Rotation=45.000|XOffset=0mm|YOffset=0mm|HoleType=Round|Shape=Round|*
%AMOVALD33*
21,1,3.0000,3.0000,0.0000,0.0000,45.0*
1,1,3.0000,-1.0607,-1.0607*
1,1,3.0000,1.0607,1.0607*
%
%ADD33OVALD33*%

%ADD34O,6.0000X3.0000*%
%ADD35C,4.5000*%
%ADD36C,2.0000*%
%ADD37C,1.8000*%
%ADD38C,4.8000*%
%ADD39C,2.0160*%
%ADD40C,1.3000*%
%ADD41C,4.3000*%
D15*
X585622Y473186D02*
G03*
X585622Y473186I-762J0D01*
G01*
X578866Y479536D02*
X609854D01*
X578866Y448548D02*
Y479536D01*
Y448548D02*
X609854D01*
Y479536D01*
X578866Y474456D02*
X583946Y479536D01*
D16*
X1045000Y805000D02*
X1090000D01*
X965000Y885000D02*
X1045000Y805000D01*
X965000Y885000D02*
Y1030000D01*
X1090000Y360000D02*
Y520000D01*
X980000Y250000D02*
X1090000Y360000D01*
X965000Y250000D02*
X980000D01*
X1130000Y725000D02*
Y765000D01*
X1115000Y710000D02*
X1130000Y725000D01*
Y560000D02*
Y605000D01*
X1115000Y620000D02*
X1130000Y605000D01*
X1115000Y620000D02*
Y710000D01*
X1090000Y520000D02*
X1130000Y560000D01*
X120000Y250000D02*
X965000D01*
X1090000Y805000D02*
X1130000Y765000D01*
X120000Y1030000D02*
X965000D01*
X120000Y250000D02*
Y1030000D01*
D29*
Y250000D02*
Y1030000D01*
X965000D01*
Y885000D02*
Y1030000D01*
Y885000D02*
X1045000Y805000D01*
X1090000D01*
X1130000Y765000D01*
Y725000D02*
Y765000D01*
X1115000Y710000D02*
X1130000Y725000D01*
X1115000Y620000D02*
Y710000D01*
Y620000D02*
X1130000Y605000D01*
Y560000D02*
Y605000D01*
X1090000Y520000D02*
X1130000Y560000D01*
X1090000Y360000D02*
Y520000D01*
X980000Y250000D02*
X1090000Y360000D01*
X120000Y250000D02*
X980000D01*
D30*
X924000Y329000D02*
D03*
X212000D02*
D03*
Y654500D02*
D03*
Y980000D02*
D03*
X924000Y986000D02*
D03*
D31*
X864250Y400250D02*
D03*
X750250D02*
D03*
X864250Y932000D02*
D03*
X750250D02*
D03*
D32*
X832250Y325250D02*
D03*
X807250D02*
D03*
X782250D02*
D03*
X832250Y470250D02*
D03*
X782250D02*
D03*
X832250Y857000D02*
D03*
X807250D02*
D03*
X782250D02*
D03*
X832250Y1002000D02*
D03*
X782250D02*
D03*
X155600Y871500D02*
D03*
X181000D02*
D03*
X219100D02*
D03*
X244500D02*
D03*
X269900D02*
D03*
X295300D02*
D03*
X555300D02*
D03*
X529900D02*
D03*
X504500D02*
D03*
X479100D02*
D03*
X453700D02*
D03*
X428300D02*
D03*
X396900D02*
D03*
X371500D02*
D03*
X346100D02*
D03*
D33*
X1010000Y350000D02*
D03*
D34*
X1055000Y715000D02*
D03*
Y625000D02*
D03*
D35*
X653300Y964000D02*
D03*
D36*
X311750Y574750D02*
D03*
Y600150D02*
D03*
Y752550D02*
D03*
Y676350D02*
D03*
Y650950D02*
D03*
Y625550D02*
D03*
Y511250D02*
D03*
Y727150D02*
D03*
Y701750D02*
D03*
D37*
X834000Y748000D02*
D03*
Y768000D02*
D03*
Y788000D02*
D03*
Y808000D02*
D03*
D38*
X834000Y694000D02*
D03*
Y674000D02*
D03*
Y654000D02*
D03*
Y634000D02*
D03*
Y579000D02*
D03*
Y559000D02*
D03*
Y539000D02*
D03*
Y519000D02*
D03*
D39*
X924800Y429500D02*
D03*
X950200D02*
D03*
X646000Y303700D02*
D03*
Y278300D02*
D03*
D40*
X569500Y464500D02*
D03*
X489500Y659750D02*
D03*
X718000Y763500D02*
D03*
X525500Y758000D02*
D03*
X481500Y731000D02*
D03*
X669000Y469000D02*
D03*
X535000Y751000D02*
D03*
X519250Y677000D02*
D03*
X540250D02*
D03*
X655250Y698500D02*
D03*
X663500Y692500D02*
D03*
X606000Y683000D02*
D03*
X386090Y736340D02*
D03*
X753750Y776750D02*
D03*
X791500Y417500D02*
D03*
X494500Y587500D02*
D03*
X474250D02*
D03*
X451500D02*
D03*
X430250Y506000D02*
D03*
X704250Y488500D02*
D03*
X510750Y492000D02*
D03*
X527000Y584250D02*
D03*
X535500Y493750D02*
D03*
X763000Y311750D02*
D03*
X522500Y608500D02*
D03*
X536500Y608000D02*
D03*
X653500Y666650D02*
D03*
X669650D02*
D03*
X686250Y583750D02*
D03*
X686000Y701250D02*
D03*
X639500Y604625D02*
D03*
X603250Y584500D02*
D03*
X528250Y602500D02*
D03*
X449950Y542000D02*
D03*
X570550D02*
D03*
X546430D02*
D03*
X521750D02*
D03*
X497750D02*
D03*
X473750D02*
D03*
X486860Y347020D02*
D03*
X498860D02*
D03*
Y358520D02*
D03*
X486860D02*
D03*
X499360Y370520D02*
D03*
X487360D02*
D03*
X461750Y706000D02*
D03*
X403570Y635000D02*
D03*
X655000Y738000D02*
D03*
X605250Y722750D02*
D03*
X538360Y352520D02*
D03*
X442360D02*
D03*
X580110Y327770D02*
D03*
X511360Y316520D02*
D03*
X464360Y329520D02*
D03*
X394360Y323520D02*
D03*
X594360Y464520D02*
D03*
X654360Y489520D02*
D03*
X639360D02*
D03*
X624360D02*
D03*
X404750Y724000D02*
D03*
X450750Y772000D02*
D03*
X545250Y603000D02*
D03*
X543750Y583500D02*
D03*
X551000Y594250D02*
D03*
X559000Y603750D02*
D03*
X565750Y778000D02*
D03*
X573750Y685500D02*
D03*
X567250Y679000D02*
D03*
X575770Y648750D02*
D03*
X550935Y640500D02*
D03*
X530000Y715000D02*
D03*
X520000Y720000D02*
D03*
X565000Y633000D02*
D03*
X564303Y663442D02*
D03*
X563999Y640499D02*
D03*
X364000Y448000D02*
D03*
X364500Y430500D02*
D03*
X364000Y440000D02*
D03*
X414000Y800000D02*
D03*
X498500Y795500D02*
D03*
X517500Y813500D02*
D03*
D41*
X753100Y679350D02*
D03*
X754000Y667250D02*
D03*
X753750Y548000D02*
D03*
X752850Y560100D02*
D03*
M02*
