G04*
G04 #@! TF.GenerationSoftware,Altium Limited,CircuitStudio,1.5.2 (1.5.2.30)*
G04*
G04 Layer_Color=11767835*
%FSLAX44Y44*%
%MOMM*%
G71*
G01*
G75*
%ADD10R,0.6500X1.0500*%
%ADD15C,0.0254*%
%ADD16C,1.0000*%
%ADD17C,6.0000*%
%ADD18C,3.6000*%
%ADD19C,1.5000*%
%ADD20R,1.5000X1.5000*%
%ADD21C,2.0000*%
%ADD22C,1.5240*%
%ADD23R,1.5240X1.5240*%
%ADD24O,2.5000X1.5000*%
%ADD25C,1.7780*%
%ADD26R,1.7780X1.7780*%
%ADD27R,1.7780X1.7780*%
D10*
X540250Y656000D02*
D03*
Y698000D02*
D03*
X519250D02*
D03*
Y656000D02*
D03*
D15*
X585622Y473186D02*
G03*
X585622Y473186I-762J0D01*
G01*
X578866Y479536D02*
X609854D01*
X578866Y448548D02*
Y479536D01*
Y448548D02*
X609854D01*
Y479536D01*
X578866Y474456D02*
X583946Y479536D01*
D16*
X1045000Y805000D02*
X1090000D01*
X965000Y885000D02*
X1045000Y805000D01*
X965000Y885000D02*
Y1030000D01*
X1090000Y360000D02*
Y520000D01*
X980000Y250000D02*
X1090000Y360000D01*
X965000Y250000D02*
X980000D01*
X1130000Y725000D02*
Y765000D01*
X1115000Y710000D02*
X1130000Y725000D01*
Y560000D02*
Y605000D01*
X1115000Y620000D02*
X1130000Y605000D01*
X1115000Y620000D02*
Y710000D01*
X1090000Y520000D02*
X1130000Y560000D01*
X120000Y250000D02*
X965000D01*
X1090000Y805000D02*
X1130000Y765000D01*
X120000Y1030000D02*
X965000D01*
X120000Y250000D02*
Y1030000D01*
D17*
X924000Y329000D02*
D03*
X212000D02*
D03*
Y654500D02*
D03*
Y980000D02*
D03*
X924000Y986000D02*
D03*
X653300Y964000D02*
D03*
D18*
X864250Y400250D02*
D03*
X750250D02*
D03*
X864250Y932000D02*
D03*
X750250D02*
D03*
D19*
X832250Y325250D02*
D03*
X807250D02*
D03*
X782250D02*
D03*
X832250Y470250D02*
D03*
Y857000D02*
D03*
X807250D02*
D03*
X782250D02*
D03*
X832250Y1002000D02*
D03*
D20*
X782250Y470250D02*
D03*
Y1002000D02*
D03*
D21*
X155600Y871500D02*
D03*
X181000D02*
D03*
X219100D02*
D03*
X244500D02*
D03*
X269900D02*
D03*
X295300D02*
D03*
X555300D02*
D03*
X529900D02*
D03*
X504500D02*
D03*
X479100D02*
D03*
X453700D02*
D03*
X428300D02*
D03*
X396900D02*
D03*
X371500D02*
D03*
X320700D02*
D03*
X346100D02*
D03*
D22*
X311750Y574750D02*
D03*
Y600150D02*
D03*
Y676350D02*
D03*
Y650950D02*
D03*
Y625550D02*
D03*
Y536650D02*
D03*
Y511250D02*
D03*
Y727150D02*
D03*
Y701750D02*
D03*
D23*
Y752550D02*
D03*
D24*
X834000Y748000D02*
D03*
Y768000D02*
D03*
Y788000D02*
D03*
Y808000D02*
D03*
X834000Y694000D02*
D03*
Y674000D02*
D03*
Y654000D02*
D03*
Y634000D02*
D03*
Y579000D02*
D03*
Y559000D02*
D03*
Y539000D02*
D03*
Y519000D02*
D03*
D25*
X924800Y429500D02*
D03*
X646000Y303700D02*
D03*
D26*
X950200Y429500D02*
D03*
D27*
X646000Y278300D02*
D03*
M02*
