G04*
G04 #@! TF.GenerationSoftware,Altium Limited,CircuitStudio,1.5.2 (1.5.2.30)*
G04*
G04 Layer_Color=13948096*
%FSLAX44Y44*%
%MOMM*%
G71*
G01*
G75*
%ADD12C,0.2540*%
%ADD15C,0.0254*%
%ADD16C,1.0000*%
%ADD65C,0.2000*%
%ADD66C,0.2030*%
%ADD102C,0.1524*%
%ADD103C,0.4000*%
%ADD104C,0.2500*%
%ADD105C,0.2032*%
%ADD106C,0.1000*%
D12*
X765000Y797000D02*
X787000Y789000D01*
X1032054Y474237D02*
X1033720Y475903D01*
X1037053D01*
X1038719Y474237D01*
Y467572D01*
X1037053Y465906D01*
X1033720D01*
X1032054Y467572D01*
X1028722D02*
X1027056Y465906D01*
X1023724D01*
X1022057Y467572D01*
Y474237D01*
X1023724Y475903D01*
X1027056D01*
X1028722Y474237D01*
Y472571D01*
X1027056Y470905D01*
X1022057D01*
X1041219Y445406D02*
Y455403D01*
X1036220D01*
X1034554Y453737D01*
Y450405D01*
X1036220Y448739D01*
X1041219D01*
X1037887D02*
X1034554Y445406D01*
X1031222D02*
X1027890D01*
X1029556D01*
Y455403D01*
X1031222Y453737D01*
X1022891Y445406D02*
X1019559D01*
X1021225D01*
Y455403D01*
X1022891Y453737D01*
X1005554Y385572D02*
Y392237D01*
X1007220Y393903D01*
X1010553D01*
X1012219Y392237D01*
Y385572D01*
X1010553Y383906D01*
X1007220D01*
X1008887Y387239D02*
X1005554Y383906D01*
X1007220D02*
X1005554Y385572D01*
X995557Y383906D02*
X1002222D01*
X995557Y390571D01*
Y392237D01*
X997224Y393903D01*
X1000556D01*
X1002222Y392237D01*
X943532Y469645D02*
X946864D01*
X945198D01*
Y461315D01*
X946864Y459649D01*
X948530D01*
X950196Y461315D01*
X933535Y469645D02*
X940200D01*
Y464647D01*
X936867Y466313D01*
X935201D01*
X933535Y464647D01*
Y461315D01*
X935201Y459649D01*
X938533D01*
X940200Y461315D01*
X697000Y780000D02*
X706997D01*
Y784998D01*
X705331Y786664D01*
X701998D01*
X700332Y784998D01*
Y780000D01*
Y783332D02*
X697000Y786664D01*
Y796661D02*
Y789997D01*
X703664Y796661D01*
X705331D01*
X706997Y794995D01*
Y791663D01*
X705331Y789997D01*
X706997Y806658D02*
X705331Y803326D01*
X701998Y799994D01*
X698666D01*
X697000Y801660D01*
Y804992D01*
X698666Y806658D01*
X700332D01*
X701998Y804992D01*
Y799994D01*
X677000Y780000D02*
X686997D01*
Y784998D01*
X685331Y786664D01*
X681998D01*
X680332Y784998D01*
Y780000D01*
Y783332D02*
X677000Y786664D01*
Y796661D02*
Y789997D01*
X683664Y796661D01*
X685331D01*
X686997Y794995D01*
Y791663D01*
X685331Y789997D01*
X686997Y806658D02*
Y799993D01*
X681998D01*
X683664Y803326D01*
Y804992D01*
X681998Y806658D01*
X678666D01*
X677000Y804992D01*
Y801660D01*
X678666Y799993D01*
X926335Y781997D02*
X929668D01*
X928001D01*
Y773666D01*
X929668Y772000D01*
X931334D01*
X933000Y773666D01*
X918005Y772000D02*
Y781997D01*
X923003Y776998D01*
X916339D01*
X404835Y825831D02*
X406502Y827497D01*
X409834D01*
X411500Y825831D01*
Y819166D01*
X409834Y817500D01*
X406502D01*
X404835Y819166D01*
X396505Y817500D02*
Y827497D01*
X401503Y822498D01*
X394839D01*
X391506Y825831D02*
X389840Y827497D01*
X386508D01*
X384842Y825831D01*
Y819166D01*
X386508Y817500D01*
X389840D01*
X391506Y819166D01*
Y825831D01*
X360331Y553665D02*
X361997Y551998D01*
Y548666D01*
X360331Y547000D01*
X353666D01*
X352000Y548666D01*
Y551998D01*
X353666Y553665D01*
X360331Y556997D02*
X361997Y558663D01*
Y561995D01*
X360331Y563661D01*
X358665D01*
X356998Y561995D01*
Y560329D01*
Y561995D01*
X355332Y563661D01*
X353666D01*
X352000Y561995D01*
Y558663D01*
X353666Y556997D01*
Y566994D02*
X352000Y568660D01*
Y571992D01*
X353666Y573658D01*
X360331D01*
X361997Y571992D01*
Y568660D01*
X360331Y566994D01*
X358665D01*
X356998Y568660D01*
Y573658D01*
X349831Y776664D02*
X351497Y774998D01*
Y771666D01*
X349831Y770000D01*
X343166D01*
X341500Y771666D01*
Y774998D01*
X343166Y776664D01*
X349831Y779997D02*
X351497Y781663D01*
Y784995D01*
X349831Y786661D01*
X348164D01*
X346498Y784995D01*
Y783329D01*
Y784995D01*
X344832Y786661D01*
X343166D01*
X341500Y784995D01*
Y781663D01*
X343166Y779997D01*
X349831Y789993D02*
X351497Y791660D01*
Y794992D01*
X349831Y796658D01*
X348164D01*
X346498Y794992D01*
X344832Y796658D01*
X343166D01*
X341500Y794992D01*
Y791660D01*
X343166Y789993D01*
X344832D01*
X346498Y791660D01*
X348164Y789993D01*
X349831D01*
X346498Y791660D02*
Y794992D01*
X744330Y760664D02*
X745997Y758998D01*
Y755666D01*
X744330Y754000D01*
X737666D01*
X736000Y755666D01*
Y758998D01*
X737666Y760664D01*
X744330Y763997D02*
X745997Y765663D01*
Y768995D01*
X744330Y770661D01*
X742664D01*
X740998Y768995D01*
Y767329D01*
Y768995D01*
X739332Y770661D01*
X737666D01*
X736000Y768995D01*
Y765663D01*
X737666Y763997D01*
X745997Y773993D02*
Y780658D01*
X744330D01*
X737666Y773993D01*
X736000D01*
X404835Y805831D02*
X406502Y807497D01*
X409834D01*
X411500Y805831D01*
Y799166D01*
X409834Y797500D01*
X406502D01*
X404835Y799166D01*
X401503Y805831D02*
X399837Y807497D01*
X396505D01*
X394839Y805831D01*
Y804164D01*
X396505Y802498D01*
X398171D01*
X396505D01*
X394839Y800832D01*
Y799166D01*
X396505Y797500D01*
X399837D01*
X401503Y799166D01*
X384842Y807497D02*
X388174Y805831D01*
X391506Y802498D01*
Y799166D01*
X389840Y797500D01*
X386508D01*
X384842Y799166D01*
Y800832D01*
X386508Y802498D01*
X391506D01*
X381331Y553665D02*
X382997Y551998D01*
Y548666D01*
X381331Y547000D01*
X374666D01*
X373000Y548666D01*
Y551998D01*
X374666Y553665D01*
X381331Y556997D02*
X382997Y558663D01*
Y561995D01*
X381331Y563661D01*
X379664D01*
X377998Y561995D01*
Y560329D01*
Y561995D01*
X376332Y563661D01*
X374666D01*
X373000Y561995D01*
Y558663D01*
X374666Y556997D01*
X382997Y573658D02*
Y566994D01*
X377998D01*
X379664Y570326D01*
Y571992D01*
X377998Y573658D01*
X374666D01*
X373000Y571992D01*
Y568660D01*
X374666Y566994D01*
X374831Y776664D02*
X376497Y774998D01*
Y771666D01*
X374831Y770000D01*
X368166D01*
X366500Y771666D01*
Y774998D01*
X368166Y776664D01*
X374831Y779997D02*
X376497Y781663D01*
Y784995D01*
X374831Y786661D01*
X373164D01*
X371498Y784995D01*
Y783329D01*
Y784995D01*
X369832Y786661D01*
X368166D01*
X366500Y784995D01*
Y781663D01*
X368166Y779997D01*
X366500Y794992D02*
X376497D01*
X371498Y789993D01*
Y796658D01*
X766330Y809664D02*
X767997Y807998D01*
Y804666D01*
X766330Y803000D01*
X759666D01*
X758000Y804666D01*
Y807998D01*
X759666Y809664D01*
X766330Y812997D02*
X767997Y814663D01*
Y817995D01*
X766330Y819661D01*
X764664D01*
X762998Y817995D01*
Y816329D01*
Y817995D01*
X761332Y819661D01*
X759666D01*
X758000Y817995D01*
Y814663D01*
X759666Y812997D01*
X766330Y822993D02*
X767997Y824660D01*
Y827992D01*
X766330Y829658D01*
X764664D01*
X762998Y827992D01*
Y826326D01*
Y827992D01*
X761332Y829658D01*
X759666D01*
X758000Y827992D01*
Y824660D01*
X759666Y822993D01*
X500331Y481664D02*
X501997Y479998D01*
Y476666D01*
X500331Y475000D01*
X493666D01*
X492000Y476666D01*
Y479998D01*
X493666Y481664D01*
X492000Y484997D02*
Y488329D01*
Y486663D01*
X501997D01*
X500331Y484997D01*
X572331Y481664D02*
X573997Y479998D01*
Y476666D01*
X572331Y475000D01*
X565666D01*
X564000Y476666D01*
Y479998D01*
X565666Y481664D01*
X564000Y491661D02*
Y484997D01*
X570664Y491661D01*
X572331D01*
X573997Y489995D01*
Y486663D01*
X572331Y484997D01*
X452331Y481664D02*
X453997Y479998D01*
Y476666D01*
X452331Y475000D01*
X445666D01*
X444000Y476666D01*
Y479998D01*
X445666Y481664D01*
X452331Y484997D02*
X453997Y486663D01*
Y489995D01*
X452331Y491661D01*
X450664D01*
X448998Y489995D01*
Y488329D01*
Y489995D01*
X447332Y491661D01*
X445666D01*
X444000Y489995D01*
Y486663D01*
X445666Y484997D01*
X476330Y481664D02*
X477997Y479998D01*
Y476666D01*
X476330Y475000D01*
X469666D01*
X468000Y476666D01*
Y479998D01*
X469666Y481664D01*
X468000Y489995D02*
X477997D01*
X472998Y484997D01*
Y491661D01*
X524330Y481664D02*
X525997Y479998D01*
Y476666D01*
X524330Y475000D01*
X517666D01*
X516000Y476666D01*
Y479998D01*
X517666Y481664D01*
X525997Y491661D02*
Y484997D01*
X520998D01*
X522664Y488329D01*
Y489995D01*
X520998Y491661D01*
X517666D01*
X516000Y489995D01*
Y486663D01*
X517666Y484997D01*
X548330Y481664D02*
X549997Y479998D01*
Y476666D01*
X548330Y475000D01*
X541666D01*
X540000Y476666D01*
Y479998D01*
X541666Y481664D01*
X549997Y491661D02*
X548330Y488329D01*
X544998Y484997D01*
X541666D01*
X540000Y486663D01*
Y489995D01*
X541666Y491661D01*
X543332D01*
X544998Y489995D01*
Y484997D01*
X394831Y619164D02*
X396497Y617498D01*
Y614166D01*
X394831Y612500D01*
X388166D01*
X386500Y614166D01*
Y617498D01*
X388166Y619164D01*
X386500Y622497D02*
Y625829D01*
Y624163D01*
X396497D01*
X394831Y622497D01*
Y630827D02*
X396497Y632494D01*
Y635826D01*
X394831Y637492D01*
X388166D01*
X386500Y635826D01*
Y632494D01*
X388166Y630827D01*
X394831D01*
X607335Y575830D02*
X609002Y577497D01*
X612334D01*
X614000Y575830D01*
Y569166D01*
X612334Y567500D01*
X609002D01*
X607335Y569166D01*
X604003Y567500D02*
X600671D01*
X602337D01*
Y577497D01*
X604003Y575830D01*
X595672D02*
X594006Y577497D01*
X590674D01*
X589008Y575830D01*
Y574164D01*
X590674Y572498D01*
X592340D01*
X590674D01*
X589008Y570832D01*
Y569166D01*
X590674Y567500D01*
X594006D01*
X595672Y569166D01*
X532335Y768331D02*
X534002Y769997D01*
X537334D01*
X539000Y768331D01*
Y761666D01*
X537334Y760000D01*
X534002D01*
X532335Y761666D01*
X529003Y760000D02*
X525671D01*
X527337D01*
Y769997D01*
X529003Y768331D01*
X515674Y760000D02*
Y769997D01*
X520672Y764998D01*
X514008D01*
X489835Y783331D02*
X491502Y784997D01*
X494834D01*
X496500Y783331D01*
Y776666D01*
X494834Y775000D01*
X491502D01*
X489835Y776666D01*
X479839Y775000D02*
X486503D01*
X479839Y781664D01*
Y783331D01*
X481505Y784997D01*
X484837D01*
X486503Y783331D01*
X476506D02*
X474840Y784997D01*
X471508D01*
X469842Y783331D01*
Y776666D01*
X471508Y775000D01*
X474840D01*
X476506Y776666D01*
Y783331D01*
X377331Y341665D02*
X378997Y339998D01*
Y336666D01*
X377331Y335000D01*
X370666D01*
X369000Y336666D01*
Y339998D01*
X370666Y341665D01*
X369000Y351661D02*
Y344997D01*
X375664Y351661D01*
X377331D01*
X378997Y349995D01*
Y346663D01*
X377331Y344997D01*
X369000Y361658D02*
Y354994D01*
X375664Y361658D01*
X377331D01*
X378997Y359992D01*
Y356660D01*
X377331Y354994D01*
X632331Y411664D02*
X633997Y409998D01*
Y406666D01*
X632331Y405000D01*
X625666D01*
X624000Y406666D01*
Y409998D01*
X625666Y411664D01*
X624000Y421661D02*
Y414997D01*
X630664Y421661D01*
X632331D01*
X633997Y419995D01*
Y416663D01*
X632331Y414997D01*
Y424993D02*
X633997Y426660D01*
Y429992D01*
X632331Y431658D01*
X630664D01*
X628998Y429992D01*
Y428326D01*
Y429992D01*
X627332Y431658D01*
X625666D01*
X624000Y429992D01*
Y426660D01*
X625666Y424993D01*
X657330Y411664D02*
X658997Y409998D01*
Y406666D01*
X657330Y405000D01*
X650666D01*
X649000Y406666D01*
Y409998D01*
X650666Y411664D01*
X649000Y421661D02*
Y414997D01*
X655664Y421661D01*
X657330D01*
X658997Y419995D01*
Y416663D01*
X657330Y414997D01*
X649000Y429992D02*
X658997D01*
X653998Y424993D01*
Y431658D01*
X562336Y382331D02*
X564002Y383997D01*
X567334D01*
X569000Y382331D01*
Y375666D01*
X567334Y374000D01*
X564002D01*
X562336Y375666D01*
X552339Y374000D02*
X559003D01*
X552339Y380664D01*
Y382331D01*
X554005Y383997D01*
X557337D01*
X559003Y382331D01*
X542342Y383997D02*
X549006D01*
Y378998D01*
X545674Y380664D01*
X544008D01*
X542342Y378998D01*
Y375666D01*
X544008Y374000D01*
X547340D01*
X549006Y375666D01*
X556335Y298331D02*
X558002Y299997D01*
X561334D01*
X563000Y298331D01*
Y291666D01*
X561334Y290000D01*
X558002D01*
X556335Y291666D01*
X546339Y290000D02*
X553003D01*
X546339Y296665D01*
Y298331D01*
X548005Y299997D01*
X551337D01*
X553003Y298331D01*
X536342Y299997D02*
X539674Y298331D01*
X543006Y294998D01*
Y291666D01*
X541340Y290000D01*
X538008D01*
X536342Y291666D01*
Y293332D01*
X538008Y294998D01*
X543006D01*
X926335Y553997D02*
X929668D01*
X928001D01*
Y545666D01*
X929668Y544000D01*
X931334D01*
X933000Y545666D01*
X923003Y544000D02*
X919671D01*
X921337D01*
Y553997D01*
X923003Y552331D01*
X926335Y665997D02*
X929668D01*
X928001D01*
Y657666D01*
X929668Y656000D01*
X931334D01*
X933000Y657666D01*
X916339Y656000D02*
X923003D01*
X916339Y662664D01*
Y664331D01*
X918005Y665997D01*
X921337D01*
X923003Y664331D01*
X671335Y330997D02*
X674668D01*
X673001D01*
Y322666D01*
X674668Y321000D01*
X676334D01*
X678000Y322666D01*
X668003Y329330D02*
X666337Y330997D01*
X663005D01*
X661339Y329330D01*
Y327664D01*
X663005Y325998D01*
X664671D01*
X663005D01*
X661339Y324332D01*
Y322666D01*
X663005Y321000D01*
X666337D01*
X668003Y322666D01*
X595195Y493686D02*
Y500350D01*
X596861Y502017D01*
X600194D01*
X601860Y500350D01*
Y493686D01*
X600194Y492020D01*
X596861D01*
X598528Y495352D02*
X595195Y492020D01*
X596861D02*
X595195Y493686D01*
X591863Y492020D02*
X588531D01*
X590197D01*
Y502017D01*
X591863Y500350D01*
X779000Y832500D02*
X788997D01*
Y837498D01*
X787330Y839164D01*
X783998D01*
X782332Y837498D01*
Y832500D01*
Y835832D02*
X779000Y839164D01*
Y842497D02*
Y845829D01*
Y844163D01*
X788997D01*
X787330Y842497D01*
X499000Y582500D02*
X508997D01*
Y587498D01*
X507331Y589164D01*
X503998D01*
X502332Y587498D01*
Y582500D01*
Y585832D02*
X499000Y589164D01*
X507331Y592497D02*
X508997Y594163D01*
Y597495D01*
X507331Y599161D01*
X505664D01*
X503998Y597495D01*
Y595829D01*
Y597495D01*
X502332Y599161D01*
X500666D01*
X499000Y597495D01*
Y594163D01*
X500666Y592497D01*
X566500Y582500D02*
X576497D01*
Y587498D01*
X574831Y589164D01*
X571498D01*
X569832Y587498D01*
Y582500D01*
Y585832D02*
X566500Y589164D01*
Y597495D02*
X576497D01*
X571498Y592497D01*
Y599161D01*
X800000Y833000D02*
X809997D01*
Y837998D01*
X808330Y839664D01*
X804998D01*
X803332Y837998D01*
Y833000D01*
Y836332D02*
X800000Y839664D01*
X809997Y849661D02*
Y842997D01*
X804998D01*
X806664Y846329D01*
Y847995D01*
X804998Y849661D01*
X801666D01*
X800000Y847995D01*
Y844663D01*
X801666Y842997D01*
X816500Y280000D02*
X826497D01*
Y284998D01*
X824830Y286664D01*
X821498D01*
X819832Y284998D01*
Y280000D01*
Y283332D02*
X816500Y286664D01*
X826497Y296661D02*
X824830Y293329D01*
X821498Y289997D01*
X818166D01*
X816500Y291663D01*
Y294995D01*
X818166Y296661D01*
X819832D01*
X821498Y294995D01*
Y289997D01*
X469000Y592500D02*
X478997D01*
Y597498D01*
X477331Y599164D01*
X473998D01*
X472332Y597498D01*
Y592500D01*
Y595832D02*
X469000Y599164D01*
X478997Y602497D02*
Y609161D01*
X477331D01*
X470666Y602497D01*
X469000D01*
X426500Y555000D02*
X436497D01*
Y559998D01*
X434831Y561664D01*
X431498D01*
X429832Y559998D01*
Y555000D01*
Y558332D02*
X426500Y561664D01*
X434831Y564997D02*
X436497Y566663D01*
Y569995D01*
X434831Y571661D01*
X433164D01*
X431498Y569995D01*
X429832Y571661D01*
X428166D01*
X426500Y569995D01*
Y566663D01*
X428166Y564997D01*
X429832D01*
X431498Y566663D01*
X433164Y564997D01*
X434831D01*
X431498Y566663D02*
Y569995D01*
X796500Y497500D02*
Y507497D01*
X791501D01*
X789835Y505830D01*
Y502498D01*
X791501Y500832D01*
X796500D01*
X793168D02*
X789835Y497500D01*
X786503D02*
X783171D01*
X784837D01*
Y507497D01*
X786503Y505830D01*
X778173D02*
X776506Y507497D01*
X773174D01*
X771508Y505830D01*
Y504164D01*
X773174Y502498D01*
X774840D01*
X773174D01*
X771508Y500832D01*
Y499166D01*
X773174Y497500D01*
X776506D01*
X778173Y499166D01*
X432500Y771750D02*
Y781747D01*
X427502D01*
X425835Y780081D01*
Y776748D01*
X427502Y775082D01*
X432500D01*
X429168D02*
X425835Y771750D01*
X422503D02*
X419171D01*
X420837D01*
Y781747D01*
X422503Y780081D01*
X407508Y781747D02*
X414173D01*
Y776748D01*
X410840Y778415D01*
X409174D01*
X407508Y776748D01*
Y773416D01*
X409174Y771750D01*
X412506D01*
X414173Y773416D01*
X362479Y645601D02*
X355410Y652670D01*
X351876Y649135D01*
Y646779D01*
X354232Y644423D01*
X356589D01*
X360123Y647957D01*
X357767Y645601D02*
Y640888D01*
X355410Y638532D02*
X353054Y636176D01*
X354232Y637354D01*
X347164Y644423D01*
X349520D01*
X337738Y634998D02*
X341273Y636176D01*
X345985D01*
X348342Y633820D01*
Y631463D01*
X345985Y629107D01*
X343629Y629107D01*
X342451Y630285D01*
X342451Y632641D01*
X345985Y636176D01*
X372944Y635387D02*
X365875Y642455D01*
X362340Y638921D01*
Y636565D01*
X364697Y634208D01*
X367053D01*
X370587Y637743D01*
X368231Y635387D02*
Y630674D01*
X365875Y628318D02*
X363518Y625961D01*
X364697Y627140D01*
X357628Y634208D01*
X359984D01*
X352915Y629496D02*
X348203Y624783D01*
X349381Y623605D01*
X358806D01*
X359984Y622427D01*
X764000Y635000D02*
Y644997D01*
X759001D01*
X757335Y643331D01*
Y639998D01*
X759001Y638332D01*
X764000D01*
X760668D02*
X757335Y635000D01*
X754003D02*
X750671D01*
X752337D01*
Y644997D01*
X754003Y643331D01*
X745672Y636666D02*
X744006Y635000D01*
X740674D01*
X739008Y636666D01*
Y643331D01*
X740674Y644997D01*
X744006D01*
X745672Y643331D01*
Y641664D01*
X744006Y639998D01*
X739008D01*
X614000Y627500D02*
X623997D01*
Y632498D01*
X622331Y634164D01*
X618998D01*
X617332Y632498D01*
Y627500D01*
Y630832D02*
X614000Y634164D01*
Y644161D02*
Y637497D01*
X620664Y644161D01*
X622331D01*
X623997Y642495D01*
Y639163D01*
X622331Y637497D01*
Y647493D02*
X623997Y649160D01*
Y652492D01*
X622331Y654158D01*
X615666D01*
X614000Y652492D01*
Y649160D01*
X615666Y647493D01*
X622331D01*
X651000Y673000D02*
X660996D01*
Y677998D01*
X659330Y679664D01*
X655998D01*
X654332Y677998D01*
Y673000D01*
Y676332D02*
X651000Y679664D01*
Y689661D02*
Y682997D01*
X657664Y689661D01*
X659330D01*
X660996Y687995D01*
Y684663D01*
X659330Y682997D01*
X651000Y692993D02*
Y696326D01*
Y694660D01*
X660996D01*
X659330Y692993D01*
X634000Y335000D02*
X643997D01*
Y339998D01*
X642330Y341664D01*
X638998D01*
X637332Y339998D01*
Y335000D01*
Y338332D02*
X634000Y341664D01*
Y351661D02*
Y344997D01*
X640664Y351661D01*
X642330D01*
X643997Y349995D01*
Y346663D01*
X642330Y344997D01*
Y354993D02*
X643997Y356660D01*
Y359992D01*
X642330Y361658D01*
X640664D01*
X638998Y359992D01*
Y358326D01*
Y359992D01*
X637332Y361658D01*
X635666D01*
X634000Y359992D01*
Y356660D01*
X635666Y354993D01*
X716500Y597497D02*
Y589166D01*
X714834Y587500D01*
X711501D01*
X709835Y589166D01*
Y597497D01*
X706503Y587500D02*
X703171D01*
X704837D01*
Y597497D01*
X706503Y595830D01*
X609000Y762497D02*
Y754166D01*
X607334Y752500D01*
X604002D01*
X602335Y754166D01*
Y762497D01*
X592339Y752500D02*
X599003D01*
X592339Y759164D01*
Y760831D01*
X594005Y762497D01*
X597337D01*
X599003Y760831D01*
X719000Y717497D02*
Y709166D01*
X717334Y707500D01*
X714001D01*
X712335Y709166D01*
Y717497D01*
X709003Y715831D02*
X707337Y717497D01*
X704005D01*
X702339Y715831D01*
Y714164D01*
X704005Y712498D01*
X705671D01*
X704005D01*
X702339Y710832D01*
Y709166D01*
X704005Y707500D01*
X707337D01*
X709003Y709166D01*
X669069Y738069D02*
X657287Y735712D01*
X664356Y742781D02*
X662000Y731000D01*
Y745137D02*
X657287Y749850D01*
X659644Y747494D01*
X652575Y740425D01*
X647862Y745137D02*
X652575Y749850D01*
X652575Y754563D01*
X647862Y754563D01*
X643150Y749850D01*
X646684Y753384D01*
X651397Y748672D01*
X647862Y759275D02*
X640794Y752206D01*
X636081Y756919D01*
X633725Y759275D02*
X631368Y761631D01*
X632547Y760453D01*
X639615Y767522D01*
Y765166D01*
X799830Y604164D02*
X801497Y602498D01*
Y599166D01*
X799830Y597500D01*
X793166D01*
X791500Y599166D01*
Y602498D01*
X793166Y604164D01*
X801497Y607497D02*
Y614161D01*
X799830D01*
X793166Y607497D01*
X791500D01*
X662330Y581664D02*
X663997Y579998D01*
Y576666D01*
X662330Y575000D01*
X655666D01*
X654000Y576666D01*
Y579998D01*
X655666Y581664D01*
X662330Y584997D02*
X663997Y586663D01*
Y589995D01*
X662330Y591661D01*
X660664D01*
X658998Y589995D01*
X657332Y591661D01*
X655666D01*
X654000Y589995D01*
Y586663D01*
X655666Y584997D01*
X657332D01*
X658998Y586663D01*
X660664Y584997D01*
X662330D01*
X658998Y586663D02*
Y589995D01*
X777330Y604164D02*
X778997Y602498D01*
Y599166D01*
X777330Y597500D01*
X770666D01*
X769000Y599166D01*
Y602498D01*
X770666Y604164D01*
X769000Y607497D02*
Y610829D01*
Y609163D01*
X778997D01*
X777330Y607497D01*
X778997Y622492D02*
Y615827D01*
X773998D01*
X775664Y619160D01*
Y620826D01*
X773998Y622492D01*
X770666D01*
X769000Y620826D01*
Y617493D01*
X770666Y615827D01*
X777330Y721664D02*
X778997Y719998D01*
Y716666D01*
X777330Y715000D01*
X770666D01*
X769000Y716666D01*
Y719998D01*
X770666Y721664D01*
X769000Y724997D02*
Y728329D01*
Y726663D01*
X778997D01*
X777330Y724997D01*
X778997Y739992D02*
X777330Y736660D01*
X773998Y733327D01*
X770666D01*
X769000Y734993D01*
Y738326D01*
X770666Y739992D01*
X772332D01*
X773998Y738326D01*
Y733327D01*
X662330Y619164D02*
X663997Y617498D01*
Y614166D01*
X662330Y612500D01*
X655666D01*
X654000Y614166D01*
Y617498D01*
X655666Y619164D01*
X654000Y622497D02*
Y625829D01*
Y624163D01*
X663997D01*
X662330Y622497D01*
X663997Y630827D02*
Y637492D01*
X662330D01*
X655666Y630827D01*
X654000D01*
X800330Y721664D02*
X801997Y719998D01*
Y716666D01*
X800330Y715000D01*
X793666D01*
X792000Y716666D01*
Y719998D01*
X793666Y721664D01*
X792000Y731661D02*
Y724997D01*
X798664Y731661D01*
X800330D01*
X801997Y729995D01*
Y726663D01*
X800330Y724997D01*
X792000Y734993D02*
Y738326D01*
Y736660D01*
X801997D01*
X800330Y734993D01*
X482336Y450331D02*
X484002Y451997D01*
X487334D01*
X489000Y450331D01*
Y443666D01*
X487334Y442000D01*
X484002D01*
X482336Y443666D01*
X472339Y442000D02*
X479003D01*
X472339Y448665D01*
Y450331D01*
X474005Y451997D01*
X477337D01*
X479003Y450331D01*
X469007D02*
X467340Y451997D01*
X464008D01*
X462342Y450331D01*
Y448665D01*
X464008Y446998D01*
X462342Y445332D01*
Y443666D01*
X464008Y442000D01*
X467340D01*
X469007Y443666D01*
Y445332D01*
X467340Y446998D01*
X469007Y448665D01*
Y450331D01*
X467340Y446998D02*
X464008D01*
X615379Y400101D02*
X617045Y401767D01*
X620377D01*
X622043Y400101D01*
Y393436D01*
X620377Y391770D01*
X617045D01*
X615379Y393436D01*
X612047Y400101D02*
X610380Y401767D01*
X607048D01*
X605382Y400101D01*
Y398434D01*
X607048Y396768D01*
X608714D01*
X607048D01*
X605382Y395102D01*
Y393436D01*
X607048Y391770D01*
X610380D01*
X612047Y393436D01*
X602050Y400101D02*
X600384Y401767D01*
X597051D01*
X595385Y400101D01*
Y393436D01*
X597051Y391770D01*
X600384D01*
X602050Y393436D01*
Y400101D01*
X592335Y428330D02*
X594002Y429997D01*
X597334D01*
X599000Y428330D01*
Y421666D01*
X597334Y420000D01*
X594002D01*
X592335Y421666D01*
X582339Y420000D02*
X589003D01*
X582339Y426664D01*
Y428330D01*
X584005Y429997D01*
X587337D01*
X589003Y428330D01*
X579006Y429997D02*
X572342D01*
Y428330D01*
X579006Y421666D01*
Y420000D01*
X399750Y706997D02*
Y697000D01*
X393086D01*
X389753D02*
X386421D01*
X388087D01*
Y706997D01*
X389753Y705331D01*
X399750Y728997D02*
Y719000D01*
X393086D01*
X383089D02*
X389753D01*
X383089Y725665D01*
Y727331D01*
X384755Y728997D01*
X388087D01*
X389753Y727331D01*
X418000Y464997D02*
Y455000D01*
X411335D01*
X408003Y463331D02*
X406337Y464997D01*
X403005D01*
X401339Y463331D01*
Y461665D01*
X403005Y459998D01*
X404671D01*
X403005D01*
X401339Y458332D01*
Y456666D01*
X403005Y455000D01*
X406337D01*
X408003Y456666D01*
X594000Y302000D02*
X603997D01*
Y306998D01*
X602331Y308664D01*
X598998D01*
X597332Y306998D01*
Y302000D01*
Y305332D02*
X594000Y308664D01*
Y318661D02*
Y311997D01*
X600664Y318661D01*
X602331D01*
X603997Y316995D01*
Y313663D01*
X602331Y311997D01*
X594000Y328658D02*
Y321994D01*
X600664Y328658D01*
X602331D01*
X603997Y326992D01*
Y323660D01*
X602331Y321994D01*
X576367Y368591D02*
X586364D01*
Y373589D01*
X584698Y375255D01*
X581366D01*
X579699Y373589D01*
Y368591D01*
Y371923D02*
X576367Y375255D01*
Y385252D02*
Y378587D01*
X583032Y385252D01*
X584698D01*
X586364Y383586D01*
Y380254D01*
X584698Y378587D01*
X576367Y393583D02*
X586364D01*
X581366Y388584D01*
Y395249D01*
X444000Y340997D02*
Y332666D01*
X442334Y331000D01*
X439002D01*
X437336Y332666D01*
Y340997D01*
X429005Y331000D02*
Y340997D01*
X434003Y335998D01*
X427339D01*
X455336Y292331D02*
X457002Y293997D01*
X460334D01*
X462000Y292331D01*
Y285666D01*
X460334Y284000D01*
X457002D01*
X455336Y285666D01*
X452003Y292331D02*
X450337Y293997D01*
X447005D01*
X445339Y292331D01*
Y290665D01*
X447005Y288998D01*
X448671D01*
X447005D01*
X445339Y287332D01*
Y285666D01*
X447005Y284000D01*
X450337D01*
X452003Y285666D01*
X442006Y284000D02*
X438674D01*
X440340D01*
Y293997D01*
X442006Y292331D01*
X454336Y317331D02*
X456002Y318997D01*
X459334D01*
X461000Y317331D01*
Y310666D01*
X459334Y309000D01*
X456002D01*
X454336Y310666D01*
X451003Y317331D02*
X449337Y318997D01*
X446005D01*
X444339Y317331D01*
Y315665D01*
X446005Y313998D01*
X447671D01*
X446005D01*
X444339Y312332D01*
Y310666D01*
X446005Y309000D01*
X449337D01*
X451003Y310666D01*
X434342Y309000D02*
X441006D01*
X434342Y315665D01*
Y317331D01*
X436008Y318997D01*
X439340D01*
X441006Y317331D01*
X948765Y830000D02*
X964000D01*
Y822382D01*
X961461Y819843D01*
X951304D01*
X948765Y822382D01*
Y830000D01*
X964000Y814765D02*
Y809687D01*
Y812226D01*
X953843D01*
Y814765D01*
X964000Y802069D02*
Y794451D01*
X961461Y791912D01*
X958921Y794451D01*
Y799530D01*
X956382Y802069D01*
X953843Y799530D01*
Y791912D01*
X969078Y786834D02*
X953843D01*
Y779216D01*
X956382Y776677D01*
X961461D01*
X964000Y779216D01*
Y786834D01*
Y771599D02*
Y766520D01*
Y769060D01*
X948765D01*
Y771599D01*
X953843Y756364D02*
Y751285D01*
X956382Y748746D01*
X964000D01*
Y756364D01*
X961461Y758903D01*
X958921Y756364D01*
Y748746D01*
X953843Y743668D02*
X961461D01*
X964000Y741129D01*
Y733511D01*
X966539D01*
X969078Y736050D01*
Y738589D01*
X964000Y733511D02*
X953843D01*
X948765Y719000D02*
X964000D01*
Y708843D01*
X948765Y703765D02*
X964000D01*
Y696147D01*
X961461Y693608D01*
X951304D01*
X948765Y696147D01*
Y703765D01*
X964000Y678373D02*
Y688530D01*
X953843Y678373D01*
X951304D01*
X948765Y680912D01*
Y685991D01*
X951304Y688530D01*
Y647903D02*
X948765Y650442D01*
Y655520D01*
X951304Y658060D01*
X961461D01*
X964000Y655520D01*
Y650442D01*
X961461Y647903D01*
X948765Y635207D02*
Y640285D01*
X951304Y642824D01*
X961461D01*
X964000Y640285D01*
Y635207D01*
X961461Y632668D01*
X951304D01*
X948765Y635207D01*
X964000Y627589D02*
X948765D01*
X953843Y622511D01*
X948765Y617433D01*
X964000D01*
X948765Y607000D02*
X964000D01*
Y596843D01*
X948765Y591765D02*
X964000D01*
Y584147D01*
X961460Y581608D01*
X951304D01*
X948765Y584147D01*
Y591765D01*
X964000Y576530D02*
Y571451D01*
Y573991D01*
X948765D01*
X951304Y576530D01*
Y538442D02*
X948765Y540981D01*
Y546060D01*
X951304Y548599D01*
X961460D01*
X964000Y546060D01*
Y540981D01*
X961460Y538442D01*
X948765Y525746D02*
Y530825D01*
X951304Y533364D01*
X961460D01*
X964000Y530825D01*
Y525746D01*
X961460Y523207D01*
X951304D01*
X948765Y525746D01*
X964000Y518129D02*
X948765D01*
X953843Y513050D01*
X948765Y507972D01*
X964000D01*
X721000Y268000D02*
X717667D01*
X719334D01*
Y277997D01*
X721000Y276331D01*
X706005Y268000D02*
X712669D01*
X706005Y274664D01*
Y276331D01*
X707671Y277997D01*
X711003D01*
X712669Y276331D01*
X702672Y277997D02*
Y271332D01*
X699340Y268000D01*
X696008Y271332D01*
Y277997D01*
X692676Y268000D02*
X689343D01*
X691009D01*
Y274664D01*
X692676D01*
X684345Y268000D02*
Y274664D01*
X679346D01*
X677680Y272998D01*
Y268000D01*
X707335Y306331D02*
X709001Y307997D01*
X712334D01*
X714000Y306331D01*
Y299666D01*
X712334Y298000D01*
X709001D01*
X707335Y299666D01*
Y302998D01*
X710667D01*
X704003Y298000D02*
Y307997D01*
X697338Y298000D01*
Y307997D01*
X694006D02*
Y298000D01*
X689008D01*
X687342Y299666D01*
Y306331D01*
X689008Y307997D01*
X694006D01*
D15*
X585622Y473186D02*
G03*
X585622Y473186I-762J0D01*
G01*
X578866Y479536D02*
X609854D01*
X578866Y448548D02*
Y479536D01*
Y448548D02*
X609854D01*
Y479536D01*
X578866Y474456D02*
X583946Y479536D01*
D16*
X1045000Y805000D02*
X1090000D01*
X965000Y885000D02*
X1045000Y805000D01*
X965000Y885000D02*
Y1030000D01*
X1090000Y360000D02*
Y520000D01*
X980000Y250000D02*
X1090000Y360000D01*
X965000Y250000D02*
X980000D01*
X1130000Y725000D02*
Y765000D01*
X1115000Y710000D02*
X1130000Y725000D01*
Y560000D02*
Y605000D01*
X1115000Y620000D02*
X1130000Y605000D01*
X1115000Y620000D02*
Y710000D01*
X1090000Y520000D02*
X1130000Y560000D01*
X120000Y250000D02*
X965000D01*
X1090000Y805000D02*
X1130000Y765000D01*
X120000Y1030000D02*
X965000D01*
X120000Y250000D02*
Y1030000D01*
D65*
X982185Y462246D02*
Y482566D01*
X1018253Y462246D02*
Y482566D01*
X982185Y462246D02*
X1018253D01*
X982185Y482566D02*
X1018253D01*
X441610Y376270D02*
Y448770D01*
X376610D02*
X441610D01*
X376610Y376270D02*
Y448770D01*
Y376270D02*
X441610D01*
X761590Y749216D02*
X781910D01*
X761590Y785284D02*
X781910D01*
Y749216D02*
Y785284D01*
X761590Y749216D02*
Y785284D01*
X785000Y785000D02*
X805000D01*
Y749000D02*
Y785000D01*
X785000Y749000D02*
X805000D01*
X785000D02*
Y785000D01*
X763590Y674216D02*
Y710284D01*
X783910Y674216D02*
Y710284D01*
X763590D02*
X783910D01*
X763590Y674216D02*
X783910D01*
X786590D02*
Y710284D01*
X806910Y674216D02*
Y710284D01*
X786590D02*
X806910D01*
X786590Y674216D02*
X806910D01*
X644200Y441486D02*
Y477554D01*
X664520Y441486D02*
Y477554D01*
X644200D02*
X664520D01*
X644200Y441486D02*
X664520D01*
X619200D02*
Y477554D01*
X639520Y441486D02*
Y477554D01*
X619200D02*
X639520D01*
X619200Y441486D02*
X639520D01*
X785590Y555966D02*
Y592034D01*
X805910Y555966D02*
Y592034D01*
X785590D02*
X805910D01*
X785590Y555966D02*
X805910D01*
X762590D02*
Y592034D01*
X782910Y555966D02*
Y592034D01*
X762590D02*
X782910D01*
X762590Y555966D02*
X782910D01*
X701250Y578750D02*
X719250D01*
X701250Y528750D02*
X719250D01*
Y578750D01*
X701250Y528750D02*
Y578750D01*
X701000Y698000D02*
X719000D01*
X701000Y648000D02*
X719000D01*
Y698000D01*
X701000Y648000D02*
Y698000D01*
X629090Y565216D02*
Y601284D01*
X649410Y565216D02*
Y601284D01*
X629090D02*
X649410D01*
X629090Y565216D02*
X649410D01*
X580550Y498000D02*
Y534000D01*
X560550D02*
X580550D01*
X560550Y498000D02*
Y534000D01*
Y498000D02*
X580550D01*
X556430D02*
Y534000D01*
X536430D02*
X556430D01*
X536430Y498000D02*
Y534000D01*
Y498000D02*
X556430D01*
X532310D02*
Y534000D01*
X512310D02*
X532310D01*
X512310Y498000D02*
Y534000D01*
Y498000D02*
X532310D01*
X508190D02*
Y534000D01*
X488190D02*
X508190D01*
X488190Y498000D02*
Y534000D01*
Y498000D02*
X508190D01*
X484070D02*
Y534000D01*
X464070D02*
X484070D01*
X464070Y498000D02*
Y534000D01*
Y498000D02*
X484070D01*
X459950D02*
Y534000D01*
X439950D02*
X459950D01*
X439950Y498000D02*
Y534000D01*
Y498000D02*
X459950D01*
X419417Y790236D02*
Y810236D01*
X455417D01*
Y790236D02*
Y810236D01*
X419417Y790236D02*
X455417D01*
X455784Y813090D02*
Y833410D01*
X419716Y813090D02*
Y833410D01*
X455784D01*
X419716Y813090D02*
X455784D01*
X336590Y764784D02*
X356910D01*
X336590Y728716D02*
X356910D01*
X336590D02*
Y764784D01*
X356910Y728716D02*
Y764784D01*
X360000Y728500D02*
X380000D01*
X360000D02*
Y764500D01*
X380000D01*
Y728500D02*
Y764500D01*
X457076Y413680D02*
X493144D01*
X457076Y393360D02*
X493144D01*
Y413680D01*
X457076Y393360D02*
Y413680D01*
X384700Y331736D02*
Y367804D01*
X405020Y331736D02*
Y367804D01*
X384700D02*
X405020D01*
X384700Y331736D02*
X405020D01*
X483860Y333520D02*
Y383520D01*
X501860Y333520D02*
Y383520D01*
X483860Y333520D02*
X501860D01*
X483860Y383520D02*
X501860D01*
X552586Y465520D02*
X567150Y450956D01*
X498570Y449662D02*
X514428Y465520D01*
X591110Y385520D02*
X627110D01*
X591110Y365520D02*
Y385520D01*
Y365520D02*
X627110D01*
Y385520D01*
X567270Y331486D02*
Y367554D01*
X546950Y331486D02*
Y367554D01*
Y331486D02*
X567270D01*
X546950Y367554D02*
X567270D01*
X531202Y327430D02*
X567270D01*
X531202Y307110D02*
X567270D01*
Y327430D01*
X531202Y307110D02*
Y327430D01*
X463716Y750840D02*
X499784D01*
X463716Y771160D02*
X499784D01*
X463716Y750840D02*
Y771160D01*
X499784Y750840D02*
Y771160D01*
X459910Y730966D02*
Y767034D01*
X439590Y730966D02*
Y767034D01*
Y730966D02*
X459910D01*
X439590Y767034D02*
X459910D01*
X470326Y281110D02*
Y301430D01*
X506394Y281110D02*
Y301430D01*
X470326Y281110D02*
X506394D01*
X470326Y301430D02*
X506394D01*
X470326Y326180D02*
X506394D01*
X470326Y305860D02*
X506394D01*
Y326180D01*
X470326Y305860D02*
Y326180D01*
X432090Y606966D02*
Y643034D01*
X452410Y606966D02*
Y643034D01*
X432090D02*
X452410D01*
X432090Y606966D02*
X452410D01*
X408250Y642750D02*
X428250D01*
Y606750D02*
Y642750D01*
X408250Y606750D02*
X428250D01*
X408250D02*
Y642750D01*
X580716Y611160D02*
X616784D01*
X580716Y590840D02*
X616784D01*
Y611160D01*
X580716Y590840D02*
Y611160D01*
X649660Y607716D02*
Y643784D01*
X629340Y607716D02*
Y643784D01*
Y607716D02*
X649660D01*
X629340Y643784D02*
X649660D01*
X543216Y771910D02*
X579284D01*
X543216Y751590D02*
X579284D01*
Y771910D01*
X543216Y751590D02*
Y771910D01*
X469895Y621750D02*
Y637740D01*
Y719760D02*
Y741605D01*
X491740D01*
X573760D02*
X595605D01*
Y719760D02*
Y741605D01*
Y615895D02*
Y637740D01*
X573760Y615895D02*
X595605D01*
X475750D02*
X491740D01*
X469895Y621750D02*
X475750Y615895D01*
X369764Y504670D02*
X389764D01*
X369764D02*
Y540670D01*
X389764D01*
Y504670D02*
Y540670D01*
X346090Y540784D02*
X366410D01*
X346090Y504716D02*
X366410D01*
X346090D02*
Y540784D01*
X366410Y504716D02*
Y540784D01*
D66*
X634328Y702380D02*
X658370Y726422D01*
X604630Y732078D02*
X634328Y702380D01*
X604630Y732078D02*
X628671Y756120D01*
X658370Y726422D01*
D102*
X585622Y488350D02*
G03*
X585622Y488350I-762J0D01*
G01*
X577596Y480806D02*
X580009D01*
X577596Y447278D02*
Y480806D01*
X608711Y447278D02*
X611124D01*
Y480806D01*
X608711D02*
X611124D01*
X577596Y447278D02*
X580009D01*
D103*
X711250Y536750D02*
G03*
X711250Y536750I-2000J0D01*
G01*
X711000Y656000D02*
G03*
X711000Y656000I-2000J0D01*
G01*
X899000Y800000D02*
Y830000D01*
X817000Y725500D02*
Y830000D01*
X899000D01*
Y725500D02*
Y755500D01*
X817000Y725500D02*
X899000D01*
X817000Y611500D02*
X899000D01*
Y641500D01*
X817000Y716000D02*
X899000D01*
X817000Y611500D02*
Y716000D01*
X899000Y686000D02*
Y716000D01*
X817000Y496500D02*
X899000D01*
Y526500D01*
X817000Y601000D02*
X899000D01*
X817000Y496500D02*
Y601000D01*
X899000Y571000D02*
Y601000D01*
D104*
X687500Y526200D02*
G03*
X687500Y526200I-1250J0D01*
G01*
X687250Y645450D02*
G03*
X687250Y645450I-1250J0D01*
G01*
X636564Y696723D02*
G03*
X636564Y696723I-2236J0D01*
G01*
X470110Y330970D02*
G03*
X470110Y330970I-1250J0D01*
G01*
X463250Y641250D02*
G03*
X463250Y641250I-2500J0D01*
G01*
D105*
X524843Y460983D02*
G03*
X524843Y400057I8017J-30463D01*
G01*
X540877D02*
G03*
X540877Y460983I-8017J30463D01*
G01*
X985643Y413382D02*
X991643Y413382D01*
X985643Y413382D02*
Y421494D01*
X1007771Y413382D02*
X1013867Y413382D01*
X1013867Y421494D01*
X498570Y395520D02*
X525240D01*
X540480D02*
X567150D01*
X498570D02*
Y449662D01*
X567150Y395520D02*
Y450956D01*
X540480Y465520D02*
X552586D01*
X514428D02*
X525240D01*
X950200Y397750D02*
Y407910D01*
X924800Y397750D02*
Y407910D01*
X912100D02*
X962900D01*
X912100Y397750D02*
X962900D01*
X912100D02*
Y454900D01*
X962900Y397750D02*
Y454900D01*
X912100D02*
X962900D01*
X614250Y278300D02*
X624410D01*
X614250Y303700D02*
X624410D01*
Y265600D02*
Y316400D01*
X614250Y265600D02*
Y316400D01*
X671400D01*
X614250Y265600D02*
X671400D01*
Y316400D01*
D106*
X1010219Y458906D02*
X1016219D01*
Y440906D02*
Y458906D01*
X1010219Y440906D02*
X1016219D01*
X986219Y458906D02*
X992219D01*
X986219Y440906D02*
Y458906D01*
Y440906D02*
X992219D01*
X690998Y746500D02*
Y752500D01*
X672998Y746500D02*
X690998D01*
X672998D02*
Y752500D01*
X690998Y770500D02*
Y776500D01*
X672998D02*
X690998D01*
X672998Y770500D02*
Y776500D01*
X693000Y770500D02*
Y776500D01*
X711000D01*
Y770500D02*
Y776500D01*
X693000Y746500D02*
Y752500D01*
Y746500D02*
X711000D01*
Y752500D01*
X796000Y823500D02*
Y829500D01*
X814000D01*
Y823500D02*
Y829500D01*
X796000Y799500D02*
Y805500D01*
Y799500D02*
X814000D01*
Y805500D01*
X793000Y799500D02*
Y805500D01*
X775000Y799500D02*
X793000D01*
X775000D02*
Y805500D01*
X793000Y823500D02*
Y829500D01*
X775000D02*
X793000D01*
X775000Y823500D02*
Y829500D01*
X769750Y651000D02*
X775750D01*
X769750D02*
Y669000D01*
X775750D01*
X793750Y651000D02*
X799750D01*
Y669000D01*
X793750D02*
X799750D01*
X769750Y631000D02*
X775750D01*
X769750D02*
Y649000D01*
X775750D01*
X793750Y631000D02*
X799750D01*
Y649000D01*
X793750D02*
X799750D01*
X769750Y531000D02*
X775750D01*
X769750D02*
Y549000D01*
X775750D01*
X793750Y531000D02*
X799750D01*
Y549000D01*
X793750D02*
X799750D01*
X769750Y511000D02*
X775750D01*
X769750D02*
Y529000D01*
X775750D01*
X793750Y511000D02*
X799750D01*
Y529000D01*
X793750D02*
X799750D01*
X647750Y658000D02*
Y664000D01*
X629750Y658000D02*
X647750D01*
X629750D02*
Y664000D01*
X647750Y682000D02*
Y688000D01*
X629750D02*
X647750D01*
X629750Y682000D02*
Y688000D01*
X459750Y549000D02*
Y555000D01*
X441750Y549000D02*
X459750D01*
X441750D02*
Y555000D01*
X459750Y573000D02*
Y579000D01*
X441750D02*
X459750D01*
X441750Y573000D02*
Y579000D01*
X483750Y549000D02*
Y555000D01*
X465750Y549000D02*
X483750D01*
X465750D02*
Y555000D01*
X483750Y573000D02*
Y579000D01*
X465750D02*
X483750D01*
X465750Y573000D02*
Y579000D01*
X507750Y549000D02*
Y555000D01*
X489750Y549000D02*
X507750D01*
X489750D02*
Y555000D01*
X507750Y573000D02*
Y579000D01*
X489750D02*
X507750D01*
X489750Y573000D02*
Y579000D01*
X531750Y549000D02*
Y555000D01*
X513750Y549000D02*
X531750D01*
X513750D02*
Y555000D01*
X531750Y573000D02*
Y579000D01*
X513750D02*
X531750D01*
X513750Y573000D02*
Y579000D01*
X555750Y549000D02*
Y555000D01*
X537750Y549000D02*
X555750D01*
X537750D02*
Y555000D01*
X555750Y573000D02*
Y579000D01*
X537750D02*
X555750D01*
X537750Y573000D02*
Y579000D01*
X579750Y549000D02*
Y555000D01*
X561750Y549000D02*
X579750D01*
X561750D02*
Y555000D01*
X579750Y573000D02*
Y579000D01*
X561750D02*
X579750D01*
X561750Y573000D02*
Y579000D01*
X792625Y274250D02*
Y280250D01*
X774625Y274250D02*
X792625D01*
X774625D02*
Y280250D01*
X792625Y298250D02*
Y304250D01*
X774625D02*
X792625D01*
X774625Y298250D02*
Y304250D01*
X795000Y298250D02*
Y304250D01*
X813000D01*
Y298250D02*
Y304250D01*
X795000Y274250D02*
Y280250D01*
Y274250D02*
X813000D01*
Y280250D01*
X406250Y749250D02*
X412250D01*
X406250D02*
Y767250D01*
X412250D01*
X430250Y749250D02*
X436250D01*
Y767250D01*
X430250D02*
X436250D01*
X459750Y693000D02*
Y699000D01*
X441750Y693000D02*
X459750D01*
X441750D02*
Y699000D01*
X459750Y717000D02*
Y723000D01*
X441750D02*
X459750D01*
X441750Y717000D02*
Y723000D01*
X392000Y670728D02*
X396242Y674970D01*
X408970Y662243D01*
X404728Y658000D02*
X408970Y662243D01*
X375029Y653757D02*
X379272Y658000D01*
X375029Y653757D02*
X387757Y641029D01*
X392000Y645272D01*
X378000Y684478D02*
X382243Y688720D01*
X394971Y675992D01*
X390728Y671750D02*
X394971Y675992D01*
X361030Y667507D02*
X365272Y671750D01*
X361030Y667507D02*
X373757Y654779D01*
X378000Y659022D01*
X628500Y658000D02*
Y664000D01*
X610500Y658000D02*
X628500D01*
X610500D02*
Y664000D01*
X628500Y682000D02*
Y688000D01*
X610500D02*
X628500D01*
X610500Y682000D02*
Y688000D01*
X629000Y333270D02*
Y339270D01*
X611000Y333270D02*
X629000D01*
X611000D02*
Y339270D01*
X629000Y357270D02*
Y363270D01*
X611000D02*
X629000D01*
X611000Y357270D02*
Y363270D01*
X484144Y435770D02*
X490144D01*
Y417770D02*
Y435770D01*
X484144Y417770D02*
X490144D01*
X460144Y435770D02*
X466144D01*
X460144Y417770D02*
Y435770D01*
Y417770D02*
X466144D01*
X609000Y333270D02*
Y339270D01*
X591000Y333270D02*
X609000D01*
X591000D02*
Y339270D01*
X609000Y357270D02*
Y363270D01*
X591000D02*
X609000D01*
X591000Y357270D02*
Y363270D01*
X571110Y357270D02*
Y363270D01*
X589110D01*
Y357270D02*
Y363270D01*
X571110Y333270D02*
Y339270D01*
Y333270D02*
X589110D01*
Y339270D01*
M02*
