G04*
G04 #@! TF.GenerationSoftware,Altium Limited,CircuitStudio,1.5.2 (1.5.2.30)*
G04*
G04 Layer_Physical_Order=4*
G04 Layer_Color=12500520*
%FSLAX44Y44*%
%MOMM*%
G71*
G01*
G75*
%ADD11C,0.5000*%
%ADD12C,0.2540*%
%ADD13C,0.2610*%
%ADD15C,0.0254*%
%ADD16C,1.0000*%
%ADD17C,6.0000*%
%ADD18C,3.6000*%
%ADD19C,1.5000*%
%ADD20R,1.5000X1.5000*%
%ADD21C,2.0000*%
%ADD22C,1.5240*%
%ADD23R,1.5240X1.5240*%
%ADD24O,2.5000X1.5000*%
%ADD25C,1.7780*%
%ADD26R,1.7780X1.7780*%
%ADD27R,1.7780X1.7780*%
%ADD28C,0.6000*%
%ADD42C,0.3000*%
%ADD43R,0.7000X1.3000*%
%ADD44R,0.8128X0.9144*%
%ADD45R,1.3000X1.6000*%
G04:AMPARAMS|DCode=46|XSize=1.3mm|YSize=0.7mm|CornerRadius=0mm|HoleSize=0mm|Usage=FLASHONLY|Rotation=315.000|XOffset=0mm|YOffset=0mm|HoleType=Round|Shape=Rectangle|*
%AMROTATEDRECTD46*
4,1,4,-0.7071,0.2121,-0.2121,0.7071,0.7071,-0.2121,0.2121,-0.7071,-0.7071,0.2121,0.0*
%
%ADD46ROTATEDRECTD46*%

%ADD47O,1.3710X0.3510*%
%ADD48R,1.3000X0.7000*%
%ADD49R,5.7000X1.6000*%
%ADD50R,1.6000X1.3000*%
%ADD51R,1.5240X1.0000*%
%ADD52R,2.1000X1.6000*%
%ADD53R,0.3500X0.6000*%
%ADD54O,2.2000X0.6000*%
G04:AMPARAMS|DCode=55|XSize=1.4mm|YSize=1.2mm|CornerRadius=0mm|HoleSize=0mm|Usage=FLASHONLY|Rotation=135.000|XOffset=0mm|YOffset=0mm|HoleType=Round|Shape=Rectangle|*
%AMROTATEDRECTD55*
4,1,4,0.9192,-0.0707,0.0707,-0.9192,-0.9192,0.0707,-0.0707,0.9192,0.9192,-0.0707,0.0*
%
%ADD55ROTATEDRECTD55*%

%ADD56R,1.0000X1.5240*%
%ADD57O,2.2000X0.5000*%
%ADD58R,2.4000X3.1000*%
%ADD59R,1.2000X3.0000*%
%ADD60R,0.6000X1.4000*%
%ADD61R,0.6000X1.4500*%
%ADD62R,1.3710X0.3510*%
%ADD63O,0.3510X1.3710*%
%ADD64C,0.2543*%
G36*
X580570Y483310D02*
Y481020D01*
X584860D01*
Y476020D01*
X580570D01*
Y472980D01*
X582410D01*
Y456060D01*
X580570D01*
Y453020D01*
X584860D01*
Y448020D01*
X580570D01*
Y446042D01*
X580349Y445509D01*
X575536Y440696D01*
X570344Y435504D01*
X569581Y434741D01*
X569048Y434520D01*
X516892D01*
X516359Y434741D01*
X510470Y440630D01*
X509823Y440898D01*
X509649Y440970D01*
X509360Y441089D01*
X491861Y441089D01*
X474672Y441089D01*
X474360D01*
X473250Y440630D01*
X473030Y440409D01*
X469917Y437297D01*
X469697Y437076D01*
X469577Y436788D01*
X469577Y436787D01*
X469514Y436634D01*
X469259Y436230D01*
X469188Y435810D01*
X468144D01*
Y426770D01*
X465644D01*
Y424270D01*
X459604D01*
Y417730D01*
X467791D01*
Y414060D01*
X456570D01*
Y406020D01*
X465610D01*
Y401020D01*
X456570D01*
Y394106D01*
X455300Y393580D01*
X444450Y404430D01*
Y421000D01*
X443990Y422110D01*
X442880Y422569D01*
X376500D01*
X375390Y422110D01*
X374930Y421000D01*
Y421000D01*
X360258D01*
X359360Y421898D01*
Y426109D01*
X360630Y426423D01*
X362000Y425507D01*
Y430500D01*
X364500D01*
Y433000D01*
X369492D01*
X368494Y434494D01*
X368034Y434802D01*
X368005Y436022D01*
X368992Y437500D01*
X364000D01*
Y442500D01*
X368992D01*
X367994Y443994D01*
Y444006D01*
X368992Y445500D01*
X364000D01*
Y448000D01*
X361500D01*
Y452992D01*
X360630Y452411D01*
X359360Y453090D01*
Y459520D01*
X384360Y484520D01*
X459398Y484520D01*
X459398Y484520D01*
X509807Y484520D01*
X509807D01*
X579360Y484520D01*
X580570Y483310D01*
D02*
G37*
G36*
X433735Y361464D02*
X433897Y361464D01*
X434031Y361375D01*
X434174Y361346D01*
X434209Y361322D01*
X434469Y361149D01*
X434775Y361088D01*
X435663Y360911D01*
X436010Y360842D01*
X471537D01*
X472917Y359463D01*
X472917D01*
X473114Y358635D01*
X473072Y358460D01*
X472942Y358096D01*
X472587Y357309D01*
X465430D01*
Y352170D01*
Y347031D01*
X472660D01*
X472748Y347049D01*
X473121Y347041D01*
X473983Y346975D01*
X474138Y346807D01*
X474148Y346778D01*
X474219Y346696D01*
X474260Y346676D01*
X474405Y346519D01*
X474409Y346512D01*
X474420Y346503D01*
X474427Y346495D01*
X474432Y346484D01*
X474510Y346406D01*
X474557Y346354D01*
X474790Y345593D01*
Y345307D01*
Y345307D01*
X474653Y344300D01*
X474575Y344160D01*
X474295Y343881D01*
X473461Y343338D01*
X472660Y343497D01*
X455660D01*
X454119Y343191D01*
X452812Y342318D01*
X451939Y341011D01*
X451633Y339470D01*
X451939Y337929D01*
X452812Y336622D01*
X454119Y335749D01*
X455660Y335442D01*
X461387D01*
Y332885D01*
X461152Y332728D01*
X460168Y331256D01*
X459823Y329520D01*
X460168Y327784D01*
X461152Y326312D01*
X462624Y325328D01*
X464360Y324983D01*
X466096Y325328D01*
X467568Y326312D01*
X468552Y327784D01*
X468897Y329520D01*
X468552Y331256D01*
X467568Y332728D01*
X466933Y333152D01*
Y335442D01*
X472660D01*
X473094Y335529D01*
X473266Y335527D01*
X473901Y335419D01*
X474613Y334912D01*
X474763Y334629D01*
X474777Y334368D01*
X474790Y334339D01*
Y332832D01*
Y332520D01*
X474790Y332520D01*
X474910Y332231D01*
Y332231D01*
X475131Y331699D01*
X475131Y331699D01*
X475250Y331410D01*
X475250D01*
X475471Y331189D01*
X478253Y328407D01*
X478264Y328342D01*
X478363Y328181D01*
Y327991D01*
X478430Y327830D01*
X478078Y326983D01*
X477765Y326560D01*
X469820D01*
Y317290D01*
X478860D01*
Y316020D01*
X480130D01*
Y305480D01*
X483893D01*
X484790Y304582D01*
X484790Y301810D01*
X480130D01*
Y291270D01*
Y280730D01*
X483892D01*
X484790Y279832D01*
X484790Y277474D01*
X485250Y276364D01*
X485360Y276255D01*
Y265000D01*
X442880D01*
X425360Y282520D01*
Y352896D01*
Y353208D01*
X425472Y353477D01*
X425581Y353741D01*
X425802Y353961D01*
X432682Y360842D01*
X433721Y361470D01*
X433735Y361464D01*
D02*
G37*
G36*
X660076Y1015471D02*
X666737Y1014146D01*
X673167Y1011964D01*
X679258Y1008960D01*
X684904Y1005187D01*
X690010Y1000710D01*
X694487Y995604D01*
X698260Y989958D01*
X701264Y983867D01*
X703447Y977437D01*
X704771Y970776D01*
X705216Y964000D01*
X704771Y957224D01*
X703447Y950563D01*
X701264Y944133D01*
X698260Y938042D01*
X694487Y932396D01*
X690010Y927290D01*
X684904Y922812D01*
X679258Y919040D01*
X673167Y916036D01*
X666737Y913853D01*
X660076Y912528D01*
X653300Y912084D01*
X646524Y912528D01*
X639863Y913853D01*
X633433Y916036D01*
X627342Y919040D01*
X621696Y922812D01*
X616590Y927290D01*
X612112Y932396D01*
X608340Y938042D01*
X605336Y944133D01*
X603153Y950563D01*
X601828Y957224D01*
X601384Y964000D01*
X601828Y970776D01*
X603153Y977437D01*
X605336Y983867D01*
X608340Y989958D01*
X612112Y995604D01*
X616590Y1000710D01*
X621696Y1005187D01*
X627342Y1008960D01*
X633433Y1011964D01*
X639863Y1014146D01*
X646524Y1015471D01*
X653300Y1015916D01*
X660076Y1015471D01*
D02*
G37*
G36*
X447000Y397000D02*
X447000Y371880D01*
X449360Y369520D01*
X451436D01*
X451857Y368250D01*
X450913Y366836D01*
X450521Y364870D01*
X450758Y363682D01*
X449830Y362412D01*
X436165D01*
X435081Y362627D01*
X434786Y362825D01*
X434337Y362914D01*
X434323Y362920D01*
X434273Y362970D01*
X434202D01*
X433914Y363089D01*
X433672D01*
X433384Y362970D01*
X433072D01*
X432539Y362749D01*
X432318Y362528D01*
X432029Y362409D01*
X424471Y354850D01*
X424352Y354562D01*
X424131Y354341D01*
X423910Y353808D01*
Y353496D01*
X423791Y353208D01*
Y351950D01*
X421360Y349520D01*
X406376Y349520D01*
X405400Y350790D01*
Y356770D01*
X394860D01*
X384320D01*
Y350790D01*
X384320Y350230D01*
X383344Y349520D01*
X383344Y349520D01*
X364360Y349520D01*
X359360Y354520D01*
Y394520D01*
X366840Y402000D01*
X442000D01*
X447000Y397000D01*
D02*
G37*
G36*
X873754Y1018871D02*
X873116Y1017972D01*
X869857Y1012074D01*
X867278Y1005848D01*
X865412Y999372D01*
X864283Y992728D01*
X863905Y986000D01*
X864283Y979271D01*
X865412Y972628D01*
X867278Y966152D01*
X869857Y959926D01*
X873116Y954028D01*
X875444Y950747D01*
X874582Y949768D01*
X872148Y951068D01*
X868277Y952243D01*
X866750Y952393D01*
Y934500D01*
X884643D01*
X884493Y936027D01*
X883318Y939898D01*
X883026Y940446D01*
X884040Y941243D01*
X886532Y939016D01*
X892028Y935116D01*
X897926Y931857D01*
X904152Y929278D01*
X910628Y927412D01*
X917271Y926283D01*
X924000Y925905D01*
X930728Y926283D01*
X937372Y927412D01*
X943848Y929278D01*
X950074Y931857D01*
X952906Y933422D01*
X954000Y932776D01*
Y870000D01*
X1034000Y790000D01*
X1084000D01*
X1114000Y760000D01*
Y730000D01*
X1104000Y720000D01*
Y610000D01*
X1114000Y600000D01*
Y560000D01*
X1074000Y520000D01*
X1074000Y370000D01*
X964000Y260000D01*
X609096Y260000D01*
X608570Y261270D01*
X619024Y271723D01*
X635660D01*
Y267960D01*
X656340D01*
Y288640D01*
X635660D01*
Y284876D01*
X616300D01*
X613783Y284376D01*
X611650Y282950D01*
X600276Y271576D01*
X487724D01*
X486930Y272370D01*
Y276255D01*
X486700Y276808D01*
Y276965D01*
X486581Y277253D01*
X486360Y277474D01*
X486360Y277787D01*
X486360D01*
X486360Y279079D01*
Y279832D01*
X486063Y280550D01*
X486360Y281160D01*
Y281820D01*
X486810D01*
Y299523D01*
Y300720D01*
X486810D01*
X486360Y301170D01*
Y301990D01*
Y301990D01*
X486360Y303757D01*
Y304582D01*
X486063Y305300D01*
X486360Y305910D01*
Y306570D01*
X486810D01*
Y325470D01*
X480412D01*
X480146Y325743D01*
X479676Y326740D01*
X479879Y327227D01*
Y327228D01*
X479880Y327229D01*
X479880Y327804D01*
X479890Y327819D01*
X479882Y327869D01*
X479932Y327991D01*
Y328181D01*
X479880Y328306D01*
X479881Y328428D01*
X479880Y328429D01*
Y328430D01*
X479813Y328592D01*
Y328592D01*
X479802Y328657D01*
X479738Y328762D01*
X479699Y329005D01*
X479599Y329166D01*
X479492Y329243D01*
X479473Y329290D01*
X479453Y329298D01*
X479363Y329517D01*
X478027Y330853D01*
X476360Y332520D01*
Y332832D01*
D01*
Y334339D01*
X476330Y334412D01*
X476344Y334451D01*
X476330Y334712D01*
X476209Y334964D01*
X476207Y335016D01*
X476193Y335045D01*
X476179Y335057D01*
X476149Y335364D01*
X475999Y335647D01*
X475508Y336622D01*
X476360Y337897D01*
X476381Y337929D01*
X476687Y339470D01*
X476381Y341011D01*
X476360Y341042D01*
D01*
X475950Y341656D01*
X475949Y341657D01*
X475561Y342449D01*
X475944Y343394D01*
X476023Y343533D01*
X476058Y343830D01*
X476208Y344088D01*
X476346Y345095D01*
X476317Y345204D01*
X476360Y345307D01*
Y345307D01*
Y345593D01*
X476268Y345814D01*
X476291Y346052D01*
X476058Y346814D01*
X475882Y347028D01*
X475882Y347085D01*
X475877Y347096D01*
X475802Y347172D01*
X475794Y347250D01*
X475790Y347257D01*
X475761Y347281D01*
X475709Y347420D01*
X475662Y347472D01*
X475632Y347486D01*
X475619Y347516D01*
X475583Y347552D01*
X475580Y347560D01*
X475573Y347567D01*
X475563Y347572D01*
X475561Y347574D01*
X475557Y347585D01*
X475411Y347742D01*
X475299Y348036D01*
X475344Y348846D01*
X475460Y349290D01*
X475508Y349322D01*
X476360Y350597D01*
D01*
X476381Y350629D01*
X476687Y352170D01*
X476381Y353711D01*
X476361Y353741D01*
X475508Y355018D01*
X474697Y355559D01*
X474218Y356340D01*
X474249Y357176D01*
X474373Y357453D01*
X474375Y357519D01*
X474420Y357568D01*
X474549Y357931D01*
X474545Y358021D01*
X474598Y358094D01*
X474640Y358270D01*
X474582Y358634D01*
X474641Y358999D01*
X474444Y359826D01*
X474396Y359893D01*
X474356Y360152D01*
X474483Y361140D01*
X474828Y361568D01*
X475508Y362022D01*
X476360Y363298D01*
D01*
X476381Y363329D01*
X476687Y364870D01*
X476381Y366411D01*
X476360Y366442D01*
X475508Y367718D01*
X474201Y368591D01*
X472660Y368897D01*
X453296D01*
X452925Y370014D01*
X452686Y370291D01*
X452545Y370630D01*
X452308Y370728D01*
X452139Y370923D01*
X451774Y370949D01*
X451436Y371089D01*
X450010D01*
X448569Y372530D01*
X448569Y396295D01*
X449839Y396821D01*
X454190Y392470D01*
X454478Y392351D01*
X454699Y392130D01*
X455011D01*
X455300Y392010D01*
X455588Y392130D01*
X455900D01*
X457171Y392656D01*
X457391Y392877D01*
X457680Y392996D01*
X457799Y393285D01*
X458020Y393505D01*
X459185Y394070D01*
X473560D01*
Y412970D01*
X469360D01*
Y414005D01*
X469346Y414026D01*
X469360Y414060D01*
Y417730D01*
X469346Y417764D01*
X469360Y417785D01*
Y417922D01*
X469636Y418197D01*
X470051Y418820D01*
X470594D01*
Y434720D01*
Y434720D01*
X470594D01*
Y434720D01*
X470594Y434721D01*
X470806Y435966D01*
X471027Y436187D01*
X471027Y436187D01*
X471027Y436187D01*
X474139Y439299D01*
D01*
X474360Y439520D01*
X474672D01*
D01*
X491861Y439520D01*
X509048Y439520D01*
D01*
X509360D01*
X515249Y433631D01*
X515537Y433511D01*
X515758Y433291D01*
X516291Y433070D01*
X516603D01*
X516892Y432950D01*
X569048D01*
X569336Y433070D01*
X569649D01*
X570181Y433290D01*
X570402Y433511D01*
X570691Y433631D01*
X571191Y434131D01*
X572724Y434394D01*
X616497Y390621D01*
Y384590D01*
X612820D01*
Y366450D01*
X617227D01*
Y362720D01*
X612050D01*
Y352820D01*
X627950D01*
Y362720D01*
X622773D01*
Y366450D01*
X625720D01*
Y384590D01*
X622043D01*
Y391770D01*
X621832Y392831D01*
X621633Y393130D01*
X621231Y393731D01*
X576646Y438316D01*
X576909Y439849D01*
X581459Y444399D01*
X582393Y444910D01*
X583176Y444912D01*
X583290Y444860D01*
Y439020D01*
X583750Y437910D01*
X588250Y433410D01*
X598250Y423410D01*
X599360Y422950D01*
X669360D01*
X670470Y423410D01*
X675470Y428410D01*
X682110Y435050D01*
X682569Y436160D01*
Y454500D01*
X682569Y454500D01*
X682110Y455610D01*
X682110D01*
X678659Y459060D01*
X677549Y459520D01*
X665980D01*
X665980D01*
X665980Y459520D01*
X664900Y459980D01*
X664900Y460498D01*
Y460498D01*
Y460790D01*
Y463549D01*
X666170Y464228D01*
X666500Y464007D01*
Y469000D01*
Y473992D01*
X666170Y473772D01*
X664900Y474451D01*
Y478060D01*
X656860D01*
Y469020D01*
X654360D01*
Y466520D01*
X643820D01*
Y460498D01*
X643820Y460498D01*
Y459980D01*
X642741Y459520D01*
X642740Y459520D01*
X642740D01*
X640980D01*
X640980D01*
X640980Y459520D01*
X639900Y459980D01*
X639900Y460498D01*
Y460498D01*
Y460790D01*
Y466520D01*
X629360D01*
X618820D01*
Y460498D01*
X618820Y460498D01*
Y459980D01*
X617741Y459520D01*
X617741Y459520D01*
X617741D01*
X612790D01*
X611681Y459060D01*
X608710Y456089D01*
X608150D01*
X607400Y456590D01*
Y459219D01*
Y462020D01*
X594360D01*
Y467020D01*
X607400D01*
Y475060D01*
X607060D01*
Y482970D01*
X600660D01*
Y475060D01*
X598650D01*
Y476020D01*
X594360D01*
X590070D01*
Y475060D01*
X588060D01*
Y482970D01*
X583281D01*
X583021Y483457D01*
X583782Y484727D01*
X585000D01*
X585885Y484903D01*
X586061Y484938D01*
X586961Y485539D01*
X601899Y500477D01*
X688601D01*
X699856Y489222D01*
X699713Y488500D01*
X700058Y486764D01*
X701042Y485292D01*
X702514Y484308D01*
X704250Y483963D01*
X705986Y484308D01*
X707458Y485292D01*
X708408Y486713D01*
X708556Y486882D01*
X709759Y487158D01*
X829477Y367441D01*
Y333789D01*
X827736Y333068D01*
X825867Y331633D01*
X824432Y329764D01*
X823530Y327586D01*
X823223Y325250D01*
X823530Y322914D01*
X824432Y320736D01*
X825867Y318867D01*
X827736Y317432D01*
X829477Y316711D01*
Y311149D01*
X819851Y301523D01*
X811950D01*
Y303700D01*
X796050D01*
Y293800D01*
X811950D01*
Y295977D01*
X821000D01*
X821885Y296153D01*
X822061Y296188D01*
X822961Y296789D01*
X834211Y308039D01*
X834812Y308939D01*
X834847Y309115D01*
X835023Y310000D01*
Y316711D01*
X836764Y317432D01*
X838633Y318867D01*
X840068Y320736D01*
X840970Y322914D01*
X841277Y325250D01*
X840970Y327586D01*
X840068Y329764D01*
X838633Y331633D01*
X836764Y333068D01*
X835023Y333789D01*
Y368589D01*
X834847Y369474D01*
X834812Y369651D01*
X834211Y370550D01*
X792701Y412060D01*
X793070Y413275D01*
X793236Y413308D01*
X794708Y414292D01*
X795692Y415764D01*
X796037Y417500D01*
X795692Y419236D01*
X794708Y420708D01*
X793236Y421692D01*
X791500Y422037D01*
X790987Y421935D01*
X765369Y447553D01*
X765855Y448727D01*
X908500D01*
X909385Y448903D01*
X909561Y448938D01*
X910461Y449539D01*
X947648Y486727D01*
X1023851D01*
X1030726Y479851D01*
Y459649D01*
X1023757Y452680D01*
X1015669D01*
Y457856D01*
X1005769D01*
Y441956D01*
X1015669D01*
Y447133D01*
X1024906D01*
X1025791Y447309D01*
X1025967Y447344D01*
X1026867Y447945D01*
X1035461Y456539D01*
X1036062Y457439D01*
X1036273Y458500D01*
Y481000D01*
X1036097Y481885D01*
X1036062Y482061D01*
X1035461Y482961D01*
X1026961Y491461D01*
X1026061Y492062D01*
X1025885Y492097D01*
X1025000Y492273D01*
X946500D01*
X945439Y492062D01*
X944539Y491461D01*
X907351Y454273D01*
X765148D01*
X701961Y517461D01*
X701061Y518062D01*
X700885Y518097D01*
X700000Y518273D01*
X646149D01*
X575961Y588461D01*
X575061Y589062D01*
X574885Y589097D01*
X574000Y589273D01*
X553847D01*
X553462Y590543D01*
X554208Y591042D01*
X555192Y592514D01*
X555537Y594250D01*
X555192Y595986D01*
X554208Y597458D01*
X553773Y597749D01*
Y601277D01*
X555043Y601662D01*
X555792Y600542D01*
X557264Y599558D01*
X559000Y599213D01*
X560736Y599558D01*
X562208Y600542D01*
X563192Y602014D01*
X563537Y603750D01*
X563192Y605486D01*
X562208Y606958D01*
X561166Y607655D01*
X560961Y607961D01*
X556489Y612433D01*
X556850Y613857D01*
X557972Y614317D01*
X558999Y613631D01*
X560250Y613382D01*
X561500Y613631D01*
X562561Y614339D01*
X562939D01*
X563999Y613631D01*
X565250Y613382D01*
X566500Y613631D01*
X567561Y614339D01*
X567939D01*
X568999Y613631D01*
X570250Y613382D01*
X571500Y613631D01*
X572561Y614339D01*
X573269Y615400D01*
X573518Y616650D01*
Y626850D01*
X573269Y628101D01*
X572803Y628797D01*
Y628853D01*
X573083Y629271D01*
X573282Y629569D01*
X573493Y630631D01*
Y634965D01*
X573518Y635019D01*
X574294Y635746D01*
X574677Y635926D01*
X575750Y635713D01*
X577486Y636058D01*
X578958Y637042D01*
X579942Y638514D01*
X580039Y639002D01*
X582298D01*
X582339Y638939D01*
X583399Y638231D01*
X584650Y637982D01*
X591477D01*
Y610450D01*
X581300D01*
Y591550D01*
X591977D01*
Y587499D01*
X591542Y587208D01*
X590558Y585736D01*
X590213Y584000D01*
X590558Y582264D01*
X591542Y580792D01*
X593014Y579808D01*
X594750Y579463D01*
X596486Y579808D01*
X597667Y580597D01*
X599193Y580601D01*
X599256Y580506D01*
X600750Y579507D01*
Y584500D01*
X603250D01*
Y587000D01*
X608242D01*
X607244Y588494D01*
X606203Y589190D01*
X606588Y590460D01*
X617290D01*
Y598500D01*
X608250D01*
X599210D01*
Y590460D01*
X599912D01*
X600297Y589190D01*
X599256Y588494D01*
X598883Y587936D01*
X598660Y587864D01*
X597523Y588457D01*
Y595500D01*
X597347Y596385D01*
X597312Y596561D01*
X597200Y596729D01*
Y610450D01*
X597023D01*
Y638848D01*
X597160Y638939D01*
X597869Y640000D01*
X598118Y641250D01*
X597869Y642501D01*
X597828Y642561D01*
X597946Y643154D01*
X598345Y643750D01*
X596878D01*
X596101Y644269D01*
X594850Y644518D01*
X589750D01*
Y647982D01*
X594850D01*
X596101Y648231D01*
X596878Y648750D01*
X598345D01*
X597946Y649346D01*
X597828Y649939D01*
X597869Y649999D01*
X598118Y651250D01*
X597869Y652501D01*
X597160Y653561D01*
Y653939D01*
X597869Y654999D01*
X598118Y656250D01*
X597869Y657501D01*
X597160Y658561D01*
Y658939D01*
X597869Y659999D01*
X598118Y661250D01*
X597869Y662501D01*
X597160Y663561D01*
Y663939D01*
X597869Y664999D01*
X598118Y666250D01*
X597869Y667501D01*
X597160Y668561D01*
Y668939D01*
X597869Y669999D01*
X598118Y671250D01*
X597869Y672501D01*
X597160Y673561D01*
Y673939D01*
X597869Y674999D01*
X598118Y676250D01*
X597869Y677501D01*
X597160Y678561D01*
Y678939D01*
X597869Y679999D01*
X598118Y681250D01*
X597869Y682501D01*
X597160Y683561D01*
Y683939D01*
X597869Y684999D01*
X597938Y685344D01*
X599316Y685762D01*
X601565Y683513D01*
X601463Y683000D01*
X601808Y681264D01*
X602792Y679792D01*
X604264Y678808D01*
X606000Y678463D01*
X607736Y678808D01*
X609111Y679727D01*
X611550D01*
Y677550D01*
X627450D01*
Y687450D01*
X611550D01*
Y685273D01*
X609833D01*
X609208Y686208D01*
X607736Y687192D01*
X606000Y687537D01*
X605487Y687435D01*
X600715Y692207D01*
X601241Y693477D01*
X632601D01*
X635977Y690101D01*
Y687450D01*
X630800D01*
Y677550D01*
X646700D01*
Y679477D01*
X654787D01*
X654920Y678805D01*
X656164Y676944D01*
X657447Y676087D01*
Y670865D01*
X656177Y670213D01*
X655236Y670842D01*
X653500Y671187D01*
X651764Y670842D01*
X650292Y669858D01*
X649308Y668386D01*
X648963Y666650D01*
X649308Y664914D01*
X650292Y663442D01*
X650727Y663151D01*
Y626276D01*
X650040Y625290D01*
X649457Y625290D01*
X642000D01*
Y616250D01*
X639500D01*
Y613750D01*
X628960D01*
Y607210D01*
X633153D01*
X633218Y607125D01*
X639500D01*
Y602125D01*
X633543D01*
X633320Y601790D01*
X628710D01*
Y595250D01*
X639250D01*
Y592750D01*
X641750D01*
Y583710D01*
X649457D01*
X649790Y583710D01*
X650727Y582905D01*
Y567107D01*
X650903Y566222D01*
X650938Y566046D01*
X651539Y565146D01*
X671246Y545439D01*
X671847Y545037D01*
X672146Y544838D01*
X673207Y544627D01*
X674751D01*
X675042Y544192D01*
X676514Y543208D01*
X678250Y542863D01*
X694250D01*
X695986Y543208D01*
X697458Y544192D01*
X698442Y545664D01*
X698787Y547400D01*
X698442Y549136D01*
X697458Y550608D01*
X695986Y551592D01*
X694250Y551937D01*
X678250D01*
X676514Y551592D01*
X675042Y550608D01*
X673688Y550842D01*
X668376Y556153D01*
X668862Y557327D01*
X674751D01*
X675042Y556892D01*
X676514Y555908D01*
X678250Y555563D01*
X694250D01*
X695986Y555908D01*
X697458Y556892D01*
X698442Y558364D01*
X698787Y560100D01*
X698442Y561836D01*
X697458Y563308D01*
X695986Y564292D01*
X694250Y564637D01*
X678250D01*
X676514Y564292D01*
X675042Y563308D01*
X674751Y562873D01*
X667299D01*
X662993Y567179D01*
Y676087D01*
X664276Y676944D01*
X665390Y678611D01*
X666303Y678883D01*
X666841Y678937D01*
X668389Y677389D01*
X669289Y676788D01*
X670350Y676577D01*
X674501D01*
X674792Y676142D01*
X676264Y675158D01*
X678000Y674813D01*
X694000D01*
X695736Y675158D01*
X697208Y676142D01*
X698192Y677614D01*
X698537Y679350D01*
X698192Y681086D01*
X697208Y682558D01*
X695736Y683542D01*
X694000Y683887D01*
X678000D01*
X676264Y683542D01*
X674792Y682558D01*
X674501Y682123D01*
X671499D01*
X669411Y684211D01*
X668511Y684812D01*
X668335Y684847D01*
X667450Y685023D01*
X646700D01*
Y687450D01*
X641523D01*
Y691250D01*
X641347Y692135D01*
X641312Y692311D01*
X640711Y693211D01*
X635711Y698211D01*
X634811Y698812D01*
X634635Y698847D01*
X633750Y699023D01*
X598628D01*
X597927Y700293D01*
X598118Y701250D01*
X597869Y702500D01*
X597160Y703560D01*
Y703939D01*
X597869Y704999D01*
X598118Y706250D01*
X598075Y706462D01*
X598974Y707752D01*
X599731Y707847D01*
X605539Y702039D01*
X606439Y701438D01*
X606615Y701403D01*
X607500Y701227D01*
X632713D01*
X633202Y701129D01*
X635455D01*
X636340Y701305D01*
X636516Y701340D01*
X636675Y701447D01*
X650406D01*
X651061Y700401D01*
X651046Y700177D01*
X650713Y698500D01*
X651058Y696764D01*
X652042Y695292D01*
X653514Y694308D01*
X655250Y693963D01*
X656986Y694308D01*
X657803Y694854D01*
X658220Y694781D01*
X658267Y694758D01*
X659129Y693335D01*
X658963Y692500D01*
X659308Y690764D01*
X660292Y689292D01*
X661764Y688308D01*
X663500Y687963D01*
X665236Y688308D01*
X666708Y689292D01*
X667692Y690764D01*
X668037Y692500D01*
X667834Y693520D01*
X703551Y729237D01*
X745066D01*
X745750Y728250D01*
X745750Y727967D01*
Y717842D01*
X745013Y717237D01*
X742853Y715077D01*
X742000Y715161D01*
X726000D01*
X721491Y714717D01*
X717156Y713402D01*
X713160Y711266D01*
X709658Y708392D01*
X706784Y704890D01*
X704648Y700894D01*
X703333Y696559D01*
X702889Y692050D01*
X703333Y687541D01*
X703891Y685700D01*
X703333Y683859D01*
X702889Y679350D01*
X703333Y674841D01*
X703891Y673000D01*
X703333Y671159D01*
X702889Y666650D01*
X703333Y662141D01*
X703891Y660300D01*
X703333Y658459D01*
X702889Y653950D01*
X703333Y649441D01*
X704648Y645106D01*
X706784Y641110D01*
X709658Y637608D01*
X713160Y634734D01*
X717156Y632598D01*
X721491Y631283D01*
X726000Y630839D01*
X742000D01*
X746509Y631283D01*
X746701Y631341D01*
X751750D01*
Y613500D01*
X759776D01*
X762103Y611173D01*
X761617Y610000D01*
X744750D01*
Y597974D01*
X742648Y595872D01*
X742250Y595911D01*
X726250D01*
X721741Y595467D01*
X717406Y594152D01*
X713410Y592016D01*
X709908Y589142D01*
X707034Y585640D01*
X704898Y581644D01*
X703583Y577309D01*
X703139Y572800D01*
X703583Y568291D01*
X704141Y566450D01*
X703583Y564609D01*
X703139Y560100D01*
X703583Y555591D01*
X704141Y553750D01*
X703583Y551909D01*
X703139Y547400D01*
X703583Y542891D01*
X704141Y541050D01*
X703583Y539209D01*
X703139Y534700D01*
X703583Y530191D01*
X704898Y525856D01*
X707034Y521860D01*
X709908Y518358D01*
X713410Y515484D01*
X717406Y513348D01*
X721741Y512033D01*
X726250Y511589D01*
X742250D01*
X746759Y512033D01*
X746951Y512091D01*
X751750D01*
Y493500D01*
X760276D01*
X764763Y489013D01*
X768189Y486201D01*
X772098Y484112D01*
X773385Y483722D01*
X776339Y482826D01*
X780750Y482391D01*
X802750D01*
X807161Y482826D01*
X811402Y484112D01*
X815311Y486201D01*
X818737Y489013D01*
X822099Y492375D01*
X824685Y491754D01*
X829000Y491415D01*
X839000D01*
X843315Y491754D01*
X847524Y492765D01*
X851523Y494421D01*
X855214Y496683D01*
X858505Y499494D01*
X861317Y502786D01*
X863578Y506477D01*
X865235Y510476D01*
X866245Y514685D01*
X866585Y519000D01*
X866245Y523315D01*
X865235Y527524D01*
X864623Y529000D01*
X865235Y530476D01*
X866245Y534685D01*
X866585Y539000D01*
X866245Y543315D01*
X865235Y547524D01*
X864623Y549000D01*
X865235Y550476D01*
X866245Y554685D01*
X866585Y559000D01*
X866245Y563315D01*
X865235Y567524D01*
X864623Y569000D01*
X865235Y570476D01*
X866245Y574685D01*
X866585Y579000D01*
X866245Y583315D01*
X865235Y587524D01*
X863578Y591523D01*
X861317Y595214D01*
X858505Y598506D01*
X855214Y601317D01*
X851523Y603578D01*
X847524Y605235D01*
X844975Y605847D01*
Y607153D01*
X847524Y607765D01*
X851523Y609421D01*
X855214Y611683D01*
X858505Y614494D01*
X861317Y617786D01*
X863578Y621477D01*
X865235Y625476D01*
X866245Y629685D01*
X866585Y634000D01*
X866245Y638315D01*
X865235Y642524D01*
X864623Y644000D01*
X865235Y645476D01*
X866245Y649685D01*
X866585Y654000D01*
X866245Y658315D01*
X865235Y662524D01*
X864623Y664000D01*
X865235Y665476D01*
X866245Y669685D01*
X866585Y674000D01*
X866245Y678315D01*
X865235Y682524D01*
X864623Y684000D01*
X865235Y685476D01*
X866245Y689685D01*
X866585Y694000D01*
X866245Y698315D01*
X865235Y702524D01*
X863578Y706523D01*
X861317Y710214D01*
X858505Y713505D01*
X855214Y716317D01*
X851523Y718578D01*
X847524Y720235D01*
X843315Y721245D01*
X839000Y721585D01*
X829000D01*
X827190Y721442D01*
X827061Y721548D01*
X824750Y722784D01*
Y728250D01*
X802135D01*
X801991Y728457D01*
X802114Y730049D01*
X817541Y745477D01*
X820358D01*
X821182Y743486D01*
X822617Y741617D01*
X824486Y740182D01*
X826664Y739280D01*
X829000Y738973D01*
X839000D01*
X841337Y739280D01*
X843514Y740182D01*
X845383Y741617D01*
X846818Y743486D01*
X847720Y745664D01*
X848027Y748000D01*
X847720Y750336D01*
X846818Y752514D01*
X845383Y754383D01*
X843514Y755818D01*
X841337Y756720D01*
X839000Y757027D01*
X829000D01*
X826664Y756720D01*
X824486Y755818D01*
X822617Y754383D01*
X821182Y752514D01*
X820565Y751023D01*
X819105D01*
X818619Y752197D01*
X825984Y759562D01*
X826664Y759280D01*
X829000Y758973D01*
X839000D01*
X841337Y759280D01*
X843514Y760182D01*
X845383Y761617D01*
X846818Y763486D01*
X847720Y765664D01*
X848027Y768000D01*
X847720Y770336D01*
X846818Y772514D01*
X845383Y774383D01*
X843514Y775818D01*
X841337Y776720D01*
X839000Y777027D01*
X829000D01*
X826664Y776720D01*
X824486Y775818D01*
X822617Y774383D01*
X821182Y772514D01*
X820280Y770336D01*
X819973Y768000D01*
X820280Y765664D01*
X821182Y763486D01*
X821565Y762987D01*
X797351Y738773D01*
X700750D01*
X699689Y738562D01*
X698789Y737961D01*
X662101Y701273D01*
X658749D01*
X658458Y701708D01*
X657840Y702122D01*
X657673Y703752D01*
X683959Y730036D01*
X684560Y730936D01*
X684771Y731998D01*
Y747050D01*
X689948D01*
Y749227D01*
X694050D01*
Y747050D01*
X709950D01*
Y756950D01*
X694050D01*
Y754773D01*
X689948D01*
Y756950D01*
X674048D01*
Y747050D01*
X679224D01*
Y733146D01*
X653071Y706993D01*
X638409D01*
X637923Y708167D01*
X643771Y714015D01*
X644123Y714262D01*
X645123Y714567D01*
X645642Y714344D01*
X645642Y714344D01*
Y714344D01*
X645642D01*
X645899Y714601D01*
X645905Y714607D01*
X645928Y714630D01*
X645928Y714630D01*
X645930Y714632D01*
X645942Y714644D01*
D01*
X645942Y714644D01*
X646012Y714714D01*
D01*
X649913Y718615D01*
X643167Y725361D01*
X636421Y732107D01*
X632521Y728206D01*
D01*
X632451Y728136D01*
D01*
X632451D01*
X632451Y728136D01*
X632439Y728124D01*
X632437Y728122D01*
X632427Y728112D01*
X632416Y728102D01*
X632407Y728092D01*
X632150Y727836D01*
Y727836D01*
X632150Y727836D01*
D01*
X632385Y727290D01*
X632074Y726324D01*
X631822Y725965D01*
X624354Y718498D01*
X620479D01*
X619953Y719768D01*
X623043Y722858D01*
X616297Y729604D01*
X609551Y736349D01*
X605280Y732078D01*
X608772Y728587D01*
X607962Y727601D01*
X607750Y727742D01*
Y722750D01*
X605250D01*
Y720250D01*
X600257D01*
X600579Y719768D01*
X599901Y718498D01*
X597202D01*
X597160Y718560D01*
X596100Y719269D01*
X594850Y719518D01*
X584650D01*
X583399Y719269D01*
X582339Y718560D01*
X581631Y717500D01*
X581382Y716250D01*
X581572Y715293D01*
X580872Y714023D01*
X551250D01*
X550365Y713847D01*
X550189Y713812D01*
X549289Y713211D01*
X517289Y681211D01*
X517085Y680905D01*
X516042Y680208D01*
X515058Y678736D01*
X514713Y677000D01*
X515005Y675529D01*
X514755Y674823D01*
X514283Y674138D01*
X513848Y674073D01*
X507773Y680149D01*
Y707500D01*
X507597Y708385D01*
X507562Y708561D01*
X506961Y709461D01*
X485935Y730487D01*
X486037Y731000D01*
X485692Y732736D01*
X484708Y734208D01*
X483236Y735192D01*
X481500Y735537D01*
X479764Y735192D01*
X478292Y734208D01*
X477308Y732736D01*
X476963Y731000D01*
X477308Y729264D01*
X478292Y727792D01*
X479764Y726808D01*
X481500Y726463D01*
X482013Y726565D01*
X502227Y706351D01*
Y679000D01*
X502403Y678115D01*
X502438Y677939D01*
X503039Y677039D01*
X511539Y668539D01*
X512140Y668137D01*
X512439Y667938D01*
X513500Y667727D01*
X560420D01*
X560746Y667206D01*
X560966Y666457D01*
X560112Y665178D01*
X559766Y663442D01*
X560112Y661705D01*
X561095Y660234D01*
X562567Y659250D01*
X564303Y658905D01*
X564816Y659007D01*
X567237Y656586D01*
Y645215D01*
X565967Y644537D01*
X565735Y644691D01*
X563999Y645036D01*
X562263Y644691D01*
X560791Y643707D01*
X559807Y642235D01*
X559462Y640499D01*
X559564Y639986D01*
X557319Y637741D01*
X556718Y636841D01*
X556683Y636665D01*
X556507Y635780D01*
Y633075D01*
X555333Y632589D01*
X553708Y634213D01*
Y637001D01*
X554143Y637292D01*
X555127Y638764D01*
X555472Y640500D01*
X555127Y642236D01*
X554143Y643708D01*
X552671Y644692D01*
X550935Y645037D01*
X549199Y644692D01*
X547727Y643708D01*
X546743Y642236D01*
X546398Y640500D01*
X546743Y638764D01*
X547727Y637292D01*
X548162Y637001D01*
Y633065D01*
X548338Y632179D01*
X548373Y632004D01*
X548974Y631104D01*
X549010Y631068D01*
X548650Y629642D01*
X547528Y629183D01*
X546500Y629869D01*
X545250Y630118D01*
X543999Y629869D01*
X542939Y629161D01*
X542561D01*
X541500Y629869D01*
X540250Y630118D01*
X538999Y629869D01*
X537939Y629161D01*
X537561D01*
X536500Y629869D01*
X535250Y630118D01*
X533999Y629869D01*
X532939Y629161D01*
X532561D01*
X531500Y629869D01*
X530250Y630118D01*
X528999Y629869D01*
X527939Y629161D01*
X527561D01*
X526500Y629869D01*
X525250Y630118D01*
X523999Y629869D01*
X522939Y629161D01*
X522561D01*
X521501Y629869D01*
X520250Y630118D01*
X518999Y629869D01*
X517939Y629161D01*
X517561D01*
X516501Y629869D01*
X515250Y630118D01*
X513999Y629869D01*
X512939Y629161D01*
X512561D01*
X511501Y629869D01*
X510250Y630118D01*
X508999Y629869D01*
X507939Y629161D01*
X507561D01*
X506501Y629869D01*
X505250Y630118D01*
X503999Y629869D01*
X502939Y629161D01*
X502561D01*
X501501Y629869D01*
X500250Y630118D01*
X498999Y629869D01*
X497939Y629161D01*
X497561D01*
X496501Y629869D01*
X495250Y630118D01*
X493999Y629869D01*
X492939Y629161D01*
X492231Y628101D01*
X491982Y626850D01*
Y616650D01*
X492231Y615400D01*
X492939Y614339D01*
X493999Y613631D01*
X495250Y613382D01*
X496501Y613631D01*
X497561Y614339D01*
X497939D01*
X498999Y613631D01*
X500250Y613382D01*
X501501Y613631D01*
X502561Y614339D01*
X502939D01*
X503999Y613631D01*
X505250Y613382D01*
X506501Y613631D01*
X507561Y614339D01*
X507939D01*
X508999Y613631D01*
X510250Y613382D01*
X511501Y613631D01*
X512561Y614339D01*
X512939D01*
X513894Y613701D01*
X514022Y613516D01*
X514271Y612282D01*
X513539Y611550D01*
X512938Y610650D01*
X512902Y610474D01*
X512727Y609589D01*
Y603500D01*
X512902Y602615D01*
X512938Y602439D01*
X513539Y601539D01*
X522539Y592539D01*
X523438Y591938D01*
X524500Y591727D01*
X540851D01*
X543329Y589248D01*
X542911Y587870D01*
X542014Y587692D01*
X540542Y586708D01*
X539558Y585236D01*
X539213Y583500D01*
X539558Y581764D01*
X540542Y580292D01*
X540977Y580001D01*
Y578450D01*
X538800D01*
Y568550D01*
X554700D01*
Y578450D01*
X546523D01*
Y580001D01*
X546958Y580292D01*
X547942Y581764D01*
X548172Y582922D01*
X548687Y583605D01*
X549518Y583822D01*
X550000Y583727D01*
X572851D01*
X576954Y579623D01*
X576468Y578450D01*
X562800D01*
Y568550D01*
X578700D01*
X578700Y568550D01*
Y568550D01*
X579773Y568055D01*
X636641Y511187D01*
X636155Y510013D01*
X596490D01*
X595605Y509837D01*
X595429Y509802D01*
X594529Y509201D01*
X581851Y496523D01*
X539703D01*
X539322Y497030D01*
X539957Y498300D01*
X543930D01*
Y503340D01*
X536270D01*
Y499429D01*
X535500Y498287D01*
X535500Y498287D01*
X535043Y498196D01*
X534625Y498113D01*
X533764Y497942D01*
X533600Y497864D01*
X533489Y497811D01*
X532588Y498513D01*
X532583Y498517D01*
X532513Y498572D01*
X532470Y498605D01*
Y498715D01*
X532470Y498838D01*
X532470Y499381D01*
Y499434D01*
Y499434D01*
Y503340D01*
X524810D01*
Y498300D01*
X531294D01*
X531294D01*
X531326Y498300D01*
X531933Y498300D01*
X531962D01*
X532014D01*
X532038Y498220D01*
X532075Y498100D01*
X532080Y498081D01*
X532391Y497057D01*
X532350Y497016D01*
X532292Y496958D01*
X531716Y496096D01*
X531308Y495486D01*
X530963Y493750D01*
X531308Y492014D01*
X531623Y491543D01*
X530944Y490273D01*
X516399D01*
X515185Y491487D01*
X515287Y492000D01*
X514942Y493736D01*
X513958Y495208D01*
X512486Y496192D01*
X510750Y496537D01*
X509014Y496192D01*
X507542Y495208D01*
X506558Y493736D01*
X506213Y492000D01*
X506558Y490264D01*
X507542Y488792D01*
X509014Y487808D01*
X510310Y487550D01*
X510450Y487359D01*
X509807Y486089D01*
X459398Y486089D01*
X459398Y486089D01*
X384360Y486089D01*
X383250Y485630D01*
X358250Y460630D01*
X357790Y459520D01*
Y453090D01*
X357881Y452871D01*
X357858Y452634D01*
X358103Y452336D01*
X358250Y451980D01*
X358470Y451889D01*
X358620Y451706D01*
X359660Y451150D01*
X359843Y450081D01*
X359828Y449766D01*
X359808Y449736D01*
X359463Y448000D01*
X359808Y446264D01*
X360792Y444792D01*
X361026Y444635D01*
Y443365D01*
X360792Y443208D01*
X359808Y441736D01*
X359463Y440000D01*
X359808Y438264D01*
X360792Y436792D01*
X362264Y435808D01*
X362266Y434594D01*
X362196Y434312D01*
X361292Y433708D01*
X360308Y432236D01*
X359963Y430500D01*
X360231Y429150D01*
X360240Y428676D01*
X359534Y427768D01*
X358983Y427632D01*
X358642Y427381D01*
X358250Y427218D01*
X358175Y427036D01*
X358016Y426919D01*
X357953Y426500D01*
X357790Y426109D01*
Y421898D01*
X358250Y420788D01*
X359148Y419890D01*
X360258Y419430D01*
X374930D01*
Y404000D01*
X374643Y403569D01*
X366840D01*
X365730Y403110D01*
X358250Y395630D01*
X357790Y394520D01*
Y354520D01*
X358250Y353410D01*
X363250Y348410D01*
X364360Y347950D01*
X383344Y347950D01*
X383583Y348049D01*
X383840Y348031D01*
X384027Y348193D01*
X384140Y348220D01*
X384394Y348169D01*
X385410Y347511D01*
Y332320D01*
X391587D01*
Y327019D01*
X391152Y326728D01*
X390168Y325256D01*
X389823Y323520D01*
X390168Y321783D01*
X391152Y320312D01*
X392624Y319328D01*
X394360Y318983D01*
X396096Y319328D01*
X397568Y320312D01*
X398552Y321783D01*
X398897Y323520D01*
X398552Y325256D01*
X397568Y326728D01*
X397133Y327019D01*
Y332320D01*
X404310D01*
Y347683D01*
X404350Y347726D01*
X405550Y348293D01*
X405734Y348216D01*
X406172Y347964D01*
X406276Y347992D01*
X406376Y347950D01*
X421360Y347950D01*
X422470Y348410D01*
X422617Y348557D01*
X423791Y348071D01*
Y282520D01*
X424250Y281410D01*
X441770Y263890D01*
X442880Y263430D01*
X477269D01*
X479429Y261270D01*
X478903Y260000D01*
X130398Y260000D01*
X129500Y260898D01*
X129500Y1019998D01*
X165722Y1019998D01*
X166241Y1018839D01*
X165016Y1017468D01*
X161117Y1011972D01*
X157857Y1006074D01*
X155278Y999848D01*
X153412Y993372D01*
X152283Y986728D01*
X151905Y980000D01*
X152283Y973271D01*
X153412Y966628D01*
X155278Y960152D01*
X157857Y953926D01*
X161117Y948028D01*
X165016Y942532D01*
X169507Y937507D01*
X174532Y933016D01*
X180028Y929117D01*
X185926Y925857D01*
X192152Y923278D01*
X198628Y921412D01*
X205271Y920283D01*
X212000Y919905D01*
X218729Y920283D01*
X225372Y921412D01*
X231848Y923278D01*
X238074Y925857D01*
X243972Y929117D01*
X249468Y933016D01*
X254493Y937507D01*
X258984Y942532D01*
X262883Y948028D01*
X266143Y953926D01*
X268722Y960152D01*
X270588Y966628D01*
X271717Y973271D01*
X272094Y980000D01*
X271717Y986728D01*
X270588Y993372D01*
X268722Y999848D01*
X266143Y1006074D01*
X262883Y1011972D01*
X258984Y1017468D01*
X257759Y1018839D01*
X258278Y1019998D01*
X628892Y1019999D01*
X629139Y1018753D01*
X627299Y1017991D01*
X621418Y1014741D01*
X615937Y1010852D01*
X610926Y1006374D01*
X606448Y1001363D01*
X602559Y995882D01*
X599309Y990001D01*
X596737Y983792D01*
X594877Y977335D01*
X593751Y970709D01*
X593374Y964000D01*
X593751Y957290D01*
X594877Y950665D01*
X596737Y944208D01*
X599309Y937999D01*
X602559Y932117D01*
X606448Y926637D01*
X610926Y921626D01*
X615937Y917148D01*
X621418Y913259D01*
X627299Y910009D01*
X633508Y907437D01*
X639965Y905576D01*
X646590Y904451D01*
X653300Y904074D01*
X660009Y904451D01*
X666635Y905576D01*
X673092Y907437D01*
X679301Y910009D01*
X685182Y913259D01*
X690663Y917148D01*
X695674Y921626D01*
X700152Y926637D01*
X704041Y932117D01*
X707291Y937999D01*
X709863Y944208D01*
X711723Y950665D01*
X712849Y957290D01*
X713226Y964000D01*
X712849Y970709D01*
X711723Y977335D01*
X709863Y983792D01*
X707291Y990001D01*
X704041Y995882D01*
X700152Y1001363D01*
X695674Y1006374D01*
X690663Y1010852D01*
X685182Y1014741D01*
X679301Y1017991D01*
X677460Y1018754D01*
X677708Y1019999D01*
X873171Y1020000D01*
X873754Y1018871D01*
D02*
G37*
G36*
X681000Y454500D02*
Y436160D01*
X674360Y429520D01*
X669360Y424520D01*
X599360D01*
X589360Y434520D01*
X584860Y439020D01*
Y446070D01*
X588060D01*
Y453041D01*
X588923Y453731D01*
X590070Y453232D01*
Y453020D01*
X594360D01*
Y450520D01*
X596860D01*
Y444980D01*
X598650D01*
Y444980D01*
X599570D01*
Y444980D01*
X601360D01*
Y450520D01*
X603860D01*
Y453020D01*
X608150D01*
Y454520D01*
X609360D01*
X612790Y457950D01*
X617741D01*
X618524Y457404D01*
X618820Y456998D01*
Y452520D01*
X629360D01*
X639900D01*
Y456998D01*
X640196Y457404D01*
X640980Y457950D01*
X642740D01*
X643524Y457404D01*
X643820Y456998D01*
Y452520D01*
X654360D01*
X664900D01*
Y456998D01*
X665196Y457404D01*
X665980Y457950D01*
X677549D01*
X681000Y454500D01*
D02*
G37*
G36*
X581572Y707207D02*
X581382Y706250D01*
X581631Y704999D01*
X582339Y703939D01*
Y703560D01*
X581631Y702500D01*
X581382Y701250D01*
X581631Y699999D01*
X582339Y698939D01*
Y698561D01*
X581631Y697500D01*
X581382Y696250D01*
X581631Y694999D01*
X582339Y693939D01*
Y693561D01*
X581631Y692500D01*
X581382Y691250D01*
X581631Y689999D01*
X581785Y689768D01*
X581106Y688498D01*
X577099D01*
X576958Y688708D01*
X575486Y689692D01*
X573750Y690037D01*
X572014Y689692D01*
X570542Y688708D01*
X569558Y687236D01*
X569213Y685500D01*
X569452Y684295D01*
X569449Y684286D01*
X568464Y683301D01*
X568455Y683298D01*
X567250Y683537D01*
X565514Y683192D01*
X564042Y682208D01*
X563058Y680736D01*
X562713Y679000D01*
X563058Y677264D01*
X564042Y675792D01*
X565514Y674808D01*
X566846Y674543D01*
X566721Y673273D01*
X545770D01*
X545171Y674393D01*
X545242Y674500D01*
X535258D01*
X535329Y674393D01*
X534730Y673273D01*
X523639D01*
X522960Y674543D01*
X523442Y675264D01*
X523787Y677000D01*
X523442Y678736D01*
X523128Y679206D01*
X552399Y708477D01*
X580872D01*
X581572Y707207D01*
D02*
G37*
%LPC*%
G36*
X608150Y448020D02*
X606360D01*
Y444980D01*
X608150D01*
Y448020D01*
D02*
G37*
G36*
X1015899Y437606D02*
X1011795D01*
Y432994D01*
X1015899D01*
Y437606D01*
D02*
G37*
G36*
X614000Y439492D02*
Y437000D01*
X616492D01*
X615494Y438494D01*
X614000Y439492D01*
D02*
G37*
G36*
X609000D02*
X607506Y438494D01*
X606507Y437000D01*
X609000D01*
Y439492D01*
D02*
G37*
G36*
X656860Y432020D02*
X654368D01*
X655366Y430526D01*
X656860Y429527D01*
Y432020D01*
D02*
G37*
G36*
X640422Y432000D02*
X637930D01*
Y429507D01*
X639424Y430506D01*
X640422Y432000D01*
D02*
G37*
G36*
X1006795Y437606D02*
X1002691D01*
Y432994D01*
X1006795D01*
Y437606D01*
D02*
G37*
G36*
X664352Y432020D02*
X661860D01*
Y429527D01*
X663354Y430526D01*
X664352Y432020D01*
D02*
G37*
G36*
X530360Y455020D02*
X524320D01*
Y439980D01*
X530360D01*
Y455020D01*
D02*
G37*
G36*
X440150Y446310D02*
X411610D01*
Y438270D01*
X440150D01*
Y446310D01*
D02*
G37*
G36*
X626860Y447520D02*
X618820D01*
Y440980D01*
X626860D01*
Y447520D01*
D02*
G37*
G36*
X541400Y455020D02*
X535360D01*
Y439980D01*
X541400D01*
Y455020D01*
D02*
G37*
G36*
X406610Y446310D02*
X378070D01*
Y438270D01*
X406610D01*
Y446310D01*
D02*
G37*
G36*
X664900Y447520D02*
X656860D01*
Y440980D01*
X656944D01*
X657180Y439827D01*
X657156Y439710D01*
X655366Y438514D01*
X654368Y437020D01*
X664352D01*
X663354Y438514D01*
X661564Y439710D01*
X661540Y439827D01*
X661776Y440980D01*
X664900D01*
Y447520D01*
D02*
G37*
G36*
X639900D02*
X631860D01*
Y440980D01*
X633099D01*
X633268Y439718D01*
X631436Y438494D01*
X630437Y437000D01*
X640422D01*
X639424Y438494D01*
X637592Y439718D01*
X637760Y440980D01*
X639900D01*
Y447520D01*
D02*
G37*
G36*
X651860D02*
X643820D01*
Y440980D01*
X651860D01*
Y447520D01*
D02*
G37*
G36*
X591860Y448020D02*
X590070D01*
Y444980D01*
X591860D01*
Y448020D01*
D02*
G37*
G36*
X490684Y424270D02*
X487144D01*
Y417730D01*
X490684D01*
Y424270D01*
D02*
G37*
G36*
X482144D02*
X478604D01*
Y417730D01*
X482144D01*
Y424270D01*
D02*
G37*
G36*
X1015899Y427994D02*
X1011795D01*
Y423382D01*
X1015899D01*
Y427994D01*
D02*
G37*
G36*
X1006795D02*
X1002691D01*
Y423382D01*
X1006795D01*
Y427994D01*
D02*
G37*
G36*
X541400Y421060D02*
X535360D01*
Y406020D01*
X541400D01*
Y421060D01*
D02*
G37*
G36*
X482110Y414060D02*
X475570D01*
Y406020D01*
X482110D01*
Y414060D01*
D02*
G37*
G36*
X960540Y439840D02*
X939860D01*
Y419160D01*
X954844D01*
X967533Y406470D01*
X968840Y405597D01*
X970381Y405291D01*
X994129D01*
Y403296D01*
X1005157D01*
Y415340D01*
X994129D01*
Y413346D01*
X972049D01*
X960540Y424855D01*
Y439840D01*
D02*
G37*
G36*
X530360Y421060D02*
X524320D01*
Y406020D01*
X530360D01*
Y421060D01*
D02*
G37*
G36*
X493650Y414060D02*
X487110D01*
Y406020D01*
X493650D01*
Y414060D01*
D02*
G37*
G36*
X996669Y457856D02*
X986769D01*
Y441956D01*
X987691D01*
Y436516D01*
X984629D01*
Y424472D01*
X995657D01*
Y431621D01*
X995746Y432070D01*
Y441956D01*
X996669D01*
Y457856D01*
D02*
G37*
G36*
X609000Y432000D02*
X606507D01*
X607506Y430506D01*
X609000Y429507D01*
Y432000D01*
D02*
G37*
G36*
X490684Y435810D02*
X487144D01*
Y429270D01*
X490684D01*
Y435810D01*
D02*
G37*
G36*
X632930Y432000D02*
X630437D01*
X631436Y430506D01*
X632930Y429507D01*
Y432000D01*
D02*
G37*
G36*
X616492D02*
X614000D01*
Y429507D01*
X615494Y430506D01*
X616492Y432000D01*
D02*
G37*
G36*
X482144Y435810D02*
X478604D01*
Y429270D01*
X482144D01*
Y435810D01*
D02*
G37*
G36*
X440150Y433270D02*
X411610D01*
Y425230D01*
X440150D01*
Y433270D01*
D02*
G37*
G36*
X406610D02*
X378070D01*
Y425230D01*
X406610D01*
Y433270D01*
D02*
G37*
G36*
X463144Y435810D02*
X459604D01*
Y429270D01*
X463144D01*
Y435810D01*
D02*
G37*
G36*
X369492Y428000D02*
X367000D01*
Y425507D01*
X368494Y426506D01*
X369492Y428000D01*
D02*
G37*
G36*
X591860Y484060D02*
X590070D01*
Y481020D01*
X591860D01*
Y484060D01*
D02*
G37*
G36*
X1018759Y482946D02*
X1012219D01*
Y474906D01*
X1018759D01*
Y482946D01*
D02*
G37*
G36*
X621860Y487020D02*
X619368D01*
X620366Y485526D01*
X621860Y484527D01*
Y487020D01*
D02*
G37*
G36*
X598650Y484060D02*
X596860D01*
Y481020D01*
X598650D01*
Y484060D01*
D02*
G37*
G36*
X1007219Y482946D02*
X1000679D01*
Y474906D01*
X1007219D01*
Y482946D01*
D02*
G37*
G36*
X639900Y478060D02*
X631860D01*
Y471520D01*
X639900D01*
Y478060D01*
D02*
G37*
G36*
X651860D02*
X643820D01*
Y471520D01*
X651860D01*
Y478060D01*
D02*
G37*
G36*
X792290Y480290D02*
X784750D01*
Y472750D01*
X792290D01*
Y480290D01*
D02*
G37*
G36*
X779750D02*
X772210D01*
Y472750D01*
X779750D01*
Y480290D01*
D02*
G37*
G36*
X629352Y487020D02*
X626860D01*
Y484527D01*
X628354Y485526D01*
X629352Y487020D01*
D02*
G37*
G36*
X636860Y494512D02*
X635366Y493514D01*
X634368Y492020D01*
X636860D01*
Y494512D01*
D02*
G37*
G36*
X626860D02*
Y492020D01*
X629352D01*
X628354Y493514D01*
X626860Y494512D01*
D02*
G37*
G36*
X651860D02*
X650366Y493514D01*
X649368Y492020D01*
X651860D01*
Y494512D01*
D02*
G37*
G36*
X641860D02*
Y492020D01*
X644352D01*
X643354Y493514D01*
X641860Y494512D01*
D02*
G37*
G36*
X621860D02*
X620366Y493514D01*
X619368Y492020D01*
X621860D01*
Y494512D01*
D02*
G37*
G36*
X644352Y487020D02*
X641860D01*
Y484527D01*
X643354Y485526D01*
X644352Y487020D01*
D02*
G37*
G36*
X636860D02*
X634368D01*
X635366Y485526D01*
X636860Y484527D01*
Y487020D01*
D02*
G37*
G36*
X659352D02*
X656860D01*
Y484527D01*
X658354Y485526D01*
X659352Y487020D01*
D02*
G37*
G36*
X651860D02*
X649368D01*
X650366Y485526D01*
X651860Y484527D01*
Y487020D01*
D02*
G37*
G36*
X626860Y478060D02*
X618820D01*
Y471520D01*
X626860D01*
Y478060D01*
D02*
G37*
G36*
X574492Y462000D02*
X572000D01*
Y459507D01*
X573494Y460506D01*
X574492Y462000D01*
D02*
G37*
G36*
X567000D02*
X564507D01*
X565506Y460506D01*
X567000Y459507D01*
Y462000D01*
D02*
G37*
G36*
X541400Y475060D02*
X535360D01*
Y460020D01*
X541400D01*
Y475060D01*
D02*
G37*
G36*
X530360D02*
X524320D01*
Y460020D01*
X530360D01*
Y475060D01*
D02*
G37*
G36*
X676360Y455012D02*
Y452520D01*
X678853D01*
X677854Y454014D01*
X676360Y455012D01*
D02*
G37*
G36*
X678853Y447520D02*
X676360D01*
Y445027D01*
X677854Y446026D01*
X678853Y447520D01*
D02*
G37*
G36*
X671360D02*
X668868D01*
X669866Y446026D01*
X671360Y445027D01*
Y447520D01*
D02*
G37*
G36*
Y455012D02*
X669866Y454014D01*
X668868Y452520D01*
X671360D01*
Y455012D01*
D02*
G37*
G36*
X366500Y452992D02*
Y450500D01*
X368992D01*
X367994Y451994D01*
X366500Y452992D01*
D02*
G37*
G36*
X779750Y467750D02*
X772210D01*
Y460210D01*
X779750D01*
Y467750D01*
D02*
G37*
G36*
X567000Y469492D02*
X565506Y468494D01*
X564507Y467000D01*
X567000D01*
Y469492D01*
D02*
G37*
G36*
X673992Y466500D02*
X671500D01*
Y464007D01*
X672994Y465006D01*
X673992Y466500D01*
D02*
G37*
G36*
X671500Y473992D02*
Y471500D01*
X673992D01*
X672994Y472994D01*
X671500Y473992D01*
D02*
G37*
G36*
X572000Y469492D02*
Y467000D01*
X574492D01*
X573494Y468494D01*
X572000Y469492D01*
D02*
G37*
G36*
X998669Y481856D02*
X982769D01*
Y476434D01*
X957258D01*
X955717Y476127D01*
X954410Y475254D01*
X921952Y442795D01*
X921079Y441489D01*
X920772Y439948D01*
Y439024D01*
X919585Y438532D01*
X917425Y436875D01*
X915768Y434715D01*
X914726Y432199D01*
X914370Y429500D01*
X914726Y426801D01*
X915768Y424285D01*
X917425Y422125D01*
X919585Y420468D01*
X922100Y419426D01*
X924800Y419071D01*
X927499Y419426D01*
X930014Y420468D01*
X932174Y422125D01*
X933832Y424285D01*
X934874Y426801D01*
X935229Y429500D01*
X934874Y432199D01*
X933832Y434715D01*
X932174Y436875D01*
X930502Y438158D01*
X930235Y439688D01*
X958926Y468379D01*
X982769D01*
Y462956D01*
X998669D01*
Y481856D01*
D02*
G37*
G36*
X832250Y479277D02*
X829914Y478970D01*
X827736Y478068D01*
X825867Y476633D01*
X824432Y474764D01*
X823530Y472586D01*
X823223Y470250D01*
X823530Y467914D01*
X824432Y465736D01*
X825867Y463867D01*
X827736Y462432D01*
X829914Y461530D01*
X832250Y461223D01*
X834586Y461530D01*
X836764Y462432D01*
X838633Y463867D01*
X840068Y465736D01*
X840970Y467914D01*
X841277Y470250D01*
X840970Y472586D01*
X840068Y474764D01*
X838633Y476633D01*
X836764Y478068D01*
X834586Y478970D01*
X832250Y479277D01*
D02*
G37*
G36*
X792290Y467750D02*
X784750D01*
Y460210D01*
X792290D01*
Y467750D01*
D02*
G37*
G36*
X1018759Y469906D02*
X1012219D01*
Y461866D01*
X1018759D01*
Y469906D01*
D02*
G37*
G36*
X1007219D02*
X1000679D01*
Y461866D01*
X1007219D01*
Y469906D01*
D02*
G37*
G36*
X804750Y322750D02*
X797452D01*
X797468Y322629D01*
X798480Y320187D01*
X800089Y318089D01*
X802187Y316480D01*
X804629Y315469D01*
X804750Y315452D01*
Y322750D01*
D02*
G37*
G36*
X765500Y316742D02*
Y314250D01*
X767992D01*
X766994Y315744D01*
X765500Y316742D01*
D02*
G37*
G36*
X495360Y326560D02*
X488820D01*
Y318520D01*
X495360D01*
Y326560D01*
D02*
G37*
G36*
X817048Y322750D02*
X809750D01*
Y315452D01*
X809871Y315469D01*
X812313Y316480D01*
X814411Y318089D01*
X816020Y320187D01*
X817031Y322629D01*
X817048Y322750D01*
D02*
G37*
G36*
X760500Y316742D02*
X759006Y315744D01*
X758008Y314250D01*
X760500D01*
Y316742D01*
D02*
G37*
G36*
X530060Y343497D02*
X513060D01*
X511519Y343191D01*
X510212Y342318D01*
X509339Y341011D01*
X509033Y339470D01*
X509339Y337929D01*
X510212Y336622D01*
X511519Y335749D01*
X513060Y335442D01*
X518787D01*
Y321320D01*
X518963Y320435D01*
X518998Y320258D01*
X519599Y319359D01*
X523649Y315309D01*
X524549Y314708D01*
X524725Y314673D01*
X525610Y314496D01*
X531786D01*
Y307820D01*
X547686D01*
Y326720D01*
X531786D01*
Y320043D01*
X526759D01*
X524333Y322468D01*
Y335442D01*
X530060D01*
X531601Y335749D01*
X532908Y336622D01*
X533781Y337929D01*
X534087Y339470D01*
X533781Y341011D01*
X532908Y342318D01*
X531601Y343191D01*
X530060Y343497D01*
D02*
G37*
G36*
X767992Y309250D02*
X765500D01*
Y306758D01*
X766994Y307756D01*
X767992Y309250D01*
D02*
G37*
G36*
X516353Y314020D02*
X513860D01*
Y311527D01*
X515354Y312526D01*
X516353Y314020D01*
D02*
G37*
G36*
X506900Y326560D02*
X500360D01*
Y316020D01*
Y305480D01*
X506900D01*
Y311310D01*
X508170Y311989D01*
X508860Y311527D01*
Y316520D01*
Y321512D01*
X508170Y321051D01*
X506900Y321730D01*
Y326560D01*
D02*
G37*
G36*
X513860Y321512D02*
Y319020D01*
X516353D01*
X515354Y320514D01*
X513860Y321512D01*
D02*
G37*
G36*
X1020607Y372155D02*
X1017617Y371762D01*
X1014832Y370608D01*
X1012440Y368773D01*
X991227Y347560D01*
X989392Y345168D01*
X988238Y342383D01*
X987845Y339393D01*
X988238Y336404D01*
X989392Y333619D01*
X991227Y331227D01*
X993619Y329392D01*
X996404Y328238D01*
X999393Y327845D01*
X1002383Y328238D01*
X1005168Y329392D01*
X1007560Y331227D01*
X1028773Y352440D01*
X1030608Y354832D01*
X1031762Y357617D01*
X1032155Y360607D01*
X1031762Y363596D01*
X1030608Y366381D01*
X1028773Y368773D01*
X1026381Y370608D01*
X1023596Y371762D01*
X1020607Y372155D01*
D02*
G37*
G36*
X809750Y335047D02*
Y327750D01*
X817048D01*
X817031Y327871D01*
X816020Y330313D01*
X814411Y332411D01*
X812313Y334020D01*
X809871Y335032D01*
X809750Y335047D01*
D02*
G37*
G36*
X554610Y337520D02*
X546570D01*
Y330980D01*
X554610D01*
Y337520D01*
D02*
G37*
G36*
X589150Y336270D02*
X571070D01*
Y332730D01*
X575449D01*
X575913Y331460D01*
X575117Y330270D01*
X585102D01*
X584307Y331460D01*
X584771Y332730D01*
X589150D01*
Y336270D01*
D02*
G37*
G36*
X804750Y335047D02*
X804629Y335032D01*
X802187Y334020D01*
X800089Y332411D01*
X798480Y330313D01*
X797468Y327871D01*
X797452Y327750D01*
X804750D01*
Y335047D01*
D02*
G37*
G36*
X567776Y327810D02*
X561236D01*
Y319770D01*
X567776D01*
Y327810D01*
D02*
G37*
G36*
X556236D02*
X549696D01*
Y319770D01*
X556236D01*
Y327810D01*
D02*
G37*
G36*
X585102Y325270D02*
X582610D01*
Y322777D01*
X584104Y323776D01*
X585102Y325270D01*
D02*
G37*
G36*
X577610D02*
X575117D01*
X576116Y323776D01*
X577610Y322777D01*
Y325270D01*
D02*
G37*
G36*
X657199Y301200D02*
X648500D01*
Y292500D01*
X648984Y292564D01*
X651764Y293716D01*
X654152Y295548D01*
X655984Y297936D01*
X657135Y300716D01*
X657199Y301200D01*
D02*
G37*
G36*
X506900Y288770D02*
X500360D01*
Y280730D01*
X506900D01*
Y288770D01*
D02*
G37*
G36*
X477590Y301810D02*
X469820D01*
Y292540D01*
X477590D01*
Y301810D01*
D02*
G37*
G36*
X643500Y301200D02*
X634800D01*
X634864Y300716D01*
X636016Y297936D01*
X637848Y295548D01*
X640235Y293716D01*
X643016Y292564D01*
X643500Y292500D01*
Y301200D01*
D02*
G37*
G36*
X495360Y288770D02*
X488820D01*
Y280730D01*
X495360D01*
Y288770D01*
D02*
G37*
G36*
X924000Y389095D02*
X917271Y388717D01*
X910628Y387588D01*
X904152Y385722D01*
X897926Y383143D01*
X892028Y379883D01*
X886532Y375984D01*
X881507Y371493D01*
X877016Y366468D01*
X873117Y360972D01*
X869857Y355074D01*
X867278Y348848D01*
X865412Y342372D01*
X864283Y335728D01*
X863905Y329000D01*
X864283Y322271D01*
X865412Y315628D01*
X867278Y309152D01*
X869857Y302926D01*
X873117Y297028D01*
X877016Y291532D01*
X881507Y286507D01*
X886532Y282016D01*
X892028Y278116D01*
X897926Y274857D01*
X904152Y272278D01*
X910628Y270412D01*
X917271Y269283D01*
X924000Y268906D01*
X930729Y269283D01*
X937372Y270412D01*
X943848Y272278D01*
X950074Y274857D01*
X955972Y278116D01*
X961468Y282016D01*
X966493Y286507D01*
X970984Y291532D01*
X974883Y297028D01*
X978143Y302926D01*
X980722Y309152D01*
X982588Y315628D01*
X983717Y322271D01*
X984094Y329000D01*
X983717Y335728D01*
X982588Y342372D01*
X980722Y348848D01*
X978143Y355074D01*
X974883Y360972D01*
X970984Y366468D01*
X966493Y371493D01*
X961468Y375984D01*
X955972Y379883D01*
X950074Y383143D01*
X943848Y385722D01*
X937372Y387588D01*
X930729Y388717D01*
X924000Y389095D01*
D02*
G37*
G36*
X212000D02*
X205271Y388717D01*
X198628Y387588D01*
X192152Y385722D01*
X185926Y383143D01*
X180028Y379883D01*
X174532Y375984D01*
X169507Y371493D01*
X165016Y366468D01*
X161117Y360972D01*
X157857Y355074D01*
X155278Y348848D01*
X153412Y342372D01*
X152283Y335728D01*
X151905Y329000D01*
X152283Y322271D01*
X153412Y315628D01*
X155278Y309152D01*
X157857Y302926D01*
X161117Y297028D01*
X165016Y291532D01*
X169507Y286507D01*
X174532Y282016D01*
X180028Y278116D01*
X185926Y274857D01*
X192152Y272278D01*
X198628Y270412D01*
X205271Y269283D01*
X212000Y268906D01*
X218729Y269283D01*
X225372Y270412D01*
X231848Y272278D01*
X238074Y274857D01*
X243972Y278116D01*
X249468Y282016D01*
X254493Y286507D01*
X258984Y291532D01*
X262883Y297028D01*
X266143Y302926D01*
X268722Y309152D01*
X270588Y315628D01*
X271717Y322271D01*
X272094Y329000D01*
X271717Y335728D01*
X270588Y342372D01*
X268722Y348848D01*
X266143Y355074D01*
X262883Y360972D01*
X258984Y366468D01*
X254493Y371493D01*
X249468Y375984D01*
X243972Y379883D01*
X238074Y383143D01*
X231848Y385722D01*
X225372Y387588D01*
X218729Y388717D01*
X212000Y389095D01*
D02*
G37*
G36*
X477590Y290000D02*
X469820D01*
Y280730D01*
X477590D01*
Y290000D01*
D02*
G37*
G36*
X745250Y284787D02*
X743514Y284442D01*
X742042Y283458D01*
X741058Y281986D01*
X740713Y280250D01*
X741058Y278514D01*
X742042Y277042D01*
X743514Y276058D01*
X745250Y275713D01*
X745525Y275767D01*
X745750Y275723D01*
X775675D01*
Y274800D01*
X791575D01*
Y275723D01*
X796050D01*
Y274800D01*
X811950D01*
Y284700D01*
X796050D01*
Y283777D01*
X791575D01*
Y284700D01*
X775675D01*
Y283777D01*
X747981D01*
X746986Y284442D01*
X745250Y284787D01*
D02*
G37*
G36*
X495360Y301810D02*
X488820D01*
Y293770D01*
X495360D01*
Y301810D01*
D02*
G37*
G36*
X556236Y314770D02*
X549696D01*
Y306730D01*
X556236D01*
Y314770D01*
D02*
G37*
G36*
X648500Y314899D02*
Y306200D01*
X657199D01*
X657135Y306684D01*
X655984Y309464D01*
X654152Y311852D01*
X651764Y313684D01*
X648984Y314836D01*
X648500Y314899D01*
D02*
G37*
G36*
X760500Y309250D02*
X758008D01*
X759006Y307756D01*
X760500Y306758D01*
Y309250D01*
D02*
G37*
G36*
X567776Y314770D02*
X561236D01*
Y306730D01*
X567776D01*
Y314770D01*
D02*
G37*
G36*
X643500Y314899D02*
X643016Y314836D01*
X640235Y313684D01*
X637848Y311852D01*
X636016Y309464D01*
X634864Y306684D01*
X634800Y306200D01*
X643500D01*
Y314899D01*
D02*
G37*
G36*
X782250Y334277D02*
X779914Y333970D01*
X777736Y333068D01*
X775867Y331633D01*
X774432Y329764D01*
X773530Y327586D01*
X773223Y325250D01*
X773530Y322914D01*
X774432Y320736D01*
X775867Y318867D01*
X777736Y317432D01*
X779914Y316530D01*
X780852Y316407D01*
Y303700D01*
X775675D01*
Y293800D01*
X791575D01*
Y303700D01*
X786398D01*
Y317281D01*
X786764Y317432D01*
X788633Y318867D01*
X790068Y320736D01*
X790970Y322914D01*
X791277Y325250D01*
X790970Y327586D01*
X790068Y329764D01*
X788633Y331633D01*
X786764Y333068D01*
X784586Y333970D01*
X782250Y334277D01*
D02*
G37*
G36*
X506900Y301810D02*
X500360D01*
Y293770D01*
X506900D01*
Y301810D01*
D02*
G37*
G36*
X495360Y313520D02*
X488820D01*
Y305480D01*
X495360D01*
Y313520D01*
D02*
G37*
G36*
X477590Y314750D02*
X469820D01*
Y305480D01*
X477590D01*
Y314750D01*
D02*
G37*
G36*
X567650Y337520D02*
X559610D01*
Y330980D01*
X567650D01*
Y337520D01*
D02*
G37*
G36*
X747750Y397750D02*
X729857D01*
X730007Y396223D01*
X731182Y392352D01*
X733089Y388783D01*
X735656Y385656D01*
X738783Y383089D01*
X742352Y381182D01*
X746224Y380007D01*
X747750Y379857D01*
Y397750D01*
D02*
G37*
G36*
X884643D02*
X866750D01*
Y379857D01*
X868277Y380007D01*
X872148Y381182D01*
X875717Y383089D01*
X878844Y385656D01*
X881411Y388783D01*
X883318Y392352D01*
X884493Y396223D01*
X884643Y397750D01*
D02*
G37*
G36*
X461660Y382709D02*
X455660D01*
X453694Y382317D01*
X452026Y381203D01*
X451269Y380070D01*
X461660D01*
Y382709D01*
D02*
G37*
G36*
X861750Y397750D02*
X843857D01*
X844007Y396223D01*
X845182Y392352D01*
X847089Y388783D01*
X849656Y385656D01*
X852783Y383089D01*
X856352Y381182D01*
X860223Y380007D01*
X861750Y379857D01*
Y397750D01*
D02*
G37*
G36*
X770643D02*
X752750D01*
Y379857D01*
X754277Y380007D01*
X758148Y381182D01*
X761717Y383089D01*
X764844Y385656D01*
X767411Y388783D01*
X769318Y392352D01*
X770493Y396223D01*
X770643Y397750D01*
D02*
G37*
G36*
X461660Y375070D02*
X451269D01*
X452026Y373936D01*
X453694Y372822D01*
X455660Y372431D01*
X461660D01*
Y375070D01*
D02*
G37*
G36*
X405400Y368310D02*
X397360D01*
Y361770D01*
X405400D01*
Y368310D01*
D02*
G37*
G36*
X440150Y386270D02*
X411610D01*
Y378230D01*
X440150D01*
Y386270D01*
D02*
G37*
G36*
X406610D02*
X378070D01*
Y378230D01*
X406610D01*
Y386270D01*
D02*
G37*
G36*
X530360Y401020D02*
X524320D01*
Y389520D01*
Y385980D01*
X530360D01*
Y401020D01*
D02*
G37*
G36*
X747750Y420643D02*
X746224Y420493D01*
X742352Y419318D01*
X738783Y417411D01*
X735656Y414844D01*
X733089Y411717D01*
X731182Y408148D01*
X730007Y404277D01*
X729857Y402750D01*
X747750D01*
Y420643D01*
D02*
G37*
G36*
X861750D02*
X860223Y420493D01*
X856352Y419318D01*
X852783Y417411D01*
X849656Y414844D01*
X847089Y411717D01*
X845182Y408148D01*
X844007Y404277D01*
X843857Y402750D01*
X861750D01*
Y420643D01*
D02*
G37*
G36*
X752750D02*
Y402750D01*
X770643D01*
X770493Y404277D01*
X769318Y408148D01*
X767411Y411717D01*
X764844Y414844D01*
X761717Y417411D01*
X758148Y419318D01*
X754277Y420493D01*
X752750Y420643D01*
D02*
G37*
G36*
X866750D02*
Y402750D01*
X884643D01*
X884493Y404277D01*
X883318Y408148D01*
X881411Y411717D01*
X878844Y414844D01*
X875717Y417411D01*
X872148Y419318D01*
X868277Y420493D01*
X866750Y420643D01*
D02*
G37*
G36*
X493650Y401020D02*
X487110D01*
Y392980D01*
X493650D01*
Y401020D01*
D02*
G37*
G36*
X406610Y399310D02*
X378070D01*
Y391270D01*
X406610D01*
Y399310D01*
D02*
G37*
G36*
X541400Y401020D02*
X535360D01*
Y385980D01*
X541400D01*
Y389520D01*
Y401020D01*
D02*
G37*
G36*
X482110Y401020D02*
X475570D01*
Y392980D01*
X482110D01*
Y401020D01*
D02*
G37*
G36*
X440150Y399310D02*
X411610D01*
Y391270D01*
X440150D01*
Y399310D01*
D02*
G37*
G36*
X567650Y349060D02*
X559610D01*
Y342520D01*
X567650D01*
Y349060D01*
D02*
G37*
G36*
X554610D02*
X546570D01*
Y342520D01*
X554610D01*
Y349060D01*
D02*
G37*
G36*
X441090Y351250D02*
X436964D01*
X437141Y350358D01*
X438366Y348526D01*
X440198Y347301D01*
X441090Y347124D01*
Y351250D01*
D02*
G37*
G36*
X462890Y350900D02*
X450774D01*
X450913Y350203D01*
X452026Y348536D01*
X453694Y347422D01*
X455660Y347031D01*
X462890D01*
Y350900D01*
D02*
G37*
G36*
X627950Y343720D02*
X612050D01*
Y341543D01*
X607950D01*
Y343720D01*
X592050D01*
Y333820D01*
X607950D01*
Y335997D01*
X612050D01*
Y333820D01*
X627950D01*
Y343720D01*
D02*
G37*
G36*
X507400Y356020D02*
X495360D01*
Y340480D01*
X507400D01*
Y356020D01*
D02*
G37*
G36*
X490360D02*
X478320D01*
Y340480D01*
X490360D01*
Y356020D01*
D02*
G37*
G36*
X589150Y344810D02*
X582610D01*
Y341270D01*
X589150D01*
Y344810D01*
D02*
G37*
G36*
X577610D02*
X571070D01*
Y341270D01*
X577610D01*
Y344810D01*
D02*
G37*
G36*
X447756Y351250D02*
X443630D01*
Y347124D01*
X444522Y347301D01*
X446354Y348526D01*
X447579Y350358D01*
X447756Y351250D01*
D02*
G37*
G36*
X472660Y382709D02*
X466660D01*
Y377570D01*
Y372431D01*
X472660D01*
X474627Y372822D01*
X476294Y373936D01*
X477050Y375068D01*
X478320Y374683D01*
Y361020D01*
X490360D01*
Y376560D01*
X478893D01*
X477822Y377548D01*
X477791Y377611D01*
X477408Y379536D01*
X476360Y381104D01*
X476294Y381203D01*
X474627Y382317D01*
X472660Y382709D01*
D02*
G37*
G36*
X605400Y384590D02*
X592500D01*
Y366450D01*
X596177D01*
Y362720D01*
X592050D01*
Y360543D01*
X588060D01*
Y362720D01*
X582883D01*
Y368770D01*
X582672Y369831D01*
X582473Y370130D01*
X582071Y370731D01*
X573271Y379531D01*
X572371Y380132D01*
X572195Y380167D01*
X571310Y380343D01*
X532958D01*
X532908Y380418D01*
X531601Y381291D01*
X530060Y381597D01*
X513060D01*
X511519Y381291D01*
X510212Y380418D01*
X509360Y379142D01*
X509339Y379111D01*
X509033Y377570D01*
X509339Y376029D01*
X509360Y375997D01*
D01*
X510212Y374722D01*
X511519Y373849D01*
X513060Y373542D01*
X530060D01*
X531601Y373849D01*
X532908Y374722D01*
X532958Y374796D01*
X570161D01*
X577337Y367621D01*
Y362720D01*
X572160D01*
Y352820D01*
X588060D01*
Y354996D01*
X592050D01*
Y352820D01*
X607950D01*
Y362720D01*
X601723D01*
Y366450D01*
X605400D01*
Y384590D01*
D02*
G37*
G36*
X392360Y368310D02*
X384320D01*
Y361770D01*
X392360D01*
Y368310D01*
D02*
G37*
G36*
X507400Y376560D02*
X495360D01*
Y361020D01*
X507400D01*
Y376560D01*
D02*
G37*
G36*
X538360Y357057D02*
X536624Y356712D01*
X535152Y355728D01*
X534627Y354943D01*
X532958D01*
X532908Y355018D01*
X531601Y355891D01*
X530060Y356197D01*
X513060D01*
X511519Y355891D01*
X510212Y355018D01*
X509339Y353711D01*
X509033Y352170D01*
X509339Y350629D01*
X510212Y349322D01*
X511519Y348449D01*
X513060Y348142D01*
X530060D01*
X531601Y348449D01*
X532908Y349322D01*
X532958Y349397D01*
X535095D01*
X535152Y349312D01*
X536624Y348328D01*
X538360Y347983D01*
X540096Y348328D01*
X541568Y349312D01*
X542552Y350784D01*
X542897Y352520D01*
X542552Y354256D01*
X541568Y355728D01*
X540096Y356712D01*
X538360Y357057D01*
D02*
G37*
G36*
X462890Y357309D02*
X455660D01*
X453694Y356917D01*
X452026Y355803D01*
X450913Y354136D01*
X450774Y353440D01*
X462890D01*
Y357309D01*
D02*
G37*
G36*
X530060Y368897D02*
X513060D01*
X511519Y368591D01*
X510212Y367718D01*
X509339Y366411D01*
X509033Y364870D01*
X509339Y363329D01*
X510212Y362022D01*
X511519Y361149D01*
X513060Y360842D01*
X530060D01*
X531601Y361149D01*
X532908Y362022D01*
X532958Y362096D01*
X536861D01*
X541899Y357059D01*
X542799Y356458D01*
X543860Y356247D01*
X547660D01*
Y351070D01*
X566560D01*
Y366970D01*
X547660D01*
Y361793D01*
X545009D01*
X539971Y366831D01*
X539071Y367432D01*
X538895Y367467D01*
X538010Y367643D01*
X532958D01*
X532908Y367718D01*
X531601Y368591D01*
X530060Y368897D01*
D02*
G37*
G36*
X443630Y357916D02*
Y353790D01*
X447756D01*
X447579Y354681D01*
X446354Y356514D01*
X444522Y357738D01*
X443630Y357916D01*
D02*
G37*
G36*
X441090D02*
X440198Y357738D01*
X438366Y356514D01*
X437141Y354681D01*
X436964Y353790D01*
X441090D01*
Y357916D01*
D02*
G37*
G36*
X656860Y494512D02*
Y492020D01*
X659352D01*
X658354Y493514D01*
X656860Y494512D01*
D02*
G37*
G36*
X711040Y768500D02*
X704500D01*
Y764960D01*
X711040D01*
Y768500D01*
D02*
G37*
G36*
X699500D02*
X692960D01*
Y764960D01*
X699500D01*
Y768500D01*
D02*
G37*
G36*
X782290Y774250D02*
X774250D01*
Y767710D01*
X782290D01*
Y774250D01*
D02*
G37*
G36*
X769250D02*
X761210D01*
Y767710D01*
X769250D01*
Y774250D01*
D02*
G37*
G36*
X450750Y776537D02*
X449014Y776192D01*
X447542Y775208D01*
X446558Y773736D01*
X446213Y772000D01*
X446558Y770264D01*
X447542Y768792D01*
X447977Y768501D01*
Y766450D01*
X440300D01*
Y761273D01*
X435700D01*
Y766200D01*
X425800D01*
Y750300D01*
X435700D01*
Y755727D01*
X440300D01*
Y750550D01*
X459200D01*
Y766450D01*
X453523D01*
Y768501D01*
X453958Y768792D01*
X454942Y770264D01*
X455287Y772000D01*
X454942Y773736D01*
X453958Y775208D01*
X452486Y776192D01*
X450750Y776537D01*
D02*
G37*
G36*
X657500Y742992D02*
Y740500D01*
X659992D01*
X658994Y741994D01*
X657500Y742992D01*
D02*
G37*
G36*
X357290Y746290D02*
X349250D01*
Y739750D01*
X357290D01*
Y746290D01*
D02*
G37*
G36*
X715500Y761000D02*
X713007D01*
X714006Y759506D01*
X715500Y758507D01*
Y761000D01*
D02*
G37*
G36*
X579790Y759250D02*
X573250D01*
Y751210D01*
X579790D01*
Y759250D01*
D02*
G37*
G36*
X769250Y785790D02*
X761210D01*
Y779250D01*
X769250D01*
Y785790D01*
D02*
G37*
G36*
X689948Y775950D02*
X674048D01*
Y773773D01*
X670611D01*
X669236Y774692D01*
X667500Y775037D01*
X665764Y774692D01*
X664292Y773708D01*
X663308Y772236D01*
X662963Y770500D01*
X663308Y768764D01*
X664292Y767292D01*
X665764Y766308D01*
X667500Y765963D01*
X669236Y766308D01*
X670708Y767292D01*
X671333Y768227D01*
X674048D01*
Y766050D01*
X689948D01*
Y775950D01*
D02*
G37*
G36*
X751250Y781742D02*
X749756Y780744D01*
X748757Y779250D01*
X751250D01*
Y781742D01*
D02*
G37*
G36*
X782290Y785790D02*
X774250D01*
Y779250D01*
X782290D01*
Y785790D01*
D02*
G37*
G36*
X699500Y777040D02*
X692960D01*
Y773500D01*
X699500D01*
Y777040D01*
D02*
G37*
G36*
X805160Y774660D02*
X797500D01*
Y769620D01*
X805160D01*
Y774660D01*
D02*
G37*
G36*
X792500D02*
X784840D01*
Y769620D01*
X792500D01*
Y774660D01*
D02*
G37*
G36*
X758742Y774250D02*
X756250D01*
Y771758D01*
X757744Y772756D01*
X758742Y774250D01*
D02*
G37*
G36*
X751250D02*
X748757D01*
X749756Y772756D01*
X751250Y771758D01*
Y774250D01*
D02*
G37*
G36*
X344250Y746290D02*
X336210D01*
Y739750D01*
X344250D01*
Y746290D01*
D02*
G37*
G36*
X411250Y733540D02*
X408210D01*
Y729698D01*
X407250Y729185D01*
Y724000D01*
Y718815D01*
X408210Y718302D01*
Y714460D01*
X411250D01*
Y724000D01*
Y733540D01*
D02*
G37*
G36*
X688500Y706243D02*
Y703750D01*
X690992D01*
X689994Y705244D01*
X688500Y706243D01*
D02*
G37*
G36*
X602750Y727742D02*
X601256Y726744D01*
X600257Y725250D01*
X602750D01*
Y727742D01*
D02*
G37*
G36*
X419290Y721500D02*
X416250D01*
Y714460D01*
X419290D01*
Y721500D01*
D02*
G37*
G36*
X683500Y706243D02*
X682006Y705244D01*
X681008Y703750D01*
X683500D01*
Y706243D01*
D02*
G37*
G36*
X698992Y689550D02*
X688500D01*
Y686402D01*
X694000D01*
X696162Y686832D01*
X697994Y688056D01*
X698992Y689550D01*
D02*
G37*
G36*
X683500D02*
X673008D01*
X674006Y688056D01*
X675838Y686832D01*
X678000Y686402D01*
X683500D01*
Y689550D01*
D02*
G37*
G36*
X1070000Y726549D02*
X1040000D01*
X1037011Y726155D01*
X1034226Y725002D01*
X1031834Y723166D01*
X1029998Y720774D01*
X1028845Y717989D01*
X1028451Y715000D01*
X1028845Y712011D01*
X1029998Y709226D01*
X1031834Y706834D01*
X1034226Y704998D01*
X1037011Y703845D01*
X1040000Y703451D01*
X1070000D01*
X1072989Y703845D01*
X1075774Y704998D01*
X1078166Y706834D01*
X1080002Y709226D01*
X1081155Y712011D01*
X1081549Y715000D01*
X1081155Y717989D01*
X1080002Y720774D01*
X1078166Y723166D01*
X1075774Y725002D01*
X1072989Y726155D01*
X1070000Y726549D01*
D02*
G37*
G36*
X691075Y698750D02*
X680925D01*
X680363Y697699D01*
X678000D01*
X675838Y697269D01*
X674006Y696044D01*
X673008Y694550D01*
X686000D01*
X698992D01*
X697994Y696044D01*
X696162Y697269D01*
X694000Y697699D01*
X691637D01*
X691075Y698750D01*
D02*
G37*
G36*
X652500Y742992D02*
X651006Y741994D01*
X649781Y740162D01*
X649351Y738000D01*
X649703Y736235D01*
X648532Y735609D01*
X644228Y739913D01*
X639957Y735642D01*
X646703Y728896D01*
X653449Y722151D01*
X657719Y726422D01*
X652609Y731532D01*
X653234Y732703D01*
X655000Y732352D01*
X657162Y732782D01*
X658994Y734006D01*
X659992Y735500D01*
X655000D01*
Y738000D01*
X652500D01*
Y742992D01*
D02*
G37*
G36*
X391082Y733840D02*
X388590D01*
Y731348D01*
X390084Y732346D01*
X391082Y733840D01*
D02*
G37*
G36*
X388590Y741332D02*
Y738840D01*
X391082D01*
X390084Y740334D01*
X388590Y741332D01*
D02*
G37*
G36*
X367500Y743880D02*
X359840D01*
Y738840D01*
X367500D01*
Y743880D01*
D02*
G37*
G36*
X380160D02*
X372500D01*
Y736340D01*
Y728800D01*
X380160D01*
Y732957D01*
X381430Y733342D01*
X382096Y732346D01*
X383590Y731348D01*
Y736340D01*
Y741332D01*
X382096Y740334D01*
X381430Y739338D01*
X380160Y739723D01*
Y743880D01*
D02*
G37*
G36*
X344250Y734750D02*
X336210D01*
Y728210D01*
X344250D01*
Y734750D01*
D02*
G37*
G36*
X419290Y733540D02*
X416250D01*
Y726500D01*
X419290D01*
Y733540D01*
D02*
G37*
G36*
X367500Y733840D02*
X359840D01*
Y728800D01*
X367500D01*
Y733840D01*
D02*
G37*
G36*
X357290Y734750D02*
X349250D01*
Y728210D01*
X357290D01*
Y734750D01*
D02*
G37*
G36*
X756250Y781742D02*
Y779250D01*
X758742D01*
X757744Y780744D01*
X756250Y781742D01*
D02*
G37*
G36*
X650800Y961500D02*
X620856D01*
X621061Y958894D01*
X622257Y953913D01*
X624217Y949181D01*
X626893Y944814D01*
X630219Y940919D01*
X634114Y937593D01*
X638481Y934917D01*
X643213Y932957D01*
X648194Y931761D01*
X650800Y931556D01*
Y961500D01*
D02*
G37*
G36*
X861750Y929500D02*
X843857D01*
X844007Y927973D01*
X845182Y924102D01*
X847089Y920533D01*
X849656Y917406D01*
X852783Y914839D01*
X856352Y912932D01*
X860223Y911757D01*
X861750Y911607D01*
Y929500D01*
D02*
G37*
G36*
X747750Y952393D02*
X746224Y952243D01*
X742352Y951068D01*
X738783Y949161D01*
X735656Y946594D01*
X733089Y943467D01*
X731182Y939898D01*
X730007Y936027D01*
X729857Y934500D01*
X747750D01*
Y952393D01*
D02*
G37*
G36*
X685744Y961500D02*
X655800D01*
Y931556D01*
X658406Y931761D01*
X663386Y932957D01*
X668118Y934917D01*
X672486Y937593D01*
X676380Y940919D01*
X679707Y944814D01*
X682383Y949181D01*
X684343Y953913D01*
X685539Y958894D01*
X685744Y961500D01*
D02*
G37*
G36*
X747750Y929500D02*
X729857D01*
X730007Y927973D01*
X731182Y924102D01*
X733089Y920533D01*
X735656Y917406D01*
X738783Y914839D01*
X742352Y912932D01*
X746224Y911757D01*
X747750Y911607D01*
Y929500D01*
D02*
G37*
G36*
X529900Y891597D02*
X525979Y891210D01*
X522209Y890067D01*
X518735Y888210D01*
X517200Y886950D01*
X515665Y888210D01*
X512191Y890067D01*
X508421Y891210D01*
X504500Y891597D01*
X500579Y891210D01*
X496809Y890067D01*
X493335Y888210D01*
X490289Y885710D01*
X487790Y882665D01*
X486964Y881119D01*
X485722Y880851D01*
X484874Y881501D01*
X482089Y882655D01*
X479100Y883049D01*
X476111Y882655D01*
X473326Y881501D01*
X470934Y879666D01*
X469098Y877274D01*
X467945Y874489D01*
X467551Y871500D01*
X467945Y868511D01*
X469098Y865725D01*
X470934Y863334D01*
X472467Y862157D01*
X472451Y862005D01*
X471979Y860902D01*
X460784D01*
X460353Y862172D01*
X461866Y863334D01*
X463702Y865725D01*
X464855Y868511D01*
X465249Y871500D01*
X464855Y874489D01*
X463702Y877274D01*
X461866Y879666D01*
X459474Y881501D01*
X456689Y882655D01*
X453700Y883049D01*
X450711Y882655D01*
X447925Y881501D01*
X445534Y879666D01*
X443698Y877274D01*
X442545Y874489D01*
X442151Y871500D01*
X442545Y868511D01*
X443698Y865725D01*
X445534Y863334D01*
X447047Y862172D01*
X446616Y860902D01*
X435384D01*
X434953Y862172D01*
X436466Y863334D01*
X438302Y865725D01*
X439455Y868511D01*
X439849Y871500D01*
X439455Y874489D01*
X438302Y877274D01*
X436466Y879666D01*
X434074Y881501D01*
X431289Y882655D01*
X428300Y883049D01*
X425311Y882655D01*
X422525Y881501D01*
X420134Y879666D01*
X418298Y877274D01*
X417145Y874489D01*
X416751Y871500D01*
X417145Y868511D01*
X418298Y865725D01*
X420134Y863334D01*
X421647Y862172D01*
X421216Y860902D01*
X403984D01*
X403553Y862172D01*
X405066Y863334D01*
X406902Y865725D01*
X408055Y868511D01*
X408449Y871500D01*
X408055Y874489D01*
X406902Y877274D01*
X405066Y879666D01*
X402674Y881501D01*
X399889Y882655D01*
X396900Y883049D01*
X393911Y882655D01*
X391125Y881501D01*
X388734Y879666D01*
X386898Y877274D01*
X385745Y874489D01*
X385351Y871500D01*
X385745Y868511D01*
X386898Y865725D01*
X388734Y863334D01*
X390247Y862172D01*
X389816Y860902D01*
X378584D01*
X378153Y862172D01*
X379666Y863334D01*
X381502Y865725D01*
X382655Y868511D01*
X383049Y871500D01*
X382655Y874489D01*
X381502Y877274D01*
X379666Y879666D01*
X377274Y881501D01*
X374489Y882655D01*
X371500Y883049D01*
X368511Y882655D01*
X365726Y881501D01*
X363334Y879666D01*
X361498Y877274D01*
X360345Y874489D01*
X359951Y871500D01*
X360345Y868511D01*
X361498Y865725D01*
X363334Y863334D01*
X364847Y862172D01*
X364416Y860902D01*
X353184D01*
X352753Y862172D01*
X354266Y863334D01*
X356101Y865725D01*
X357255Y868511D01*
X357649Y871500D01*
X357255Y874489D01*
X356101Y877274D01*
X354266Y879666D01*
X351874Y881501D01*
X349089Y882655D01*
X346100Y883049D01*
X343111Y882655D01*
X340326Y881501D01*
X337934Y879666D01*
X336098Y877274D01*
X334945Y874489D01*
X334551Y871500D01*
X334945Y868511D01*
X336098Y865725D01*
X337934Y863334D01*
X339606Y862050D01*
X339212Y860751D01*
X335973Y860539D01*
X330657Y859482D01*
X325525Y857740D01*
X320664Y855343D01*
X316158Y852331D01*
X312184Y848847D01*
X312077Y848764D01*
X256659Y793347D01*
X256653Y793347D01*
X256653Y793347D01*
X253278Y789395D01*
X250562Y784964D01*
X248574Y780163D01*
X247360Y775110D01*
X246953Y769929D01*
X246957D01*
Y737278D01*
X246947D01*
X247376Y731829D01*
X248652Y726515D01*
X250744Y721465D01*
X253600Y716805D01*
X257149Y712649D01*
X257136Y712636D01*
X261999Y708483D01*
X267452Y705141D01*
X273360Y702694D01*
X279579Y701201D01*
X285954Y700699D01*
Y700727D01*
X294145D01*
X294385Y698296D01*
X295392Y694975D01*
X297029Y691913D01*
X299230Y689230D01*
X301914Y687029D01*
X304974Y685392D01*
X306103Y685050D01*
X306359Y683645D01*
X305281Y682819D01*
X303827Y680924D01*
X302913Y678718D01*
X302602Y676350D01*
X302913Y673982D01*
X303827Y671776D01*
X305281Y669881D01*
X307176Y668427D01*
X309382Y667513D01*
X311750Y667202D01*
X314118Y667513D01*
X316324Y668427D01*
X318219Y669881D01*
X319673Y671776D01*
X320587Y673982D01*
X320898Y676350D01*
X320587Y678718D01*
X319673Y680924D01*
X318219Y682819D01*
X317141Y683645D01*
X317397Y685050D01*
X318526Y685392D01*
X321586Y687029D01*
X324269Y689230D01*
X326471Y691913D01*
X328107Y694975D01*
X328921Y697657D01*
X330318Y698056D01*
X330437Y697937D01*
X330552Y697849D01*
X331340Y696670D01*
X331616Y695280D01*
X331597Y695136D01*
Y681769D01*
X331616Y681626D01*
X331959Y676396D01*
X333009Y671115D01*
X334740Y666017D01*
X337121Y661188D01*
X340113Y656711D01*
X343569Y652770D01*
X343656Y652656D01*
X347328Y648985D01*
X347354Y648964D01*
X351038Y645818D01*
X355197Y643270D01*
X359703Y641403D01*
X364446Y640264D01*
X369275Y639884D01*
X369308Y639880D01*
X377593D01*
X387404Y630069D01*
X395301Y637966D01*
X398172Y636431D01*
X398204Y636422D01*
X397921Y635000D01*
X398352Y632838D01*
X399576Y631006D01*
X401408Y629781D01*
X403570Y629351D01*
X405732Y629781D01*
X406820Y630509D01*
X408090Y629830D01*
Y627370D01*
X415750D01*
Y634831D01*
X415941Y634846D01*
X416208Y634910D01*
X418250D01*
Y635400D01*
X420760Y636003D01*
X424157Y637410D01*
X428410D01*
Y639782D01*
X429565Y640490D01*
X430557Y641337D01*
X431710Y640805D01*
Y637000D01*
X439750D01*
Y643540D01*
X434962D01*
X434436Y644810D01*
X435264Y645639D01*
X435476Y645915D01*
X438118Y647942D01*
X441516Y649349D01*
X444816Y649784D01*
X445162Y649738D01*
X462228D01*
X462714Y648565D01*
X456789Y642640D01*
X456188Y641740D01*
X456153Y641564D01*
X455977Y640679D01*
Y626149D01*
X452970Y623142D01*
X451700Y623450D01*
Y623450D01*
X432800D01*
Y619527D01*
X427320D01*
Y621040D01*
X409180D01*
Y618617D01*
X403340D01*
X402843Y618519D01*
X402750Y618537D01*
X401014Y618192D01*
X399542Y617208D01*
X398558Y615736D01*
X398213Y614000D01*
X398558Y612264D01*
X399542Y610792D01*
X401014Y609808D01*
X402750Y609463D01*
X404486Y609808D01*
X405615Y610563D01*
X409180D01*
Y608140D01*
X427320D01*
Y611473D01*
X432800D01*
Y607550D01*
X451700D01*
Y617227D01*
X453750D01*
X454635Y617403D01*
X454811Y617438D01*
X455711Y618039D01*
X460711Y623039D01*
X461312Y623939D01*
X461347Y624115D01*
X461523Y625000D01*
Y639530D01*
X466175Y644182D01*
X467445Y643655D01*
Y638045D01*
X484055D01*
Y644455D01*
X484055Y644455D01*
X484013Y645725D01*
X484118Y646250D01*
X483927Y647207D01*
X484628Y648477D01*
X485834D01*
X486292Y647792D01*
X487764Y646808D01*
X489500Y646463D01*
X491236Y646808D01*
X492708Y647792D01*
X493692Y649264D01*
X494037Y651000D01*
X493692Y652736D01*
X492942Y653859D01*
X492999Y655425D01*
X493494Y655756D01*
X494719Y657588D01*
X495149Y659750D01*
X494719Y661912D01*
X493494Y663744D01*
X492467Y664430D01*
X492706Y666250D01*
X492459Y668126D01*
X492708Y668292D01*
X493692Y669764D01*
X494037Y671500D01*
X493692Y673236D01*
X492708Y674708D01*
X491236Y675692D01*
X489500Y676037D01*
X487836Y675706D01*
X486778Y676518D01*
X483919Y677702D01*
X483716Y677729D01*
X483691Y677766D01*
X483161Y678939D01*
X483869Y679999D01*
X484118Y681250D01*
X483869Y682501D01*
X483161Y683561D01*
Y683939D01*
X483869Y684999D01*
X484118Y686250D01*
X483869Y687501D01*
X483161Y688561D01*
Y688939D01*
X483869Y689999D01*
X484118Y691250D01*
X483869Y692500D01*
X483161Y693561D01*
Y693939D01*
X483869Y694999D01*
X484118Y696250D01*
X483869Y697500D01*
X483161Y698561D01*
Y698939D01*
X483869Y699999D01*
X484118Y701250D01*
X483869Y702500D01*
X483161Y703560D01*
Y703939D01*
X483869Y704999D01*
X484118Y706250D01*
X483869Y707500D01*
X483161Y708560D01*
Y708939D01*
X483869Y709999D01*
X484118Y711250D01*
X483869Y712500D01*
X483161Y713560D01*
Y713939D01*
X483869Y714999D01*
X484118Y716250D01*
X483869Y717500D01*
X483161Y718560D01*
X482100Y719269D01*
X480850Y719518D01*
X470650D01*
X469399Y719269D01*
X469032Y719023D01*
X458700D01*
Y722450D01*
X453523D01*
Y731550D01*
X459200D01*
Y736727D01*
X466750D01*
X467635Y736903D01*
X467811Y736938D01*
X468711Y737539D01*
X474211Y743039D01*
X474812Y743939D01*
X475023Y745000D01*
Y751550D01*
X480200D01*
Y770450D01*
X464300D01*
Y751550D01*
X469477D01*
Y746149D01*
X465601Y742273D01*
X459200D01*
Y747450D01*
X440300D01*
Y731550D01*
X447977D01*
Y722450D01*
X444222D01*
X440711Y725961D01*
X439811Y726562D01*
X439635Y726597D01*
X438750Y726773D01*
X434200D01*
Y732700D01*
X425300D01*
Y715300D01*
X434200D01*
Y721227D01*
X437601D01*
X442800Y716028D01*
Y712550D01*
X458700D01*
Y713477D01*
X461102D01*
Y712375D01*
X461278Y711490D01*
X461313Y711314D01*
X460474Y710283D01*
X460014Y710192D01*
X458542Y709208D01*
X457558Y707736D01*
X457213Y706000D01*
X457467Y704720D01*
X456691Y703450D01*
X442800D01*
Y701273D01*
X435399D01*
X434200Y702472D01*
Y711700D01*
X425300D01*
Y694300D01*
X425582D01*
X426108Y693030D01*
X424101Y691023D01*
X408399D01*
X400273Y699149D01*
Y700404D01*
X401542Y700792D01*
X403014Y699808D01*
X404750Y699463D01*
X406486Y699808D01*
X406732Y699973D01*
X409300D01*
Y694550D01*
X418200D01*
Y711450D01*
X409300D01*
Y708027D01*
X406732D01*
X406486Y708192D01*
X404750Y708537D01*
X403014Y708192D01*
X401542Y707208D01*
X400273Y707596D01*
Y718801D01*
X401543Y719480D01*
X402250Y719007D01*
Y724000D01*
Y728992D01*
X401543Y728520D01*
X400273Y729199D01*
Y750601D01*
X405149Y755477D01*
X406800D01*
Y750300D01*
X416700D01*
Y766200D01*
X406800D01*
Y761023D01*
X404000D01*
X403115Y760847D01*
X402939Y760812D01*
X402039Y760211D01*
X395539Y753711D01*
X394938Y752811D01*
X394903Y752635D01*
X394727Y751750D01*
Y698000D01*
X394903Y697115D01*
X394938Y696939D01*
X395539Y696039D01*
X405289Y686289D01*
X406189Y685688D01*
X406365Y685653D01*
X407250Y685477D01*
X425250D01*
X426135Y685653D01*
X426311Y685688D01*
X427211Y686289D01*
X431711Y690789D01*
X432312Y691689D01*
X432347Y691865D01*
X432523Y692750D01*
Y694300D01*
X434200D01*
Y695686D01*
X434250Y695727D01*
X442800D01*
Y693550D01*
X458700D01*
Y695727D01*
X462339D01*
X463224Y695903D01*
X463401Y695938D01*
X464300Y696539D01*
X465746Y697985D01*
X466616Y697887D01*
X467464Y696663D01*
X467382Y696250D01*
X467631Y694999D01*
X468339Y693939D01*
Y693561D01*
X467631Y692500D01*
X467382Y691250D01*
X467631Y689999D01*
X468339Y688939D01*
Y688561D01*
X467631Y687501D01*
X467382Y686250D01*
X467631Y684999D01*
X468339Y683939D01*
Y683561D01*
X467631Y682501D01*
X467382Y681250D01*
X467631Y679999D01*
X468292Y679010D01*
X468098Y678592D01*
X467621Y677903D01*
X445881D01*
X445747Y677885D01*
X440473Y677539D01*
X435157Y676482D01*
X430025Y674740D01*
X425164Y672343D01*
X420658Y669332D01*
X416684Y665846D01*
X416682Y665845D01*
X396596Y685931D01*
X396471Y685806D01*
X382596Y699680D01*
X363504Y680589D01*
X360726Y677810D01*
X359850Y677984D01*
X359411Y678292D01*
X358998Y681432D01*
X359042Y681769D01*
Y695136D01*
X359041Y695150D01*
X358655Y700049D01*
X357505Y704841D01*
X355619Y709394D01*
X353044Y713596D01*
X349852Y717333D01*
X349844Y717344D01*
X347884Y719303D01*
X347821Y719352D01*
X344269Y722386D01*
X340218Y724868D01*
X335828Y726686D01*
X331208Y727795D01*
X329378Y727940D01*
X329115Y730604D01*
X328107Y733925D01*
X326471Y736986D01*
X324269Y739669D01*
X321586Y741871D01*
X320802Y742291D01*
X320820Y743480D01*
X320820D01*
X320820Y743480D01*
Y748523D01*
X326550D01*
X328091Y748829D01*
X329398Y749702D01*
X332193Y752497D01*
X337300D01*
Y748300D01*
X356200D01*
Y752223D01*
X360930D01*
Y750210D01*
X379070D01*
Y763110D01*
X374027D01*
Y765832D01*
X392168Y783973D01*
X562431D01*
X562816Y782703D01*
X561756Y781994D01*
X560858Y780651D01*
X559462Y780538D01*
X559389Y780564D01*
X558958Y781208D01*
X557486Y782192D01*
X555750Y782537D01*
X554014Y782192D01*
X552542Y781208D01*
X551558Y779736D01*
X551213Y778000D01*
X551558Y776264D01*
X552542Y774792D01*
X552977Y774501D01*
Y771200D01*
X543800D01*
Y752300D01*
X553977D01*
Y752000D01*
X554153Y751115D01*
X554188Y750939D01*
X554789Y750039D01*
X557477Y747351D01*
Y744628D01*
X556207Y743927D01*
X555250Y744118D01*
X553999Y743869D01*
X552939Y743161D01*
X552561D01*
X551500Y743869D01*
X550250Y744118D01*
X548999Y743869D01*
X547939Y743161D01*
X547561D01*
X546500Y743869D01*
X545250Y744118D01*
X543999Y743869D01*
X542939Y743161D01*
X542561D01*
X541500Y743869D01*
X540250Y744118D01*
X539043Y743878D01*
X538995Y743872D01*
X537773Y744577D01*
Y747501D01*
X538208Y747792D01*
X539192Y749264D01*
X539537Y751000D01*
X539192Y752736D01*
X538208Y754208D01*
X536736Y755192D01*
X535000Y755537D01*
X533264Y755192D01*
X531792Y754208D01*
X530808Y752736D01*
X530463Y751000D01*
X530808Y749264D01*
X531792Y747792D01*
X532227Y747501D01*
Y744795D01*
X530957Y743977D01*
X530250Y744118D01*
X529293Y743927D01*
X528023Y744628D01*
Y754334D01*
X528708Y754792D01*
X529692Y756264D01*
X530037Y758000D01*
X529692Y759736D01*
X528708Y761208D01*
X527236Y762192D01*
X525500Y762537D01*
X523764Y762192D01*
X522292Y761208D01*
X521308Y759736D01*
X520963Y758000D01*
X521308Y756264D01*
X522292Y754792D01*
X522477Y754668D01*
Y744628D01*
X521207Y743927D01*
X520250Y744118D01*
X519982Y744064D01*
X519239Y745211D01*
X519942Y746264D01*
X520287Y748000D01*
X519942Y749736D01*
X518958Y751208D01*
X517486Y752192D01*
X515750Y752537D01*
X514014Y752192D01*
X512542Y751208D01*
X511558Y749736D01*
X511213Y748000D01*
X511558Y746264D01*
X511905Y745745D01*
X511534Y744108D01*
X511207Y743927D01*
X510250Y744118D01*
X508999Y743869D01*
X507939Y743161D01*
X507561D01*
X506501Y743869D01*
X505250Y744118D01*
X503999Y743869D01*
X502939Y743161D01*
X502561D01*
X501501Y743869D01*
X500250Y744118D01*
X499293Y743927D01*
X498023Y744628D01*
Y747000D01*
X497812Y748061D01*
X497211Y748961D01*
X495795Y750377D01*
X496281Y751550D01*
X499200D01*
Y770450D01*
X483300D01*
Y751550D01*
X488477D01*
Y751000D01*
X488653Y750115D01*
X488688Y749939D01*
X489289Y749039D01*
X492477Y745851D01*
Y742468D01*
X492231Y742100D01*
X491982Y740850D01*
Y730650D01*
X492231Y729399D01*
X492939Y728339D01*
X493999Y727631D01*
X495250Y727382D01*
X496501Y727631D01*
X497561Y728339D01*
X497939D01*
X498999Y727631D01*
X500250Y727382D01*
X501501Y727631D01*
X502561Y728339D01*
X502939D01*
X503999Y727631D01*
X505250Y727382D01*
X506501Y727631D01*
X507561Y728339D01*
X507939D01*
X508999Y727631D01*
X510250Y727382D01*
X511501Y727631D01*
X512561Y728339D01*
X512939D01*
X513999Y727631D01*
X515250Y727382D01*
X516207Y727572D01*
X517477Y726872D01*
Y723666D01*
X516792Y723208D01*
X515808Y721736D01*
X515463Y720000D01*
X515808Y718264D01*
X516792Y716792D01*
X518264Y715808D01*
X520000Y715463D01*
X521736Y715808D01*
X523208Y716792D01*
X524192Y718264D01*
X524537Y720000D01*
X524192Y721736D01*
X523208Y723208D01*
X523023Y723332D01*
Y726872D01*
X524293Y727572D01*
X525250Y727382D01*
X525957Y727523D01*
X527227Y726705D01*
Y718499D01*
X526792Y718208D01*
X525808Y716736D01*
X525463Y715000D01*
X525808Y713264D01*
X526792Y711792D01*
X528264Y710808D01*
X530000Y710463D01*
X531736Y710808D01*
X533208Y711792D01*
X534192Y713264D01*
X534537Y715000D01*
X534192Y716736D01*
X533208Y718208D01*
X532773Y718499D01*
Y726923D01*
X533995Y727628D01*
X534043Y727622D01*
X535250Y727382D01*
X536500Y727631D01*
X537561Y728339D01*
X537939D01*
X538999Y727631D01*
X540250Y727382D01*
X541500Y727631D01*
X542561Y728339D01*
X542939D01*
X543999Y727631D01*
X545250Y727382D01*
X546500Y727631D01*
X547561Y728339D01*
X547939D01*
X548999Y727631D01*
X550250Y727382D01*
X551500Y727631D01*
X552561Y728339D01*
X552939D01*
X553999Y727631D01*
X555250Y727382D01*
X556500Y727631D01*
X557561Y728339D01*
X557939D01*
X558999Y727631D01*
X560250Y727382D01*
X561500Y727631D01*
X561561Y727671D01*
X562153Y727553D01*
X562750Y727155D01*
Y728622D01*
X563269Y729399D01*
X563518Y730650D01*
Y735750D01*
X566982D01*
Y730650D01*
X567230Y729399D01*
X567750Y728622D01*
Y727155D01*
X568346Y727553D01*
X568939Y727671D01*
X568999Y727631D01*
X570250Y727382D01*
X571500Y727631D01*
X572561Y728339D01*
X573269Y729399D01*
X573518Y730650D01*
Y732977D01*
X578000D01*
X578885Y733153D01*
X579061Y733188D01*
X579961Y733789D01*
X588149Y741977D01*
X613519D01*
X614005Y740803D01*
X613087Y739885D01*
X619833Y733139D01*
X626578Y726393D01*
X630849Y730664D01*
X630849Y730664D01*
X630086Y731442D01*
X640622Y741978D01*
X628671Y753928D01*
X622267Y747523D01*
X587000D01*
X585939Y747312D01*
X585039Y746711D01*
X576851Y738523D01*
X573518D01*
Y740850D01*
X573269Y742100D01*
X572561Y743161D01*
X571500Y743869D01*
X570250Y744118D01*
X568999Y743869D01*
X568939Y743829D01*
X568346Y743946D01*
X566926Y744896D01*
X565250Y745229D01*
X564293Y745039D01*
X563023Y745939D01*
Y748500D01*
X562812Y749561D01*
X562613Y749860D01*
X562559Y749940D01*
X563202Y751210D01*
X568250D01*
Y761750D01*
X570750D01*
Y764250D01*
X579790D01*
Y772290D01*
X569462D01*
X569077Y773560D01*
X569744Y774006D01*
X570742Y775500D01*
X565750D01*
Y780500D01*
X570742D01*
X569744Y781994D01*
X568684Y782703D01*
X569069Y783973D01*
X705332D01*
X710994Y778310D01*
X710752Y777724D01*
X710752Y777724D01*
X710560Y777262D01*
X710518Y777160D01*
X710485Y777080D01*
X710468Y777040D01*
X710356D01*
X710347D01*
X710007Y777040D01*
X709952D01*
X709952D01*
X704500D01*
Y773500D01*
X711040D01*
Y775952D01*
Y775952D01*
X711040Y776007D01*
X711040Y776347D01*
Y776356D01*
Y776469D01*
X711080Y776485D01*
X711160Y776518D01*
X711261Y776560D01*
X711724Y776752D01*
X711724D01*
X712310Y776995D01*
X719075Y770229D01*
X718449Y769059D01*
X718000Y769148D01*
X715838Y768718D01*
X714006Y767494D01*
X713007Y766000D01*
X718000D01*
Y763500D01*
X720500D01*
Y758507D01*
X721994Y759506D01*
X723218Y761338D01*
X723648Y763500D01*
X723559Y763949D01*
X724730Y764575D01*
X734402Y754902D01*
X735709Y754029D01*
X737250Y753723D01*
X762300D01*
Y749800D01*
X781200D01*
Y753723D01*
X785930D01*
Y750390D01*
X804070D01*
Y753723D01*
X805800D01*
X807341Y754029D01*
X808648Y754902D01*
X815598Y761852D01*
X816471Y763159D01*
X816777Y764700D01*
Y775582D01*
X822727Y781532D01*
X824486Y780182D01*
X826664Y779280D01*
X829000Y778973D01*
X839000D01*
X841337Y779280D01*
X843514Y780182D01*
X845383Y781617D01*
X846818Y783486D01*
X847720Y785664D01*
X848027Y788000D01*
X847720Y790336D01*
X846818Y792514D01*
X845383Y794383D01*
X843514Y795818D01*
X841337Y796720D01*
X840651Y796810D01*
Y798091D01*
X841621Y798218D01*
X844063Y799230D01*
X846161Y800839D01*
X847770Y802937D01*
X848782Y805379D01*
X848798Y805500D01*
X834000D01*
X819203D01*
X819219Y805379D01*
X820230Y802937D01*
X821839Y800839D01*
X823937Y799230D01*
X826379Y798218D01*
X827349Y798091D01*
Y796810D01*
X826664Y796720D01*
X824486Y795818D01*
X822617Y794383D01*
X821182Y792514D01*
X820379Y790575D01*
X809902Y780098D01*
X809029Y778791D01*
X808723Y777250D01*
Y766368D01*
X805340Y762986D01*
X804070Y763290D01*
Y763290D01*
X785930D01*
Y761777D01*
X781200D01*
Y765700D01*
X762300D01*
Y761777D01*
X738918D01*
X709848Y790848D01*
X708541Y791721D01*
X707000Y792027D01*
X503059D01*
X502380Y793297D01*
X502692Y793764D01*
X503037Y795500D01*
X502935Y796013D01*
X516153Y809231D01*
X517500Y808963D01*
X519236Y809308D01*
X520708Y810292D01*
X521692Y811764D01*
X522037Y813500D01*
X521692Y815236D01*
X520708Y816708D01*
X519236Y817692D01*
X517500Y818037D01*
X515764Y817692D01*
X514292Y816708D01*
X513308Y815236D01*
X513058Y813980D01*
X499013Y799935D01*
X498500Y800037D01*
X496764Y799692D01*
X495292Y798708D01*
X494308Y797236D01*
X493963Y795500D01*
X494308Y793764D01*
X494620Y793297D01*
X493941Y792027D01*
X466059D01*
X465380Y793297D01*
X465692Y793764D01*
X466037Y795500D01*
X465692Y797236D01*
X465249Y797899D01*
X465221Y798041D01*
X464348Y799348D01*
X460611Y803084D01*
X459305Y803957D01*
X457763Y804264D01*
X454027D01*
Y809306D01*
X451278D01*
Y813800D01*
X455200D01*
Y832700D01*
X456156Y833457D01*
X490817D01*
X490951Y833475D01*
X496225Y833821D01*
X501541Y834878D01*
X506673Y836620D01*
X511534Y839017D01*
X516040Y842028D01*
X520014Y845514D01*
X520121Y845596D01*
X526285Y851759D01*
X529900Y851403D01*
X533821Y851789D01*
X537591Y852933D01*
X541065Y854790D01*
X544110Y857289D01*
X546610Y860335D01*
X546915Y860907D01*
X548157Y861175D01*
X548976Y860546D01*
X552026Y859283D01*
X552800Y859181D01*
Y871500D01*
Y883819D01*
X552026Y883717D01*
X548976Y882454D01*
X548157Y881825D01*
X546915Y882093D01*
X546610Y882665D01*
X544110Y885710D01*
X541065Y888210D01*
X537591Y890067D01*
X533821Y891210D01*
X529900Y891597D01*
D02*
G37*
G36*
X557800Y883819D02*
Y874000D01*
X567619D01*
X567517Y874773D01*
X566254Y877824D01*
X564244Y880443D01*
X561624Y882454D01*
X558573Y883717D01*
X557800Y883819D01*
D02*
G37*
G36*
X884643Y929500D02*
X866750D01*
Y911607D01*
X868277Y911757D01*
X872148Y912932D01*
X875717Y914839D01*
X878844Y917406D01*
X881411Y920533D01*
X883318Y924102D01*
X884493Y927973D01*
X884643Y929500D01*
D02*
G37*
G36*
X770643D02*
X752750D01*
Y911607D01*
X754277Y911757D01*
X758148Y912932D01*
X761717Y914839D01*
X764844Y917406D01*
X767411Y920533D01*
X769318Y924102D01*
X770493Y927973D01*
X770643Y929500D01*
D02*
G37*
G36*
X832250Y1011027D02*
X829914Y1010720D01*
X827736Y1009818D01*
X825867Y1008383D01*
X824432Y1006514D01*
X823530Y1004336D01*
X823223Y1002000D01*
X823530Y999664D01*
X824432Y997486D01*
X825867Y995617D01*
X827736Y994182D01*
X829914Y993280D01*
X832250Y992973D01*
X834586Y993280D01*
X836764Y994182D01*
X838633Y995617D01*
X840068Y997486D01*
X840970Y999664D01*
X841277Y1002000D01*
X840970Y1004336D01*
X840068Y1006514D01*
X838633Y1008383D01*
X836764Y1009818D01*
X834586Y1010720D01*
X832250Y1011027D01*
D02*
G37*
G36*
X792290Y999500D02*
X784750D01*
Y991960D01*
X792290D01*
Y999500D01*
D02*
G37*
G36*
Y1012040D02*
X784750D01*
Y1004500D01*
X792290D01*
Y1012040D01*
D02*
G37*
G36*
X779750D02*
X772210D01*
Y1004500D01*
X779750D01*
Y1012040D01*
D02*
G37*
G36*
Y999500D02*
X772210D01*
Y991960D01*
X779750D01*
Y999500D01*
D02*
G37*
G36*
X752750Y952393D02*
Y934500D01*
X770643D01*
X770493Y936027D01*
X769318Y939898D01*
X767411Y943467D01*
X764844Y946594D01*
X761717Y949161D01*
X758148Y951068D01*
X754277Y952243D01*
X752750Y952393D01*
D02*
G37*
G36*
X861750D02*
X860223Y952243D01*
X856352Y951068D01*
X852783Y949161D01*
X849656Y946594D01*
X847089Y943467D01*
X845182Y939898D01*
X844007Y936027D01*
X843857Y934500D01*
X861750D01*
Y952393D01*
D02*
G37*
G36*
X655800Y996444D02*
Y966500D01*
X685744D01*
X685539Y969106D01*
X684343Y974086D01*
X682383Y978818D01*
X679707Y983186D01*
X676380Y987080D01*
X672486Y990407D01*
X668118Y993083D01*
X663386Y995043D01*
X658406Y996239D01*
X655800Y996444D01*
D02*
G37*
G36*
X650800D02*
X648194Y996239D01*
X643213Y995043D01*
X638481Y993083D01*
X634114Y990407D01*
X630219Y987080D01*
X626893Y983186D01*
X624217Y978818D01*
X622257Y974086D01*
X621061Y969106D01*
X620856Y966500D01*
X650800D01*
Y996444D01*
D02*
G37*
G36*
X153100Y883819D02*
X152326Y883717D01*
X149276Y882454D01*
X146656Y880443D01*
X144646Y877824D01*
X143383Y874773D01*
X143281Y874000D01*
X153100D01*
Y883819D01*
D02*
G37*
G36*
X804750Y854500D02*
X797452D01*
X797468Y854379D01*
X798480Y851937D01*
X800089Y849839D01*
X802187Y848230D01*
X804629Y847218D01*
X804750Y847203D01*
Y854500D01*
D02*
G37*
G36*
X782250Y866027D02*
X779914Y865720D01*
X777736Y864818D01*
X775867Y863383D01*
X774432Y861514D01*
X773530Y859336D01*
X773223Y857000D01*
X773530Y854664D01*
X774432Y852486D01*
X775867Y850617D01*
X777736Y849182D01*
X779914Y848280D01*
X781227Y848108D01*
Y828950D01*
X776050D01*
Y819050D01*
X791950D01*
Y828950D01*
X786773D01*
Y849190D01*
X788633Y850617D01*
X790068Y852486D01*
X790970Y854664D01*
X791277Y857000D01*
X790970Y859336D01*
X790068Y861514D01*
X788633Y863383D01*
X786764Y864818D01*
X784586Y865720D01*
X782250Y866027D01*
D02*
G37*
G36*
X832250D02*
X829914Y865720D01*
X827736Y864818D01*
X825867Y863383D01*
X824432Y861514D01*
X823530Y859336D01*
X823223Y857000D01*
X823530Y854664D01*
X824251Y852923D01*
X803039Y831711D01*
X802438Y830811D01*
X802403Y830635D01*
X802227Y829750D01*
Y828950D01*
X797050D01*
Y819050D01*
X812950D01*
Y828950D01*
X809781D01*
X809295Y830123D01*
X828173Y849001D01*
X829914Y848280D01*
X832250Y847973D01*
X834586Y848280D01*
X836764Y849182D01*
X838633Y850617D01*
X840068Y852486D01*
X840970Y854664D01*
X841277Y857000D01*
X840970Y859336D01*
X840068Y861514D01*
X838633Y863383D01*
X836764Y864818D01*
X834586Y865720D01*
X832250Y866027D01*
D02*
G37*
G36*
X817048Y854500D02*
X809750D01*
Y847203D01*
X809871Y847218D01*
X812313Y848230D01*
X814411Y849839D01*
X816020Y851937D01*
X817031Y854379D01*
X817048Y854500D01*
D02*
G37*
G36*
X839000Y818127D02*
X836500D01*
Y810500D01*
X848798D01*
X848782Y810621D01*
X847770Y813063D01*
X846161Y815161D01*
X844063Y816770D01*
X841621Y817782D01*
X839000Y818127D01*
D02*
G37*
G36*
X805160Y784700D02*
X797500D01*
Y779660D01*
X805160D01*
Y784700D01*
D02*
G37*
G36*
X792500D02*
X784840D01*
Y779660D01*
X792500D01*
Y784700D01*
D02*
G37*
G36*
X831500Y818127D02*
X829000D01*
X826379Y817782D01*
X823937Y816770D01*
X821839Y815161D01*
X820230Y813063D01*
X819219Y810621D01*
X819203Y810500D01*
X831500D01*
Y818127D01*
D02*
G37*
G36*
X812950Y809950D02*
X797050D01*
Y809027D01*
X791950D01*
Y809950D01*
X776050D01*
Y809027D01*
X749500D01*
X747959Y808721D01*
X747765Y808591D01*
X747014Y808442D01*
X745542Y807458D01*
X744558Y805986D01*
X744213Y804250D01*
X744558Y802514D01*
X745542Y801042D01*
X747014Y800058D01*
X748750Y799713D01*
X750486Y800058D01*
X751855Y800973D01*
X776050D01*
Y800050D01*
X791950D01*
Y800973D01*
X797050D01*
Y800050D01*
X812950D01*
Y809950D01*
D02*
G37*
G36*
X272400Y883819D02*
Y871500D01*
Y859181D01*
X273174Y859283D01*
X276224Y860546D01*
X278843Y862556D01*
X280854Y865176D01*
X282117Y868226D01*
X282425Y870561D01*
Y870561D01*
X282509Y871204D01*
X282518D01*
X282562D01*
X282639D01*
X283660D01*
X283738D01*
X283782D01*
X283790D01*
X283875Y870561D01*
Y870561D01*
X284145Y868511D01*
X285298Y865725D01*
X287134Y863334D01*
X289526Y861498D01*
X292311Y860345D01*
X295300Y859951D01*
X298289Y860345D01*
X301074Y861498D01*
X303466Y863334D01*
X305301Y865725D01*
X306455Y868511D01*
X306849Y871500D01*
X306455Y874489D01*
X305301Y877274D01*
X303466Y879666D01*
X301074Y881501D01*
X298289Y882655D01*
X295300Y883049D01*
X292311Y882655D01*
X289526Y881501D01*
X287134Y879666D01*
X285298Y877274D01*
X284145Y874489D01*
X283875Y872439D01*
Y872439D01*
X283790Y871796D01*
X283782D01*
X283738D01*
X283660D01*
X282639D01*
X282562D01*
X282518D01*
X282509D01*
X282425Y872439D01*
Y872439D01*
X282117Y874773D01*
X280854Y877824D01*
X278843Y880443D01*
X276224Y882454D01*
X273174Y883717D01*
X272400Y883819D01*
D02*
G37*
G36*
X219100Y883049D02*
X216111Y882655D01*
X213326Y881501D01*
X210934Y879666D01*
X209098Y877274D01*
X207945Y874489D01*
X207551Y871500D01*
X207945Y868511D01*
X209098Y865725D01*
X210934Y863334D01*
X213326Y861498D01*
X216111Y860345D01*
X219100Y859951D01*
X222089Y860345D01*
X224874Y861498D01*
X227266Y863334D01*
X229102Y865725D01*
X230255Y868511D01*
X230649Y871500D01*
X230255Y874489D01*
X229102Y877274D01*
X227266Y879666D01*
X224874Y881501D01*
X222089Y882655D01*
X219100Y883049D01*
D02*
G37*
G36*
X267400Y883819D02*
X266626Y883717D01*
X263576Y882454D01*
X260956Y880443D01*
X258946Y877824D01*
X257683Y874773D01*
X257375Y872439D01*
Y872439D01*
X257291Y871796D01*
X257282D01*
X257238D01*
X257161D01*
X256139D01*
X256062D01*
X256018D01*
X256010D01*
X255925Y872439D01*
Y872439D01*
X255655Y874489D01*
X254501Y877274D01*
X252666Y879666D01*
X250274Y881501D01*
X247489Y882655D01*
X244500Y883049D01*
X241511Y882655D01*
X238725Y881501D01*
X236334Y879666D01*
X234498Y877274D01*
X233345Y874489D01*
X232951Y871500D01*
X233345Y868511D01*
X234498Y865725D01*
X236334Y863334D01*
X238725Y861498D01*
X241511Y860345D01*
X244500Y859951D01*
X247489Y860345D01*
X250274Y861498D01*
X252666Y863334D01*
X254501Y865725D01*
X255655Y868511D01*
X255925Y870561D01*
Y870561D01*
X256010Y871204D01*
X256018D01*
X256062D01*
X256139D01*
X257161D01*
X257238D01*
X257282D01*
X257291D01*
X257375Y870561D01*
Y870561D01*
X257683Y868226D01*
X258946Y865176D01*
X260956Y862556D01*
X263576Y860546D01*
X266626Y859283D01*
X267400Y859181D01*
Y871500D01*
Y883819D01*
D02*
G37*
G36*
X320700Y883049D02*
X317711Y882655D01*
X314925Y881501D01*
X312534Y879666D01*
X310698Y877274D01*
X309545Y874489D01*
X309151Y871500D01*
X309545Y868511D01*
X310698Y865725D01*
X312534Y863334D01*
X314925Y861498D01*
X317711Y860345D01*
X320700Y859951D01*
X323689Y860345D01*
X326474Y861498D01*
X328866Y863334D01*
X330701Y865725D01*
X331855Y868511D01*
X332249Y871500D01*
X331855Y874489D01*
X330701Y877274D01*
X328866Y879666D01*
X326474Y881501D01*
X323689Y882655D01*
X320700Y883049D01*
D02*
G37*
G36*
X158100Y883819D02*
Y871500D01*
Y859181D01*
X158874Y859283D01*
X161924Y860546D01*
X164543Y862556D01*
X166554Y865176D01*
X167817Y868226D01*
X168125Y870561D01*
Y870561D01*
X168209Y871204D01*
X168218D01*
X168262D01*
X168339D01*
X169360D01*
X169438D01*
X169482D01*
X169490D01*
X169575Y870561D01*
Y870561D01*
X169845Y868511D01*
X170998Y865725D01*
X172834Y863334D01*
X175226Y861498D01*
X178011Y860345D01*
X181000Y859951D01*
X183989Y860345D01*
X186774Y861498D01*
X189166Y863334D01*
X191001Y865725D01*
X192155Y868511D01*
X192549Y871500D01*
X192155Y874489D01*
X191001Y877274D01*
X189166Y879666D01*
X186774Y881501D01*
X183989Y882655D01*
X181000Y883049D01*
X178011Y882655D01*
X175226Y881501D01*
X172834Y879666D01*
X170998Y877274D01*
X169845Y874489D01*
X169575Y872439D01*
Y872439D01*
X169490Y871796D01*
X169482D01*
X169438D01*
X169360D01*
X168339D01*
X168262D01*
X168218D01*
X168209D01*
X168125Y872439D01*
Y872439D01*
X167817Y874773D01*
X166554Y877824D01*
X164543Y880443D01*
X161924Y882454D01*
X158874Y883717D01*
X158100Y883819D01*
D02*
G37*
G36*
X567619Y869000D02*
X557800D01*
Y859181D01*
X558573Y859283D01*
X561624Y860546D01*
X564244Y862556D01*
X566254Y865176D01*
X567517Y868226D01*
X567619Y869000D01*
D02*
G37*
G36*
X153100D02*
X143281D01*
X143383Y868226D01*
X144646Y865176D01*
X146656Y862556D01*
X149276Y860546D01*
X152326Y859283D01*
X153100Y859181D01*
Y869000D01*
D02*
G37*
G36*
X809750Y866797D02*
Y859500D01*
X817048D01*
X817031Y859621D01*
X816020Y862063D01*
X814411Y864161D01*
X812313Y865770D01*
X809871Y866782D01*
X809750Y866797D01*
D02*
G37*
G36*
X804750D02*
X804629Y866782D01*
X802187Y865770D01*
X800089Y864161D01*
X798480Y862063D01*
X797468Y859621D01*
X797452Y859500D01*
X804750D01*
Y866797D01*
D02*
G37*
G36*
X432750Y510993D02*
Y508500D01*
X435242D01*
X434244Y509994D01*
X432750Y510993D01*
D02*
G37*
G36*
X427750D02*
X426256Y509994D01*
X425257Y508500D01*
X427750D01*
Y510993D01*
D02*
G37*
G36*
X484230Y503340D02*
X476570D01*
Y498300D01*
X484230D01*
Y503340D01*
D02*
G37*
G36*
X495690Y503340D02*
X488030D01*
Y498300D01*
X495690D01*
Y503340D01*
D02*
G37*
G36*
X532470Y513380D02*
X524810D01*
Y508340D01*
X532470D01*
Y513380D01*
D02*
G37*
G36*
X508350D02*
X500690D01*
Y508340D01*
X508350D01*
Y513380D01*
D02*
G37*
G36*
X460110D02*
X452450D01*
Y508340D01*
X460110D01*
Y513380D01*
D02*
G37*
G36*
X519810D02*
X512150D01*
Y508340D01*
X519810D01*
Y513380D01*
D02*
G37*
G36*
X556590D02*
X548930D01*
Y508340D01*
X556590D01*
Y513380D01*
D02*
G37*
G36*
X519810Y503340D02*
X512150D01*
Y498300D01*
X519810D01*
Y503340D01*
D02*
G37*
G36*
X447450Y503340D02*
X439790D01*
Y498300D01*
X447450D01*
Y503340D01*
D02*
G37*
G36*
X353750Y522290D02*
X345710D01*
Y515750D01*
X353750D01*
Y522290D01*
D02*
G37*
G36*
X389924Y520050D02*
X382264D01*
Y515010D01*
X389924D01*
Y520050D01*
D02*
G37*
G36*
X460110Y503340D02*
X452450D01*
Y498300D01*
X460110D01*
Y503340D01*
D02*
G37*
G36*
X314250Y521169D02*
Y513750D01*
X321669D01*
X321648Y513902D01*
X320625Y516374D01*
X318996Y518496D01*
X316874Y520125D01*
X314402Y521148D01*
X314250Y521169D01*
D02*
G37*
G36*
X309250D02*
X309098Y521148D01*
X306626Y520125D01*
X304504Y518496D01*
X302875Y516374D01*
X301852Y513902D01*
X301831Y513750D01*
X309250D01*
Y521169D01*
D02*
G37*
G36*
X471570Y503340D02*
X463910D01*
Y498300D01*
X471570D01*
Y503340D01*
D02*
G37*
G36*
X377264Y520050D02*
X369604D01*
Y515010D01*
X377264D01*
Y520050D01*
D02*
G37*
G36*
X543930Y513380D02*
X536270D01*
Y508340D01*
X543930D01*
Y513380D01*
D02*
G37*
G36*
X309250Y508750D02*
X301831D01*
X301852Y508598D01*
X302875Y506126D01*
X304504Y504004D01*
X306626Y502375D01*
X309098Y501352D01*
X309250Y501331D01*
Y508750D01*
D02*
G37*
G36*
X435242Y503500D02*
X432750D01*
Y501008D01*
X434244Y502006D01*
X435242Y503500D01*
D02*
G37*
G36*
X353750Y510750D02*
X345710D01*
Y504210D01*
X353750D01*
Y510750D01*
D02*
G37*
G36*
X321669Y508750D02*
X314250D01*
Y501331D01*
X314402Y501352D01*
X316874Y502375D01*
X318996Y504004D01*
X320625Y506126D01*
X321648Y508598D01*
X321669Y508750D01*
D02*
G37*
G36*
X427750Y503500D02*
X425257D01*
X426256Y502006D01*
X427750Y501008D01*
Y503500D01*
D02*
G37*
G36*
X556590Y503340D02*
X548930D01*
Y498300D01*
X556590D01*
Y503340D01*
D02*
G37*
G36*
X508350D02*
X500690D01*
Y498300D01*
X508350D01*
Y503340D01*
D02*
G37*
G36*
X580710Y503340D02*
X573050D01*
Y498300D01*
X580710D01*
Y503340D01*
D02*
G37*
G36*
X568050D02*
X560390D01*
Y498300D01*
X568050D01*
Y503340D01*
D02*
G37*
G36*
X580710Y513380D02*
X573050D01*
Y508340D01*
X580710D01*
Y513380D01*
D02*
G37*
G36*
X484230D02*
X476570D01*
Y508340D01*
X484230D01*
Y513380D01*
D02*
G37*
G36*
X495690D02*
X488030D01*
Y508340D01*
X495690D01*
Y513380D01*
D02*
G37*
G36*
X447450D02*
X439790D01*
Y508340D01*
X447450D01*
Y513380D01*
D02*
G37*
G36*
X568050D02*
X560390D01*
Y508340D01*
X568050D01*
Y513380D01*
D02*
G37*
G36*
X377264Y510010D02*
X369604D01*
Y504970D01*
X377264D01*
Y510010D01*
D02*
G37*
G36*
X366790Y510750D02*
X358750D01*
Y504210D01*
X366790D01*
Y510750D01*
D02*
G37*
G36*
X471570Y513380D02*
X463910D01*
Y508340D01*
X471570D01*
Y513380D01*
D02*
G37*
G36*
X389924Y510010D02*
X382264D01*
Y504970D01*
X389924D01*
Y510010D01*
D02*
G37*
G36*
X366790Y522290D02*
X358750D01*
Y515750D01*
X366790D01*
Y522290D01*
D02*
G37*
G36*
X311750Y634698D02*
X309382Y634386D01*
X307176Y633473D01*
X305281Y632019D01*
X303827Y630124D01*
X302913Y627918D01*
X302602Y625550D01*
X302913Y623182D01*
X303827Y620976D01*
X305281Y619081D01*
X307176Y617627D01*
X309382Y616713D01*
X311750Y616402D01*
X314118Y616713D01*
X316324Y617627D01*
X318219Y619081D01*
X319673Y620976D01*
X320587Y623182D01*
X320898Y625550D01*
X320587Y627918D01*
X319673Y630124D01*
X318219Y632019D01*
X316324Y633473D01*
X314118Y634386D01*
X311750Y634698D01*
D02*
G37*
G36*
X1070000Y636549D02*
X1040000D01*
X1037011Y636155D01*
X1034226Y635002D01*
X1031834Y633166D01*
X1029998Y630774D01*
X1028845Y627989D01*
X1028451Y625000D01*
X1028845Y622011D01*
X1029998Y619226D01*
X1031834Y616834D01*
X1034226Y614998D01*
X1037011Y613845D01*
X1040000Y613451D01*
X1070000D01*
X1072989Y613845D01*
X1075774Y614998D01*
X1078166Y616834D01*
X1080002Y619226D01*
X1081155Y622011D01*
X1081549Y625000D01*
X1081155Y627989D01*
X1080002Y630774D01*
X1078166Y633166D01*
X1075774Y635002D01*
X1072989Y636155D01*
X1070000Y636549D01*
D02*
G37*
G36*
X439750Y632000D02*
X431710D01*
Y625460D01*
X439750D01*
Y632000D01*
D02*
G37*
G36*
X637000Y625290D02*
X628960D01*
Y618750D01*
X637000D01*
Y625290D01*
D02*
G37*
G36*
X617290Y611540D02*
X610750D01*
Y603500D01*
X617290D01*
Y611540D01*
D02*
G37*
G36*
X311750Y609298D02*
X309382Y608987D01*
X307176Y608073D01*
X305281Y606619D01*
X303827Y604724D01*
X302913Y602518D01*
X302602Y600150D01*
X302913Y597782D01*
X303827Y595576D01*
X305281Y593681D01*
X307176Y592227D01*
X309382Y591313D01*
X311750Y591002D01*
X314118Y591313D01*
X316324Y592227D01*
X318219Y593681D01*
X319673Y595576D01*
X320587Y597782D01*
X320898Y600150D01*
X320587Y602518D01*
X319673Y604724D01*
X318219Y606619D01*
X316324Y608073D01*
X314118Y608987D01*
X311750Y609298D01*
D02*
G37*
G36*
X688750Y588742D02*
Y586250D01*
X691243D01*
X690244Y587744D01*
X688750Y588742D01*
D02*
G37*
G36*
X605750Y611540D02*
X599210D01*
Y603500D01*
X605750D01*
Y611540D01*
D02*
G37*
G36*
X212000Y714594D02*
X205271Y714217D01*
X198628Y713088D01*
X192152Y711222D01*
X185926Y708643D01*
X180028Y705384D01*
X174532Y701484D01*
X169507Y696993D01*
X165016Y691968D01*
X161117Y686472D01*
X157857Y680574D01*
X155278Y674348D01*
X153412Y667872D01*
X152283Y661228D01*
X151905Y654500D01*
X152283Y647772D01*
X153412Y641128D01*
X155278Y634652D01*
X157857Y628426D01*
X161117Y622528D01*
X165016Y617032D01*
X169507Y612007D01*
X174532Y607516D01*
X180028Y603616D01*
X185926Y600357D01*
X192152Y597778D01*
X198628Y595912D01*
X205271Y594783D01*
X212000Y594406D01*
X218729Y594783D01*
X225372Y595912D01*
X231848Y597778D01*
X238074Y600357D01*
X243972Y603616D01*
X249468Y607516D01*
X254493Y612007D01*
X258984Y617032D01*
X262883Y622528D01*
X266143Y628426D01*
X268722Y634652D01*
X270588Y641128D01*
X271717Y647772D01*
X272094Y654500D01*
X271717Y661228D01*
X270588Y667872D01*
X268722Y674348D01*
X266143Y680574D01*
X262883Y686472D01*
X258984Y691968D01*
X254493Y696993D01*
X249468Y701484D01*
X243972Y705384D01*
X238074Y708643D01*
X231848Y711222D01*
X225372Y713088D01*
X218729Y714217D01*
X212000Y714594D01*
D02*
G37*
G36*
X694000Y671187D02*
X678000D01*
X676264Y670842D01*
X674792Y669858D01*
X674501Y669423D01*
X673149D01*
X672858Y669858D01*
X671386Y670842D01*
X669650Y671187D01*
X667914Y670842D01*
X666442Y669858D01*
X665458Y668386D01*
X665113Y666650D01*
X665458Y664914D01*
X666442Y663442D01*
X667914Y662458D01*
X669650Y662113D01*
X671386Y662458D01*
X672858Y663442D01*
X673149Y663877D01*
X674501D01*
X674792Y663442D01*
X676264Y662458D01*
X678000Y662113D01*
X694000D01*
X695736Y662458D01*
X697208Y663442D01*
X698192Y664914D01*
X698537Y666650D01*
X698192Y668386D01*
X697208Y669858D01*
X695736Y670842D01*
X694000Y671187D01*
D02*
G37*
G36*
X646700Y668450D02*
X630800D01*
Y667527D01*
X627450D01*
Y668450D01*
X611550D01*
Y658550D01*
X627450D01*
Y659473D01*
X630800D01*
Y658550D01*
X635473D01*
Y652232D01*
X635308Y651986D01*
X634963Y650250D01*
X635308Y648514D01*
X635473Y648268D01*
Y643200D01*
X630050D01*
Y627300D01*
X648950D01*
Y643200D01*
X643527D01*
Y648268D01*
X643692Y648514D01*
X644037Y650250D01*
X643692Y651986D01*
X643527Y652232D01*
Y658550D01*
X646700D01*
Y668450D01*
D02*
G37*
G36*
X542750Y681992D02*
Y679500D01*
X545242D01*
X544244Y680994D01*
X542750Y681992D01*
D02*
G37*
G36*
X537750D02*
X536256Y680994D01*
X535258Y679500D01*
X537750D01*
Y681992D01*
D02*
G37*
G36*
X311750Y660098D02*
X309382Y659787D01*
X307176Y658873D01*
X305281Y657419D01*
X303827Y655524D01*
X302913Y653318D01*
X302602Y650950D01*
X302913Y648582D01*
X303827Y646376D01*
X305281Y644481D01*
X307176Y643027D01*
X309382Y642113D01*
X311750Y641802D01*
X314118Y642113D01*
X316324Y643027D01*
X318219Y644481D01*
X319673Y646376D01*
X320587Y648582D01*
X320898Y650950D01*
X320587Y653318D01*
X319673Y655524D01*
X318219Y657419D01*
X316324Y658873D01*
X314118Y659787D01*
X311750Y660098D01*
D02*
G37*
G36*
X428410Y632410D02*
X420750D01*
Y627370D01*
X428410D01*
Y632410D01*
D02*
G37*
G36*
X452790Y632000D02*
X444750D01*
Y625460D01*
X452790D01*
Y632000D01*
D02*
G37*
G36*
X694000Y658487D02*
X678000D01*
X676264Y658142D01*
X674792Y657158D01*
X673808Y655686D01*
X673463Y653950D01*
X673808Y652214D01*
X674792Y650742D01*
X676264Y649758D01*
X678000Y649413D01*
X681973D01*
Y644732D01*
X681808Y644486D01*
X681463Y642750D01*
X681808Y641014D01*
X682792Y639542D01*
X684264Y638558D01*
X686000Y638213D01*
X687736Y638558D01*
X689208Y639542D01*
X690192Y641014D01*
X690537Y642750D01*
X690192Y644486D01*
X690027Y644732D01*
Y649413D01*
X694000D01*
X695736Y649758D01*
X697208Y650742D01*
X698192Y652214D01*
X698537Y653950D01*
X698192Y655686D01*
X697208Y657158D01*
X695736Y658142D01*
X694000Y658487D01*
D02*
G37*
G36*
X452790Y643540D02*
X444750D01*
Y637000D01*
X452790D01*
Y643540D01*
D02*
G37*
G36*
X683750Y588742D02*
X682256Y587744D01*
X681258Y586250D01*
X683750D01*
Y588742D01*
D02*
G37*
G36*
X311750Y545798D02*
X309382Y545486D01*
X307176Y544573D01*
X305281Y543119D01*
X303827Y541224D01*
X302913Y539018D01*
X302602Y536650D01*
X302913Y534282D01*
X303827Y532076D01*
X305281Y530181D01*
X307176Y528727D01*
X309382Y527813D01*
X311750Y527502D01*
X314118Y527813D01*
X316324Y528727D01*
X316422Y528803D01*
X346800D01*
Y524300D01*
X365700D01*
Y528803D01*
X370694D01*
Y526380D01*
X388834D01*
Y539280D01*
X370694D01*
Y536857D01*
X365700D01*
Y540200D01*
X346800D01*
Y536857D01*
X320871D01*
X320587Y539018D01*
X319673Y541224D01*
X318219Y543119D01*
X316324Y544573D01*
X314118Y545486D01*
X311750Y545798D01*
D02*
G37*
G36*
X578700Y559450D02*
X562800D01*
Y549550D01*
X567776D01*
Y545499D01*
X567341Y545208D01*
X566358Y543736D01*
X566013Y542000D01*
X566358Y540264D01*
X567341Y538792D01*
X567776Y538501D01*
Y532610D01*
X561480D01*
Y519710D01*
X579620D01*
Y532610D01*
X573323D01*
Y538501D01*
X573758Y538792D01*
X574742Y540264D01*
X575087Y542000D01*
X574742Y543736D01*
X573758Y545208D01*
X573323Y545499D01*
Y549550D01*
X578700D01*
Y559450D01*
D02*
G37*
G36*
X311750Y583898D02*
X309382Y583587D01*
X307176Y582673D01*
X305281Y581219D01*
X303827Y579324D01*
X302913Y577118D01*
X302602Y574750D01*
X302913Y572382D01*
X303827Y570176D01*
X305281Y568281D01*
X307176Y566827D01*
X309382Y565913D01*
X311750Y565602D01*
X314118Y565913D01*
X316324Y566827D01*
X318219Y568281D01*
X319673Y570176D01*
X320587Y572382D01*
X320898Y574750D01*
X320587Y577118D01*
X319673Y579324D01*
X318219Y581219D01*
X316324Y582673D01*
X314118Y583587D01*
X311750Y583898D01*
D02*
G37*
G36*
X648700Y581700D02*
X629800D01*
Y565800D01*
X635223D01*
Y556500D01*
X635529Y554959D01*
X636402Y553652D01*
X658202Y531852D01*
X659509Y530979D01*
X661050Y530673D01*
X664768D01*
X665014Y530508D01*
X666750Y530163D01*
X668486Y530508D01*
X668732Y530673D01*
X676268D01*
X676514Y530508D01*
X678250Y530163D01*
X694250D01*
X695986Y530508D01*
X697458Y531492D01*
X698442Y532964D01*
X698787Y534700D01*
X698442Y536436D01*
X697458Y537908D01*
X695986Y538892D01*
X694250Y539237D01*
X678250D01*
X676514Y538892D01*
X676268Y538727D01*
X668732D01*
X668486Y538892D01*
X666750Y539237D01*
X665014Y538892D01*
X664768Y538727D01*
X662718D01*
X643277Y558168D01*
Y565800D01*
X648700D01*
Y581700D01*
D02*
G37*
G36*
X554700Y559450D02*
X538800D01*
Y549550D01*
X543657D01*
Y545499D01*
X543222Y545208D01*
X542238Y543736D01*
X541893Y542000D01*
X542238Y540264D01*
X543222Y538792D01*
X543657Y538501D01*
Y532610D01*
X537360D01*
Y519710D01*
X555500D01*
Y532610D01*
X549203D01*
Y538501D01*
X549638Y538792D01*
X550622Y540264D01*
X550967Y542000D01*
X550622Y543736D01*
X549638Y545208D01*
X549203Y545499D01*
Y549550D01*
X554700D01*
Y559450D01*
D02*
G37*
G36*
X482700D02*
X466800D01*
Y549550D01*
X471377D01*
Y545766D01*
X470542Y545208D01*
X469558Y543736D01*
X469213Y542000D01*
X469558Y540264D01*
X470542Y538792D01*
X471377Y538234D01*
Y532610D01*
X465000D01*
Y519710D01*
X483140D01*
Y532610D01*
X476923D01*
Y538768D01*
X476958Y538792D01*
X477942Y540264D01*
X478287Y542000D01*
X477942Y543736D01*
X476958Y545208D01*
X476923Y545232D01*
Y549550D01*
X482700D01*
Y559450D01*
D02*
G37*
G36*
X458700D02*
X442800D01*
Y549550D01*
X447177D01*
Y545499D01*
X446742Y545208D01*
X445758Y543736D01*
X445413Y542000D01*
X445758Y540264D01*
X446742Y538792D01*
X447177Y538501D01*
Y532610D01*
X440880D01*
Y519710D01*
X459020D01*
Y532610D01*
X452723D01*
Y538501D01*
X453158Y538792D01*
X454142Y540264D01*
X454487Y542000D01*
X454142Y543736D01*
X453158Y545208D01*
X452723Y545499D01*
Y549550D01*
X458700D01*
Y559450D01*
D02*
G37*
G36*
X530700D02*
X514800D01*
Y549550D01*
X519537D01*
Y545873D01*
X518542Y545208D01*
X517558Y543736D01*
X517213Y542000D01*
X517558Y540264D01*
X518542Y538792D01*
X519537Y538127D01*
Y532610D01*
X513240D01*
Y519710D01*
X531380D01*
Y532610D01*
X525083D01*
Y538979D01*
X525942Y540264D01*
X526287Y542000D01*
X525942Y543736D01*
X525083Y545021D01*
Y549550D01*
X530700D01*
Y559450D01*
D02*
G37*
G36*
X506700D02*
X490800D01*
Y549550D01*
X494977D01*
Y545499D01*
X494542Y545208D01*
X493558Y543736D01*
X493213Y542000D01*
X493558Y540264D01*
X494542Y538792D01*
X494977Y538501D01*
Y532610D01*
X489120D01*
Y519710D01*
X507260D01*
Y532610D01*
X500523D01*
Y538501D01*
X500958Y538792D01*
X501942Y540264D01*
X502287Y542000D01*
X501942Y543736D01*
X500958Y545208D01*
X500523Y545499D01*
Y549550D01*
X506700D01*
Y559450D01*
D02*
G37*
G36*
X691243Y581250D02*
X681258D01*
X682256Y579756D01*
X682312Y579719D01*
X681926Y578449D01*
X678250D01*
X676088Y578019D01*
X674256Y576794D01*
X673258Y575300D01*
X686250D01*
X699242D01*
X698244Y576794D01*
X696412Y578019D01*
X694250Y578449D01*
X690574D01*
X690189Y579719D01*
X690244Y579756D01*
X691243Y581250D01*
D02*
G37*
G36*
X527000Y588787D02*
X525264Y588442D01*
X523792Y587458D01*
X522808Y585986D01*
X522620Y585042D01*
X520789Y583211D01*
X520188Y582311D01*
X520153Y582135D01*
X519977Y581250D01*
Y578450D01*
X514800D01*
Y568550D01*
X530700D01*
Y578450D01*
X526848D01*
X526836Y578484D01*
X526854Y578617D01*
X527696Y579851D01*
X528736Y580058D01*
X530208Y581042D01*
X531192Y582514D01*
X531537Y584250D01*
X531192Y585986D01*
X530208Y587458D01*
X528736Y588442D01*
X527000Y588787D01*
D02*
G37*
G36*
X636750Y590250D02*
X628710D01*
Y583710D01*
X636750D01*
Y590250D01*
D02*
G37*
G36*
X608242Y582000D02*
X605750D01*
Y579507D01*
X607244Y580506D01*
X608242Y582000D01*
D02*
G37*
G36*
X494500Y592037D02*
X492764Y591692D01*
X491292Y590708D01*
X490308Y589236D01*
X489963Y587500D01*
X490308Y585764D01*
X491292Y584292D01*
X492764Y583308D01*
X494500Y582963D01*
X495013Y583065D01*
X495977Y582101D01*
Y578450D01*
X490800D01*
Y568550D01*
X506700D01*
Y578450D01*
X501523D01*
Y583250D01*
X501312Y584311D01*
X500711Y585211D01*
X498935Y586987D01*
X499037Y587500D01*
X498692Y589236D01*
X497708Y590708D01*
X496236Y591692D01*
X494500Y592037D01*
D02*
G37*
G36*
X699242Y570300D02*
X688750D01*
Y567151D01*
X694250D01*
X696412Y567581D01*
X698244Y568806D01*
X699242Y570300D01*
D02*
G37*
G36*
X683750D02*
X673258D01*
X674256Y568806D01*
X676088Y567581D01*
X678250Y567151D01*
X683750D01*
Y570300D01*
D02*
G37*
G36*
X474250Y592037D02*
X472514Y591692D01*
X471042Y590708D01*
X470058Y589236D01*
X469713Y587500D01*
X470058Y585764D01*
X471042Y584292D01*
X471477Y584001D01*
Y578450D01*
X466800D01*
Y568550D01*
X482700D01*
Y578450D01*
X477023D01*
Y584001D01*
X477458Y584292D01*
X478442Y585764D01*
X478787Y587500D01*
X478442Y589236D01*
X477458Y590708D01*
X475986Y591692D01*
X474250Y592037D01*
D02*
G37*
G36*
X451500D02*
X449764Y591692D01*
X448292Y590708D01*
X447308Y589236D01*
X446963Y587500D01*
X447308Y585764D01*
X448292Y584292D01*
X448727Y584001D01*
Y578450D01*
X442800D01*
Y568550D01*
X458700D01*
Y578450D01*
X454273D01*
Y584001D01*
X454708Y584292D01*
X455692Y585764D01*
X456037Y587500D01*
X455692Y589236D01*
X454708Y590708D01*
X453236Y591692D01*
X451500Y592037D01*
D02*
G37*
%LPD*%
G36*
X341381Y833457D02*
X419210D01*
Y825750D01*
X437290D01*
Y832938D01*
X438236Y833197D01*
X439300Y832375D01*
Y813800D01*
X443223D01*
Y809306D01*
X441127D01*
Y792027D01*
X434797D01*
Y797736D01*
X427257D01*
Y800236D01*
X424757D01*
Y810396D01*
X419717D01*
Y803701D01*
X418447Y803316D01*
X417994Y803994D01*
X416500Y804992D01*
Y800000D01*
Y795007D01*
X417994Y796006D01*
X418447Y796684D01*
X419717Y796299D01*
Y792027D01*
X390500D01*
X388959Y791721D01*
X387652Y790848D01*
X367152Y770348D01*
X366279Y769041D01*
X365973Y767500D01*
Y763110D01*
X360930D01*
Y760277D01*
X356200D01*
Y764200D01*
X337300D01*
Y760552D01*
X330525D01*
X328983Y760245D01*
X327677Y759372D01*
X324882Y756577D01*
X320820D01*
Y761620D01*
X302680D01*
Y743480D01*
X302680Y743480D01*
X302680D01*
X302657Y742269D01*
X301914Y741871D01*
X299230Y739669D01*
X297029Y736986D01*
X295392Y733925D01*
X294385Y730604D01*
X294145Y728173D01*
X285954D01*
X285632Y728130D01*
X282495Y728543D01*
X279271Y729878D01*
X276761Y731805D01*
X276563Y732063D01*
X276460Y732142D01*
X275361Y733573D01*
X274621Y735360D01*
X274386Y737149D01*
X274402Y737278D01*
Y769929D01*
X274370Y770174D01*
X274759Y772129D01*
X275867Y773787D01*
X276063Y773937D01*
X331483Y829358D01*
X331696Y829634D01*
X334337Y831661D01*
X337734Y833068D01*
X341035Y833503D01*
X341381Y833457D01*
D02*
G37*
%LPC*%
G36*
X411500Y804992D02*
X410006Y803994D01*
X409007Y802500D01*
X411500D01*
Y804992D01*
D02*
G37*
G36*
Y797500D02*
X409007D01*
X410006Y796006D01*
X411500Y795007D01*
Y797500D01*
D02*
G37*
G36*
X437290Y820750D02*
X430750D01*
Y812710D01*
X437290D01*
Y820750D01*
D02*
G37*
G36*
X425750D02*
X419210D01*
Y812710D01*
X425750D01*
Y820750D01*
D02*
G37*
G36*
X434797Y810396D02*
X429757D01*
Y802736D01*
X434797D01*
Y810396D01*
D02*
G37*
%LPD*%
D11*
X369750Y735642D02*
G03*
X365867Y737250I-3883J-3883D01*
G01*
X369010Y756250D02*
G03*
X370000Y756660I0J1400D01*
G01*
X407251Y435000D02*
G03*
X409110Y435770I0J2629D01*
G01*
X603860Y450520D02*
X604360Y450020D01*
X924800Y439948D02*
X957258Y472406D01*
X924800Y429500D02*
Y439948D01*
X661050Y534700D02*
X666750D01*
X639250Y556500D02*
X661050Y534700D01*
X639250Y556500D02*
Y573750D01*
X957258Y472406D02*
X990719D01*
X991719Y432070D02*
Y449906D01*
X990143Y430494D02*
X991719Y432070D01*
X819000Y578750D02*
X834250D01*
X814250Y583500D02*
X819000Y578750D01*
X795750Y583500D02*
X814250D01*
X710500Y771000D02*
X718000Y763500D01*
X702000Y771000D02*
X710500D01*
X773000Y702750D02*
X814500D01*
X828250Y691750D02*
X834500Y698000D01*
X771500Y701250D02*
X773000Y702750D01*
X654360Y469020D02*
X669360D01*
X346750Y737250D02*
X365867D01*
X480930Y377570D02*
X492860Y365640D01*
X771750Y757750D02*
X805800D01*
X830250Y633750D02*
X834500Y638000D01*
X775500Y659250D02*
Y681250D01*
Y629750D02*
Y659250D01*
X773000Y683750D02*
X796000D01*
X763000Y659250D02*
X775500D01*
X639500Y650250D02*
Y663500D01*
X315570Y532830D02*
X379764D01*
X464160Y377570D02*
X480930D01*
X812500Y633750D02*
X830250D01*
X803000Y624250D02*
X812500Y633750D01*
X825500Y691750D02*
X828250D01*
X814500Y702750D02*
X825500Y691750D01*
X761000Y701250D02*
X771500D01*
X751800Y692050D02*
X761000Y701250D01*
X812750Y764700D02*
Y777250D01*
X805800Y757750D02*
X812750Y764700D01*
X734500Y692050D02*
X751800D01*
X737250Y757750D02*
X771750D01*
X707000Y788000D02*
X737250Y757750D01*
X370000Y736340D02*
X386090D01*
X753750Y776750D02*
X771750D01*
X823750Y788250D02*
X835000D01*
X812750Y777250D02*
X823750Y788250D01*
X794590Y776750D02*
X795000Y777160D01*
X771750Y776750D02*
X794590D01*
X748750Y804250D02*
X749500Y805000D01*
X783625Y279750D02*
X804000D01*
X745750D02*
X783625D01*
X745250Y280250D02*
X745750Y279750D01*
X546430Y505840D02*
X570550D01*
X522310D02*
X546430D01*
X498190D02*
X522310D01*
X474070D02*
X498190D01*
X449950D02*
X474070D01*
X430410D02*
X449950D01*
X430250Y506000D02*
X430410Y505840D01*
X784000Y805000D02*
X805000D01*
X749500D02*
X784000D01*
X686250Y572800D02*
Y583750D01*
X686000Y692050D02*
Y701250D01*
Y692050D02*
X686000Y692050D01*
Y642750D02*
Y653950D01*
X403570Y635000D02*
X403660Y634910D01*
X418250D01*
X402750Y614000D02*
X403340Y614590D01*
X418250D01*
X419160Y615500D01*
X442250D01*
X418250Y634910D02*
X441840D01*
X404750Y704000D02*
X412750D01*
X413750Y703000D01*
X311750Y511250D02*
X313750Y513250D01*
X356250D01*
X379024D01*
X757700Y653950D02*
X763000Y659250D01*
X734500Y653950D02*
X757700D01*
X775500Y629750D02*
X781000Y624250D01*
X803000D01*
X780750Y505000D02*
X802750D01*
X775250Y510500D02*
X780750Y505000D01*
X775250Y510500D02*
Y520000D01*
X816500Y518750D02*
X834250D01*
X802750Y505000D02*
X816500Y518750D01*
X772750Y583500D02*
X795750D01*
X734250Y572800D02*
X751550D01*
X760750Y582000D01*
X771250D01*
X772750Y583500D01*
X775250Y540000D02*
Y562000D01*
X772750Y564500D02*
X795750D01*
X775250Y520000D02*
Y540000D01*
X734250Y534700D02*
X757450D01*
X762750Y540000D01*
X775250D01*
X436010Y364870D02*
X464160D01*
X629360Y469020D02*
X654360D01*
X613860D02*
X629360D01*
X609360Y464520D02*
X613860Y469020D01*
X594360Y464520D02*
X609360D01*
X629360Y450020D02*
X654360D01*
X594360Y450520D02*
X603860D01*
X654360Y450020D02*
X673860D01*
X311750Y752550D02*
X326550D01*
X330525Y756525D01*
X404750Y724000D02*
X413750D01*
X639500Y593000D02*
Y604625D01*
Y616250D01*
Y635250D02*
Y650250D01*
X619500Y663500D02*
X638750D01*
X639500D01*
X666750Y534700D02*
X686250D01*
X447250Y800564D02*
Y823250D01*
X427257Y800236D02*
Y822257D01*
X346750Y756250D02*
X369010D01*
X370000Y756660D02*
Y767500D01*
X390500Y788000D01*
X330525Y756525D02*
X348275D01*
X369000Y435000D02*
X407251D01*
X364000Y440000D02*
X369000Y435000D01*
X414000Y800000D02*
Y800236D01*
X427257D01*
X447577D02*
X457763D01*
X461500Y796500D01*
Y795500D02*
Y796500D01*
X390500Y788000D02*
X707000D01*
X970381Y409318D02*
X999643D01*
X950200Y429500D02*
X970381Y409318D01*
D12*
X1010719Y449906D02*
X1024906D01*
X1033500Y458500D01*
Y481000D01*
X1025000Y489500D02*
X1033500Y481000D01*
X946500Y489500D02*
X1025000D01*
X908500Y451500D02*
X946500Y489500D01*
X764000Y451500D02*
X908500D01*
X542000Y594500D02*
X550000Y586500D01*
X524500Y594500D02*
X542000D01*
X515500Y603500D02*
X524500Y594500D01*
X520250Y614339D02*
Y621750D01*
X515500Y609589D02*
X520250Y614339D01*
X515500Y603500D02*
Y609589D01*
X550000Y586500D02*
X574000D01*
X645000Y515500D01*
X700000D01*
X578250Y573500D02*
X640520Y511230D01*
X697770D01*
X700000Y515500D02*
X764000Y451500D01*
X697770Y511230D02*
X791500Y417500D01*
X693599Y507240D02*
X832250Y368589D01*
X596490Y507240D02*
X693599D01*
X689750Y503250D02*
X704500Y488500D01*
X600750Y503250D02*
X689750D01*
X583000Y493750D02*
X596490Y507240D01*
X585000Y487500D02*
X600750Y503250D01*
X535500Y493750D02*
X583000D01*
X515250Y487500D02*
X585000D01*
X653500Y567107D02*
X673207Y547400D01*
X666150Y560100D02*
X686250D01*
X660220Y566030D02*
X666150Y560100D01*
X653500Y567107D02*
Y666650D01*
X660220Y566030D02*
Y678324D01*
X570750Y573500D02*
X578250D01*
X407250Y688250D02*
X425250D01*
X397500Y698000D02*
X407250Y688250D01*
X425250D02*
X429750Y692750D01*
X820750Y558750D02*
X834250D01*
X802000Y540000D02*
X820750Y558750D01*
X794250Y540000D02*
X802000D01*
X589750Y711250D02*
X600250D01*
X607500Y704000D01*
X633104D01*
X633202Y703903D01*
X635455D01*
X635773Y704220D01*
X654220D01*
X681998Y731998D01*
Y752000D01*
X663250Y698500D02*
X700750Y736000D01*
X664903Y694510D02*
X702403Y732010D01*
X655250Y698500D02*
X663250D01*
X664010Y694510D02*
X664903D01*
X681998Y752000D02*
X702000D01*
X667500Y770500D02*
X668000Y771000D01*
X681998D01*
X827000Y678000D02*
X834500D01*
X830000Y653500D02*
X834500Y658000D01*
X660220Y678324D02*
Y682220D01*
X638750Y682250D02*
X667450D01*
X522250Y608750D02*
X525250Y611750D01*
X545000Y603000D02*
Y608500D01*
X522310Y526160D02*
Y554060D01*
X587000Y744750D02*
X629379D01*
X644935Y727685D02*
X655500Y738250D01*
X575000Y648750D02*
X577500Y646250D01*
X557360Y317270D02*
Y339770D01*
X535250Y609750D02*
X536750Y608250D01*
X497750Y542000D02*
Y554500D01*
X474150Y527160D02*
Y554500D01*
X598950Y357770D02*
Y375520D01*
X594250Y599000D02*
Y641000D01*
X555750Y767750D02*
X556750Y766750D01*
X525250Y757750D02*
X525500Y758000D01*
X525250Y735750D02*
Y757750D01*
X569257Y670500D02*
X577500Y662256D01*
Y656000D02*
Y662256D01*
Y656000D02*
X582250Y651250D01*
X481500Y731000D02*
X505000Y707500D01*
Y679000D02*
Y707500D01*
Y679000D02*
X513500Y670500D01*
X569257D01*
X582250Y651250D02*
X589750D01*
X570010Y636079D02*
X570720Y635369D01*
X570010Y636079D02*
Y657735D01*
X564303Y663442D02*
X570010Y657735D01*
X519250Y679250D02*
X551250Y711250D01*
X519250Y677000D02*
Y679250D01*
X551250Y711250D02*
X589750D01*
X515250Y747500D02*
X515750Y748000D01*
X535000Y736000D02*
X535250Y735750D01*
X535000Y736000D02*
Y751000D01*
X520250Y720250D02*
Y735750D01*
X489250Y651250D02*
X489500Y651000D01*
X814250Y653500D02*
X830000D01*
X800000Y639250D02*
X814250Y653500D01*
X801000Y659250D02*
X815250Y673500D01*
X822500D01*
X827000Y678000D01*
X800153Y732010D02*
X816393Y748250D01*
X702403Y732010D02*
X800153D01*
X816393Y748250D02*
X835000D01*
X663500Y694000D02*
X664010Y694510D01*
X577250Y679000D02*
X579500Y681250D01*
X663500Y692500D02*
Y694000D01*
X579500Y681250D02*
X589750D01*
Y696250D02*
X633750D01*
X597750Y691250D02*
X606000Y683000D01*
X589225Y685725D02*
X589750Y686250D01*
X573975Y685725D02*
X589225D01*
X782250Y887750D02*
Y1002000D01*
X764000Y869500D02*
X782250Y887750D01*
X764000Y824000D02*
Y869500D01*
X805000Y829750D02*
X832250Y857000D01*
X805000Y824000D02*
Y829750D01*
X784000Y824000D02*
Y855250D01*
X498750Y573500D02*
Y583250D01*
X494500Y587500D02*
X498750Y583250D01*
X451500Y574250D02*
Y586500D01*
X450750Y573500D02*
X451500Y574250D01*
X474250Y574000D02*
Y586000D01*
Y574000D02*
X474750Y573500D01*
X832250Y325250D02*
Y368589D01*
X704250Y488500D02*
X704500D01*
X510750Y492000D02*
X515250Y487500D01*
X525750Y584250D02*
X527000D01*
X522750Y581250D02*
X525750Y584250D01*
X522750Y573500D02*
Y581250D01*
X673207Y547400D02*
X686250D01*
X763000Y311750D02*
X763250Y311500D01*
Y298750D02*
Y311500D01*
X832250Y310000D02*
Y325250D01*
X821000Y298750D02*
X832250Y310000D01*
X804000Y298750D02*
X821000D01*
X783625D02*
Y323875D01*
X522250Y608750D02*
X522500Y608500D01*
X530250Y604500D02*
Y621750D01*
X536500Y608000D02*
X536750Y608250D01*
X528250Y602500D02*
X530250Y604500D01*
X667450Y682250D02*
X670350Y679350D01*
X606500Y682500D02*
X619500D01*
X589750Y691250D02*
X597750D01*
X633750Y696250D02*
X638750Y691250D01*
X669650Y666650D02*
X686000D01*
X670350Y679350D02*
X686000D01*
X599500Y646250D02*
X603750Y642000D01*
Y605500D02*
Y642000D01*
Y605500D02*
X608250Y601000D01*
X589750Y646250D02*
X599500D01*
X603250Y584500D02*
Y596000D01*
X608250Y601000D01*
X577275Y641775D02*
X589225D01*
X475750Y651250D02*
X489250D01*
X476000Y671500D02*
X487750D01*
X475750Y671250D02*
X476000Y671500D01*
X570550Y542000D02*
Y554300D01*
Y526160D02*
Y542000D01*
X546430D02*
Y554180D01*
Y526160D02*
Y542000D01*
X535250Y609750D02*
Y621750D01*
X449950Y542000D02*
Y553700D01*
Y526160D02*
Y542000D01*
X525250Y611750D02*
Y621750D01*
X497750Y527160D02*
Y542000D01*
X461750Y706000D02*
X462000Y706250D01*
X450750Y698500D02*
X462339D01*
X465089Y701250D01*
X475750D01*
X462000Y706250D02*
X475750D01*
X515250Y735750D02*
Y747500D01*
X551750Y761750D02*
X556750Y766750D01*
X565750Y769000D02*
X570750Y764000D01*
Y761750D02*
Y764000D01*
X556750Y752000D02*
Y756750D01*
Y752000D02*
X560250Y748500D01*
Y735750D02*
Y748500D01*
X594750Y584000D02*
Y595500D01*
X589250Y601000D02*
X594750Y595500D01*
X453750Y620000D02*
X458750Y625000D01*
X446750Y620000D02*
X453750D01*
X442250Y615500D02*
X446750Y620000D01*
X495250Y735750D02*
Y747000D01*
X491250Y751000D02*
X495250Y747000D01*
X491250Y751000D02*
Y761000D01*
X431000Y758500D02*
X449750D01*
X472250Y745000D02*
Y761000D01*
X466750Y739500D02*
X472250Y745000D01*
X449750Y739500D02*
X466750D01*
X429750Y692750D02*
Y703000D01*
Y724000D02*
X438750D01*
X445250Y717500D01*
X450750D01*
Y738500D01*
X463875Y716250D02*
X475750D01*
X452000D02*
X463875D01*
Y712375D02*
Y716250D01*
Y712375D02*
X465000Y711250D01*
X475750D01*
X434250Y698500D02*
X450750D01*
X429750Y703000D02*
X434250Y698500D01*
X734500Y679350D02*
X753100D01*
X734500Y666650D02*
X753400D01*
X754000Y667250D01*
X794500Y659250D02*
X801000D01*
X794500Y639250D02*
X800000D01*
X818500Y538750D02*
X834250D01*
X799750Y520000D02*
X818500Y538750D01*
X794250Y520000D02*
X799750D01*
X753150Y547400D02*
X753750Y548000D01*
X734250Y547400D02*
X753150D01*
X734250Y560100D02*
X752850D01*
X629379Y742685D02*
Y744750D01*
X644935Y727129D02*
Y727685D01*
X609444Y722750D02*
X618065Y731371D01*
X605250Y722750D02*
X609444D01*
X570250Y735750D02*
X578000D01*
X587000Y744750D01*
X633531Y715725D02*
X633621Y715815D01*
X590275Y715725D02*
X633531D01*
X521560Y364870D02*
X538010D01*
X543860Y359020D01*
X557110D01*
X521560Y352170D02*
X538010D01*
X538360Y352520D01*
X442360D02*
X442710Y352170D01*
X464160D01*
X525610Y317270D02*
X538360D01*
X521560Y321320D02*
X525610Y317270D01*
X521560Y321320D02*
Y339470D01*
X558360Y338770D02*
X580110D01*
X557110Y340020D02*
X557360Y339770D01*
X558360Y338770D01*
X580110Y327770D02*
Y338770D01*
X464160Y329720D02*
Y339470D01*
Y329720D02*
X464360Y329520D01*
X394360Y323520D02*
Y339770D01*
X394860Y340270D01*
Y359270D02*
Y374520D01*
X409110Y388770D02*
X412110D01*
X580110Y357770D02*
Y368770D01*
X571310Y377570D02*
X580110Y368770D01*
X521560Y377570D02*
X571310D01*
X594360Y464520D02*
Y478520D01*
X600000Y338770D02*
X620000D01*
Y357770D02*
Y374790D01*
X619270Y375520D02*
Y391770D01*
X562500Y448540D02*
X619270Y391770D01*
X562500Y448540D02*
Y450000D01*
X404000Y758250D02*
X411750D01*
X397500Y751750D02*
X404000Y758250D01*
X397500Y698000D02*
Y751750D01*
X450750Y759500D02*
Y772000D01*
X638750Y682250D02*
Y682500D01*
Y691250D01*
X576750Y646250D02*
X577500D01*
X589750D01*
X458750Y625000D02*
Y640679D01*
X469321Y651250D01*
X543750Y576500D02*
X546750Y573500D01*
X545000Y603000D02*
X545250D01*
X543750Y576500D02*
Y583500D01*
X565250Y735750D02*
Y751500D01*
X565750Y752000D01*
Y756750D01*
X545250Y614107D02*
Y621750D01*
X540250Y613250D02*
Y621750D01*
X550250Y614750D02*
Y621750D01*
X540250Y613250D02*
X545000Y608500D01*
X551000Y594250D02*
Y608357D01*
X545250Y614107D02*
X551000Y608357D01*
X550250Y614750D02*
X559000Y606000D01*
Y603750D02*
Y606000D01*
X555750Y767750D02*
Y778000D01*
X565750Y769000D02*
Y778000D01*
X573750Y685500D02*
X573975Y685725D01*
X567250Y679000D02*
X577250D01*
X575750Y640250D02*
X577275Y641775D01*
X530000Y715000D02*
Y735500D01*
X520000Y720000D02*
X520250Y720250D01*
X570030Y621970D02*
X570250Y621750D01*
X565250D02*
Y632750D01*
X560250Y621750D02*
Y629661D01*
X559280Y630631D02*
X560250Y629661D01*
X570030Y621970D02*
Y629941D01*
X570720Y630631D01*
Y635369D01*
X559280Y630631D02*
Y635780D01*
X565000Y633000D02*
X565250Y632750D01*
X559280Y635780D02*
X563999Y640499D01*
X550935Y633065D02*
Y640500D01*
Y633065D02*
X555250Y628750D01*
Y621750D02*
Y628750D01*
X580110Y357770D02*
X598950D01*
X600000D01*
X498500Y795500D02*
X517000Y814000D01*
X830750Y768250D02*
X835000D01*
X700750Y736000D02*
X798500D01*
X830750Y768250D01*
X472890Y291270D02*
X478860D01*
Y316020D01*
D13*
X341381Y844860D02*
G03*
X323420Y837420I0J-25400D01*
G01*
X268500Y724000D02*
G03*
X285954Y716770I17455J17455D01*
G01*
X297000D02*
G03*
X304460Y719860I0J10550D01*
G01*
X319060Y719840D02*
G03*
X326471Y716770I7411J7411D01*
G01*
X263000Y737278D02*
G03*
X268500Y724000I18778J0D01*
G01*
X268000Y782000D02*
G03*
X263000Y769929I12071J-12071D01*
G01*
X347640Y681769D02*
G03*
X355000Y664000I25129J0D01*
G01*
X356586Y662414D02*
G03*
X360000Y661000I3414J3414D01*
G01*
X361548D02*
G03*
X371283Y665032I0J13767D01*
G01*
X347640Y695136D02*
G03*
X341781Y709281I-20004J0D01*
G01*
X339822Y711240D02*
G03*
X326471Y716770I-13350J-13350D01*
G01*
X490817Y844860D02*
G03*
X512058Y853658I0J30040D01*
G01*
X341381Y849500D02*
G03*
X320139Y840701I0J-30040D01*
G01*
X304460Y709040D02*
G03*
X297000Y712130I-7460J-7460D01*
G01*
X326471D02*
G03*
X319060Y709060I0J-10481D01*
G01*
X258360Y737278D02*
G03*
X265219Y720719I23418J0D01*
G01*
X264719Y785281D02*
G03*
X258360Y769929I15352J-15352D01*
G01*
X265219Y720719D02*
G03*
X285954Y712130I20735J20735D01*
G01*
X343000Y681769D02*
G03*
X351719Y660719I29769J0D01*
G01*
X355391Y657047D02*
G03*
X369308Y651282I13918J13918D01*
G01*
X343000Y695136D02*
G03*
X338500Y706000I-15364J0D01*
G01*
X336541Y707959D02*
G03*
X326471Y712130I-10069J-10069D01*
G01*
X471979Y849500D02*
G03*
X489939Y856939I0J25400D01*
G01*
X445881Y666500D02*
G03*
X424640Y657701I0J-30040D01*
G01*
X411000Y650500D02*
G03*
X421990Y655052I0J15543D01*
G01*
X475750Y666250D02*
G03*
X475147Y666500I-603J-603D01*
G01*
X445162Y661141D02*
G03*
X427201Y653701I0J-25400D01*
G01*
X411000Y645860D02*
G03*
X425271Y651771I0J20183D01*
G01*
X397719Y650219D02*
G03*
X408242Y645860I10524J10524D01*
G01*
X468888Y661141D02*
G03*
X469152Y661250I0J373D01*
G01*
X381500Y672500D02*
G03*
X385784Y662153I14635J0D01*
G01*
D02*
G03*
X385786Y662152I10350J10346D01*
G01*
X383444Y677194D02*
G03*
X381500Y672500I4694J-4694D01*
G01*
X396500Y659000D02*
G03*
X397207Y657293I2414J0D01*
G01*
X398717Y664717D02*
G03*
X396500Y659364I5354J-5354D01*
G01*
X401000Y653500D02*
G03*
X408242Y650500I7243J7243D01*
G01*
X304460Y709040D02*
X311750Y701750D01*
X319060Y709060D01*
X268000Y782000D02*
X323420Y837420D01*
X285954Y716770D02*
X297000D01*
X311750Y727150D02*
X319060Y719840D01*
X263000Y737278D02*
Y769929D01*
X304460Y719860D02*
X311750Y727150D01*
X355000Y664000D02*
X356586Y662414D01*
X347640Y681769D02*
Y695136D01*
X360000Y661000D02*
X361548D01*
X339822Y711240D02*
X341781Y709281D01*
X341381Y844860D02*
X490817D01*
X512058Y853658D02*
X529900Y871500D01*
X264719Y785281D02*
X320139Y840701D01*
X285954Y712130D02*
X297000D01*
X258360Y737278D02*
Y769929D01*
X351719Y660719D02*
X355391Y657047D01*
X343000Y681769D02*
Y695136D01*
X369308Y651282D02*
X385282D01*
X336541Y707959D02*
X338500Y706000D01*
X341381Y849500D02*
X471979D01*
X489939Y856939D02*
X504500Y871500D01*
X382944Y676694D02*
X384717Y678467D01*
X421990Y655052D02*
X424640Y657701D01*
X408242Y650500D02*
X411000D01*
X445881Y666500D02*
X475147D01*
X408242Y645860D02*
X411000D01*
X445162Y661141D02*
X468888D01*
X469152Y661250D02*
X475750D01*
X383444Y677194D02*
X384717Y678467D01*
X385784Y662153D02*
X385786Y662152D01*
X425271Y651771D02*
X427201Y653701D01*
X385786Y662152D02*
X397719Y650219D01*
X397207Y657293D02*
X401000Y653500D01*
X396500Y659000D02*
Y659364D01*
D15*
X585622Y473186D02*
G03*
X585622Y473186I-762J0D01*
G01*
X578866Y479536D02*
X609854D01*
X578866Y448548D02*
Y479536D01*
Y448548D02*
X609854D01*
Y479536D01*
X578866Y474456D02*
X583946Y479536D01*
D16*
X478860Y271140D02*
X485000Y265000D01*
X603000D01*
X616300Y278300D01*
X646000D01*
X1045000Y805000D02*
X1090000D01*
X965000Y885000D02*
X1045000Y805000D01*
X965000Y885000D02*
Y1030000D01*
X1090000Y360000D02*
Y520000D01*
X980000Y250000D02*
X1090000Y360000D01*
X965000Y250000D02*
X980000D01*
X1130000Y725000D02*
Y765000D01*
X1115000Y710000D02*
X1130000Y725000D01*
Y560000D02*
Y605000D01*
X1115000Y620000D02*
X1130000Y605000D01*
X1115000Y620000D02*
Y710000D01*
X1090000Y520000D02*
X1130000Y560000D01*
X120000Y250000D02*
X965000D01*
X1090000Y805000D02*
X1130000Y765000D01*
X120000Y1030000D02*
X965000D01*
X120000Y250000D02*
Y1030000D01*
D17*
X924000Y329000D02*
D03*
X212000D02*
D03*
Y654500D02*
D03*
Y980000D02*
D03*
X924000Y986000D02*
D03*
X653300Y964000D02*
D03*
D18*
X864250Y400250D02*
D03*
X750250D02*
D03*
X864250Y932000D02*
D03*
X750250D02*
D03*
D19*
X832250Y325250D02*
D03*
X807250D02*
D03*
X782250D02*
D03*
X832250Y470250D02*
D03*
Y857000D02*
D03*
X807250D02*
D03*
X782250D02*
D03*
X832250Y1002000D02*
D03*
D20*
X782250Y470250D02*
D03*
Y1002000D02*
D03*
D21*
X155600Y871500D02*
D03*
X181000D02*
D03*
X219100D02*
D03*
X244500D02*
D03*
X269900D02*
D03*
X295300D02*
D03*
X555300D02*
D03*
X529900D02*
D03*
X504500D02*
D03*
X479100D02*
D03*
X453700D02*
D03*
X428300D02*
D03*
X396900D02*
D03*
X371500D02*
D03*
X320700D02*
D03*
X346100D02*
D03*
D22*
X311750Y574750D02*
D03*
Y600150D02*
D03*
Y676350D02*
D03*
Y650950D02*
D03*
Y625550D02*
D03*
Y536650D02*
D03*
Y511250D02*
D03*
Y727150D02*
D03*
Y701750D02*
D03*
D23*
Y752550D02*
D03*
D24*
X834000Y748000D02*
D03*
Y768000D02*
D03*
Y788000D02*
D03*
Y808000D02*
D03*
X834000Y694000D02*
D03*
Y674000D02*
D03*
Y654000D02*
D03*
Y634000D02*
D03*
Y579000D02*
D03*
Y559000D02*
D03*
Y539000D02*
D03*
Y519000D02*
D03*
D25*
X924800Y429500D02*
D03*
X646000Y303700D02*
D03*
D26*
X950200Y429500D02*
D03*
D27*
X646000Y278300D02*
D03*
D28*
X611500Y434500D02*
D03*
X673860Y450020D02*
D03*
X569500Y464500D02*
D03*
X489500Y659750D02*
D03*
X667500Y770500D02*
D03*
X718000Y763500D02*
D03*
X525500Y758000D02*
D03*
X481500Y731000D02*
D03*
X515750Y748000D02*
D03*
X669000Y469000D02*
D03*
X535000Y751000D02*
D03*
X519250Y677000D02*
D03*
X540250D02*
D03*
X489500Y651000D02*
D03*
X655250Y698500D02*
D03*
X663500Y692500D02*
D03*
X606000Y683000D02*
D03*
X386090Y736340D02*
D03*
X753750Y776750D02*
D03*
X748750Y804250D02*
D03*
X791500Y417500D02*
D03*
X745250Y280250D02*
D03*
X494500Y587500D02*
D03*
X474250D02*
D03*
X451500D02*
D03*
X430250Y506000D02*
D03*
X704250Y488500D02*
D03*
X510750Y492000D02*
D03*
X527000Y584250D02*
D03*
X535500Y493750D02*
D03*
X763000Y311750D02*
D03*
X522500Y608500D02*
D03*
X536500Y608000D02*
D03*
X639500Y650250D02*
D03*
X653500Y666650D02*
D03*
X669650D02*
D03*
X686250Y583750D02*
D03*
X686000Y701250D02*
D03*
X686000Y642750D02*
D03*
X639500Y604625D02*
D03*
X603250Y584500D02*
D03*
X489500Y671500D02*
D03*
X528250Y602500D02*
D03*
X449950Y542000D02*
D03*
X570550D02*
D03*
X546430D02*
D03*
X521750D02*
D03*
X497750D02*
D03*
X473750D02*
D03*
X486860Y347020D02*
D03*
X498860D02*
D03*
Y358520D02*
D03*
X486860D02*
D03*
X499360Y370520D02*
D03*
X487360D02*
D03*
X461750Y706000D02*
D03*
X594750Y584000D02*
D03*
X403570Y635000D02*
D03*
X402750Y614000D02*
D03*
X404750Y704000D02*
D03*
X666750Y534700D02*
D03*
X753100Y679350D02*
D03*
X754000Y667250D02*
D03*
X753750Y548000D02*
D03*
X752850Y560100D02*
D03*
X655000Y738000D02*
D03*
X605250Y722750D02*
D03*
X538360Y352520D02*
D03*
X442360D02*
D03*
X580110Y327770D02*
D03*
X511360Y316520D02*
D03*
X464360Y329520D02*
D03*
X394360Y323520D02*
D03*
X594360Y464520D02*
D03*
X654360Y489520D02*
D03*
X639360D02*
D03*
X624360D02*
D03*
X659360Y434520D02*
D03*
X635430Y434500D02*
D03*
X404750Y724000D02*
D03*
X450750Y772000D02*
D03*
X545250Y603000D02*
D03*
X543750Y583500D02*
D03*
X551000Y594250D02*
D03*
X559000Y603750D02*
D03*
X555750Y778000D02*
D03*
X565750D02*
D03*
X573750Y685500D02*
D03*
X567250Y679000D02*
D03*
X575750Y640250D02*
D03*
X575770Y648750D02*
D03*
X550935Y640500D02*
D03*
X530000Y715000D02*
D03*
X520000Y720000D02*
D03*
X565000Y633000D02*
D03*
X564303Y663442D02*
D03*
X563999Y640499D02*
D03*
X364000Y448000D02*
D03*
X364500Y430500D02*
D03*
X364000Y440000D02*
D03*
X414000Y800000D02*
D03*
X461500Y795500D02*
D03*
X498500D02*
D03*
X517500Y813500D02*
D03*
D42*
X660220Y678324D02*
G03*
X662896Y681000I0J2676D01*
G01*
X657544D02*
G03*
X660220Y678324I2676J0D01*
G01*
D43*
X1010719Y449906D02*
D03*
X991719D02*
D03*
X775250Y660000D02*
D03*
X794250D02*
D03*
X775250Y640000D02*
D03*
X794250D02*
D03*
X775250Y540000D02*
D03*
X794250D02*
D03*
X775250Y520000D02*
D03*
X794250D02*
D03*
X411750Y758250D02*
D03*
X430750D02*
D03*
X484644Y426770D02*
D03*
X465644D02*
D03*
D44*
X999643Y409318D02*
D03*
X1009295Y430494D02*
D03*
X990143D02*
D03*
D45*
X990719Y472406D02*
D03*
X1009719D02*
D03*
X447250Y823250D02*
D03*
X428250D02*
D03*
X484610Y403520D02*
D03*
X465610D02*
D03*
X558736Y317270D02*
D03*
X539736D02*
D03*
X472250Y761000D02*
D03*
X491250D02*
D03*
X478860Y291270D02*
D03*
X497860D02*
D03*
Y316020D02*
D03*
X478860D02*
D03*
X608250Y601000D02*
D03*
X589250D02*
D03*
X570750Y761750D02*
D03*
X551750D02*
D03*
D46*
X371283Y665032D02*
D03*
X385282Y651282D02*
D03*
X398717Y664717D02*
D03*
X384717Y678467D02*
D03*
D47*
X475750Y661250D02*
D03*
Y666250D02*
D03*
Y646250D02*
D03*
Y651250D02*
D03*
Y656250D02*
D03*
Y671250D02*
D03*
Y676250D02*
D03*
Y681250D02*
D03*
Y686250D02*
D03*
Y691250D02*
D03*
Y696250D02*
D03*
Y701250D02*
D03*
Y706250D02*
D03*
Y711250D02*
D03*
Y716250D02*
D03*
X589750D02*
D03*
Y711250D02*
D03*
Y706250D02*
D03*
Y701250D02*
D03*
Y696250D02*
D03*
Y691250D02*
D03*
Y686250D02*
D03*
Y681250D02*
D03*
Y676250D02*
D03*
Y671250D02*
D03*
Y666250D02*
D03*
Y661250D02*
D03*
Y656250D02*
D03*
Y651250D02*
D03*
Y646250D02*
D03*
Y641250D02*
D03*
D48*
X681998Y752000D02*
D03*
Y771000D02*
D03*
X702000D02*
D03*
Y752000D02*
D03*
X805000Y824000D02*
D03*
Y805000D02*
D03*
X784000D02*
D03*
Y824000D02*
D03*
X638750Y663500D02*
D03*
Y682500D02*
D03*
X450750Y554500D02*
D03*
Y573500D02*
D03*
X474750Y554500D02*
D03*
Y573500D02*
D03*
X498750Y554500D02*
D03*
Y573500D02*
D03*
X522750Y554500D02*
D03*
Y573500D02*
D03*
X546750Y554500D02*
D03*
Y573500D02*
D03*
X570750Y554500D02*
D03*
Y573500D02*
D03*
X783625Y279750D02*
D03*
Y298750D02*
D03*
X804000D02*
D03*
Y279750D02*
D03*
X450750Y698500D02*
D03*
Y717500D02*
D03*
X619500Y663500D02*
D03*
Y682500D02*
D03*
X620000Y338770D02*
D03*
Y357770D02*
D03*
X600000Y338770D02*
D03*
Y357770D02*
D03*
X580110D02*
D03*
Y338770D02*
D03*
D49*
X409110Y435770D02*
D03*
Y388770D02*
D03*
D50*
X771750Y757750D02*
D03*
Y776750D02*
D03*
X773750Y701750D02*
D03*
Y682750D02*
D03*
X796750Y701750D02*
D03*
Y682750D02*
D03*
X654360Y469020D02*
D03*
Y450020D02*
D03*
X629360Y469020D02*
D03*
Y450020D02*
D03*
X795750Y583500D02*
D03*
Y564500D02*
D03*
X772750Y583500D02*
D03*
Y564500D02*
D03*
X639250Y592750D02*
D03*
Y573750D02*
D03*
X346750Y756250D02*
D03*
Y737250D02*
D03*
X394860Y359270D02*
D03*
Y340270D02*
D03*
X557110Y340020D02*
D03*
Y359020D02*
D03*
X449750Y739500D02*
D03*
Y758500D02*
D03*
X442250Y634500D02*
D03*
Y615500D02*
D03*
X639500Y616250D02*
D03*
Y635250D02*
D03*
X356250Y532250D02*
D03*
Y513250D02*
D03*
D51*
X795000Y777160D02*
D03*
Y756840D02*
D03*
X570550Y526160D02*
D03*
Y505840D02*
D03*
X546430Y526160D02*
D03*
Y505840D02*
D03*
X522310Y526160D02*
D03*
Y505840D02*
D03*
X498190Y526160D02*
D03*
Y505840D02*
D03*
X474070Y526160D02*
D03*
Y505840D02*
D03*
X449950Y526160D02*
D03*
Y505840D02*
D03*
X370000Y736340D02*
D03*
Y756660D02*
D03*
X418250Y634910D02*
D03*
Y614590D02*
D03*
X379764Y512510D02*
D03*
Y532830D02*
D03*
D52*
X594360Y464520D02*
D03*
D53*
X584860Y450520D02*
D03*
X594360D02*
D03*
X603860D02*
D03*
Y478520D02*
D03*
X594360D02*
D03*
X584860D02*
D03*
D54*
X734250Y572800D02*
D03*
Y560100D02*
D03*
Y547400D02*
D03*
Y534700D02*
D03*
X686250Y572800D02*
D03*
Y560100D02*
D03*
Y547400D02*
D03*
Y534700D02*
D03*
X734000Y692050D02*
D03*
Y679350D02*
D03*
Y666650D02*
D03*
Y653950D02*
D03*
X686000Y692050D02*
D03*
Y679350D02*
D03*
Y666650D02*
D03*
Y653950D02*
D03*
D55*
X644935Y727129D02*
D03*
X629379Y742685D02*
D03*
X633621Y715815D02*
D03*
X618065Y731371D02*
D03*
D56*
X427257Y800236D02*
D03*
X447577D02*
D03*
X598950Y375520D02*
D03*
X619270D02*
D03*
D57*
X464160Y339470D02*
D03*
Y352170D02*
D03*
Y364870D02*
D03*
Y377570D02*
D03*
X521560Y339470D02*
D03*
Y352170D02*
D03*
Y364870D02*
D03*
Y377570D02*
D03*
D58*
X492860Y358520D02*
D03*
D59*
X532860Y457520D02*
D03*
Y403520D02*
D03*
D60*
X413750Y703000D02*
D03*
Y724000D02*
D03*
D61*
X429750Y703000D02*
D03*
Y724000D02*
D03*
D62*
X475750Y641250D02*
D03*
D63*
X495250Y735750D02*
D03*
X500250D02*
D03*
X505250D02*
D03*
X510250D02*
D03*
X515250D02*
D03*
X520250D02*
D03*
X525250D02*
D03*
X530250D02*
D03*
X535250D02*
D03*
X540250D02*
D03*
X545250D02*
D03*
X550250D02*
D03*
X555250D02*
D03*
X560250D02*
D03*
X565250D02*
D03*
X570250D02*
D03*
Y621750D02*
D03*
X565250D02*
D03*
X560250D02*
D03*
X555250D02*
D03*
X550250D02*
D03*
X545250D02*
D03*
X540250D02*
D03*
X535250D02*
D03*
X530250D02*
D03*
X525250D02*
D03*
X520250D02*
D03*
X515250D02*
D03*
X510250D02*
D03*
X505250D02*
D03*
X500250D02*
D03*
X495250D02*
D03*
D64*
X454750Y642324D02*
X468676Y656250D01*
X485750D02*
X489375Y659875D01*
X475750Y656250D02*
X485750D01*
X451750Y630000D02*
X454750Y633000D01*
X446750Y630000D02*
X451750D01*
X442250Y634500D02*
X446750Y630000D01*
X454750Y633000D02*
Y642324D01*
M02*
