G04*
G04 #@! TF.GenerationSoftware,Altium Limited,CircuitStudio,1.5.2 (1.5.2.30)*
G04*
G04 Layer_Physical_Order=1*
G04 Layer_Color=11767835*
%FSLAX44Y44*%
%MOMM*%
G71*
G01*
G75*
%ADD10R,1.3000X1.6000*%
%ADD11C,0.2540*%
%ADD12C,0.5000*%
%ADD13C,1.8000*%
%ADD14C,6.0000*%
%ADD15O,2.5400X3.1750*%
%ADD16C,2.1000*%
%ADD17R,2.1000X2.1000*%
%ADD18C,1.7500*%
%ADD19C,1.5240*%
%ADD20O,1.5000X2.5000*%
%ADD21C,3.0000*%
%ADD22C,1.9050*%
%ADD23R,1.9050X1.9050*%
%ADD24C,2.2500*%
%ADD25C,2.0000*%
%ADD26C,0.6000*%
G36*
X2675911Y2566089D02*
X2675905Y2566000D01*
X2676284Y2559271D01*
X2677412Y2552628D01*
X2679278Y2546152D01*
X2681857Y2539926D01*
X2685117Y2534028D01*
X2689016Y2528531D01*
X2693507Y2523507D01*
X2698532Y2519016D01*
X2702000Y2516555D01*
X2702000Y2420000D01*
X2582000Y2300000D01*
X1668938Y2300000D01*
X1668233Y2301056D01*
X1669722Y2304652D01*
X1671588Y2311128D01*
X1672717Y2317771D01*
X1673095Y2324500D01*
X1672717Y2331228D01*
X1671588Y2337872D01*
X1669722Y2344348D01*
X1667143Y2350574D01*
X1663884Y2356472D01*
X1659984Y2361968D01*
X1655493Y2366993D01*
X1650468Y2371484D01*
X1644972Y2375383D01*
X1639074Y2378643D01*
X1632848Y2381222D01*
X1626372Y2383088D01*
X1619729Y2384217D01*
X1613000Y2384595D01*
X1610923Y2384478D01*
X1610000Y2385350D01*
X1610000Y2598101D01*
X1610898Y2598999D01*
X2643000Y2599000D01*
X2675911Y2566089D01*
D02*
G37*
G36*
X2702000Y1680000D02*
X2702000Y1560000D01*
X2664572Y1522571D01*
X2658152Y1520722D01*
X2651926Y1518143D01*
X2646028Y1514883D01*
X2640532Y1510984D01*
X2635507Y1506493D01*
X2631017Y1501468D01*
X2627117Y1495972D01*
X2623857Y1490074D01*
X2621278Y1483848D01*
X2619429Y1477429D01*
X2571000Y1429000D01*
X1610000Y1429000D01*
X1610000Y1620150D01*
X1610923Y1621022D01*
X1613000Y1620905D01*
X1619729Y1621283D01*
X1626372Y1622412D01*
X1632848Y1624278D01*
X1639074Y1626857D01*
X1644972Y1630116D01*
X1650468Y1634016D01*
X1655493Y1638507D01*
X1659984Y1643532D01*
X1663884Y1649028D01*
X1667143Y1654926D01*
X1669722Y1661152D01*
X1671588Y1667628D01*
X1672717Y1674272D01*
X1673095Y1681000D01*
X1672717Y1687728D01*
X1671588Y1694372D01*
X1669722Y1700848D01*
X1667143Y1707074D01*
X1663884Y1712972D01*
X1659984Y1718468D01*
X1655493Y1723493D01*
X1650468Y1727984D01*
X1644972Y1731884D01*
X1639074Y1735143D01*
X1632848Y1737722D01*
X1632780Y1737742D01*
X1632957Y1738999D01*
X2460239Y1739000D01*
X2465926Y1735857D01*
X2472152Y1733278D01*
X2478628Y1731412D01*
X2485272Y1730283D01*
X2492000Y1729905D01*
X2498729Y1730283D01*
X2505372Y1731412D01*
X2511848Y1733278D01*
X2518074Y1735857D01*
X2523762Y1739000D01*
X2643000Y1739000D01*
X2702000Y1680000D01*
D02*
G37*
G36*
X2340855Y2268000D02*
X2341475Y2266892D01*
X2340612Y2265483D01*
X2338564Y2260539D01*
X2337315Y2255335D01*
X2336895Y2250000D01*
X2337315Y2244665D01*
X2338564Y2239461D01*
X2340612Y2234516D01*
X2343408Y2229953D01*
X2346884Y2225884D01*
X2350954Y2222408D01*
X2355517Y2219612D01*
X2360461Y2217564D01*
X2365665Y2216315D01*
X2371000Y2215895D01*
X2376335Y2216315D01*
X2381539Y2217564D01*
X2386483Y2219612D01*
X2391046Y2222408D01*
X2395116Y2225884D01*
X2398592Y2229953D01*
X2401388Y2234516D01*
X2403436Y2239461D01*
X2404685Y2244665D01*
X2405105Y2250000D01*
X2404685Y2255335D01*
X2403436Y2260539D01*
X2401388Y2265483D01*
X2400525Y2266891D01*
X2401145Y2268000D01*
X2628320Y2267999D01*
X2628531Y2266757D01*
X2630645Y2259419D01*
X2633568Y2252364D01*
X2637261Y2245681D01*
X2641680Y2239453D01*
X2646769Y2233759D01*
X2652463Y2228670D01*
X2658690Y2224251D01*
X2665374Y2220558D01*
X2672429Y2217635D01*
X2679767Y2215521D01*
X2687296Y2214242D01*
X2694920Y2213814D01*
X2702544Y2214242D01*
X2710073Y2215521D01*
X2712357Y2216179D01*
X2712357Y2216179D01*
X2712357Y2216179D01*
X2712509Y2215844D01*
X2712661Y2215511D01*
X2712863Y2215147D01*
X2712924Y2215013D01*
X2712965Y2214871D01*
X2712981Y2214793D01*
X2713066Y2214111D01*
X2713235Y2213292D01*
X2713320Y2212460D01*
X2713320Y2212459D01*
X2713418Y2212088D01*
X2713460Y2211748D01*
X2713597Y2211085D01*
X2713915Y2209985D01*
X2714016Y2209492D01*
X2714025Y2209462D01*
X2714137Y2209164D01*
X2714452Y2207851D01*
X2714716Y2207212D01*
X2714908Y2206549D01*
X2715619Y2205034D01*
X2716259Y2203488D01*
X2716620Y2202899D01*
X2716913Y2202273D01*
X2717852Y2200889D01*
X2718726Y2199462D01*
X2719175Y2198936D01*
X2719562Y2198364D01*
X2720706Y2197143D01*
X2721793Y2195871D01*
X2722318Y2195422D01*
X2722790Y2194918D01*
X2724111Y2193891D01*
X2725383Y2192804D01*
X2725564Y2192672D01*
X2725564Y2192672D01*
X2725565Y2192672D01*
X2725568Y2192670D01*
X2726100Y2192344D01*
X2726518Y2192019D01*
X2727051Y2191724D01*
X2727135Y2191660D01*
X2727522Y2191446D01*
X2727905Y2191167D01*
X2727948Y2191141D01*
X2728624Y2190797D01*
X2729590Y2190204D01*
X2729968Y2190012D01*
X2729971Y2190010D01*
X2730018Y2189982D01*
X2730028Y2189977D01*
X2730666Y2189713D01*
X2731270Y2189379D01*
X2731738Y2189167D01*
X2732019Y2189066D01*
X2732155Y2188996D01*
X2732457Y2188898D01*
X2733006Y2188628D01*
X2733166Y2188578D01*
X2733026Y2187995D01*
X2732532Y2181718D01*
X2733026Y2175441D01*
X2733166Y2174858D01*
X2733006Y2174808D01*
X2732462Y2174540D01*
X2732160Y2174442D01*
X2732018Y2174370D01*
X2731736Y2174268D01*
X2731264Y2174053D01*
X2730702Y2173743D01*
X2730183Y2173533D01*
X2730183Y2173533D01*
X2730162Y2173520D01*
X2730092Y2173492D01*
X2730088Y2173490D01*
X2730009Y2173441D01*
X2729973Y2173426D01*
X2729596Y2173235D01*
D01*
X2729595Y2173234D01*
X2728630Y2172642D01*
X2727953Y2172297D01*
X2727935Y2172286D01*
X2727935Y2172286D01*
X2727915Y2172274D01*
X2727913Y2172273D01*
X2727911Y2172272D01*
X2727905Y2172268D01*
X2727523Y2171991D01*
X2727129Y2171773D01*
X2727045Y2171708D01*
X2726518Y2171417D01*
X2726100Y2171093D01*
X2725570Y2170767D01*
X2725569Y2170767D01*
X2725569Y2170766D01*
X2725569Y2170766D01*
X2725385Y2170633D01*
X2724112Y2169546D01*
X2722791Y2168518D01*
X2722319Y2168014D01*
X2721794Y2167566D01*
X2720707Y2166293D01*
X2719562Y2165072D01*
X2719175Y2164500D01*
X2718727Y2163976D01*
X2717852Y2162548D01*
X2716913Y2161163D01*
X2716620Y2160538D01*
X2716260Y2159950D01*
X2715619Y2158403D01*
X2714908Y2156887D01*
X2714717Y2156224D01*
X2714453Y2155587D01*
X2714062Y2153959D01*
X2713597Y2152351D01*
X2713551Y2152127D01*
X2713474Y2151510D01*
X2713350Y2150995D01*
X2713303Y2150397D01*
X2713278Y2150291D01*
X2713242Y2149834D01*
X2713146Y2149366D01*
X2713139Y2149312D01*
X2713105Y2148557D01*
X2712965Y2147442D01*
X2712951Y2147137D01*
X2712945Y2147089D01*
X2712945Y2147087D01*
X2712946Y2147033D01*
X2712946Y2147019D01*
X2712954Y2146766D01*
X2712967Y2146334D01*
X2712907Y2145584D01*
X2712907Y2068865D01*
Y2067682D01*
Y2067682D01*
X2713000Y2066503D01*
X2713000Y2065321D01*
X2713185Y2064153D01*
X2713278Y2062975D01*
X2713290Y2062925D01*
X2713452Y2061900D01*
X2713452Y2061899D01*
Y2061899D01*
X2713717Y2060798D01*
X2713739Y2060657D01*
X2713751Y2060607D01*
X2713795Y2060471D01*
X2714555Y2057308D01*
X2714555Y2057308D01*
X2714555Y2057307D01*
X2715121Y2055939D01*
X2716362Y2052945D01*
X2716362Y2052945D01*
X2716362Y2052945D01*
X2717415Y2051225D01*
X2718829Y2048919D01*
X2718829Y2048919D01*
X2718829Y2048919D01*
X2719913Y2047650D01*
X2721896Y2045328D01*
X2721896Y2045328D01*
X2721896Y2045328D01*
X2723231Y2044188D01*
X2725486Y2042261D01*
X2725486Y2042261D01*
X2725486Y2042261D01*
X2727366Y2040896D01*
X2727458Y2040839D01*
X2727934Y2040493D01*
X2728190Y2040337D01*
X2728353Y2040208D01*
X2728452Y2040153D01*
X2727945Y2037604D01*
X2727560Y2031718D01*
X2727945Y2025832D01*
X2729096Y2020046D01*
X2730992Y2014460D01*
X2733601Y2009170D01*
X2736878Y2004265D01*
X2740768Y1999830D01*
X2745203Y1995940D01*
X2750108Y1992663D01*
X2755398Y1990054D01*
X2760984Y1988158D01*
X2766770Y1987007D01*
X2772656Y1986621D01*
X2778542Y1987007D01*
X2784328Y1988158D01*
X2789914Y1990054D01*
X2792390Y1991275D01*
X2793468Y1990605D01*
Y1771898D01*
X2792570Y1771000D01*
X2741764D01*
X2741311Y1772186D01*
X2743071Y1773759D01*
X2748159Y1779453D01*
X2752578Y1785681D01*
X2756272Y1792364D01*
X2759195Y1799419D01*
X2761309Y1806757D01*
X2762588Y1814286D01*
X2763016Y1821910D01*
X2762588Y1829534D01*
X2761309Y1837063D01*
X2759195Y1844401D01*
X2756272Y1851456D01*
X2752578Y1858139D01*
X2748159Y1864367D01*
X2743071Y1870061D01*
X2737377Y1875150D01*
X2731149Y1879568D01*
X2724466Y1883262D01*
X2717411Y1886185D01*
X2710073Y1888299D01*
X2702544Y1889578D01*
X2694920Y1890006D01*
X2687296Y1889578D01*
X2679767Y1888299D01*
X2672429Y1886185D01*
X2665374Y1883262D01*
X2658690Y1879568D01*
X2652463Y1875150D01*
X2646769Y1870061D01*
X2641680Y1864367D01*
X2637261Y1858139D01*
X2633568Y1851456D01*
X2630645Y1844401D01*
X2628531Y1837063D01*
X2627252Y1829534D01*
X2626824Y1821910D01*
X2627252Y1814286D01*
X2628531Y1806757D01*
X2630645Y1799419D01*
X2633568Y1792364D01*
X2637261Y1785681D01*
X2641680Y1779453D01*
X2646769Y1773759D01*
X2648528Y1772186D01*
X2648076Y1771000D01*
X2550023D01*
X2549259Y1772015D01*
X2550588Y1776628D01*
X2551717Y1783271D01*
X2552095Y1790000D01*
X2551717Y1796728D01*
X2550588Y1803372D01*
X2548722Y1809848D01*
X2546143Y1816074D01*
X2542884Y1821972D01*
X2538984Y1827468D01*
X2534493Y1832493D01*
X2529468Y1836984D01*
X2523972Y1840883D01*
X2518074Y1844143D01*
X2511848Y1846722D01*
X2505372Y1848588D01*
X2498729Y1849716D01*
X2492000Y1850094D01*
X2485272Y1849716D01*
X2478628Y1848588D01*
X2472152Y1846722D01*
X2465926Y1844143D01*
X2460028Y1840883D01*
X2454532Y1836984D01*
X2449507Y1832493D01*
X2445016Y1827468D01*
X2441117Y1821972D01*
X2437857Y1816074D01*
X2435278Y1809848D01*
X2433412Y1803372D01*
X2432283Y1796728D01*
X2431906Y1790000D01*
X2432283Y1783271D01*
X2433412Y1776628D01*
X2434741Y1772015D01*
X2433978Y1771000D01*
X2386962Y1771000D01*
X2386741Y1772270D01*
X2391046Y1774908D01*
X2395116Y1778384D01*
X2398592Y1782453D01*
X2401388Y1787016D01*
X2403436Y1791961D01*
X2404685Y1797165D01*
X2405105Y1802500D01*
X2404685Y1807835D01*
X2403436Y1813039D01*
X2401388Y1817983D01*
X2398592Y1822546D01*
X2395116Y1826616D01*
X2391046Y1830092D01*
X2386483Y1832888D01*
X2381539Y1834936D01*
X2376335Y1836185D01*
X2371000Y1836605D01*
X2365665Y1836185D01*
X2360461Y1834936D01*
X2355517Y1832888D01*
X2350954Y1830092D01*
X2346884Y1826616D01*
X2343408Y1822546D01*
X2340612Y1817983D01*
X2338564Y1813039D01*
X2337315Y1807835D01*
X2336895Y1802500D01*
X2337315Y1797165D01*
X2338564Y1791961D01*
X2340612Y1787016D01*
X2343408Y1782453D01*
X2346884Y1778384D01*
X2350954Y1774908D01*
X2355259Y1772270D01*
X2355038Y1771000D01*
X2096000Y1771000D01*
X2096000Y2267102D01*
X2096898Y2268000D01*
X2340855Y2268000D01*
D02*
G37*
G36*
X2874000Y2510000D02*
X2874000Y2061000D01*
X2805387Y2061000D01*
X2803789Y2061979D01*
X2802670Y2062443D01*
X2799969Y2063562D01*
X2797958Y2064044D01*
X2795948Y2064527D01*
X2795631Y2064552D01*
X2790872Y2067468D01*
X2785055Y2069878D01*
X2778932Y2071348D01*
X2772656Y2071842D01*
X2766379Y2071348D01*
X2760257Y2069878D01*
X2754440Y2067468D01*
X2749072Y2064179D01*
X2747868Y2063150D01*
X2747516Y2063406D01*
X2747086Y2063803D01*
X2747083Y2063806D01*
X2747079Y2063808D01*
X2747062Y2063822D01*
X2745921Y2064584D01*
X2745623Y2064838D01*
X2745147Y2065184D01*
X2745054Y2065241D01*
X2745054Y2065242D01*
X2743175Y2066607D01*
X2743012Y2067633D01*
X2743000Y2067682D01*
Y2067682D01*
Y2068865D01*
Y2068865D01*
X2743000Y2145584D01*
X2743000Y2145587D01*
X2743007Y2145640D01*
X2743026Y2146063D01*
X2743073Y2146287D01*
X2743257Y2146421D01*
X2743635Y2146614D01*
X2743641Y2146617D01*
X2743641Y2146618D01*
X2743662Y2146630D01*
X2743680Y2146641D01*
X2743684Y2146643D01*
X2744157Y2146858D01*
X2745203Y2145940D01*
X2750108Y2142663D01*
X2755398Y2140054D01*
X2760984Y2138158D01*
X2766770Y2137007D01*
X2772656Y2136621D01*
X2778542Y2137007D01*
X2784328Y2138158D01*
X2789914Y2140054D01*
X2795204Y2142663D01*
X2800109Y2145940D01*
X2804544Y2149830D01*
X2808434Y2154265D01*
X2811711Y2159170D01*
X2814320Y2164460D01*
X2816216Y2170046D01*
X2817367Y2175832D01*
X2817752Y2181718D01*
X2817367Y2187604D01*
X2816216Y2193390D01*
X2814320Y2198976D01*
X2811711Y2204266D01*
X2808434Y2209171D01*
X2804544Y2213606D01*
X2800109Y2217495D01*
X2795204Y2220773D01*
X2789914Y2223382D01*
X2784328Y2225278D01*
X2778542Y2226429D01*
X2772656Y2226814D01*
X2766770Y2226429D01*
X2760984Y2225278D01*
X2755398Y2223382D01*
X2750108Y2220773D01*
X2745203Y2217495D01*
X2744157Y2216578D01*
X2743688Y2216790D01*
X2743678Y2216796D01*
X2743635Y2216822D01*
X2743257Y2217015D01*
X2743072Y2217149D01*
X2742936Y2217812D01*
X2742927Y2217842D01*
X2742927Y2217843D01*
X2742695Y2219698D01*
X2742440Y2220936D01*
X2742189Y2221807D01*
X2741943Y2223067D01*
X2741888Y2223219D01*
X2741856Y2223376D01*
X2741334Y2224764D01*
X2741204Y2225212D01*
X2741141Y2225441D01*
X2741134Y2225457D01*
X2741129Y2225472D01*
X2741037Y2225669D01*
X2740835Y2226113D01*
X2740328Y2227505D01*
X2740250Y2227645D01*
X2740193Y2227796D01*
X2739891Y2228327D01*
X2739738Y2228661D01*
X2739666Y2228792D01*
X2739614Y2228931D01*
X2739287Y2229507D01*
X2739182Y2229737D01*
X2738980Y2230103D01*
X2743071Y2233759D01*
X2748159Y2239453D01*
X2752578Y2245681D01*
X2756272Y2252364D01*
X2759195Y2259419D01*
X2761309Y2266757D01*
X2762588Y2274286D01*
X2763016Y2281910D01*
X2762588Y2289534D01*
X2761309Y2297063D01*
X2759195Y2304401D01*
X2756272Y2311456D01*
X2752578Y2318139D01*
X2748159Y2324367D01*
X2743071Y2330061D01*
X2737377Y2335150D01*
X2731149Y2339568D01*
X2728000Y2341309D01*
X2728000Y2505515D01*
X2728970Y2506334D01*
X2729272Y2506283D01*
X2736000Y2505905D01*
X2742729Y2506283D01*
X2749372Y2507412D01*
X2755848Y2509278D01*
X2757592Y2510000D01*
X2874000Y2510000D01*
D02*
G37*
%LPC*%
G36*
X2371000Y1936605D02*
X2365665Y1936185D01*
X2360461Y1934936D01*
X2355517Y1932888D01*
X2350954Y1930092D01*
X2346884Y1926616D01*
X2343408Y1922546D01*
X2340612Y1917983D01*
X2338564Y1913039D01*
X2337315Y1907835D01*
X2336895Y1902500D01*
X2337315Y1897165D01*
X2338564Y1891961D01*
X2340612Y1887016D01*
X2343408Y1882453D01*
X2346884Y1878384D01*
X2350954Y1874908D01*
X2355517Y1872112D01*
X2360461Y1870064D01*
X2365665Y1868815D01*
X2371000Y1868395D01*
X2376335Y1868815D01*
X2381539Y1870064D01*
X2386483Y1872112D01*
X2391046Y1874908D01*
X2395116Y1878384D01*
X2398592Y1882453D01*
X2401388Y1887016D01*
X2403436Y1891961D01*
X2404685Y1897165D01*
X2405105Y1902500D01*
X2404685Y1907835D01*
X2403436Y1913039D01*
X2401388Y1917983D01*
X2398592Y1922546D01*
X2395116Y1926616D01*
X2391046Y1930092D01*
X2386483Y1932888D01*
X2381539Y1934936D01*
X2376335Y1936185D01*
X2371000Y1936605D01*
D02*
G37*
G36*
X2184250Y2072710D02*
X2178679Y2072271D01*
X2173246Y2070967D01*
X2168083Y2068828D01*
X2163319Y2065909D01*
X2159070Y2062280D01*
X2155441Y2058031D01*
X2152522Y2053266D01*
X2150383Y2048104D01*
X2149079Y2042670D01*
X2148640Y2037100D01*
X2149079Y2031529D01*
X2150383Y2026096D01*
X2152522Y2020933D01*
X2155441Y2016169D01*
X2159070Y2011920D01*
X2161211Y2010091D01*
X2160771Y2008900D01*
X2148750D01*
Y1937900D01*
X2219750D01*
Y2008900D01*
X2207728D01*
X2207289Y2010091D01*
X2209430Y2011920D01*
X2213059Y2016169D01*
X2215979Y2020933D01*
X2218117Y2026096D01*
X2219421Y2031529D01*
X2219860Y2037100D01*
X2219421Y2042670D01*
X2218117Y2048104D01*
X2215979Y2053266D01*
X2213059Y2058031D01*
X2209430Y2062280D01*
X2205181Y2065909D01*
X2200417Y2068828D01*
X2195254Y2070967D01*
X2189821Y2072271D01*
X2184250Y2072710D01*
D02*
G37*
G36*
Y1900210D02*
X2178679Y1899771D01*
X2173246Y1898467D01*
X2168083Y1896328D01*
X2163319Y1893409D01*
X2159070Y1889780D01*
X2155441Y1885531D01*
X2152522Y1880766D01*
X2150383Y1875604D01*
X2149079Y1870170D01*
X2148640Y1864600D01*
X2149079Y1859029D01*
X2150383Y1853596D01*
X2152522Y1848433D01*
X2155441Y1843669D01*
X2159070Y1839420D01*
X2163319Y1835791D01*
X2168083Y1832871D01*
X2173246Y1830733D01*
X2178679Y1829429D01*
X2184250Y1828990D01*
X2189821Y1829429D01*
X2195254Y1830733D01*
X2200417Y1832871D01*
X2205181Y1835791D01*
X2209430Y1839420D01*
X2213059Y1843669D01*
X2215979Y1848433D01*
X2218117Y1853596D01*
X2219421Y1859029D01*
X2219860Y1864600D01*
X2219421Y1870170D01*
X2218117Y1875604D01*
X2215979Y1880766D01*
X2213059Y1885531D01*
X2209430Y1889780D01*
X2205181Y1893409D01*
X2200417Y1896328D01*
X2195254Y1898467D01*
X2189821Y1899771D01*
X2184250Y1900210D01*
D02*
G37*
G36*
X1797250Y1577158D02*
X1790050Y1576686D01*
X1782974Y1575278D01*
X1776142Y1572959D01*
X1769671Y1569768D01*
X1763672Y1565760D01*
X1758247Y1561003D01*
X1753490Y1555578D01*
X1749482Y1549579D01*
X1746291Y1543108D01*
X1743971Y1536276D01*
X1742564Y1529200D01*
X1742092Y1522000D01*
X1742564Y1514800D01*
X1743971Y1507724D01*
X1746291Y1500892D01*
X1749482Y1494421D01*
X1753490Y1488422D01*
X1758247Y1482997D01*
X1763672Y1478240D01*
X1769671Y1474232D01*
X1776142Y1471040D01*
X1782974Y1468721D01*
X1790050Y1467314D01*
X1797250Y1466842D01*
X1804450Y1467314D01*
X1811526Y1468721D01*
X1818358Y1471040D01*
X1824829Y1474232D01*
X1830828Y1478240D01*
X1836253Y1482997D01*
X1841010Y1488422D01*
X1845018Y1494421D01*
X1848210Y1500892D01*
X1850529Y1507724D01*
X1851936Y1514800D01*
X1852408Y1522000D01*
X1851936Y1529200D01*
X1850529Y1536276D01*
X1848210Y1543108D01*
X1845018Y1549579D01*
X1841010Y1555578D01*
X1836253Y1561003D01*
X1830828Y1565760D01*
X1824829Y1569768D01*
X1818358Y1572959D01*
X1811526Y1575278D01*
X1804450Y1576686D01*
X1797250Y1577158D01*
D02*
G37*
G36*
X2277250D02*
X2270051Y1576686D01*
X2262974Y1575278D01*
X2256142Y1572959D01*
X2249671Y1569768D01*
X2243672Y1565760D01*
X2238247Y1561003D01*
X2233490Y1555578D01*
X2229482Y1549579D01*
X2226291Y1543108D01*
X2223971Y1536276D01*
X2222564Y1529200D01*
X2222092Y1522000D01*
X2222564Y1514800D01*
X2223971Y1507724D01*
X2226291Y1500892D01*
X2229482Y1494421D01*
X2233490Y1488422D01*
X2238247Y1482997D01*
X2243672Y1478240D01*
X2249671Y1474232D01*
X2256142Y1471040D01*
X2262974Y1468721D01*
X2270051Y1467314D01*
X2277250Y1466842D01*
X2284450Y1467314D01*
X2291526Y1468721D01*
X2298358Y1471040D01*
X2304829Y1474232D01*
X2310828Y1478240D01*
X2316253Y1482997D01*
X2321010Y1488422D01*
X2325018Y1494421D01*
X2328210Y1500892D01*
X2330529Y1507724D01*
X2331936Y1514800D01*
X2332408Y1522000D01*
X2331936Y1529200D01*
X2330529Y1536276D01*
X2328210Y1543108D01*
X2325018Y1549579D01*
X2321010Y1555578D01*
X2316253Y1561003D01*
X2310828Y1565760D01*
X2304829Y1569768D01*
X2298358Y1572959D01*
X2291526Y1575278D01*
X2284450Y1576686D01*
X2277250Y1577158D01*
D02*
G37*
G36*
X2558000Y2202648D02*
X2555838Y2202219D01*
X2554006Y2200994D01*
X2553933Y2200885D01*
X2424000D01*
X2422513Y2200589D01*
X2421253Y2199747D01*
X2417129Y2195623D01*
X2417000Y2195648D01*
X2414838Y2195219D01*
X2413006Y2193994D01*
X2411781Y2192162D01*
X2411351Y2190000D01*
X2411781Y2187838D01*
X2413006Y2186006D01*
X2414838Y2184781D01*
X2417000Y2184352D01*
X2419162Y2184781D01*
X2420994Y2186006D01*
X2422218Y2187838D01*
X2422648Y2190000D01*
X2422623Y2190129D01*
X2425609Y2193115D01*
X2553933D01*
X2554006Y2193006D01*
X2555838Y2191781D01*
X2558000Y2191351D01*
X2560162Y2191781D01*
X2561994Y2193006D01*
X2563218Y2194838D01*
X2563648Y2197000D01*
X2563218Y2199162D01*
X2561994Y2200994D01*
X2560162Y2202219D01*
X2558000Y2202648D01*
D02*
G37*
G36*
X1797250Y2537158D02*
X1790050Y2536686D01*
X1782974Y2535278D01*
X1776142Y2532959D01*
X1769671Y2529768D01*
X1763672Y2525760D01*
X1758247Y2521003D01*
X1753490Y2515578D01*
X1749482Y2509579D01*
X1746291Y2503108D01*
X1743971Y2496276D01*
X1742564Y2489200D01*
X1742092Y2482000D01*
X1742564Y2474800D01*
X1743971Y2467724D01*
X1746291Y2460892D01*
X1749482Y2454421D01*
X1753490Y2448422D01*
X1758247Y2442997D01*
X1763672Y2438240D01*
X1769671Y2434232D01*
X1776142Y2431040D01*
X1782974Y2428721D01*
X1790050Y2427314D01*
X1797250Y2426842D01*
X1804450Y2427314D01*
X1811526Y2428721D01*
X1818358Y2431040D01*
X1824829Y2434232D01*
X1830828Y2438240D01*
X1836253Y2442997D01*
X1841010Y2448422D01*
X1845018Y2454421D01*
X1848210Y2460892D01*
X1850529Y2467724D01*
X1851936Y2474800D01*
X1852408Y2482000D01*
X1851936Y2489200D01*
X1850529Y2496276D01*
X1848210Y2503108D01*
X1845018Y2509579D01*
X1841010Y2515578D01*
X1836253Y2521003D01*
X1830828Y2525760D01*
X1824829Y2529768D01*
X1818358Y2532959D01*
X1811526Y2535278D01*
X1804450Y2536686D01*
X1797250Y2537158D01*
D02*
G37*
G36*
X2277250D02*
X2270051Y2536686D01*
X2262974Y2535278D01*
X2256142Y2532959D01*
X2249671Y2529768D01*
X2243672Y2525760D01*
X2238247Y2521003D01*
X2233490Y2515578D01*
X2229482Y2509579D01*
X2226291Y2503108D01*
X2223971Y2496276D01*
X2222564Y2489200D01*
X2222092Y2482000D01*
X2222564Y2474800D01*
X2223971Y2467724D01*
X2226291Y2460892D01*
X2229482Y2454421D01*
X2233490Y2448422D01*
X2238247Y2442997D01*
X2243672Y2438240D01*
X2249671Y2434232D01*
X2256142Y2431040D01*
X2262974Y2428721D01*
X2270051Y2427314D01*
X2277250Y2426842D01*
X2284450Y2427314D01*
X2291526Y2428721D01*
X2298358Y2431040D01*
X2304829Y2434232D01*
X2310828Y2438240D01*
X2316253Y2442997D01*
X2321010Y2448422D01*
X2325018Y2454421D01*
X2328210Y2460892D01*
X2330529Y2467724D01*
X2331936Y2474800D01*
X2332408Y2482000D01*
X2331936Y2489200D01*
X2330529Y2496276D01*
X2328210Y2503108D01*
X2325018Y2509579D01*
X2321010Y2515578D01*
X2316253Y2521003D01*
X2310828Y2525760D01*
X2304829Y2529768D01*
X2298358Y2532959D01*
X2291526Y2535278D01*
X2284450Y2536686D01*
X2277250Y2537158D01*
D02*
G37*
G36*
X2371000Y2184105D02*
X2365665Y2183685D01*
X2360461Y2182436D01*
X2355517Y2180388D01*
X2350954Y2177592D01*
X2346884Y2174116D01*
X2343408Y2170046D01*
X2340612Y2165483D01*
X2338564Y2160539D01*
X2337315Y2155335D01*
X2336895Y2150000D01*
X2337315Y2144665D01*
X2338564Y2139461D01*
X2340612Y2134516D01*
X2343408Y2129953D01*
X2346884Y2125884D01*
X2350954Y2122408D01*
X2355517Y2119612D01*
X2360461Y2117564D01*
X2365665Y2116315D01*
X2371000Y2115895D01*
X2376335Y2116315D01*
X2381539Y2117564D01*
X2386483Y2119612D01*
X2391046Y2122408D01*
X2395116Y2125884D01*
X2398592Y2129953D01*
X2401388Y2134516D01*
X2403436Y2139461D01*
X2404685Y2144665D01*
X2405105Y2150000D01*
X2404685Y2155335D01*
X2403436Y2160539D01*
X2401388Y2165483D01*
X2398592Y2170046D01*
X2395116Y2174116D01*
X2391046Y2177592D01*
X2386483Y2180388D01*
X2381539Y2182436D01*
X2376335Y2183685D01*
X2371000Y2184105D01*
D02*
G37*
G36*
X2453000Y2052086D02*
X2448606Y2051741D01*
X2444321Y2050712D01*
X2440249Y2049025D01*
X2436491Y2046722D01*
X2433140Y2043860D01*
X2430278Y2040509D01*
X2427975Y2036751D01*
X2426288Y2032679D01*
X2425259Y2028394D01*
X2424913Y2024000D01*
X2425259Y2019606D01*
X2426288Y2015321D01*
X2427975Y2011249D01*
X2430278Y2007491D01*
X2433140Y2004140D01*
X2436491Y2001277D01*
X2440249Y1998974D01*
X2441120Y1998614D01*
X2443367Y1996367D01*
X2446511Y1993681D01*
X2448697Y1992342D01*
X2450037Y1991521D01*
X2451156Y1991057D01*
X2453857Y1989938D01*
X2457878Y1988973D01*
X2462000Y1988649D01*
X2576450D01*
X2577321Y1988288D01*
X2581606Y1987259D01*
X2586000Y1986913D01*
X2590394Y1987259D01*
X2594679Y1988288D01*
X2598751Y1989975D01*
X2602509Y1992277D01*
X2605860Y1995140D01*
X2608723Y1998491D01*
X2611025Y2002249D01*
X2612712Y2006321D01*
X2613741Y2010606D01*
X2614087Y2015000D01*
X2613741Y2019394D01*
X2612712Y2023679D01*
X2611025Y2027751D01*
X2608723Y2031509D01*
X2605860Y2034860D01*
X2602509Y2037722D01*
X2598751Y2040025D01*
X2594679Y2041712D01*
X2590394Y2042741D01*
X2586000Y2043087D01*
X2581606Y2042741D01*
X2577321Y2041712D01*
X2576450Y2041351D01*
X2475003D01*
X2472860Y2043860D01*
X2469509Y2046722D01*
X2465751Y2049025D01*
X2461679Y2050712D01*
X2457394Y2051741D01*
X2453000Y2052086D01*
D02*
G37*
G36*
X2438000Y2140087D02*
X2433606Y2139741D01*
X2429321Y2138712D01*
X2425249Y2137025D01*
X2421491Y2134722D01*
X2418140Y2131860D01*
X2415278Y2128509D01*
X2412975Y2124751D01*
X2411288Y2120679D01*
X2410259Y2116394D01*
X2409913Y2112000D01*
X2410259Y2107606D01*
X2411288Y2103321D01*
X2412975Y2099249D01*
X2415278Y2095491D01*
X2418140Y2092140D01*
X2421491Y2089277D01*
X2425249Y2086975D01*
X2429321Y2085288D01*
X2433606Y2084259D01*
X2438000Y2083913D01*
X2442394Y2084259D01*
X2446679Y2085288D01*
X2447550Y2085649D01*
X2540783D01*
X2543140Y2082890D01*
X2546491Y2080027D01*
X2550249Y2077724D01*
X2554321Y2076038D01*
X2558606Y2075009D01*
X2563000Y2074663D01*
X2567394Y2075009D01*
X2571679Y2076038D01*
X2575751Y2077724D01*
X2579509Y2080027D01*
X2582860Y2082890D01*
X2585723Y2086241D01*
X2588026Y2089999D01*
X2589712Y2094071D01*
X2590741Y2098356D01*
X2591087Y2102750D01*
X2590741Y2107144D01*
X2589712Y2111429D01*
X2588026Y2115501D01*
X2585723Y2119259D01*
X2582860Y2122610D01*
X2579509Y2125472D01*
X2575751Y2127775D01*
X2573600Y2128666D01*
X2571633Y2130633D01*
X2568489Y2133319D01*
X2564963Y2135479D01*
X2563844Y2135943D01*
X2561143Y2137061D01*
X2559133Y2137544D01*
X2557122Y2138027D01*
X2553000Y2138351D01*
X2447550D01*
X2446679Y2138712D01*
X2442394Y2139741D01*
X2438000Y2140087D01*
D02*
G37*
G36*
X2219750Y2181400D02*
X2148750D01*
Y2110400D01*
X2219750D01*
Y2181400D01*
D02*
G37*
%LPD*%
D10*
X1768344Y1305300D02*
D03*
X1787344D02*
D03*
X1862344D02*
D03*
X1843344D02*
D03*
X1667344D02*
D03*
X1648344D02*
D03*
D11*
X2817844Y2058500D02*
X2857375Y2018969D01*
X2817844Y2058500D02*
Y2089518D01*
X2857375Y1445531D02*
Y2018969D01*
X2438000Y2112000D02*
X2553000D01*
X2562250Y2102750D01*
X2826600Y1202000D02*
Y1207797D01*
X2779370Y1255027D02*
X2826600Y1207797D01*
X2699600Y1202000D02*
Y1207797D01*
X2746830Y1255027D02*
Y1381005D01*
X2699600Y1207797D02*
X2746830Y1255027D01*
X2779370D02*
Y1367526D01*
X2824835Y1459009D02*
Y2005491D01*
X2791826Y2038500D02*
X2824835Y2005491D01*
X2779438Y2038500D02*
X2791826D01*
X2800645Y2106718D02*
X2817844Y2089518D01*
X2772656Y2106718D02*
X2800645D01*
X2772656Y2031718D02*
X2779438Y2038500D01*
X2847844Y1436000D02*
X2857375Y1445531D01*
X2847844Y1436000D02*
Y1436000D01*
X2746830Y1381005D02*
X2824835Y1459009D01*
X2779370Y1367526D02*
X2847844Y1436000D01*
X2350000Y1391000D02*
X2353920Y1387080D01*
X2423948D01*
X2600100Y1202000D02*
Y1210928D01*
X2423948Y1387080D02*
X2600100Y1210928D01*
X2343000Y1382000D02*
X2421844D01*
X2574700Y1202000D02*
Y1229144D01*
X2421844Y1382000D02*
X2574700Y1229144D01*
X1886614Y1212230D02*
X1926230D01*
X1882000Y1216844D02*
X1886614Y1212230D01*
X1882000Y1216844D02*
Y1231940D01*
X1902000Y1243000D02*
X1915000Y1256000D01*
X1902000Y1231940D02*
Y1243000D01*
X2562250Y2102750D02*
X2563000D01*
X2453000Y2024000D02*
X2462000Y2015000D01*
X2586000D01*
X2417000Y2190000D02*
X2424000Y2197000D01*
X2558000D01*
X1915000Y1256000D02*
X2188400D01*
X2242400Y1202000D01*
X1926230Y1212230D02*
X1942250Y1228250D01*
X2190750D01*
X2217000Y1202000D01*
X1577000Y1161000D02*
Y2611000D01*
Y1161000D02*
X2877000D01*
Y2611000D01*
X1577000D02*
X2877000D01*
D12*
X2295600Y1352000D02*
X2445600Y1202000D01*
X2279700Y1342500D02*
X2420200Y1202000D01*
X2278250Y1342500D02*
X2279700D01*
X1767400Y1220460D02*
X1792800D01*
Y1206044D02*
Y1220460D01*
Y1206044D02*
X1802844Y1196000D01*
X1818200Y1220460D02*
Y1225644D01*
X1787344Y1256500D02*
X1818200Y1225644D01*
X1787344Y1256500D02*
Y1285900D01*
Y1305300D02*
X1843344D01*
X1787344Y1285900D02*
Y1305300D01*
X1862344Y1226344D02*
Y1305300D01*
X1767400Y1220460D02*
Y1304356D01*
X1634600Y1225000D02*
Y1252756D01*
X1648344Y1266500D01*
Y1301000D01*
X1667344Y1275500D02*
Y1301000D01*
X1660000Y1268156D02*
X1667344Y1275500D01*
X1660000Y1225000D02*
Y1268156D01*
X1862000Y1216844D02*
Y1226000D01*
X1862344Y1226344D01*
X1872924Y1205920D02*
X1932764D01*
X2109400Y1196000D02*
X2115400Y1202000D01*
X1802844Y1196000D02*
X2109400D01*
X1862000Y1216844D02*
X1872924Y1205920D01*
X2191600Y1202000D02*
Y1206400D01*
X1932764Y1205920D02*
X1948784Y1221940D01*
X2176060D01*
X2191600Y1206400D01*
D13*
X2371000Y2250000D02*
D03*
Y2150000D02*
D03*
Y1802500D02*
D03*
Y1902500D02*
D03*
D14*
X2736000Y2566000D02*
D03*
X2492000Y1790000D02*
D03*
X2694920Y2281910D02*
D03*
Y1821910D02*
D03*
X2678000Y1464000D02*
D03*
X1613000Y2324500D02*
D03*
Y1681000D02*
D03*
D15*
X1707948Y1576000D02*
D03*
X1637844D02*
D03*
Y1526000D02*
D03*
X1707948D02*
D03*
X1637844Y1476000D02*
D03*
X1707948D02*
D03*
X2552948Y1576000D02*
D03*
X2482844D02*
D03*
Y1526000D02*
D03*
X2552948D02*
D03*
X2482844Y1476000D02*
D03*
X2552948D02*
D03*
X1634052Y2429500D02*
D03*
X1704156D02*
D03*
Y2479500D02*
D03*
X1634052D02*
D03*
X1704156Y2529500D02*
D03*
X1634052D02*
D03*
X2552948Y2527000D02*
D03*
X2482844D02*
D03*
Y2477000D02*
D03*
X2552948D02*
D03*
X2482844Y2427000D02*
D03*
X2552948D02*
D03*
D16*
X2184250Y1864600D02*
D03*
Y1919000D02*
D03*
Y2091500D02*
D03*
Y2037100D02*
D03*
D17*
Y1973400D02*
D03*
Y2145900D02*
D03*
D18*
X2115400Y1202000D02*
D03*
X2140800D02*
D03*
X2217000D02*
D03*
X2191600D02*
D03*
X2242400D02*
D03*
X2344000D02*
D03*
X2318600D02*
D03*
X2267800D02*
D03*
X2293200D02*
D03*
X2394800D02*
D03*
X2369400D02*
D03*
X2420200D02*
D03*
X2445600D02*
D03*
X2549300D02*
D03*
X2574700D02*
D03*
X2600100D02*
D03*
X2699600D02*
D03*
X2750400D02*
D03*
X2775800D02*
D03*
X2826600D02*
D03*
D19*
X1847750Y2015250D02*
D03*
Y1989850D02*
D03*
D20*
X1922000Y1231940D02*
D03*
X1902000D02*
D03*
X1882000D02*
D03*
X1862000D02*
D03*
D21*
X2772656Y1931718D02*
D03*
Y2031718D02*
D03*
Y2106718D02*
D03*
Y2181718D02*
D03*
D22*
X1818200Y1220460D02*
D03*
X1792800D02*
D03*
X1767400D02*
D03*
D23*
X1742000D02*
D03*
D24*
X2771000Y1668000D02*
D03*
X2671000D02*
D03*
X2770000Y2470000D02*
D03*
X2670000D02*
D03*
D25*
X1634600Y1225000D02*
D03*
X1660000D02*
D03*
X1685400D02*
D03*
D26*
X2438000Y2112000D02*
D03*
X2563000Y2102750D02*
D03*
X2295600Y1352000D02*
D03*
X2278250Y1342500D02*
D03*
X2350000Y1391000D02*
D03*
X2343000Y1382000D02*
D03*
X1827844Y1305300D02*
D03*
X1815344D02*
D03*
X1802844D02*
D03*
X1787344Y1285900D02*
D03*
X1648344Y1286000D02*
D03*
X2453000Y2024000D02*
D03*
X2586000Y2015000D02*
D03*
X2417000Y2190000D02*
D03*
X2558000Y2197000D02*
D03*
M02*
