G04*
G04 #@! TF.GenerationSoftware,Altium Limited,CircuitStudio,1.5.2 (1.5.2.30)*
G04*
G04 Layer_Color=2752767*
%FSLAX44Y44*%
%MOMM*%
G71*
G01*
G75*
%ADD11C,0.2540*%
%ADD71C,0.0847*%
%ADD72C,0.3810*%
%ADD73C,0.4064*%
D11*
X1577000Y1161000D02*
Y2611000D01*
Y1161000D02*
X2877000D01*
Y2611000D01*
X1577000D02*
X2877000D01*
X2435620Y3289600D02*
Y3304835D01*
X2443237D01*
X2445777Y3302296D01*
Y3297217D01*
X2443237Y3294678D01*
X2435620D01*
X2440698D02*
X2445777Y3289600D01*
X2453394D02*
X2458472D01*
X2461012Y3292139D01*
Y3297217D01*
X2458472Y3299757D01*
X2453394D01*
X2450855Y3297217D01*
Y3292139D01*
X2453394Y3289600D01*
X2466090Y3299757D02*
Y3292139D01*
X2468629Y3289600D01*
X2476247D01*
Y3299757D01*
X2481325Y3289600D02*
Y3299757D01*
X2488943D01*
X2491482Y3297217D01*
Y3289600D01*
X2506717Y3304835D02*
Y3289600D01*
X2499099D01*
X2496560Y3292139D01*
Y3297217D01*
X2499099Y3299757D01*
X2506717D01*
X2435620Y3251500D02*
Y3266735D01*
X2443237D01*
X2445777Y3264196D01*
Y3259117D01*
X2443237Y3256578D01*
X2435620D01*
X2440698D02*
X2445777Y3251500D01*
X2453394D02*
X2458472D01*
X2461012Y3254039D01*
Y3259117D01*
X2458472Y3261657D01*
X2453394D01*
X2450855Y3259117D01*
Y3254039D01*
X2453394Y3251500D01*
X2466090Y3261657D02*
Y3254039D01*
X2468629Y3251500D01*
X2476247D01*
Y3261657D01*
X2481325Y3251500D02*
Y3261657D01*
X2488943D01*
X2491482Y3259117D01*
Y3251500D01*
X2506717Y3266735D02*
Y3251500D01*
X2499099D01*
X2496560Y3254039D01*
Y3259117D01*
X2499099Y3261657D01*
X2506717D01*
X2435620Y3213400D02*
Y3228635D01*
X2443237D01*
X2445777Y3226096D01*
Y3221017D01*
X2443237Y3218478D01*
X2435620D01*
X2440698D02*
X2445777Y3213400D01*
X2453394D02*
X2458472D01*
X2461012Y3215939D01*
Y3221017D01*
X2458472Y3223557D01*
X2453394D01*
X2450855Y3221017D01*
Y3215939D01*
X2453394Y3213400D01*
X2466090Y3223557D02*
Y3215939D01*
X2468629Y3213400D01*
X2476247D01*
Y3223557D01*
X2481325Y3213400D02*
Y3223557D01*
X2488943D01*
X2491482Y3221017D01*
Y3213400D01*
X2506717Y3228635D02*
Y3213400D01*
X2499099D01*
X2496560Y3215939D01*
Y3221017D01*
X2499099Y3223557D01*
X2506717D01*
X2435620Y3175300D02*
Y3190535D01*
X2443237D01*
X2445777Y3187996D01*
Y3182917D01*
X2443237Y3180378D01*
X2435620D01*
X2440698D02*
X2445777Y3175300D01*
X2453394D02*
X2458472D01*
X2461012Y3177839D01*
Y3182917D01*
X2458472Y3185457D01*
X2453394D01*
X2450855Y3182917D01*
Y3177839D01*
X2453394Y3175300D01*
X2466090Y3185457D02*
Y3177839D01*
X2468629Y3175300D01*
X2476247D01*
Y3185457D01*
X2481325Y3175300D02*
Y3185457D01*
X2488943D01*
X2491482Y3182917D01*
Y3175300D01*
X2506717Y3190535D02*
Y3175300D01*
X2499099D01*
X2496560Y3177839D01*
Y3182917D01*
X2499099Y3185457D01*
X2506717D01*
X2435620Y3137200D02*
Y3152435D01*
X2443237D01*
X2445777Y3149896D01*
Y3144818D01*
X2443237Y3142278D01*
X2435620D01*
X2440698D02*
X2445777Y3137200D01*
X2453394D02*
X2458472D01*
X2461012Y3139739D01*
Y3144818D01*
X2458472Y3147357D01*
X2453394D01*
X2450855Y3144818D01*
Y3139739D01*
X2453394Y3137200D01*
X2466090Y3147357D02*
Y3139739D01*
X2468629Y3137200D01*
X2476247D01*
Y3147357D01*
X2481325Y3137200D02*
Y3147357D01*
X2488943D01*
X2491482Y3144818D01*
Y3137200D01*
X2506717Y3152435D02*
Y3137200D01*
X2499099D01*
X2496560Y3139739D01*
Y3144818D01*
X2499099Y3147357D01*
X2506717D01*
X2435620Y3099100D02*
Y3114335D01*
X2443237D01*
X2445777Y3111796D01*
Y3106718D01*
X2443237Y3104178D01*
X2435620D01*
X2440698D02*
X2445777Y3099100D01*
X2453394D02*
X2458472D01*
X2461012Y3101639D01*
Y3106718D01*
X2458472Y3109257D01*
X2453394D01*
X2450855Y3106718D01*
Y3101639D01*
X2453394Y3099100D01*
X2466090Y3109257D02*
Y3101639D01*
X2468629Y3099100D01*
X2476247D01*
Y3109257D01*
X2481325Y3099100D02*
Y3109257D01*
X2488943D01*
X2491482Y3106718D01*
Y3099100D01*
X2506717Y3114335D02*
Y3099100D01*
X2499099D01*
X2496560Y3101639D01*
Y3106718D01*
X2499099Y3109257D01*
X2506717D01*
X2435620Y3061000D02*
Y3076235D01*
X2443237D01*
X2445777Y3073696D01*
Y3068618D01*
X2443237Y3066078D01*
X2435620D01*
X2440698D02*
X2445777Y3061000D01*
X2453394D02*
X2458472D01*
X2461012Y3063539D01*
Y3068618D01*
X2458472Y3071157D01*
X2453394D01*
X2450855Y3068618D01*
Y3063539D01*
X2453394Y3061000D01*
X2466090Y3071157D02*
Y3063539D01*
X2468629Y3061000D01*
X2476247D01*
Y3071157D01*
X2481325Y3061000D02*
Y3071157D01*
X2488943D01*
X2491482Y3068618D01*
Y3061000D01*
X2506717Y3076235D02*
Y3061000D01*
X2499099D01*
X2496560Y3063539D01*
Y3068618D01*
X2499099Y3071157D01*
X2506717D01*
X2435620Y3022900D02*
Y3038135D01*
X2443237D01*
X2445777Y3035596D01*
Y3030518D01*
X2443237Y3027978D01*
X2435620D01*
X2440698D02*
X2445777Y3022900D01*
X2453394D02*
X2458472D01*
X2461012Y3025439D01*
Y3030518D01*
X2458472Y3033057D01*
X2453394D01*
X2450855Y3030518D01*
Y3025439D01*
X2453394Y3022900D01*
X2466090Y3033057D02*
Y3025439D01*
X2468629Y3022900D01*
X2476247D01*
Y3033057D01*
X2481325Y3022900D02*
Y3033057D01*
X2488943D01*
X2491482Y3030518D01*
Y3022900D01*
X2506717Y3038135D02*
Y3022900D01*
X2499099D01*
X2496560Y3025439D01*
Y3030518D01*
X2499099Y3033057D01*
X2506717D01*
X2435620Y2984800D02*
Y3000035D01*
X2443237D01*
X2445777Y2997496D01*
Y2992418D01*
X2443237Y2989878D01*
X2435620D01*
X2440698D02*
X2445777Y2984800D01*
X2453394D02*
X2458472D01*
X2461012Y2987339D01*
Y2992418D01*
X2458472Y2994957D01*
X2453394D01*
X2450855Y2992418D01*
Y2987339D01*
X2453394Y2984800D01*
X2466090Y2994957D02*
Y2987339D01*
X2468629Y2984800D01*
X2476247D01*
Y2994957D01*
X2481325Y2984800D02*
Y2994957D01*
X2488943D01*
X2491482Y2992418D01*
Y2984800D01*
X2506717Y3000035D02*
Y2984800D01*
X2499099D01*
X2496560Y2987339D01*
Y2992418D01*
X2499099Y2994957D01*
X2506717D01*
X2435620Y2946700D02*
Y2961935D01*
X2443237D01*
X2445777Y2959396D01*
Y2954318D01*
X2443237Y2951778D01*
X2435620D01*
X2440698D02*
X2445777Y2946700D01*
X2453394D02*
X2458472D01*
X2461012Y2949239D01*
Y2954318D01*
X2458472Y2956857D01*
X2453394D01*
X2450855Y2954318D01*
Y2949239D01*
X2453394Y2946700D01*
X2466090Y2956857D02*
Y2949239D01*
X2468629Y2946700D01*
X2476247D01*
Y2956857D01*
X2481325Y2946700D02*
Y2956857D01*
X2488943D01*
X2491482Y2954318D01*
Y2946700D01*
X2506717Y2961935D02*
Y2946700D01*
X2499099D01*
X2496560Y2949239D01*
Y2954318D01*
X2499099Y2956857D01*
X2506717D01*
X2435620Y2908600D02*
Y2923835D01*
X2443237D01*
X2445777Y2921296D01*
Y2916218D01*
X2443237Y2913678D01*
X2435620D01*
X2440698D02*
X2445777Y2908600D01*
X2453394D02*
X2458472D01*
X2461012Y2911139D01*
Y2916218D01*
X2458472Y2918757D01*
X2453394D01*
X2450855Y2916218D01*
Y2911139D01*
X2453394Y2908600D01*
X2466090Y2918757D02*
Y2911139D01*
X2468629Y2908600D01*
X2476247D01*
Y2918757D01*
X2481325Y2908600D02*
Y2918757D01*
X2488943D01*
X2491482Y2916218D01*
Y2908600D01*
X2506717Y2923835D02*
Y2908600D01*
X2499099D01*
X2496560Y2911139D01*
Y2916218D01*
X2499099Y2918757D01*
X2506717D01*
X2435620Y2870500D02*
Y2885735D01*
X2443237D01*
X2445777Y2883196D01*
Y2878117D01*
X2443237Y2875578D01*
X2435620D01*
X2440698D02*
X2445777Y2870500D01*
X2453394D02*
X2458472D01*
X2461012Y2873039D01*
Y2878117D01*
X2458472Y2880657D01*
X2453394D01*
X2450855Y2878117D01*
Y2873039D01*
X2453394Y2870500D01*
X2466090Y2880657D02*
Y2873039D01*
X2468629Y2870500D01*
X2476247D01*
Y2880657D01*
X2481325Y2870500D02*
Y2880657D01*
X2488943D01*
X2491482Y2878117D01*
Y2870500D01*
X2506717Y2885735D02*
Y2870500D01*
X2499099D01*
X2496560Y2873039D01*
Y2878117D01*
X2499099Y2880657D01*
X2506717D01*
X2435620Y2832400D02*
Y2847635D01*
X2443237D01*
X2445777Y2845096D01*
Y2840017D01*
X2443237Y2837478D01*
X2435620D01*
X2440698D02*
X2445777Y2832400D01*
X2453394D02*
X2458472D01*
X2461012Y2834939D01*
Y2840017D01*
X2458472Y2842557D01*
X2453394D01*
X2450855Y2840017D01*
Y2834939D01*
X2453394Y2832400D01*
X2466090Y2842557D02*
Y2834939D01*
X2468629Y2832400D01*
X2476247D01*
Y2842557D01*
X2481325Y2832400D02*
Y2842557D01*
X2488943D01*
X2491482Y2840017D01*
Y2832400D01*
X2506717Y2847635D02*
Y2832400D01*
X2499099D01*
X2496560Y2834939D01*
Y2840017D01*
X2499099Y2842557D01*
X2506717D01*
X2435620Y2794300D02*
Y2809535D01*
X2443237D01*
X2445777Y2806996D01*
Y2801917D01*
X2443237Y2799378D01*
X2435620D01*
X2440698D02*
X2445777Y2794300D01*
X2453394D02*
X2458472D01*
X2461012Y2796839D01*
Y2801917D01*
X2458472Y2804457D01*
X2453394D01*
X2450855Y2801917D01*
Y2796839D01*
X2453394Y2794300D01*
X2466090Y2804457D02*
Y2796839D01*
X2468629Y2794300D01*
X2476247D01*
Y2804457D01*
X2481325Y2794300D02*
Y2804457D01*
X2488943D01*
X2491482Y2801917D01*
Y2794300D01*
X2506717Y2809535D02*
Y2794300D01*
X2499099D01*
X2496560Y2796839D01*
Y2801917D01*
X2499099Y2804457D01*
X2506717D01*
X2307127Y3289600D02*
Y3304835D01*
X2314745D01*
X2317284Y3302296D01*
Y3297217D01*
X2314745Y3294678D01*
X2307127D01*
X2322363Y3304835D02*
X2332519D01*
X2327441D01*
Y3289600D01*
X2337598Y3304835D02*
Y3289600D01*
Y3297217D01*
X2347754D01*
Y3304835D01*
Y3289600D01*
X2307127Y3251500D02*
Y3266735D01*
X2314745D01*
X2317284Y3264196D01*
Y3259117D01*
X2314745Y3256578D01*
X2307127D01*
X2322363Y3266735D02*
X2332519D01*
X2327441D01*
Y3251500D01*
X2337598Y3266735D02*
Y3251500D01*
Y3259117D01*
X2347754D01*
Y3266735D01*
Y3251500D01*
X2307127Y3213400D02*
Y3228635D01*
X2314745D01*
X2317284Y3226096D01*
Y3221017D01*
X2314745Y3218478D01*
X2307127D01*
X2322363Y3228635D02*
X2332519D01*
X2327441D01*
Y3213400D01*
X2337598Y3228635D02*
Y3213400D01*
Y3221017D01*
X2347754D01*
Y3228635D01*
Y3213400D01*
X2307127Y3175300D02*
Y3190535D01*
X2314745D01*
X2317284Y3187996D01*
Y3182917D01*
X2314745Y3180378D01*
X2307127D01*
X2322363Y3190535D02*
X2332519D01*
X2327441D01*
Y3175300D01*
X2337598Y3190535D02*
Y3175300D01*
Y3182917D01*
X2347754D01*
Y3190535D01*
Y3175300D01*
X2307127Y3137200D02*
Y3152435D01*
X2314745D01*
X2317284Y3149896D01*
Y3144818D01*
X2314745Y3142278D01*
X2307127D01*
X2322363Y3152435D02*
X2332519D01*
X2327441D01*
Y3137200D01*
X2337598Y3152435D02*
Y3137200D01*
Y3144818D01*
X2347754D01*
Y3152435D01*
Y3137200D01*
X2307127Y3099100D02*
Y3114335D01*
X2314745D01*
X2317284Y3111796D01*
Y3106718D01*
X2314745Y3104178D01*
X2307127D01*
X2322363Y3114335D02*
X2332519D01*
X2327441D01*
Y3099100D01*
X2337598Y3114335D02*
Y3099100D01*
Y3106718D01*
X2347754D01*
Y3114335D01*
Y3099100D01*
X2307127Y3061000D02*
Y3076235D01*
X2314745D01*
X2317284Y3073696D01*
Y3068618D01*
X2314745Y3066078D01*
X2307127D01*
X2322363Y3076235D02*
X2332519D01*
X2327441D01*
Y3061000D01*
X2337598Y3076235D02*
Y3061000D01*
Y3068618D01*
X2347754D01*
Y3076235D01*
Y3061000D01*
X2307127Y3022900D02*
Y3038135D01*
X2314745D01*
X2317284Y3035596D01*
Y3030518D01*
X2314745Y3027978D01*
X2307127D01*
X2322363Y3038135D02*
X2332519D01*
X2327441D01*
Y3022900D01*
X2337598Y3038135D02*
Y3022900D01*
Y3030518D01*
X2347754D01*
Y3038135D01*
Y3022900D01*
X2307127Y2984800D02*
Y3000035D01*
X2317284Y2984800D01*
Y3000035D01*
X2322363Y2984800D02*
Y3000035D01*
X2329980D01*
X2332519Y2997496D01*
Y2992418D01*
X2329980Y2989878D01*
X2322363D01*
X2337598Y3000035D02*
X2347754D01*
X2342676D01*
Y2984800D01*
X2352833Y3000035D02*
Y2984800D01*
Y2992418D01*
X2362989D01*
Y3000035D01*
Y2984800D01*
X2307127Y2946700D02*
Y2961935D01*
X2314745D01*
X2317284Y2959396D01*
Y2954318D01*
X2314745Y2951778D01*
X2307127D01*
X2322363Y2961935D02*
X2332519D01*
X2327441D01*
Y2946700D01*
X2337598Y2961935D02*
Y2946700D01*
Y2954318D01*
X2347754D01*
Y2961935D01*
Y2946700D01*
X2307127Y2908600D02*
Y2923835D01*
X2314745D01*
X2317284Y2921296D01*
Y2916218D01*
X2314745Y2913678D01*
X2307127D01*
X2322363Y2923835D02*
X2332519D01*
X2327441D01*
Y2908600D01*
X2337598Y2923835D02*
Y2908600D01*
Y2916218D01*
X2347754D01*
Y2923835D01*
Y2908600D01*
X2307127Y2870500D02*
Y2885735D01*
X2314745D01*
X2317284Y2883196D01*
Y2878117D01*
X2314745Y2875578D01*
X2307127D01*
X2322363Y2885735D02*
X2332519D01*
X2327441D01*
Y2870500D01*
X2337598Y2885735D02*
Y2870500D01*
Y2878117D01*
X2347754D01*
Y2885735D01*
Y2870500D01*
X2307127Y2832400D02*
Y2847635D01*
X2314745D01*
X2317284Y2845096D01*
Y2840017D01*
X2314745Y2837478D01*
X2307127D01*
X2322363Y2847635D02*
X2332519D01*
X2327441D01*
Y2832400D01*
X2337598Y2847635D02*
Y2832400D01*
Y2840017D01*
X2347754D01*
Y2847635D01*
Y2832400D01*
X2307127Y2794300D02*
Y2809535D01*
X2314745D01*
X2317284Y2806996D01*
Y2801917D01*
X2314745Y2799378D01*
X2307127D01*
X2322363Y2809535D02*
X2332519D01*
X2327441D01*
Y2794300D01*
X2337598Y2809535D02*
Y2794300D01*
Y2801917D01*
X2347754D01*
Y2809535D01*
Y2794300D01*
X1965344Y3302296D02*
X1967883Y3304835D01*
X1972961D01*
X1975501Y3302296D01*
Y3292139D01*
X1972961Y3289600D01*
X1967883D01*
X1965344Y3292139D01*
Y3302296D01*
X1980579Y3289600D02*
Y3292139D01*
X1983118D01*
Y3289600D01*
X1980579D01*
X1993275Y3304835D02*
X2003432D01*
Y3302296D01*
X1993275Y3292139D01*
Y3289600D01*
X2018667Y3304835D02*
X2013588Y3302296D01*
X2008510Y3297217D01*
Y3292139D01*
X2011049Y3289600D01*
X2016127D01*
X2018667Y3292139D01*
Y3294678D01*
X2016127Y3297217D01*
X2008510D01*
X2033902Y3289600D02*
X2023745D01*
X2033902Y3299757D01*
Y3302296D01*
X2031363Y3304835D01*
X2026284D01*
X2023745Y3302296D01*
X2038980Y3289600D02*
Y3299757D01*
X2041519D01*
X2044059Y3297217D01*
Y3289600D01*
Y3297217D01*
X2046598Y3299757D01*
X2049137Y3297217D01*
Y3289600D01*
X2054215D02*
Y3299757D01*
X2056754D01*
X2059294Y3297217D01*
Y3289600D01*
Y3297217D01*
X2061833Y3299757D01*
X2064372Y3297217D01*
Y3289600D01*
X2089764D02*
X2084685Y3294678D01*
Y3299757D01*
X2089764Y3304835D01*
X2097381Y3302296D02*
X2099920Y3304835D01*
X2104999D01*
X2107538Y3302296D01*
Y3299757D01*
X2104999Y3297217D01*
X2102460D01*
X2104999D01*
X2107538Y3294678D01*
Y3292139D01*
X2104999Y3289600D01*
X2099920D01*
X2097381Y3292139D01*
X2112616Y3302296D02*
X2115155Y3304835D01*
X2120234D01*
X2122773Y3302296D01*
Y3292139D01*
X2120234Y3289600D01*
X2115155D01*
X2112616Y3292139D01*
Y3302296D01*
X2127851Y3289600D02*
Y3292139D01*
X2130391D01*
Y3289600D01*
X2127851D01*
X2140547Y3302296D02*
X2143087Y3304835D01*
X2148165D01*
X2150704Y3302296D01*
Y3292139D01*
X2148165Y3289600D01*
X2143087D01*
X2140547Y3292139D01*
Y3302296D01*
X2155782D02*
X2158322Y3304835D01*
X2163400D01*
X2165939Y3302296D01*
Y3292139D01*
X2163400Y3289600D01*
X2158322D01*
X2155782Y3292139D01*
Y3302296D01*
X2171017Y3289600D02*
Y3299757D01*
X2173557D01*
X2176096Y3297217D01*
Y3289600D01*
Y3297217D01*
X2178635Y3299757D01*
X2181174Y3297217D01*
Y3289600D01*
X2186252D02*
X2191331D01*
X2188792D01*
Y3299757D01*
X2186252D01*
X2198948Y3289600D02*
X2204027D01*
X2201488D01*
Y3304835D01*
X2198948D01*
X2211644Y3289600D02*
X2216723Y3294678D01*
Y3299757D01*
X2211644Y3304835D01*
X1965344Y3264196D02*
X1967883Y3266735D01*
X1972961D01*
X1975501Y3264196D01*
Y3261657D01*
X1972961Y3259117D01*
X1970422D01*
X1972961D01*
X1975501Y3256578D01*
Y3254039D01*
X1972961Y3251500D01*
X1967883D01*
X1965344Y3254039D01*
X1980579Y3251500D02*
Y3254039D01*
X1983118D01*
Y3251500D01*
X1980579D01*
X2003432Y3266735D02*
X1993275D01*
Y3259117D01*
X1998353Y3261657D01*
X2000892D01*
X2003432Y3259117D01*
Y3254039D01*
X2000892Y3251500D01*
X1995814D01*
X1993275Y3254039D01*
X2008510Y3264196D02*
X2011049Y3266735D01*
X2016127D01*
X2018667Y3264196D01*
Y3254039D01*
X2016127Y3251500D01*
X2011049D01*
X2008510Y3254039D01*
Y3264196D01*
X2023745D02*
X2026284Y3266735D01*
X2031363D01*
X2033902Y3264196D01*
Y3254039D01*
X2031363Y3251500D01*
X2026284D01*
X2023745Y3254039D01*
Y3264196D01*
X2038980Y3251500D02*
Y3261657D01*
X2041519D01*
X2044059Y3259117D01*
Y3251500D01*
Y3259117D01*
X2046598Y3261657D01*
X2049137Y3259117D01*
Y3251500D01*
X2054215D02*
Y3261657D01*
X2056754D01*
X2059294Y3259117D01*
Y3251500D01*
Y3259117D01*
X2061833Y3261657D01*
X2064372Y3259117D01*
Y3251500D01*
X2089764D02*
X2084685Y3256578D01*
Y3261657D01*
X2089764Y3266735D01*
X2097381Y3251500D02*
X2102460D01*
X2099920D01*
Y3266735D01*
X2097381Y3264196D01*
X2110077D02*
X2112616Y3266735D01*
X2117695D01*
X2120234Y3264196D01*
Y3261657D01*
X2117695Y3259117D01*
X2115155D01*
X2117695D01*
X2120234Y3256578D01*
Y3254039D01*
X2117695Y3251500D01*
X2112616D01*
X2110077Y3254039D01*
X2125312Y3266735D02*
X2135469D01*
Y3264196D01*
X2125312Y3254039D01*
Y3251500D01*
X2140547D02*
Y3254039D01*
X2143087D01*
Y3251500D01*
X2140547D01*
X2153243Y3264196D02*
X2155782Y3266735D01*
X2160861D01*
X2163400Y3264196D01*
Y3261657D01*
X2160861Y3259117D01*
X2163400Y3256578D01*
Y3254039D01*
X2160861Y3251500D01*
X2155782D01*
X2153243Y3254039D01*
Y3256578D01*
X2155782Y3259117D01*
X2153243Y3261657D01*
Y3264196D01*
X2155782Y3259117D02*
X2160861D01*
X2168478Y3264196D02*
X2171017Y3266735D01*
X2176096D01*
X2178635Y3264196D01*
Y3254039D01*
X2176096Y3251500D01*
X2171017D01*
X2168478Y3254039D01*
Y3264196D01*
X2183713Y3251500D02*
Y3261657D01*
X2186252D01*
X2188792Y3259117D01*
Y3251500D01*
Y3259117D01*
X2191331Y3261657D01*
X2193870Y3259117D01*
Y3251500D01*
X2198948D02*
X2204027D01*
X2201488D01*
Y3261657D01*
X2198948D01*
X2211644Y3251500D02*
X2216723D01*
X2214184D01*
Y3266735D01*
X2211644D01*
X2224340Y3251500D02*
X2229418Y3256578D01*
Y3261657D01*
X2224340Y3266735D01*
X1965344Y3213400D02*
X1970422D01*
X1967883D01*
Y3228635D01*
X1965344Y3226096D01*
X1978040Y3213400D02*
Y3215939D01*
X1980579D01*
Y3213400D01*
X1978040D01*
X1990736Y3226096D02*
X1993275Y3228635D01*
X1998353D01*
X2000892Y3226096D01*
Y3215939D01*
X1998353Y3213400D01*
X1993275D01*
X1990736Y3215939D01*
Y3226096D01*
X2016127Y3213400D02*
X2005971D01*
X2016127Y3223557D01*
Y3226096D01*
X2013588Y3228635D01*
X2008510D01*
X2005971Y3226096D01*
X2021206D02*
X2023745Y3228635D01*
X2028823D01*
X2031363Y3226096D01*
Y3215939D01*
X2028823Y3213400D01*
X2023745D01*
X2021206Y3215939D01*
Y3226096D01*
X2036441Y3213400D02*
Y3223557D01*
X2038980D01*
X2041519Y3221017D01*
Y3213400D01*
Y3221017D01*
X2044059Y3223557D01*
X2046598Y3221017D01*
Y3213400D01*
X2051676D02*
Y3223557D01*
X2054215D01*
X2056754Y3221017D01*
Y3213400D01*
Y3221017D01*
X2059294Y3223557D01*
X2061833Y3221017D01*
Y3213400D01*
X2087224D02*
X2082146Y3218478D01*
Y3223557D01*
X2087224Y3228635D01*
X2102460Y3213400D02*
Y3228635D01*
X2094842Y3221017D01*
X2104999D01*
X2110077Y3226096D02*
X2112616Y3228635D01*
X2117695D01*
X2120234Y3226096D01*
Y3215939D01*
X2117695Y3213400D01*
X2112616D01*
X2110077Y3215939D01*
Y3226096D01*
X2125312Y3213400D02*
Y3215939D01*
X2127851D01*
Y3213400D01*
X2125312D01*
X2138008D02*
X2143086D01*
X2140547D01*
Y3228635D01*
X2138008Y3226096D01*
X2160861Y3228635D02*
X2155782Y3226096D01*
X2150704Y3221017D01*
Y3215939D01*
X2153243Y3213400D01*
X2158322D01*
X2160861Y3215939D01*
Y3218478D01*
X2158322Y3221017D01*
X2150704D01*
X2165939Y3213400D02*
Y3223557D01*
X2168478D01*
X2171017Y3221017D01*
Y3213400D01*
Y3221017D01*
X2173557Y3223557D01*
X2176096Y3221017D01*
Y3213400D01*
X2181174D02*
X2186252D01*
X2183713D01*
Y3223557D01*
X2181174D01*
X2193870Y3213400D02*
X2198948D01*
X2196409D01*
Y3228635D01*
X2193870D01*
X2206566Y3213400D02*
X2211644Y3218478D01*
Y3223557D01*
X2206566Y3228635D01*
X1965344Y3187996D02*
X1967883Y3190535D01*
X1972961D01*
X1975501Y3187996D01*
Y3177839D01*
X1972961Y3175300D01*
X1967883D01*
X1965344Y3177839D01*
Y3187996D01*
X1980579Y3175300D02*
Y3177839D01*
X1983118D01*
Y3175300D01*
X1980579D01*
X1993275Y3187996D02*
X1995814Y3190535D01*
X2000892D01*
X2003432Y3187996D01*
Y3185457D01*
X2000892Y3182917D01*
X2003432Y3180378D01*
Y3177839D01*
X2000892Y3175300D01*
X1995814D01*
X1993275Y3177839D01*
Y3180378D01*
X1995814Y3182917D01*
X1993275Y3185457D01*
Y3187996D01*
X1995814Y3182917D02*
X2000892D01*
X2008510Y3187996D02*
X2011049Y3190535D01*
X2016127D01*
X2018667Y3187996D01*
Y3177839D01*
X2016127Y3175300D01*
X2011049D01*
X2008510Y3177839D01*
Y3187996D01*
X2023745D02*
X2026284Y3190535D01*
X2031363D01*
X2033902Y3187996D01*
Y3177839D01*
X2031363Y3175300D01*
X2026284D01*
X2023745Y3177839D01*
Y3187996D01*
X2038980Y3175300D02*
Y3185457D01*
X2041519D01*
X2044059Y3182917D01*
Y3175300D01*
Y3182917D01*
X2046598Y3185457D01*
X2049137Y3182917D01*
Y3175300D01*
X2054215D02*
Y3185457D01*
X2056754D01*
X2059294Y3182917D01*
Y3175300D01*
Y3182917D01*
X2061833Y3185457D01*
X2064372Y3182917D01*
Y3175300D01*
X2089764D02*
X2084685Y3180378D01*
Y3185457D01*
X2089764Y3190535D01*
X2097381Y3187996D02*
X2099920Y3190535D01*
X2104999D01*
X2107538Y3187996D01*
Y3185457D01*
X2104999Y3182917D01*
X2102460D01*
X2104999D01*
X2107538Y3180378D01*
Y3177839D01*
X2104999Y3175300D01*
X2099920D01*
X2097381Y3177839D01*
X2112616Y3175300D02*
X2117695D01*
X2115155D01*
Y3190535D01*
X2112616Y3187996D01*
X2125312Y3175300D02*
Y3177839D01*
X2127851D01*
Y3175300D01*
X2125312D01*
X2148165Y3190535D02*
X2138008D01*
Y3182917D01*
X2143086Y3185457D01*
X2145626D01*
X2148165Y3182917D01*
Y3177839D01*
X2145626Y3175300D01*
X2140547D01*
X2138008Y3177839D01*
X2153243Y3187996D02*
X2155782Y3190535D01*
X2160861D01*
X2163400Y3187996D01*
Y3177839D01*
X2160861Y3175300D01*
X2155782D01*
X2153243Y3177839D01*
Y3187996D01*
X2168478Y3175300D02*
Y3185457D01*
X2171017D01*
X2173557Y3182917D01*
Y3175300D01*
Y3182917D01*
X2176096Y3185457D01*
X2178635Y3182917D01*
Y3175300D01*
X2183713D02*
X2188792D01*
X2186252D01*
Y3185457D01*
X2183713D01*
X2196409Y3175300D02*
X2201487D01*
X2198948D01*
Y3190535D01*
X2196409D01*
X2209105Y3175300D02*
X2214183Y3180378D01*
Y3185457D01*
X2209105Y3190535D01*
X1965344Y3149896D02*
X1967883Y3152435D01*
X1972961D01*
X1975501Y3149896D01*
Y3139739D01*
X1972961Y3137200D01*
X1967883D01*
X1965344Y3139739D01*
Y3149896D01*
X1980579Y3137200D02*
Y3139739D01*
X1983118D01*
Y3137200D01*
X1980579D01*
X1993275Y3139739D02*
X1995814Y3137200D01*
X2000892D01*
X2003432Y3139739D01*
Y3149896D01*
X2000892Y3152435D01*
X1995814D01*
X1993275Y3149896D01*
Y3147357D01*
X1995814Y3144818D01*
X2003432D01*
X2008510Y3149896D02*
X2011049Y3152435D01*
X2016127D01*
X2018667Y3149896D01*
Y3139739D01*
X2016127Y3137200D01*
X2011049D01*
X2008510Y3139739D01*
Y3149896D01*
X2023745D02*
X2026284Y3152435D01*
X2031363D01*
X2033902Y3149896D01*
Y3139739D01*
X2031363Y3137200D01*
X2026284D01*
X2023745Y3139739D01*
Y3149896D01*
X2038980Y3137200D02*
Y3147357D01*
X2041519D01*
X2044059Y3144818D01*
Y3137200D01*
Y3144818D01*
X2046598Y3147357D01*
X2049137Y3144818D01*
Y3137200D01*
X2054215D02*
Y3147357D01*
X2056754D01*
X2059294Y3144818D01*
Y3137200D01*
Y3144818D01*
X2061833Y3147357D01*
X2064372Y3144818D01*
Y3137200D01*
X2089764D02*
X2084685Y3142278D01*
Y3147357D01*
X2089764Y3152435D01*
X2097381Y3149896D02*
X2099920Y3152435D01*
X2104999D01*
X2107538Y3149896D01*
Y3147357D01*
X2104999Y3144818D01*
X2102460D01*
X2104999D01*
X2107538Y3142278D01*
Y3139739D01*
X2104999Y3137200D01*
X2099920D01*
X2097381Y3139739D01*
X2122773Y3152435D02*
X2112616D01*
Y3144818D01*
X2117695Y3147357D01*
X2120234D01*
X2122773Y3144818D01*
Y3139739D01*
X2120234Y3137200D01*
X2115155D01*
X2112616Y3139739D01*
X2127851Y3137200D02*
Y3139739D01*
X2130391D01*
Y3137200D01*
X2127851D01*
X2148165D02*
Y3152435D01*
X2140547Y3144818D01*
X2150704D01*
X2155782Y3149896D02*
X2158322Y3152435D01*
X2163400D01*
X2165939Y3149896D01*
Y3147357D01*
X2163400Y3144818D01*
X2160861D01*
X2163400D01*
X2165939Y3142278D01*
Y3139739D01*
X2163400Y3137200D01*
X2158322D01*
X2155782Y3139739D01*
X2171017Y3137200D02*
Y3147357D01*
X2173557D01*
X2176096Y3144818D01*
Y3137200D01*
Y3144818D01*
X2178635Y3147357D01*
X2181174Y3144818D01*
Y3137200D01*
X2186252D02*
X2191331D01*
X2188792D01*
Y3147357D01*
X2186252D01*
X2198948Y3137200D02*
X2204027D01*
X2201488D01*
Y3152435D01*
X2198948D01*
X2211644Y3137200D02*
X2216723Y3142278D01*
Y3147357D01*
X2211644Y3152435D01*
X1965344Y3099100D02*
X1970422D01*
X1967883D01*
Y3114335D01*
X1965344Y3111796D01*
X1978040Y3099100D02*
Y3101639D01*
X1980579D01*
Y3099100D01*
X1978040D01*
X2000892D02*
X1990736D01*
X2000892Y3109257D01*
Y3111796D01*
X1998353Y3114335D01*
X1993275D01*
X1990736Y3111796D01*
X2005971D02*
X2008510Y3114335D01*
X2013588D01*
X2016127Y3111796D01*
Y3101639D01*
X2013588Y3099100D01*
X2008510D01*
X2005971Y3101639D01*
Y3111796D01*
X2021206D02*
X2023745Y3114335D01*
X2028823D01*
X2031363Y3111796D01*
Y3101639D01*
X2028823Y3099100D01*
X2023745D01*
X2021206Y3101639D01*
Y3111796D01*
X2036441Y3099100D02*
Y3109257D01*
X2038980D01*
X2041519Y3106718D01*
Y3099100D01*
Y3106718D01*
X2044059Y3109257D01*
X2046598Y3106718D01*
Y3099100D01*
X2051676D02*
Y3109257D01*
X2054215D01*
X2056754Y3106718D01*
Y3099100D01*
Y3106718D01*
X2059294Y3109257D01*
X2061833Y3106718D01*
Y3099100D01*
X2087224D02*
X2082146Y3104178D01*
Y3109257D01*
X2087224Y3114335D01*
X2102460Y3099100D02*
Y3114335D01*
X2094842Y3106718D01*
X2104999D01*
X2110077Y3114335D02*
X2120234D01*
Y3111796D01*
X2110077Y3101639D01*
Y3099100D01*
X2125312D02*
Y3101639D01*
X2127851D01*
Y3099100D01*
X2125312D01*
X2148165D02*
X2138008D01*
X2148165Y3109257D01*
Y3111796D01*
X2145626Y3114335D01*
X2140547D01*
X2138008Y3111796D01*
X2160861Y3099100D02*
Y3114335D01*
X2153243Y3106718D01*
X2163400D01*
X2168478Y3099100D02*
Y3109257D01*
X2171017D01*
X2173557Y3106718D01*
Y3099100D01*
Y3106718D01*
X2176096Y3109257D01*
X2178635Y3106718D01*
Y3099100D01*
X2183713D02*
X2188792D01*
X2186252D01*
Y3109257D01*
X2183713D01*
X2196409Y3099100D02*
X2201487D01*
X2198948D01*
Y3114335D01*
X2196409D01*
X2209105Y3099100D02*
X2214183Y3104178D01*
Y3109257D01*
X2209105Y3114335D01*
X1965344Y3061000D02*
X1970422D01*
X1967883D01*
Y3076235D01*
X1965344Y3073696D01*
X1978040Y3061000D02*
Y3063539D01*
X1980579D01*
Y3061000D01*
X1978040D01*
X2000892D02*
X1990736D01*
X2000892Y3071157D01*
Y3073696D01*
X1998353Y3076235D01*
X1993275D01*
X1990736Y3073696D01*
X2016127Y3076235D02*
X2005971D01*
Y3068618D01*
X2011049Y3071157D01*
X2013588D01*
X2016127Y3068618D01*
Y3063539D01*
X2013588Y3061000D01*
X2008510D01*
X2005971Y3063539D01*
X2021206Y3073696D02*
X2023745Y3076235D01*
X2028823D01*
X2031363Y3073696D01*
Y3063539D01*
X2028823Y3061000D01*
X2023745D01*
X2021206Y3063539D01*
Y3073696D01*
X2036441Y3061000D02*
Y3071157D01*
X2038980D01*
X2041519Y3068618D01*
Y3061000D01*
Y3068618D01*
X2044059Y3071157D01*
X2046598Y3068618D01*
Y3061000D01*
X2051676D02*
Y3071157D01*
X2054215D01*
X2056754Y3068618D01*
Y3061000D01*
Y3068618D01*
X2059294Y3071157D01*
X2061833Y3068618D01*
Y3061000D01*
X2087224D02*
X2082146Y3066078D01*
Y3071157D01*
X2087224Y3076235D01*
X2102460Y3061000D02*
Y3076235D01*
X2094842Y3068618D01*
X2104999D01*
X2110077Y3063539D02*
X2112616Y3061000D01*
X2117695D01*
X2120234Y3063539D01*
Y3073696D01*
X2117695Y3076235D01*
X2112616D01*
X2110077Y3073696D01*
Y3071157D01*
X2112616Y3068618D01*
X2120234D01*
X2125312Y3061000D02*
Y3063539D01*
X2127851D01*
Y3061000D01*
X2125312D01*
X2148165D02*
X2138008D01*
X2148165Y3071157D01*
Y3073696D01*
X2145626Y3076235D01*
X2140547D01*
X2138008Y3073696D01*
X2153243Y3061000D02*
X2158322D01*
X2155782D01*
Y3076235D01*
X2153243Y3073696D01*
X2165939Y3061000D02*
Y3071157D01*
X2168478D01*
X2171017Y3068618D01*
Y3061000D01*
Y3068618D01*
X2173557Y3071157D01*
X2176096Y3068618D01*
Y3061000D01*
X2181174D02*
X2186252D01*
X2183713D01*
Y3071157D01*
X2181174D01*
X2193870Y3061000D02*
X2198948D01*
X2196409D01*
Y3076235D01*
X2193870D01*
X2206566Y3061000D02*
X2211644Y3066078D01*
Y3071157D01*
X2206566Y3076235D01*
X1965344Y3022900D02*
X1970422D01*
X1967883D01*
Y3038135D01*
X1965344Y3035596D01*
X1978040Y3022900D02*
Y3025439D01*
X1980579D01*
Y3022900D01*
X1978040D01*
X2000892Y3038135D02*
X1990736D01*
Y3030518D01*
X1995814Y3033057D01*
X1998353D01*
X2000892Y3030518D01*
Y3025439D01*
X1998353Y3022900D01*
X1993275D01*
X1990736Y3025439D01*
X2005971Y3035596D02*
X2008510Y3038135D01*
X2013588D01*
X2016127Y3035596D01*
Y3025439D01*
X2013588Y3022900D01*
X2008510D01*
X2005971Y3025439D01*
Y3035596D01*
X2021206D02*
X2023745Y3038135D01*
X2028823D01*
X2031363Y3035596D01*
Y3025439D01*
X2028823Y3022900D01*
X2023745D01*
X2021206Y3025439D01*
Y3035596D01*
X2036441Y3022900D02*
Y3033057D01*
X2038980D01*
X2041519Y3030518D01*
Y3022900D01*
Y3030518D01*
X2044059Y3033057D01*
X2046598Y3030518D01*
Y3022900D01*
X2051676D02*
Y3033057D01*
X2054215D01*
X2056754Y3030518D01*
Y3022900D01*
Y3030518D01*
X2059294Y3033057D01*
X2061833Y3030518D01*
Y3022900D01*
X2087224D02*
X2082146Y3027978D01*
Y3033057D01*
X2087224Y3038135D01*
X2104999D02*
X2094842D01*
Y3030518D01*
X2099920Y3033057D01*
X2102460D01*
X2104999Y3030518D01*
Y3025439D01*
X2102460Y3022900D01*
X2097381D01*
X2094842Y3025439D01*
X2110077D02*
X2112616Y3022900D01*
X2117695D01*
X2120234Y3025439D01*
Y3035596D01*
X2117695Y3038135D01*
X2112616D01*
X2110077Y3035596D01*
Y3033057D01*
X2112616Y3030518D01*
X2120234D01*
X2125312Y3022900D02*
Y3025439D01*
X2127851D01*
Y3022900D01*
X2125312D01*
X2138008Y3035596D02*
X2140547Y3038135D01*
X2145626D01*
X2148165Y3035596D01*
Y3025439D01*
X2145626Y3022900D01*
X2140547D01*
X2138008Y3025439D01*
Y3035596D01*
X2163400Y3038135D02*
X2158322Y3035596D01*
X2153243Y3030518D01*
Y3025439D01*
X2155782Y3022900D01*
X2160861D01*
X2163400Y3025439D01*
Y3027978D01*
X2160861Y3030518D01*
X2153243D01*
X2168478Y3022900D02*
Y3033057D01*
X2171017D01*
X2173557Y3030518D01*
Y3022900D01*
Y3030518D01*
X2176096Y3033057D01*
X2178635Y3030518D01*
Y3022900D01*
X2183713D02*
X2188792D01*
X2186252D01*
Y3033057D01*
X2183713D01*
X2196409Y3022900D02*
X2201487D01*
X2198948D01*
Y3038135D01*
X2196409D01*
X2209105Y3022900D02*
X2214183Y3027978D01*
Y3033057D01*
X2209105Y3038135D01*
X1965344Y2984800D02*
X1970422D01*
X1967883D01*
Y3000035D01*
X1965344Y2997496D01*
X1978040D02*
X1980579Y3000035D01*
X1985657D01*
X1988197Y2997496D01*
Y2987339D01*
X1985657Y2984800D01*
X1980579D01*
X1978040Y2987339D01*
Y2997496D01*
X1993275Y2984800D02*
Y2987339D01*
X1995814D01*
Y2984800D01*
X1993275D01*
X2016127Y3000035D02*
X2005971D01*
Y2992418D01*
X2011049Y2994957D01*
X2013588D01*
X2016127Y2992418D01*
Y2987339D01*
X2013588Y2984800D01*
X2008510D01*
X2005971Y2987339D01*
X2021206Y2997496D02*
X2023745Y3000035D01*
X2028823D01*
X2031363Y2997496D01*
Y2987339D01*
X2028823Y2984800D01*
X2023745D01*
X2021206Y2987339D01*
Y2997496D01*
X2036441D02*
X2038980Y3000035D01*
X2044059D01*
X2046598Y2997496D01*
Y2987339D01*
X2044059Y2984800D01*
X2038980D01*
X2036441Y2987339D01*
Y2997496D01*
X2051676Y2984800D02*
Y2994957D01*
X2054215D01*
X2056754Y2992418D01*
Y2984800D01*
Y2992418D01*
X2059294Y2994957D01*
X2061833Y2992418D01*
Y2984800D01*
X2066911D02*
Y2994957D01*
X2069450D01*
X2071989Y2992418D01*
Y2984800D01*
Y2992418D01*
X2074529Y2994957D01*
X2077068Y2992418D01*
Y2984800D01*
X2102460D02*
X2097381Y2989878D01*
Y2994957D01*
X2102460Y3000035D01*
X2117695Y2984800D02*
Y3000035D01*
X2110077Y2992418D01*
X2120234D01*
X2125312Y2984800D02*
X2130391D01*
X2127851D01*
Y3000035D01*
X2125312Y2997496D01*
X2138008D02*
X2140547Y3000035D01*
X2145626D01*
X2148165Y2997496D01*
Y2994957D01*
X2145626Y2992418D01*
X2143086D01*
X2145626D01*
X2148165Y2989878D01*
Y2987339D01*
X2145626Y2984800D01*
X2140547D01*
X2138008Y2987339D01*
X2153243Y2984800D02*
Y2987339D01*
X2155782D01*
Y2984800D01*
X2153243D01*
X2165939Y2997496D02*
X2168478Y3000035D01*
X2173557D01*
X2176096Y2997496D01*
Y2994957D01*
X2173557Y2992418D01*
X2171017D01*
X2173557D01*
X2176096Y2989878D01*
Y2987339D01*
X2173557Y2984800D01*
X2168478D01*
X2165939Y2987339D01*
X2181174D02*
X2183713Y2984800D01*
X2188792D01*
X2191331Y2987339D01*
Y2997496D01*
X2188792Y3000035D01*
X2183713D01*
X2181174Y2997496D01*
Y2994957D01*
X2183713Y2992418D01*
X2191331D01*
X2196409Y2984800D02*
Y2994957D01*
X2198948D01*
X2201487Y2992418D01*
Y2984800D01*
Y2992418D01*
X2204027Y2994957D01*
X2206566Y2992418D01*
Y2984800D01*
X2211644D02*
X2216723D01*
X2214184D01*
Y2994957D01*
X2211644D01*
X2224340Y2984800D02*
X2229418D01*
X2226879D01*
Y3000035D01*
X2224340D01*
X2237036Y2984800D02*
X2242114Y2989878D01*
Y2994957D01*
X2237036Y3000035D01*
X1965344Y2959396D02*
X1967883Y2961935D01*
X1972961D01*
X1975501Y2959396D01*
Y2956857D01*
X1972961Y2954318D01*
X1970422D01*
X1972961D01*
X1975501Y2951778D01*
Y2949239D01*
X1972961Y2946700D01*
X1967883D01*
X1965344Y2949239D01*
X1980579Y2946700D02*
Y2949239D01*
X1983118D01*
Y2946700D01*
X1980579D01*
X1993275Y2959396D02*
X1995814Y2961935D01*
X2000892D01*
X2003432Y2959396D01*
Y2949239D01*
X2000892Y2946700D01*
X1995814D01*
X1993275Y2949239D01*
Y2959396D01*
X2008510D02*
X2011049Y2961935D01*
X2016127D01*
X2018667Y2959396D01*
Y2949239D01*
X2016127Y2946700D01*
X2011049D01*
X2008510Y2949239D01*
Y2959396D01*
X2023745D02*
X2026284Y2961935D01*
X2031363D01*
X2033902Y2959396D01*
Y2949239D01*
X2031363Y2946700D01*
X2026284D01*
X2023745Y2949239D01*
Y2959396D01*
X2038980Y2946700D02*
Y2956857D01*
X2041519D01*
X2044059Y2954318D01*
Y2946700D01*
Y2954318D01*
X2046598Y2956857D01*
X2049137Y2954318D01*
Y2946700D01*
X2054215D02*
Y2956857D01*
X2056754D01*
X2059294Y2954318D01*
Y2946700D01*
Y2954318D01*
X2061833Y2956857D01*
X2064372Y2954318D01*
Y2946700D01*
X2089764D02*
X2084685Y2951778D01*
Y2956857D01*
X2089764Y2961935D01*
X2097381Y2946700D02*
X2102460D01*
X2099920D01*
Y2961935D01*
X2097381Y2959396D01*
X2110077Y2946700D02*
X2115155D01*
X2112616D01*
Y2961935D01*
X2110077Y2959396D01*
X2122773D02*
X2125312Y2961935D01*
X2130391D01*
X2132930Y2959396D01*
Y2956857D01*
X2130391Y2954318D01*
X2132930Y2951778D01*
Y2949239D01*
X2130391Y2946700D01*
X2125312D01*
X2122773Y2949239D01*
Y2951778D01*
X2125312Y2954318D01*
X2122773Y2956857D01*
Y2959396D01*
X2125312Y2954318D02*
X2130391D01*
X2138008Y2946700D02*
Y2949239D01*
X2140547D01*
Y2946700D01*
X2138008D01*
X2150704D02*
X2155782D01*
X2153243D01*
Y2961935D01*
X2150704Y2959396D01*
X2163400Y2946700D02*
X2168478D01*
X2165939D01*
Y2961935D01*
X2163400Y2959396D01*
X2176096Y2946700D02*
Y2956857D01*
X2178635D01*
X2181174Y2954318D01*
Y2946700D01*
Y2954318D01*
X2183713Y2956857D01*
X2186252Y2954318D01*
Y2946700D01*
X2191331D02*
X2196409D01*
X2193870D01*
Y2956857D01*
X2191331D01*
X2204027Y2946700D02*
X2209105D01*
X2206566D01*
Y2961935D01*
X2204027D01*
X2216723Y2946700D02*
X2221801Y2951778D01*
Y2956857D01*
X2216723Y2961935D01*
X1965344Y2908600D02*
X1970422D01*
X1967883D01*
Y2923835D01*
X1965344Y2921296D01*
X1978040Y2908600D02*
Y2911139D01*
X1980579D01*
Y2908600D01*
X1978040D01*
X1998353D02*
Y2923835D01*
X1990736Y2916218D01*
X2000892D01*
X2005971Y2921296D02*
X2008510Y2923835D01*
X2013588D01*
X2016127Y2921296D01*
Y2911139D01*
X2013588Y2908600D01*
X2008510D01*
X2005971Y2911139D01*
Y2921296D01*
X2021206D02*
X2023745Y2923835D01*
X2028823D01*
X2031363Y2921296D01*
Y2911139D01*
X2028823Y2908600D01*
X2023745D01*
X2021206Y2911139D01*
Y2921296D01*
X2036441Y2908600D02*
Y2918757D01*
X2038980D01*
X2041519Y2916218D01*
Y2908600D01*
Y2916218D01*
X2044059Y2918757D01*
X2046598Y2916218D01*
Y2908600D01*
X2051676D02*
Y2918757D01*
X2054215D01*
X2056754Y2916218D01*
Y2908600D01*
Y2916218D01*
X2059294Y2918757D01*
X2061833Y2916218D01*
Y2908600D01*
X2087224D02*
X2082146Y2913678D01*
Y2918757D01*
X2087224Y2923835D01*
X2104999D02*
X2094842D01*
Y2916218D01*
X2099920Y2918757D01*
X2102460D01*
X2104999Y2916218D01*
Y2911139D01*
X2102460Y2908600D01*
X2097381D01*
X2094842Y2911139D01*
X2120234Y2923835D02*
X2110077D01*
Y2916218D01*
X2115155Y2918757D01*
X2117695D01*
X2120234Y2916218D01*
Y2911139D01*
X2117695Y2908600D01*
X2112616D01*
X2110077Y2911139D01*
X2125312Y2908600D02*
Y2911139D01*
X2127851D01*
Y2908600D01*
X2125312D01*
X2138008D02*
X2143086D01*
X2140547D01*
Y2923835D01*
X2138008Y2921296D01*
X2160861Y2908600D02*
X2150704D01*
X2160861Y2918757D01*
Y2921296D01*
X2158322Y2923835D01*
X2153243D01*
X2150704Y2921296D01*
X2165939Y2908600D02*
Y2918757D01*
X2168478D01*
X2171017Y2916218D01*
Y2908600D01*
Y2916218D01*
X2173557Y2918757D01*
X2176096Y2916218D01*
Y2908600D01*
X2181174D02*
X2186252D01*
X2183713D01*
Y2918757D01*
X2181174D01*
X2193870Y2908600D02*
X2198948D01*
X2196409D01*
Y2923835D01*
X2193870D01*
X2206566Y2908600D02*
X2211644Y2913678D01*
Y2918757D01*
X2206566Y2923835D01*
X1965344Y2883196D02*
X1967883Y2885735D01*
X1972961D01*
X1975501Y2883196D01*
Y2873039D01*
X1972961Y2870500D01*
X1967883D01*
X1965344Y2873039D01*
Y2883196D01*
X1980579Y2870500D02*
Y2873039D01*
X1983118D01*
Y2870500D01*
X1980579D01*
X1993275Y2883196D02*
X1995814Y2885735D01*
X2000892D01*
X2003432Y2883196D01*
Y2880657D01*
X2000892Y2878117D01*
X1998353D01*
X2000892D01*
X2003432Y2875578D01*
Y2873039D01*
X2000892Y2870500D01*
X1995814D01*
X1993275Y2873039D01*
X2008510Y2883196D02*
X2011049Y2885735D01*
X2016127D01*
X2018667Y2883196D01*
Y2873039D01*
X2016127Y2870500D01*
X2011049D01*
X2008510Y2873039D01*
Y2883196D01*
X2023745D02*
X2026284Y2885735D01*
X2031363D01*
X2033902Y2883196D01*
Y2873039D01*
X2031363Y2870500D01*
X2026284D01*
X2023745Y2873039D01*
Y2883196D01*
X2038980Y2870500D02*
Y2880657D01*
X2041519D01*
X2044059Y2878117D01*
Y2870500D01*
Y2878117D01*
X2046598Y2880657D01*
X2049137Y2878117D01*
Y2870500D01*
X2054215D02*
Y2880657D01*
X2056754D01*
X2059294Y2878117D01*
Y2870500D01*
Y2878117D01*
X2061833Y2880657D01*
X2064372Y2878117D01*
Y2870500D01*
X2089764D02*
X2084685Y2875578D01*
Y2880657D01*
X2089764Y2885735D01*
X2097381Y2870500D02*
X2102460D01*
X2099920D01*
Y2885735D01*
X2097381Y2883196D01*
X2110077Y2870500D02*
X2115155D01*
X2112616D01*
Y2885735D01*
X2110077Y2883196D01*
X2122773Y2870500D02*
Y2873039D01*
X2125312D01*
Y2870500D01*
X2122773D01*
X2135469Y2883196D02*
X2138008Y2885735D01*
X2143086D01*
X2145626Y2883196D01*
Y2880657D01*
X2143086Y2878117D01*
X2145626Y2875578D01*
Y2873039D01*
X2143086Y2870500D01*
X2138008D01*
X2135469Y2873039D01*
Y2875578D01*
X2138008Y2878117D01*
X2135469Y2880657D01*
Y2883196D01*
X2138008Y2878117D02*
X2143086D01*
X2150704Y2870500D02*
X2155782D01*
X2153243D01*
Y2885735D01*
X2150704Y2883196D01*
X2163400Y2870500D02*
Y2880657D01*
X2165939D01*
X2168478Y2878117D01*
Y2870500D01*
Y2878117D01*
X2171017Y2880657D01*
X2173557Y2878117D01*
Y2870500D01*
X2178635D02*
X2183713D01*
X2181174D01*
Y2880657D01*
X2178635D01*
X2191331Y2870500D02*
X2196409D01*
X2193870D01*
Y2885735D01*
X2191331D01*
X2204027Y2870500D02*
X2209105Y2875578D01*
Y2880657D01*
X2204027Y2885735D01*
X1965344Y2832400D02*
X1970422D01*
X1967883D01*
Y2847635D01*
X1965344Y2845096D01*
X1978040Y2832400D02*
Y2834939D01*
X1980579D01*
Y2832400D01*
X1978040D01*
X1990736Y2845096D02*
X1993275Y2847635D01*
X1998353D01*
X2000892Y2845096D01*
Y2834939D01*
X1998353Y2832400D01*
X1993275D01*
X1990736Y2834939D01*
Y2845096D01*
X2005971Y2832400D02*
X2011049D01*
X2008510D01*
Y2847635D01*
X2005971Y2845096D01*
X2028823Y2847635D02*
X2023745Y2845096D01*
X2018667Y2840017D01*
Y2834939D01*
X2021206Y2832400D01*
X2026284D01*
X2028823Y2834939D01*
Y2837478D01*
X2026284Y2840017D01*
X2018667D01*
X2033902Y2832400D02*
Y2842557D01*
X2036441D01*
X2038980Y2840017D01*
Y2832400D01*
Y2840017D01*
X2041519Y2842557D01*
X2044059Y2840017D01*
Y2832400D01*
X2049137D02*
Y2842557D01*
X2051676D01*
X2054215Y2840017D01*
Y2832400D01*
Y2840017D01*
X2056754Y2842557D01*
X2059294Y2840017D01*
Y2832400D01*
X2084685D02*
X2079607Y2837478D01*
Y2842557D01*
X2084685Y2847635D01*
X2099920Y2832400D02*
Y2847635D01*
X2092303Y2840017D01*
X2102460D01*
X2107538Y2845096D02*
X2110077Y2847635D01*
X2115155D01*
X2117695Y2845096D01*
Y2834939D01*
X2115155Y2832400D01*
X2110077D01*
X2107538Y2834939D01*
Y2845096D01*
X2122773Y2832400D02*
Y2834939D01*
X2125312D01*
Y2832400D01*
X2122773D01*
X2135469Y2845096D02*
X2138008Y2847635D01*
X2143086D01*
X2145626Y2845096D01*
Y2834939D01*
X2143086Y2832400D01*
X2138008D01*
X2135469Y2834939D01*
Y2845096D01*
X2150704D02*
X2153243Y2847635D01*
X2158322D01*
X2160861Y2845096D01*
Y2834939D01*
X2158322Y2832400D01*
X2153243D01*
X2150704Y2834939D01*
Y2845096D01*
X2165939Y2832400D02*
Y2842557D01*
X2168478D01*
X2171017Y2840017D01*
Y2832400D01*
Y2840017D01*
X2173557Y2842557D01*
X2176096Y2840017D01*
Y2832400D01*
X2181174D02*
X2186252D01*
X2183713D01*
Y2842557D01*
X2181174D01*
X2193870Y2832400D02*
X2198948D01*
X2196409D01*
Y2847635D01*
X2193870D01*
X2206566Y2832400D02*
X2211644Y2837478D01*
Y2842557D01*
X2206566Y2847635D01*
X1965344Y2794300D02*
X1970422D01*
X1967883D01*
Y2809535D01*
X1965344Y2806996D01*
X1978040Y2794300D02*
Y2796839D01*
X1980579D01*
Y2794300D01*
X1978040D01*
X1990736Y2796839D02*
X1993275Y2794300D01*
X1998353D01*
X2000892Y2796839D01*
Y2806996D01*
X1998353Y2809535D01*
X1993275D01*
X1990736Y2806996D01*
Y2804457D01*
X1993275Y2801917D01*
X2000892D01*
X2005971Y2806996D02*
X2008510Y2809535D01*
X2013588D01*
X2016127Y2806996D01*
Y2804457D01*
X2013588Y2801917D01*
X2011049D01*
X2013588D01*
X2016127Y2799378D01*
Y2796839D01*
X2013588Y2794300D01*
X2008510D01*
X2005971Y2796839D01*
X2021206Y2806996D02*
X2023745Y2809535D01*
X2028823D01*
X2031363Y2806996D01*
Y2796839D01*
X2028823Y2794300D01*
X2023745D01*
X2021206Y2796839D01*
Y2806996D01*
X2036441Y2794300D02*
Y2804457D01*
X2038980D01*
X2041519Y2801917D01*
Y2794300D01*
Y2801917D01*
X2044059Y2804457D01*
X2046598Y2801917D01*
Y2794300D01*
X2051676D02*
Y2804457D01*
X2054215D01*
X2056754Y2801917D01*
Y2794300D01*
Y2801917D01*
X2059294Y2804457D01*
X2061833Y2801917D01*
Y2794300D01*
X2087224D02*
X2082146Y2799378D01*
Y2804457D01*
X2087224Y2809535D01*
X2094842D02*
X2104999D01*
Y2806996D01*
X2094842Y2796839D01*
Y2794300D01*
X2120234Y2809535D02*
X2115155Y2806996D01*
X2110077Y2801917D01*
Y2796839D01*
X2112616Y2794300D01*
X2117695D01*
X2120234Y2796839D01*
Y2799378D01*
X2117695Y2801917D01*
X2110077D01*
X2125312Y2794300D02*
Y2796839D01*
X2127851D01*
Y2794300D01*
X2125312D01*
X2138008Y2806996D02*
X2140547Y2809535D01*
X2145626D01*
X2148165Y2806996D01*
Y2796839D01*
X2145626Y2794300D01*
X2140547D01*
X2138008Y2796839D01*
Y2806996D01*
X2153243D02*
X2155782Y2809535D01*
X2160861D01*
X2163400Y2806996D01*
Y2796839D01*
X2160861Y2794300D01*
X2155782D01*
X2153243Y2796839D01*
Y2806996D01*
X2168478Y2794300D02*
Y2804457D01*
X2171017D01*
X2173557Y2801917D01*
Y2794300D01*
Y2801917D01*
X2176096Y2804457D01*
X2178635Y2801917D01*
Y2794300D01*
X2183713D02*
X2188792D01*
X2186252D01*
Y2804457D01*
X2183713D01*
X2196409Y2794300D02*
X2201487D01*
X2198948D01*
Y2809535D01*
X2196409D01*
X2209105Y2794300D02*
X2214183Y2799378D01*
Y2804457D01*
X2209105Y2809535D01*
X1788099Y2756200D02*
X1793178D01*
X1790638D01*
Y2771435D01*
X1788099Y2768896D01*
X1800795D02*
X1803334Y2771435D01*
X1808413D01*
X1810952Y2768896D01*
Y2758739D01*
X1808413Y2756200D01*
X1803334D01*
X1800795Y2758739D01*
Y2768896D01*
X1816030Y2756200D02*
X1821109D01*
X1818569D01*
Y2771435D01*
X1816030Y2768896D01*
X1843961Y2771435D02*
X1854118D01*
X1849040D01*
Y2756200D01*
X1861736D02*
X1866814D01*
X1869353Y2758739D01*
Y2763817D01*
X1866814Y2766357D01*
X1861736D01*
X1859196Y2763817D01*
Y2758739D01*
X1861736Y2756200D01*
X1876971Y2768896D02*
Y2766357D01*
X1874431D01*
X1879510D01*
X1876971D01*
Y2758739D01*
X1879510Y2756200D01*
X1889666Y2766357D02*
X1894745D01*
X1897284Y2763817D01*
Y2756200D01*
X1889666D01*
X1887127Y2758739D01*
X1889666Y2761278D01*
X1897284D01*
X1902362Y2756200D02*
X1907441D01*
X1904901D01*
Y2771435D01*
X1902362D01*
X1798256Y3289600D02*
X1788099D01*
X1798256Y3299757D01*
Y3302296D01*
X1795717Y3304835D01*
X1790638D01*
X1788099Y3302296D01*
X1798256Y3251500D02*
X1788099D01*
X1798256Y3261657D01*
Y3264196D01*
X1795717Y3266735D01*
X1790638D01*
X1788099Y3264196D01*
Y3226096D02*
X1790638Y3228635D01*
X1795717D01*
X1798256Y3226096D01*
Y3223557D01*
X1795717Y3221017D01*
X1793178D01*
X1795717D01*
X1798256Y3218478D01*
Y3215939D01*
X1795717Y3213400D01*
X1790638D01*
X1788099Y3215939D01*
X1795717Y3175300D02*
Y3190535D01*
X1788099Y3182917D01*
X1798256D01*
X1795717Y3137200D02*
Y3152435D01*
X1788099Y3144818D01*
X1798256D01*
X1795717Y3099100D02*
Y3114335D01*
X1788099Y3106718D01*
X1798256D01*
X1795717Y3061000D02*
Y3076235D01*
X1788099Y3068618D01*
X1798256D01*
X1795717Y3022900D02*
Y3038135D01*
X1788099Y3030518D01*
X1798256D01*
X1795717Y2984800D02*
Y3000035D01*
X1788099Y2992418D01*
X1798256D01*
Y2961935D02*
X1788099D01*
Y2954318D01*
X1793178Y2956857D01*
X1795717D01*
X1798256Y2954318D01*
Y2949239D01*
X1795717Y2946700D01*
X1790638D01*
X1788099Y2949239D01*
X1798256Y2923835D02*
X1793178Y2921296D01*
X1788099Y2916218D01*
Y2911139D01*
X1790638Y2908600D01*
X1795717D01*
X1798256Y2911139D01*
Y2913678D01*
X1795717Y2916218D01*
X1788099D01*
Y2870500D02*
X1793178D01*
X1790638D01*
Y2885735D01*
X1788099Y2883196D01*
X1810952Y2885735D02*
X1800795D01*
Y2878117D01*
X1805874Y2880657D01*
X1808413D01*
X1810952Y2878117D01*
Y2873039D01*
X1808413Y2870500D01*
X1803334D01*
X1800795Y2873039D01*
X1798256Y2832400D02*
X1788099D01*
X1798256Y2842557D01*
Y2845096D01*
X1795717Y2847635D01*
X1790638D01*
X1788099Y2845096D01*
X1803334D02*
X1805874Y2847635D01*
X1810952D01*
X1813491Y2845096D01*
Y2834939D01*
X1810952Y2832400D01*
X1805874D01*
X1803334Y2834939D01*
Y2845096D01*
X1798256Y2794300D02*
X1788099D01*
X1798256Y2804457D01*
Y2806996D01*
X1795717Y2809535D01*
X1790638D01*
X1788099Y2806996D01*
X1810952Y2794300D02*
Y2809535D01*
X1803334Y2801917D01*
X1813491D01*
D71*
X1664211Y2991150D02*
G03*
X1664211Y2991150I-3810J0D01*
G01*
X1666751D02*
G03*
X1666751Y2991150I-6350J0D01*
G01*
Y2838750D02*
G03*
X1666751Y2838750I-6350J0D01*
G01*
X2830833Y1202000D02*
G03*
X2830833Y1202000I-4233J0D01*
G01*
X2780034D02*
G03*
X2780034Y1202000I-4233J0D01*
G01*
X2754633D02*
G03*
X2754633Y1202000I-4233J0D01*
G01*
X2703834D02*
G03*
X2703834Y1202000I-4233J0D01*
G01*
X2604333D02*
G03*
X2604333Y1202000I-4233J0D01*
G01*
X2578933D02*
G03*
X2578933Y1202000I-4233J0D01*
G01*
X2553533D02*
G03*
X2553533Y1202000I-4233J0D01*
G01*
X2449834D02*
G03*
X2449834Y1202000I-4233J0D01*
G01*
X2424433D02*
G03*
X2424433Y1202000I-4233J0D01*
G01*
X2373634D02*
G03*
X2373634Y1202000I-4233J0D01*
G01*
X2399034D02*
G03*
X2399034Y1202000I-4233J0D01*
G01*
X2297433D02*
G03*
X2297433Y1202000I-4233J0D01*
G01*
X2272034D02*
G03*
X2272034Y1202000I-4233J0D01*
G01*
X2322834D02*
G03*
X2322834Y1202000I-4233J0D01*
G01*
X2348233D02*
G03*
X2348233Y1202000I-4233J0D01*
G01*
X2246633D02*
G03*
X2246633Y1202000I-4233J0D01*
G01*
X2195833D02*
G03*
X2195833Y1202000I-4233J0D01*
G01*
X2221234D02*
G03*
X2221234Y1202000I-4233J0D01*
G01*
X2145034D02*
G03*
X2145034Y1202000I-4233J0D01*
G01*
X2119633D02*
G03*
X2119633Y1202000I-4233J0D01*
G01*
X2279790Y2482000D02*
G03*
X2279790Y2482000I-2540J0D01*
G01*
X2281483D02*
G03*
X2281483Y2482000I-4233J0D01*
G01*
X1799790D02*
G03*
X1799790Y2482000I-2540J0D01*
G01*
X1801483D02*
G03*
X1801483Y2482000I-4233J0D01*
G01*
X1799790Y1522000D02*
G03*
X1799790Y1522000I-2540J0D01*
G01*
X1801483D02*
G03*
X1801483Y1522000I-4233J0D01*
G01*
X2279790D02*
G03*
X2279790Y1522000I-2540J0D01*
G01*
X2281483D02*
G03*
X2281483Y1522000I-4233J0D01*
G01*
X1654051Y3289600D02*
X1666751D01*
Y3302300D01*
X1654051D02*
X1666751D01*
X1654051Y3289600D02*
Y3302300D01*
X1656591Y3254040D02*
X1660401Y3255945D01*
X1664211Y3254040D01*
X1662306Y3257850D02*
X1664211Y3254040D01*
X1662306Y3257850D02*
X1664211Y3261660D01*
X1660401Y3259755D02*
X1664211Y3261660D01*
X1656591D02*
X1660401Y3259755D01*
X1656591Y3261660D02*
X1658496Y3257850D01*
X1656591Y3254040D02*
X1658496Y3257850D01*
X1654051Y3251500D02*
X1660401Y3254675D01*
X1666751Y3251500D01*
X1663576Y3257850D02*
X1666751Y3251500D01*
X1663576Y3257850D02*
X1666751Y3264200D01*
X1660401Y3261025D02*
X1666751Y3264200D01*
X1654051D02*
X1660401Y3261025D01*
X1654051Y3264200D02*
X1657226Y3257850D01*
X1654051Y3251500D02*
X1657226Y3257850D01*
X1660401Y3213400D02*
X1666751Y3226100D01*
X1654051D02*
X1666751D01*
X1654051D02*
X1660401Y3213400D01*
X1658496Y3179745D02*
X1660401Y3177840D01*
X1656591Y3179745D02*
X1658496D01*
X1656591D02*
X1658496Y3181650D01*
X1656591Y3183555D02*
X1658496Y3181650D01*
X1656591Y3183555D02*
X1658496D01*
X1660401Y3185460D01*
X1662306Y3183555D01*
X1664211D01*
X1662306Y3181650D02*
X1664211Y3183555D01*
X1662306Y3181650D02*
X1664211Y3179745D01*
X1662306D02*
X1664211D01*
X1660401Y3177840D02*
X1662306Y3179745D01*
X1657226Y3178475D02*
X1660401Y3175300D01*
X1654051Y3178475D02*
X1657226D01*
X1654051D02*
X1657226Y3181650D01*
X1654051Y3184825D02*
X1657226Y3181650D01*
X1654051Y3184825D02*
X1657226D01*
X1660401Y3188000D01*
X1663576Y3184825D01*
X1666751D01*
X1663576Y3181650D02*
X1666751Y3184825D01*
X1663576Y3181650D02*
X1666751Y3178475D01*
X1663576D02*
X1666751D01*
X1660401Y3175300D02*
X1663576Y3178475D01*
X1656591Y3141645D02*
X1658496D01*
X1656591D02*
Y3145455D01*
X1658496D01*
Y3147360D01*
X1662306D01*
Y3145455D02*
Y3147360D01*
Y3145455D02*
X1664211D01*
Y3141645D02*
Y3145455D01*
X1662306Y3141645D02*
X1664211D01*
X1662306Y3139740D02*
Y3141645D01*
X1658496Y3139740D02*
X1662306D01*
X1658496D02*
Y3141645D01*
X1654051Y3140375D02*
X1657226D01*
X1654051D02*
Y3146725D01*
X1657226D01*
Y3149900D01*
X1663576D01*
Y3146725D02*
Y3149900D01*
Y3146725D02*
X1666751D01*
Y3140375D02*
Y3146725D01*
X1663576Y3140375D02*
X1666751D01*
X1663576Y3137200D02*
Y3140375D01*
X1657226Y3137200D02*
X1663576D01*
X1657226D02*
Y3140375D01*
Y3102275D02*
X1660401Y3099100D01*
X1654051Y3102275D02*
X1657226D01*
X1654051D02*
X1657226Y3105450D01*
X1654051Y3108625D02*
X1657226Y3105450D01*
X1654051Y3108625D02*
X1657226D01*
X1660401Y3111800D01*
X1663576Y3108625D01*
X1666751D01*
X1663576Y3105450D02*
X1666751Y3108625D01*
X1663576Y3105450D02*
X1666751Y3102275D01*
X1663576D02*
X1666751D01*
X1660401Y3099100D02*
X1663576Y3102275D01*
X1654051Y3061000D02*
X1660401Y3064175D01*
X1666751Y3061000D01*
X1663576Y3067350D02*
X1666751Y3061000D01*
X1663576Y3067350D02*
X1666751Y3073700D01*
X1660401Y3070525D02*
X1666751Y3073700D01*
X1654051D02*
X1660401Y3070525D01*
X1654051Y3073700D02*
X1657226Y3067350D01*
X1654051Y3061000D02*
X1657226Y3067350D01*
X1654051Y3022900D02*
Y3026075D01*
X1657226Y3029250D01*
X1654051Y3032425D02*
X1657226Y3029250D01*
X1654051Y3032425D02*
Y3035600D01*
X1657226D01*
X1660401Y3032425D01*
X1663576Y3035600D01*
X1666751D01*
Y3032425D02*
Y3035600D01*
X1663576Y3029250D02*
X1666751Y3032425D01*
X1663576Y3029250D02*
X1666751Y3026075D01*
Y3022900D02*
Y3026075D01*
X1663576Y3022900D02*
X1666751D01*
X1660401Y3026075D02*
X1663576Y3022900D01*
X1657226D02*
X1660401Y3026075D01*
X1654051Y3022900D02*
X1657226D01*
X1656591Y2949240D02*
Y2951145D01*
X1658496Y2953050D01*
X1656591Y2954955D02*
X1658496Y2953050D01*
X1656591Y2954955D02*
Y2956860D01*
X1658496D01*
X1660401Y2954955D01*
X1662306Y2956860D01*
X1664211D01*
Y2954955D02*
Y2956860D01*
X1662306Y2953050D02*
X1664211Y2954955D01*
X1662306Y2953050D02*
X1664211Y2951145D01*
Y2949240D02*
Y2951145D01*
X1662306Y2949240D02*
X1664211D01*
X1660401Y2951145D02*
X1662306Y2949240D01*
X1658496D02*
X1660401Y2951145D01*
X1656591Y2949240D02*
X1658496D01*
X1654051Y2946700D02*
Y2949875D01*
X1657226Y2953050D01*
X1654051Y2956225D02*
X1657226Y2953050D01*
X1654051Y2956225D02*
Y2959400D01*
X1657226D01*
X1660401Y2956225D01*
X1663576Y2959400D01*
X1666751D01*
Y2956225D02*
Y2959400D01*
X1663576Y2953050D02*
X1666751Y2956225D01*
X1663576Y2953050D02*
X1666751Y2949875D01*
Y2946700D02*
Y2949875D01*
X1663576Y2946700D02*
X1666751D01*
X1660401Y2949875D02*
X1663576Y2946700D01*
X1657226D02*
X1660401Y2949875D01*
X1654051Y2946700D02*
X1657226D01*
X1654051Y2911775D02*
X1657226D01*
X1654051D02*
Y2918125D01*
X1657226D01*
Y2921300D01*
X1663576D01*
Y2918125D02*
Y2921300D01*
Y2918125D02*
X1666751D01*
Y2911775D02*
Y2918125D01*
X1663576Y2911775D02*
X1666751D01*
X1663576Y2908600D02*
Y2911775D01*
X1657226Y2908600D02*
X1663576D01*
X1657226D02*
Y2911775D01*
X1660401Y2873040D02*
X1664211Y2880660D01*
X1656591D02*
X1664211D01*
X1656591D02*
X1660401Y2873040D01*
Y2870500D02*
X1666751Y2883200D01*
X1654051D02*
X1666751D01*
X1654051D02*
X1660401Y2870500D01*
X1654051Y2800650D02*
X1660401Y2794300D01*
X1666751Y2800650D01*
X1660401Y2807000D02*
X1666751Y2800650D01*
X1654051D02*
X1660401Y2807000D01*
X2558000Y2194460D02*
X2560540Y2199540D01*
X2555460D02*
X2560540D01*
X2555460D02*
X2558000Y2194460D01*
Y2192767D02*
X2562233Y2201233D01*
X2553767D02*
X2562233D01*
X2553767D02*
X2558000Y2192767D01*
X2417000Y2187460D02*
X2419540Y2192540D01*
X2414460D02*
X2419540D01*
X2414460D02*
X2417000Y2187460D01*
Y2185767D02*
X2421233Y2194233D01*
X2412767D02*
X2421233D01*
X2412767D02*
X2417000Y2185767D01*
X2586000Y2012460D02*
X2588540Y2017540D01*
X2583460D02*
X2588540D01*
X2583460D02*
X2586000Y2012460D01*
Y2010767D02*
X2590233Y2019233D01*
X2581767D02*
X2590233D01*
X2581767D02*
X2586000Y2010767D01*
X2453000Y2021460D02*
X2455540Y2026540D01*
X2450460D02*
X2455540D01*
X2450460D02*
X2453000Y2021460D01*
Y2019767D02*
X2457233Y2028233D01*
X2448767D02*
X2457233D01*
X2448767D02*
X2453000Y2019767D01*
X1648344Y1283460D02*
X1650884Y1288540D01*
X1645804D02*
X1650884D01*
X1645804D02*
X1648344Y1283460D01*
Y1281767D02*
X1652577Y1290233D01*
X1644111D02*
X1652577D01*
X1644111D02*
X1648344Y1281767D01*
X1787344Y1283360D02*
X1789884Y1288440D01*
X1784804D02*
X1789884D01*
X1784804D02*
X1787344Y1283360D01*
Y1281667D02*
X1791577Y1290133D01*
X1783111D02*
X1791577D01*
X1783111D02*
X1787344Y1281667D01*
X1802844Y1302760D02*
X1805384Y1307840D01*
X1800304D02*
X1805384D01*
X1800304D02*
X1802844Y1302760D01*
Y1301067D02*
X1807077Y1309533D01*
X1798611D02*
X1807077D01*
X1798611D02*
X1802844Y1301067D01*
X1815344Y1302760D02*
X1817884Y1307840D01*
X1812804D02*
X1817884D01*
X1812804D02*
X1815344Y1302760D01*
Y1301067D02*
X1819577Y1309533D01*
X1811111D02*
X1819577D01*
X1811111D02*
X1815344Y1301067D01*
X1827844Y1302760D02*
X1830384Y1307840D01*
X1825304D02*
X1830384D01*
X1825304D02*
X1827844Y1302760D01*
Y1301067D02*
X1832077Y1309533D01*
X1823611D02*
X1832077D01*
X1823611D02*
X1827844Y1301067D01*
X2343000Y1379460D02*
X2345540Y1384540D01*
X2340460D02*
X2345540D01*
X2340460D02*
X2343000Y1379460D01*
Y1377767D02*
X2347233Y1386233D01*
X2338767D02*
X2347233D01*
X2338767D02*
X2343000Y1377767D01*
X2350000Y1388460D02*
X2352540Y1393540D01*
X2347460D02*
X2352540D01*
X2347460D02*
X2350000Y1388460D01*
Y1386767D02*
X2354233Y1395233D01*
X2345767D02*
X2354233D01*
X2345767D02*
X2350000Y1386767D01*
X2278250Y1339960D02*
X2280790Y1345040D01*
X2275710D02*
X2280790D01*
X2275710D02*
X2278250Y1339960D01*
Y1338266D02*
X2282483Y1346733D01*
X2274017D02*
X2282483D01*
X2274017D02*
X2278250Y1338266D01*
X2295600Y1349460D02*
X2298140Y1354540D01*
X2293060D02*
X2298140D01*
X2293060D02*
X2295600Y1349460D01*
Y1347767D02*
X2299833Y1356233D01*
X2291367D02*
X2299833D01*
X2291367D02*
X2295600Y1347767D01*
X2563000Y2100210D02*
X2565540Y2105290D01*
X2560460D02*
X2565540D01*
X2560460D02*
X2563000Y2100210D01*
Y2098517D02*
X2567233Y2106983D01*
X2558767D02*
X2567233D01*
X2558767D02*
X2563000Y2098517D01*
X2438000Y2109460D02*
X2440540Y2114540D01*
X2435460D02*
X2440540D01*
X2435460D02*
X2438000Y2109460D01*
Y2107767D02*
X2442233Y2116233D01*
X2433767D02*
X2442233D01*
X2433767D02*
X2438000Y2107767D01*
X1610460Y1678460D02*
Y1679730D01*
X1611730Y1681000D01*
X1610460Y1682270D02*
X1611730Y1681000D01*
X1610460Y1682270D02*
Y1683540D01*
X1611730D01*
X1613000Y1682270D01*
X1614270Y1683540D01*
X1615540D01*
Y1682270D02*
Y1683540D01*
X1614270Y1681000D02*
X1615540Y1682270D01*
X1614270Y1681000D02*
X1615540Y1679730D01*
Y1678460D02*
Y1679730D01*
X1614270Y1678460D02*
X1615540D01*
X1613000Y1679730D02*
X1614270Y1678460D01*
X1611730D02*
X1613000Y1679730D01*
X1610460Y1678460D02*
X1611730D01*
X1608767Y1676767D02*
Y1678883D01*
X1610883Y1681000D01*
X1608767Y1683117D02*
X1610883Y1681000D01*
X1608767Y1683117D02*
Y1685233D01*
X1610883D01*
X1613000Y1683117D01*
X1615117Y1685233D01*
X1617233D01*
Y1683117D02*
Y1685233D01*
X1615117Y1681000D02*
X1617233Y1683117D01*
X1615117Y1681000D02*
X1617233Y1678883D01*
Y1676767D02*
Y1678883D01*
X1615117Y1676767D02*
X1617233D01*
X1613000Y1678883D02*
X1615117Y1676767D01*
X1610883D02*
X1613000Y1678883D01*
X1608767Y1676767D02*
X1610883D01*
X1610460Y2321960D02*
Y2323230D01*
X1611730Y2324500D01*
X1610460Y2325770D02*
X1611730Y2324500D01*
X1610460Y2325770D02*
Y2327040D01*
X1611730D01*
X1613000Y2325770D01*
X1614270Y2327040D01*
X1615540D01*
Y2325770D02*
Y2327040D01*
X1614270Y2324500D02*
X1615540Y2325770D01*
X1614270Y2324500D02*
X1615540Y2323230D01*
Y2321960D02*
Y2323230D01*
X1614270Y2321960D02*
X1615540D01*
X1613000Y2323230D02*
X1614270Y2321960D01*
X1611730D02*
X1613000Y2323230D01*
X1610460Y2321960D02*
X1611730D01*
X1608767Y2320267D02*
Y2322383D01*
X1610883Y2324500D01*
X1608767Y2326617D02*
X1610883Y2324500D01*
X1608767Y2326617D02*
Y2328733D01*
X1610883D01*
X1613000Y2326617D01*
X1615117Y2328733D01*
X1617233D01*
Y2326617D02*
Y2328733D01*
X1615117Y2324500D02*
X1617233Y2326617D01*
X1615117Y2324500D02*
X1617233Y2322383D01*
Y2320267D02*
Y2322383D01*
X1615117Y2320267D02*
X1617233D01*
X1613000Y2322383D02*
X1615117Y2320267D01*
X1610883D02*
X1613000Y2322383D01*
X1608767Y2320267D02*
X1610883D01*
X2675460Y1461460D02*
Y1462730D01*
X2676730Y1464000D01*
X2675460Y1465270D02*
X2676730Y1464000D01*
X2675460Y1465270D02*
Y1466540D01*
X2676730D01*
X2678000Y1465270D01*
X2679270Y1466540D01*
X2680540D01*
Y1465270D02*
Y1466540D01*
X2679270Y1464000D02*
X2680540Y1465270D01*
X2679270Y1464000D02*
X2680540Y1462730D01*
Y1461460D02*
Y1462730D01*
X2679270Y1461460D02*
X2680540D01*
X2678000Y1462730D02*
X2679270Y1461460D01*
X2676730D02*
X2678000Y1462730D01*
X2675460Y1461460D02*
X2676730D01*
X2673767Y1459767D02*
Y1461883D01*
X2675883Y1464000D01*
X2673767Y1466116D02*
X2675883Y1464000D01*
X2673767Y1466116D02*
Y1468233D01*
X2675883D01*
X2678000Y1466116D01*
X2680117Y1468233D01*
X2682233D01*
Y1466116D02*
Y1468233D01*
X2680117Y1464000D02*
X2682233Y1466116D01*
X2680117Y1464000D02*
X2682233Y1461883D01*
Y1459767D02*
Y1461883D01*
X2680117Y1459767D02*
X2682233D01*
X2678000Y1461883D02*
X2680117Y1459767D01*
X2675883D02*
X2678000Y1461883D01*
X2673767Y1459767D02*
X2675883D01*
X2548715Y2427000D02*
X2552948Y2422767D01*
X2557181Y2427000D01*
X2552948Y2431233D02*
X2557181Y2427000D01*
X2548715D02*
X2552948Y2431233D01*
X2478611Y2427000D02*
X2482844Y2422767D01*
X2487077Y2427000D01*
X2482844Y2431233D02*
X2487077Y2427000D01*
X2478611D02*
X2482844Y2431233D01*
X2548715Y2477000D02*
X2552948Y2472767D01*
X2557181Y2477000D01*
X2552948Y2481233D02*
X2557181Y2477000D01*
X2548715D02*
X2552948Y2481233D01*
X2478611Y2477000D02*
X2482844Y2472767D01*
X2487077Y2477000D01*
X2482844Y2481233D02*
X2487077Y2477000D01*
X2478611D02*
X2482844Y2481233D01*
X2478611Y2527000D02*
X2482844Y2522767D01*
X2487077Y2527000D01*
X2482844Y2531233D02*
X2487077Y2527000D01*
X2478611D02*
X2482844Y2531233D01*
X2548715Y2527000D02*
X2552948Y2522767D01*
X2557181Y2527000D01*
X2552948Y2531233D02*
X2557181Y2527000D01*
X2548715D02*
X2552948Y2531233D01*
X1629819Y2529500D02*
X1634052Y2525267D01*
X1638285Y2529500D01*
X1634052Y2533733D02*
X1638285Y2529500D01*
X1629819D02*
X1634052Y2533733D01*
X1699923Y2529500D02*
X1704156Y2525267D01*
X1708389Y2529500D01*
X1704156Y2533733D02*
X1708389Y2529500D01*
X1699923D02*
X1704156Y2533733D01*
X1629819Y2479500D02*
X1634052Y2475267D01*
X1638285Y2479500D01*
X1634052Y2483733D02*
X1638285Y2479500D01*
X1629819D02*
X1634052Y2483733D01*
X1699923Y2479500D02*
X1704156Y2475267D01*
X1708389Y2479500D01*
X1704156Y2483733D02*
X1708389Y2479500D01*
X1699923D02*
X1704156Y2483733D01*
X1699923Y2429500D02*
X1704156Y2425267D01*
X1708389Y2429500D01*
X1704156Y2433733D02*
X1708389Y2429500D01*
X1699923D02*
X1704156Y2433733D01*
X1629819Y2429500D02*
X1634052Y2425267D01*
X1638285Y2429500D01*
X1634052Y2433733D02*
X1638285Y2429500D01*
X1629819D02*
X1634052Y2433733D01*
X2548715Y1476000D02*
X2552948Y1471767D01*
X2557181Y1476000D01*
X2552948Y1480233D02*
X2557181Y1476000D01*
X2548715D02*
X2552948Y1480233D01*
X2478611Y1476000D02*
X2482844Y1471767D01*
X2487077Y1476000D01*
X2482844Y1480233D02*
X2487077Y1476000D01*
X2478611D02*
X2482844Y1480233D01*
X2548715Y1526000D02*
X2552948Y1521767D01*
X2557181Y1526000D01*
X2552948Y1530233D02*
X2557181Y1526000D01*
X2548715D02*
X2552948Y1530233D01*
X2478611Y1526000D02*
X2482844Y1521767D01*
X2487077Y1526000D01*
X2482844Y1530233D02*
X2487077Y1526000D01*
X2478611D02*
X2482844Y1530233D01*
X2478611Y1576000D02*
X2482844Y1571767D01*
X2487077Y1576000D01*
X2482844Y1580233D02*
X2487077Y1576000D01*
X2478611D02*
X2482844Y1580233D01*
X2548715Y1576000D02*
X2552948Y1571767D01*
X2557181Y1576000D01*
X2552948Y1580233D02*
X2557181Y1576000D01*
X2548715D02*
X2552948Y1580233D01*
X1685400Y1220767D02*
X1689633Y1229233D01*
X1681167D02*
X1689633D01*
X1681167D02*
X1685400Y1220767D01*
X1660000D02*
X1664233Y1229233D01*
X1655767D02*
X1664233D01*
X1655767D02*
X1660000Y1220767D01*
X1634600D02*
X1638833Y1229233D01*
X1630367D02*
X1638833D01*
X1630367D02*
X1634600Y1220767D01*
X2665767Y2465767D02*
X2670000Y2467883D01*
X2674233Y2465767D01*
X2672117Y2470000D02*
X2674233Y2465767D01*
X2672117Y2470000D02*
X2674233Y2474233D01*
X2670000Y2472117D02*
X2674233Y2474233D01*
X2665767D02*
X2670000Y2472117D01*
X2665767Y2474233D02*
X2667883Y2470000D01*
X2665767Y2465767D02*
X2667883Y2470000D01*
X2765767Y2465767D02*
X2770000Y2467883D01*
X2774233Y2465767D01*
X2772117Y2470000D02*
X2774233Y2465767D01*
X2772117Y2470000D02*
X2774233Y2474233D01*
X2770000Y2472117D02*
X2774233Y2474233D01*
X2765767D02*
X2770000Y2472117D01*
X2765767Y2474233D02*
X2767883Y2470000D01*
X2765767Y2465767D02*
X2767883Y2470000D01*
X2666767Y1663767D02*
X2671000Y1665883D01*
X2675233Y1663767D01*
X2673117Y1668000D02*
X2675233Y1663767D01*
X2673117Y1668000D02*
X2675233Y1672233D01*
X2671000Y1670117D02*
X2675233Y1672233D01*
X2666767D02*
X2671000Y1670117D01*
X2666767Y1672233D02*
X2668883Y1668000D01*
X2666767Y1663767D02*
X2668883Y1668000D01*
X2766767Y1663767D02*
X2771000Y1665883D01*
X2775233Y1663767D01*
X2773117Y1668000D02*
X2775233Y1663767D01*
X2773117Y1668000D02*
X2775233Y1672233D01*
X2771000Y1670117D02*
X2775233Y1672233D01*
X2766767D02*
X2771000Y1670117D01*
X2766767Y1672233D02*
X2768883Y1668000D01*
X2766767Y1663767D02*
X2768883Y1668000D01*
X1739883Y1218343D02*
X1742000Y1216227D01*
X1737767Y1218343D02*
X1739883D01*
X1737767D02*
X1739883Y1220460D01*
X1737767Y1222577D02*
X1739883Y1220460D01*
X1737767Y1222577D02*
X1739883D01*
X1742000Y1224693D01*
X1744117Y1222577D01*
X1746233D01*
X1744117Y1220460D02*
X1746233Y1222577D01*
X1744117Y1220460D02*
X1746233Y1218343D01*
X1744117D02*
X1746233D01*
X1742000Y1216227D02*
X1744117Y1218343D01*
X1765283D02*
X1767400Y1216227D01*
X1763167Y1218343D02*
X1765283D01*
X1763167D02*
X1765283Y1220460D01*
X1763167Y1222577D02*
X1765283Y1220460D01*
X1763167Y1222577D02*
X1765283D01*
X1767400Y1224693D01*
X1769516Y1222577D01*
X1771633D01*
X1769516Y1220460D02*
X1771633Y1222577D01*
X1769516Y1220460D02*
X1771633Y1218343D01*
X1769516D02*
X1771633D01*
X1767400Y1216227D02*
X1769516Y1218343D01*
X1790683D02*
X1792800Y1216227D01*
X1788567Y1218343D02*
X1790683D01*
X1788567D02*
X1790683Y1220460D01*
X1788567Y1222577D02*
X1790683Y1220460D01*
X1788567Y1222577D02*
X1790683D01*
X1792800Y1224693D01*
X1794917Y1222577D01*
X1797033D01*
X1794917Y1220460D02*
X1797033Y1222577D01*
X1794917Y1220460D02*
X1797033Y1218343D01*
X1794917D02*
X1797033D01*
X1792800Y1216227D02*
X1794917Y1218343D01*
X1816083D02*
X1818200Y1216227D01*
X1813967Y1218343D02*
X1816083D01*
X1813967D02*
X1816083Y1220460D01*
X1813967Y1222577D02*
X1816083Y1220460D01*
X1813967Y1222577D02*
X1816083D01*
X1818200Y1224693D01*
X1820316Y1222577D01*
X1822433D01*
X1820316Y1220460D02*
X1822433Y1222577D01*
X1820316Y1220460D02*
X1822433Y1218343D01*
X1820316D02*
X1822433D01*
X1818200Y1216227D02*
X1820316Y1218343D01*
X2768423Y2177485D02*
Y2179601D01*
X2770539Y2181718D01*
X2768423Y2183835D02*
X2770539Y2181718D01*
X2768423Y2183835D02*
Y2185951D01*
X2770539D01*
X2772656Y2183835D01*
X2774773Y2185951D01*
X2776889D01*
Y2183835D02*
Y2185951D01*
X2774773Y2181718D02*
X2776889Y2183835D01*
X2774773Y2181718D02*
X2776889Y2179601D01*
Y2177485D02*
Y2179601D01*
X2774773Y2177485D02*
X2776889D01*
X2772656Y2179601D02*
X2774773Y2177485D01*
X2770539D02*
X2772656Y2179601D01*
X2768423Y2177485D02*
X2770539D01*
X2768423Y2102485D02*
Y2104601D01*
X2770539Y2106718D01*
X2768423Y2108835D02*
X2770539Y2106718D01*
X2768423Y2108835D02*
Y2110951D01*
X2770539D01*
X2772656Y2108835D01*
X2774773Y2110951D01*
X2776889D01*
Y2108835D02*
Y2110951D01*
X2774773Y2106718D02*
X2776889Y2108835D01*
X2774773Y2106718D02*
X2776889Y2104601D01*
Y2102485D02*
Y2104601D01*
X2774773Y2102485D02*
X2776889D01*
X2772656Y2104601D02*
X2774773Y2102485D01*
X2770539D02*
X2772656Y2104601D01*
X2768423Y2102485D02*
X2770539D01*
X2768423Y2027485D02*
Y2029601D01*
X2770539Y2031718D01*
X2768423Y2033835D02*
X2770539Y2031718D01*
X2768423Y2033835D02*
Y2035951D01*
X2770539D01*
X2772656Y2033835D01*
X2774773Y2035951D01*
X2776889D01*
Y2033835D02*
Y2035951D01*
X2774773Y2031718D02*
X2776889Y2033835D01*
X2774773Y2031718D02*
X2776889Y2029601D01*
Y2027485D02*
Y2029601D01*
X2774773Y2027485D02*
X2776889D01*
X2772656Y2029601D02*
X2774773Y2027485D01*
X2770539D02*
X2772656Y2029601D01*
X2768423Y2027485D02*
X2770539D01*
X2768423Y1927485D02*
Y1929601D01*
X2770539Y1931718D01*
X2768423Y1933835D02*
X2770539Y1931718D01*
X2768423Y1933835D02*
Y1935951D01*
X2770539D01*
X2772656Y1933835D01*
X2774773Y1935951D01*
X2776889D01*
Y1933835D02*
Y1935951D01*
X2774773Y1931718D02*
X2776889Y1933835D01*
X2774773Y1931718D02*
X2776889Y1929601D01*
Y1927485D02*
Y1929601D01*
X2774773Y1927485D02*
X2776889D01*
X2772656Y1929601D02*
X2774773Y1927485D01*
X2770539D02*
X2772656Y1929601D01*
X2768423Y1927485D02*
X2770539D01*
X2692380Y1819370D02*
X2694920Y1820640D01*
X2697460Y1819370D01*
X2696190Y1821910D02*
X2697460Y1819370D01*
X2696190Y1821910D02*
X2697460Y1824450D01*
X2694920Y1823180D02*
X2697460Y1824450D01*
X2692380D02*
X2694920Y1823180D01*
X2692380Y1824450D02*
X2693650Y1821910D01*
X2692380Y1819370D02*
X2693650Y1821910D01*
X2690687Y1817677D02*
X2694920Y1819793D01*
X2699153Y1817677D01*
X2697036Y1821910D02*
X2699153Y1817677D01*
X2697036Y1821910D02*
X2699153Y1826143D01*
X2694920Y1824027D02*
X2699153Y1826143D01*
X2690687D02*
X2694920Y1824027D01*
X2690687Y1826143D02*
X2692803Y1821910D01*
X2690687Y1817677D02*
X2692803Y1821910D01*
X2692380Y2279370D02*
X2694920Y2280640D01*
X2697460Y2279370D01*
X2696190Y2281910D02*
X2697460Y2279370D01*
X2696190Y2281910D02*
X2697460Y2284450D01*
X2694920Y2283180D02*
X2697460Y2284450D01*
X2692380D02*
X2694920Y2283180D01*
X2692380Y2284450D02*
X2693650Y2281910D01*
X2692380Y2279370D02*
X2693650Y2281910D01*
X2690687Y2277677D02*
X2694920Y2279793D01*
X2699153Y2277677D01*
X2697036Y2281910D02*
X2699153Y2277677D01*
X2697036Y2281910D02*
X2699153Y2286143D01*
X2694920Y2284027D02*
X2699153Y2286143D01*
X2690687D02*
X2694920Y2284027D01*
X2690687Y2286143D02*
X2692803Y2281910D01*
X2690687Y2277677D02*
X2692803Y2281910D01*
X1860730Y1230670D02*
X1862000Y1229400D01*
X1859460Y1230670D02*
X1860730D01*
X1859460D02*
X1860730Y1231940D01*
X1859460Y1233210D02*
X1860730Y1231940D01*
X1859460Y1233210D02*
X1860730D01*
X1862000Y1234480D01*
X1863270Y1233210D01*
X1864540D01*
X1863270Y1231940D02*
X1864540Y1233210D01*
X1863270Y1231940D02*
X1864540Y1230670D01*
X1863270D02*
X1864540D01*
X1862000Y1229400D02*
X1863270Y1230670D01*
X1859883Y1229823D02*
X1862000Y1227707D01*
X1857767Y1229823D02*
X1859883D01*
X1857767D02*
X1859883Y1231940D01*
X1857767Y1234057D02*
X1859883Y1231940D01*
X1857767Y1234057D02*
X1859883D01*
X1862000Y1236173D01*
X1864117Y1234057D01*
X1866233D01*
X1864117Y1231940D02*
X1866233Y1234057D01*
X1864117Y1231940D02*
X1866233Y1229823D01*
X1864117D02*
X1866233D01*
X1862000Y1227707D02*
X1864117Y1229823D01*
X1880730Y1230670D02*
X1882000Y1229400D01*
X1879460Y1230670D02*
X1880730D01*
X1879460D02*
X1880730Y1231940D01*
X1879460Y1233210D02*
X1880730Y1231940D01*
X1879460Y1233210D02*
X1880730D01*
X1882000Y1234480D01*
X1883270Y1233210D01*
X1884540D01*
X1883270Y1231940D02*
X1884540Y1233210D01*
X1883270Y1231940D02*
X1884540Y1230670D01*
X1883270D02*
X1884540D01*
X1882000Y1229400D02*
X1883270Y1230670D01*
X1879883Y1229823D02*
X1882000Y1227707D01*
X1877767Y1229823D02*
X1879883D01*
X1877767D02*
X1879883Y1231940D01*
X1877767Y1234057D02*
X1879883Y1231940D01*
X1877767Y1234057D02*
X1879883D01*
X1882000Y1236173D01*
X1884117Y1234057D01*
X1886233D01*
X1884117Y1231940D02*
X1886233Y1234057D01*
X1884117Y1231940D02*
X1886233Y1229823D01*
X1884117D02*
X1886233D01*
X1882000Y1227707D02*
X1884117Y1229823D01*
X1900730Y1230670D02*
X1902000Y1229400D01*
X1899460Y1230670D02*
X1900730D01*
X1899460D02*
X1900730Y1231940D01*
X1899460Y1233210D02*
X1900730Y1231940D01*
X1899460Y1233210D02*
X1900730D01*
X1902000Y1234480D01*
X1903270Y1233210D01*
X1904540D01*
X1903270Y1231940D02*
X1904540Y1233210D01*
X1903270Y1231940D02*
X1904540Y1230670D01*
X1903270D02*
X1904540D01*
X1902000Y1229400D02*
X1903270Y1230670D01*
X1899883Y1229823D02*
X1902000Y1227707D01*
X1897767Y1229823D02*
X1899883D01*
X1897767D02*
X1899883Y1231940D01*
X1897767Y1234057D02*
X1899883Y1231940D01*
X1897767Y1234057D02*
X1899883D01*
X1902000Y1236173D01*
X1904117Y1234057D01*
X1906233D01*
X1904117Y1231940D02*
X1906233Y1234057D01*
X1904117Y1231940D02*
X1906233Y1229823D01*
X1904117D02*
X1906233D01*
X1902000Y1227707D02*
X1904117Y1229823D01*
X1920730Y1230670D02*
X1922000Y1229400D01*
X1919460Y1230670D02*
X1920730D01*
X1919460D02*
X1920730Y1231940D01*
X1919460Y1233210D02*
X1920730Y1231940D01*
X1919460Y1233210D02*
X1920730D01*
X1922000Y1234480D01*
X1923270Y1233210D01*
X1924540D01*
X1923270Y1231940D02*
X1924540Y1233210D01*
X1923270Y1231940D02*
X1924540Y1230670D01*
X1923270D02*
X1924540D01*
X1922000Y1229400D02*
X1923270Y1230670D01*
X1919883Y1229823D02*
X1922000Y1227707D01*
X1917767Y1229823D02*
X1919883D01*
X1917767D02*
X1919883Y1231940D01*
X1917767Y1234057D02*
X1919883Y1231940D01*
X1917767Y1234057D02*
X1919883D01*
X1922000Y1236173D01*
X1924117Y1234057D01*
X1926233D01*
X1924117Y1231940D02*
X1926233Y1234057D01*
X1924117Y1231940D02*
X1926233Y1229823D01*
X1924117D02*
X1926233D01*
X1922000Y1227707D02*
X1924117Y1229823D01*
X2489460Y1787460D02*
Y1788730D01*
X2490730Y1790000D01*
X2489460Y1791270D02*
X2490730Y1790000D01*
X2489460Y1791270D02*
Y1792540D01*
X2490730D01*
X2492000Y1791270D01*
X2493270Y1792540D01*
X2494540D01*
Y1791270D02*
Y1792540D01*
X2493270Y1790000D02*
X2494540Y1791270D01*
X2493270Y1790000D02*
X2494540Y1788730D01*
Y1787460D02*
Y1788730D01*
X2493270Y1787460D02*
X2494540D01*
X2492000Y1788730D02*
X2493270Y1787460D01*
X2490730D02*
X2492000Y1788730D01*
X2489460Y1787460D02*
X2490730D01*
X2487767Y1785767D02*
Y1787883D01*
X2489884Y1790000D01*
X2487767Y1792117D02*
X2489884Y1790000D01*
X2487767Y1792117D02*
Y1794233D01*
X2489884D01*
X2492000Y1792117D01*
X2494117Y1794233D01*
X2496233D01*
Y1792117D02*
Y1794233D01*
X2494117Y1790000D02*
X2496233Y1792117D01*
X2494117Y1790000D02*
X2496233Y1787883D01*
Y1785767D02*
Y1787883D01*
X2494117Y1785767D02*
X2496233D01*
X2492000Y1787883D02*
X2494117Y1785767D01*
X2489884D02*
X2492000Y1787883D01*
X2487767Y1785767D02*
X2489884D01*
X1843517Y1985617D02*
X1851983D01*
Y1994083D01*
X1843517D02*
X1851983D01*
X1843517Y1985617D02*
Y1994083D01*
Y2011017D02*
X1851983D01*
Y2019483D01*
X1843517D02*
X1851983D01*
X1843517Y2011017D02*
Y2019483D01*
X2180017Y2034983D02*
X2182133D01*
X2180017D02*
Y2039217D01*
X2182133D01*
Y2041333D01*
X2186367D01*
Y2039217D02*
Y2041333D01*
Y2039217D02*
X2188483D01*
Y2034983D02*
Y2039217D01*
X2186367Y2034983D02*
X2188483D01*
X2186367Y2032867D02*
Y2034983D01*
X2182133Y2032867D02*
X2186367D01*
X2182133D02*
Y2034983D01*
X2180017Y2089383D02*
X2182133D01*
X2180017D02*
Y2093617D01*
X2182133D01*
Y2095733D01*
X2186367D01*
Y2093617D02*
Y2095733D01*
Y2093617D02*
X2188483D01*
Y2089383D02*
Y2093617D01*
X2186367Y2089383D02*
X2188483D01*
X2186367Y2087267D02*
Y2089383D01*
X2182133Y2087267D02*
X2186367D01*
X2182133D02*
Y2089383D01*
X2180017Y2143783D02*
X2182133D01*
X2180017D02*
Y2148017D01*
X2182133D01*
Y2150133D01*
X2186367D01*
Y2148017D02*
Y2150133D01*
Y2148017D02*
X2188483D01*
Y2143783D02*
Y2148017D01*
X2186367Y2143783D02*
X2188483D01*
X2186367Y2141667D02*
Y2143783D01*
X2182133Y2141667D02*
X2186367D01*
X2182133D02*
Y2143783D01*
X2180017Y1971283D02*
X2182133D01*
X2180017D02*
Y1975517D01*
X2182133D01*
Y1977633D01*
X2186367D01*
Y1975517D02*
Y1977633D01*
Y1975517D02*
X2188483D01*
Y1971283D02*
Y1975517D01*
X2186367Y1971283D02*
X2188483D01*
X2186367Y1969167D02*
Y1971283D01*
X2182133Y1969167D02*
X2186367D01*
X2182133D02*
Y1971283D01*
X2180017Y1916883D02*
X2182133D01*
X2180017D02*
Y1921117D01*
X2182133D01*
Y1923233D01*
X2186367D01*
Y1921117D02*
Y1923233D01*
Y1921117D02*
X2188483D01*
Y1916883D02*
Y1921117D01*
X2186367Y1916883D02*
X2188483D01*
X2186367Y1914767D02*
Y1916883D01*
X2182133Y1914767D02*
X2186367D01*
X2182133D02*
Y1916883D01*
X2180017Y1862483D02*
X2182133D01*
X2180017D02*
Y1866717D01*
X2182133D01*
Y1868833D01*
X2186367D01*
Y1866717D02*
Y1868833D01*
Y1866717D02*
X2188483D01*
Y1862483D02*
Y1866717D01*
X2186367Y1862483D02*
X2188483D01*
X2186367Y1860367D02*
Y1862483D01*
X2182133Y1860367D02*
X2186367D01*
X2182133D02*
Y1862483D01*
X1703715Y1476000D02*
X1707948Y1471767D01*
X1712181Y1476000D01*
X1707948Y1480233D02*
X1712181Y1476000D01*
X1703715D02*
X1707948Y1480233D01*
X1633611Y1476000D02*
X1637844Y1471767D01*
X1642077Y1476000D01*
X1637844Y1480233D02*
X1642077Y1476000D01*
X1633611D02*
X1637844Y1480233D01*
X1703715Y1526000D02*
X1707948Y1521767D01*
X1712181Y1526000D01*
X1707948Y1530233D02*
X1712181Y1526000D01*
X1703715D02*
X1707948Y1530233D01*
X1633611Y1526000D02*
X1637844Y1521767D01*
X1642077Y1526000D01*
X1637844Y1530233D02*
X1642077Y1526000D01*
X1633611D02*
X1637844Y1530233D01*
X1633611Y1576000D02*
X1637844Y1571767D01*
X1642077Y1576000D01*
X1637844Y1580233D02*
X1642077Y1576000D01*
X1633611D02*
X1637844Y1580233D01*
X1703715Y1576000D02*
X1707948Y1571767D01*
X1712181Y1576000D01*
X1707948Y1580233D02*
X1712181Y1576000D01*
X1703715D02*
X1707948Y1580233D01*
X2733460Y2563460D02*
Y2564730D01*
X2734730Y2566000D01*
X2733460Y2567270D02*
X2734730Y2566000D01*
X2733460Y2567270D02*
Y2568540D01*
X2734730D01*
X2736000Y2567270D01*
X2737270Y2568540D01*
X2738540D01*
Y2567270D02*
Y2568540D01*
X2737270Y2566000D02*
X2738540Y2567270D01*
X2737270Y2566000D02*
X2738540Y2564730D01*
Y2563460D02*
Y2564730D01*
X2737270Y2563460D02*
X2738540D01*
X2736000Y2564730D02*
X2737270Y2563460D01*
X2734730D02*
X2736000Y2564730D01*
X2733460Y2563460D02*
X2734730D01*
X2731767Y2561767D02*
Y2563883D01*
X2733883Y2566000D01*
X2731767Y2568116D02*
X2733883Y2566000D01*
X2731767Y2568116D02*
Y2570233D01*
X2733883D01*
X2736000Y2568116D01*
X2738117Y2570233D01*
X2740233D01*
Y2568116D02*
Y2570233D01*
X2738117Y2566000D02*
X2740233Y2568116D01*
X2738117Y2566000D02*
X2740233Y2563883D01*
Y2561767D02*
Y2563883D01*
X2738117Y2561767D02*
X2740233D01*
X2736000Y2563883D02*
X2738117Y2561767D01*
X2733883D02*
X2736000Y2563883D01*
X2731767Y2561767D02*
X2733883D01*
X2368460Y1901230D02*
X2369730D01*
X2368460D02*
Y1903770D01*
X2369730D01*
Y1905040D01*
X2372270D01*
Y1903770D02*
Y1905040D01*
Y1903770D02*
X2373540D01*
Y1901230D02*
Y1903770D01*
X2372270Y1901230D02*
X2373540D01*
X2372270Y1899960D02*
Y1901230D01*
X2369730Y1899960D02*
X2372270D01*
X2369730D02*
Y1901230D01*
X2366767Y1900383D02*
X2368883D01*
X2366767D02*
Y1904617D01*
X2368883D01*
Y1906733D01*
X2373117D01*
Y1904617D02*
Y1906733D01*
Y1904617D02*
X2375233D01*
Y1900383D02*
Y1904617D01*
X2373117Y1900383D02*
X2375233D01*
X2373117Y1898266D02*
Y1900383D01*
X2368883Y1898266D02*
X2373117D01*
X2368883D02*
Y1900383D01*
X2368460Y1801230D02*
X2369730D01*
X2368460D02*
Y1803770D01*
X2369730D01*
Y1805040D01*
X2372270D01*
Y1803770D02*
Y1805040D01*
Y1803770D02*
X2373540D01*
Y1801230D02*
Y1803770D01*
X2372270Y1801230D02*
X2373540D01*
X2372270Y1799960D02*
Y1801230D01*
X2369730Y1799960D02*
X2372270D01*
X2369730D02*
Y1801230D01*
X2366767Y1800383D02*
X2368883D01*
X2366767D02*
Y1804617D01*
X2368883D01*
Y1806733D01*
X2373117D01*
Y1804617D02*
Y1806733D01*
Y1804617D02*
X2375233D01*
Y1800383D02*
Y1804617D01*
X2373117Y1800383D02*
X2375233D01*
X2373117Y1798266D02*
Y1800383D01*
X2368883Y1798266D02*
X2373117D01*
X2368883D02*
Y1800383D01*
X2368460Y2148730D02*
X2369730D01*
X2368460D02*
Y2151270D01*
X2369730D01*
Y2152540D01*
X2372270D01*
Y2151270D02*
Y2152540D01*
Y2151270D02*
X2373540D01*
Y2148730D02*
Y2151270D01*
X2372270Y2148730D02*
X2373540D01*
X2372270Y2147460D02*
Y2148730D01*
X2369730Y2147460D02*
X2372270D01*
X2369730D02*
Y2148730D01*
X2366767Y2147883D02*
X2368883D01*
X2366767D02*
Y2152117D01*
X2368883D01*
Y2154233D01*
X2373117D01*
Y2152117D02*
Y2154233D01*
Y2152117D02*
X2375233D01*
Y2147883D02*
Y2152117D01*
X2373117Y2147883D02*
X2375233D01*
X2373117Y2145766D02*
Y2147883D01*
X2368883Y2145766D02*
X2373117D01*
X2368883D02*
Y2147883D01*
X2368460Y2248730D02*
X2369730D01*
X2368460D02*
Y2251270D01*
X2369730D01*
Y2252540D01*
X2372270D01*
Y2251270D02*
Y2252540D01*
Y2251270D02*
X2373540D01*
Y2248730D02*
Y2251270D01*
X2372270Y2248730D02*
X2373540D01*
X2372270Y2247460D02*
Y2248730D01*
X2369730Y2247460D02*
X2372270D01*
X2369730D02*
Y2248730D01*
X2366767Y2247883D02*
X2368883D01*
X2366767D02*
Y2252117D01*
X2368883D01*
Y2254233D01*
X2373117D01*
Y2252117D02*
Y2254233D01*
Y2252117D02*
X2375233D01*
Y2247883D02*
Y2252117D01*
X2373117Y2247883D02*
X2375233D01*
X2373117Y2245767D02*
Y2247883D01*
X2368883Y2245767D02*
X2373117D01*
X2368883D02*
Y2247883D01*
D72*
X1636747Y3316270D02*
X2622006D01*
X1636747Y2782870D02*
X2622006D01*
X1636747Y2744770D02*
X2622006D01*
Y3354370D01*
X1636747D02*
X2622006D01*
X1636747Y2744770D02*
Y3354370D01*
X2424190Y2744770D02*
Y3354370D01*
X2295697Y2744770D02*
Y3354370D01*
X1953914Y2744770D02*
Y3354370D01*
X1776669Y2744770D02*
Y3354370D01*
D73*
X2435620Y3345982D02*
Y3327700D01*
Y3336841D01*
X2447808D01*
Y3345982D01*
Y3327700D01*
X2456949D02*
X2463043D01*
X2466090Y3330747D01*
Y3336841D01*
X2463043Y3339888D01*
X2456949D01*
X2453902Y3336841D01*
Y3330747D01*
X2456949Y3327700D01*
X2472184D02*
X2478278D01*
X2475231D01*
Y3345982D01*
X2472184D01*
X2496560Y3327700D02*
X2490466D01*
X2487419Y3330747D01*
Y3336841D01*
X2490466Y3339888D01*
X2496560D01*
X2499607Y3336841D01*
Y3333794D01*
X2487419D01*
X2523983Y3345982D02*
X2536171D01*
X2530077D01*
Y3327700D01*
X2542265Y3339888D02*
Y3330747D01*
X2545312Y3327700D01*
X2554453D01*
Y3324653D01*
X2551406Y3321606D01*
X2548359D01*
X2554453Y3327700D02*
Y3339888D01*
X2560547Y3321606D02*
Y3339888D01*
X2569688D01*
X2572736Y3336841D01*
Y3330747D01*
X2569688Y3327700D01*
X2560547D01*
X2587971D02*
X2581877D01*
X2578830Y3330747D01*
Y3336841D01*
X2581877Y3339888D01*
X2587971D01*
X2591017Y3336841D01*
Y3333794D01*
X2578830D01*
X2307127Y3327700D02*
Y3345982D01*
X2316268D01*
X2319315Y3342935D01*
Y3336841D01*
X2316268Y3333794D01*
X2307127D01*
X2325410Y3327700D02*
X2331503D01*
X2328457D01*
Y3345982D01*
X2325410D01*
X2343692Y3339888D02*
X2349786D01*
X2352833Y3336841D01*
Y3327700D01*
X2343692D01*
X2340645Y3330747D01*
X2343692Y3333794D01*
X2352833D01*
X2361974Y3342935D02*
Y3339888D01*
X2358927D01*
X2365021D01*
X2361974D01*
Y3330747D01*
X2365021Y3327700D01*
X2383303D02*
X2377209D01*
X2374162Y3330747D01*
Y3336841D01*
X2377209Y3339888D01*
X2383303D01*
X2386350Y3336841D01*
Y3333794D01*
X2374162D01*
X2404632Y3345982D02*
Y3327700D01*
X2395491D01*
X2392444Y3330747D01*
Y3336841D01*
X2395491Y3339888D01*
X2404632D01*
X1977532Y3345982D02*
X1965344D01*
Y3336841D01*
X1971438D01*
X1965344D01*
Y3327700D01*
X1983626D02*
X1989720D01*
X1986673D01*
Y3339888D01*
X1983626D01*
X1998861Y3327700D02*
Y3339888D01*
X2008002D01*
X2011049Y3336841D01*
Y3327700D01*
X2017143D02*
X2023237D01*
X2020190D01*
Y3339888D01*
X2017143D01*
X2032378Y3327700D02*
X2041519D01*
X2044566Y3330747D01*
X2041519Y3333794D01*
X2035425D01*
X2032378Y3336841D01*
X2035425Y3339888D01*
X2044566D01*
X2050660Y3345982D02*
Y3327700D01*
Y3336841D01*
X2053707Y3339888D01*
X2059801D01*
X2062848Y3336841D01*
Y3327700D01*
X2078083D02*
X2071989D01*
X2068942Y3330747D01*
Y3336841D01*
X2071989Y3339888D01*
X2078083D01*
X2081131Y3336841D01*
Y3333794D01*
X2068942D01*
X2099413Y3345982D02*
Y3327700D01*
X2090271D01*
X2087224Y3330747D01*
Y3336841D01*
X2090271Y3339888D01*
X2099413D01*
X2123789Y3345982D02*
Y3327700D01*
Y3336841D01*
X2135977D01*
Y3345982D01*
Y3327700D01*
X2145118D02*
X2151212D01*
X2154259Y3330747D01*
Y3336841D01*
X2151212Y3339888D01*
X2145118D01*
X2142071Y3336841D01*
Y3330747D01*
X2145118Y3327700D01*
X2160353D02*
X2166447D01*
X2163400D01*
Y3345982D01*
X2160353D01*
X2184729Y3327700D02*
X2178635D01*
X2175588Y3330747D01*
Y3336841D01*
X2178635Y3339888D01*
X2184729D01*
X2187776Y3336841D01*
Y3333794D01*
X2175588D01*
X2224340Y3342935D02*
X2221293Y3345982D01*
X2215199D01*
X2212152Y3342935D01*
Y3339888D01*
X2215199Y3336841D01*
X2221293D01*
X2224340Y3333794D01*
Y3330747D01*
X2221293Y3327700D01*
X2215199D01*
X2212152Y3330747D01*
X2230434Y3327700D02*
X2236528D01*
X2233481D01*
Y3339888D01*
X2230434D01*
X2245669D02*
X2257857D01*
X2245669Y3327700D01*
X2257857D01*
X2273092D02*
X2266998D01*
X2263951Y3330747D01*
Y3336841D01*
X2266998Y3339888D01*
X2273092D01*
X2276139Y3336841D01*
Y3333794D01*
X2263951D01*
X1788099Y3345982D02*
Y3327700D01*
Y3336841D01*
X1800287D01*
Y3345982D01*
Y3327700D01*
X1806381D02*
X1812475D01*
X1809428D01*
Y3339888D01*
X1806381D01*
X1824664Y3342935D02*
Y3339888D01*
X1821617D01*
X1827711D01*
X1824664D01*
Y3330747D01*
X1827711Y3327700D01*
X1867322Y3342935D02*
X1864275Y3345982D01*
X1858181D01*
X1855134Y3342935D01*
Y3330747D01*
X1858181Y3327700D01*
X1864275D01*
X1867322Y3330747D01*
X1876463Y3327700D02*
X1882557D01*
X1885604Y3330747D01*
Y3336841D01*
X1882557Y3339888D01*
X1876463D01*
X1873416Y3336841D01*
Y3330747D01*
X1876463Y3327700D01*
X1891698Y3339888D02*
Y3330747D01*
X1894745Y3327700D01*
X1903886D01*
Y3339888D01*
X1909980Y3327700D02*
Y3339888D01*
X1919121D01*
X1922168Y3336841D01*
Y3327700D01*
X1931309Y3342935D02*
Y3339888D01*
X1928262D01*
X1934356D01*
X1931309D01*
Y3330747D01*
X1934356Y3327700D01*
X1671795Y3342935D02*
X1668748Y3345982D01*
X1662654D01*
X1659607Y3342935D01*
Y3339888D01*
X1662654Y3336841D01*
X1668748D01*
X1671795Y3333794D01*
Y3330747D01*
X1668748Y3327700D01*
X1662654D01*
X1659607Y3330747D01*
X1677889Y3339888D02*
Y3330747D01*
X1680936Y3327700D01*
X1690077D01*
Y3324653D01*
X1687030Y3321606D01*
X1683983D01*
X1690077Y3327700D02*
Y3339888D01*
X1696171Y3327700D02*
Y3339888D01*
X1699218D01*
X1702265Y3336841D01*
Y3327700D01*
Y3336841D01*
X1705312Y3339888D01*
X1708359Y3336841D01*
Y3327700D01*
X1714453Y3345982D02*
Y3327700D01*
X1723594D01*
X1726641Y3330747D01*
Y3333794D01*
Y3336841D01*
X1723594Y3339888D01*
X1714453D01*
X1735782Y3327700D02*
X1741876D01*
X1744923Y3330747D01*
Y3336841D01*
X1741876Y3339888D01*
X1735782D01*
X1732735Y3336841D01*
Y3330747D01*
X1735782Y3327700D01*
X1751017D02*
X1757111D01*
X1754064D01*
Y3345982D01*
X1751017D01*
M02*
