G04*
G04 #@! TF.GenerationSoftware,Altium Limited,CircuitStudio,1.5.2 (1.5.2.30)*
G04*
G04 Layer_Color=13948096*
%FSLAX44Y44*%
%MOMM*%
G71*
G01*
G75*
%ADD11C,0.2540*%
%ADD38C,0.2500*%
%ADD39C,0.2000*%
%ADD67C,0.2032*%
%ADD68C,0.1000*%
D11*
X2354500Y1453250D02*
Y2550500D01*
X1723500D02*
X2354500D01*
X1723500Y1453250D02*
Y2550500D01*
Y1453250D02*
X2354500D01*
X2582888Y2303389D02*
Y2288154D01*
X2575270D01*
X2572731Y2290693D01*
Y2300850D01*
X2575270Y2303389D01*
X2582888D01*
X2557496Y2288154D02*
X2567653D01*
X2557496Y2298311D01*
Y2300850D01*
X2560035Y2303389D01*
X2565114D01*
X2567653Y2300850D01*
X2443292Y2216091D02*
Y2226248D01*
X2445832Y2228787D01*
X2450910D01*
X2453449Y2226248D01*
Y2216091D01*
X2450910Y2213552D01*
X2445832D01*
X2448371Y2218630D02*
X2443292Y2213552D01*
X2445832D02*
X2443292Y2216091D01*
X2438214Y2213552D02*
X2433136D01*
X2435675D01*
Y2228787D01*
X2438214Y2226248D01*
X2443370Y2146003D02*
Y2156160D01*
X2445909Y2158699D01*
X2450988D01*
X2453527Y2156160D01*
Y2146003D01*
X2450988Y2143464D01*
X2445909D01*
X2448449Y2148542D02*
X2443370Y2143464D01*
X2445909D02*
X2443370Y2146003D01*
X2428135Y2143464D02*
X2438292D01*
X2428135Y2153621D01*
Y2156160D01*
X2430674Y2158699D01*
X2435753D01*
X2438292Y2156160D01*
X2381843Y2029539D02*
Y2039696D01*
X2384382Y2042235D01*
X2389461D01*
X2392000Y2039696D01*
Y2029539D01*
X2389461Y2027000D01*
X2384382D01*
X2386922Y2032078D02*
X2381843Y2027000D01*
X2384382D02*
X2381843Y2029539D01*
X2376765Y2039696D02*
X2374226Y2042235D01*
X2369147D01*
X2366608Y2039696D01*
Y2037157D01*
X2369147Y2034617D01*
X2371687D01*
X2369147D01*
X2366608Y2032078D01*
Y2029539D01*
X2369147Y2027000D01*
X2374226D01*
X2376765Y2029539D01*
X2624843Y2171539D02*
Y2181696D01*
X2627383Y2184235D01*
X2632461D01*
X2635000Y2181696D01*
Y2171539D01*
X2632461Y2169000D01*
X2627383D01*
X2629922Y2174078D02*
X2624843Y2169000D01*
X2627383D02*
X2624843Y2171539D01*
X2612148Y2169000D02*
Y2184235D01*
X2619765Y2176617D01*
X2609608D01*
X2624843Y2088539D02*
Y2098696D01*
X2627383Y2101235D01*
X2632461D01*
X2635000Y2098696D01*
Y2088539D01*
X2632461Y2086000D01*
X2627383D01*
X2629922Y2091078D02*
X2624843Y2086000D01*
X2627383D02*
X2624843Y2088539D01*
X2609608Y2101235D02*
X2619765D01*
Y2093617D01*
X2614687Y2096157D01*
X2612148D01*
X2609608Y2093617D01*
Y2088539D01*
X2612148Y2086000D01*
X2617226D01*
X2619765Y2088539D01*
X2624843Y2005539D02*
Y2015696D01*
X2627383Y2018235D01*
X2632461D01*
X2635000Y2015696D01*
Y2005539D01*
X2632461Y2003000D01*
X2627383D01*
X2629922Y2008078D02*
X2624843Y2003000D01*
X2627383D02*
X2624843Y2005539D01*
X2609608Y2018235D02*
X2614687Y2015696D01*
X2619765Y2010617D01*
Y2005539D01*
X2617226Y2003000D01*
X2612148D01*
X2609608Y2005539D01*
Y2008078D01*
X2612148Y2010617D01*
X2619765D01*
X2624843Y1922539D02*
Y1932696D01*
X2627383Y1935235D01*
X2632461D01*
X2635000Y1932696D01*
Y1922539D01*
X2632461Y1920000D01*
X2627383D01*
X2629922Y1925078D02*
X2624843Y1920000D01*
X2627383D02*
X2624843Y1922539D01*
X2619765Y1935235D02*
X2609608D01*
Y1932696D01*
X2619765Y1922539D01*
Y1920000D01*
X2385000Y2264000D02*
X2369765D01*
Y2256382D01*
X2372304Y2253843D01*
X2377383D01*
X2379922Y2256382D01*
Y2264000D01*
Y2258922D02*
X2385000Y2253843D01*
Y2248765D02*
Y2243686D01*
Y2246226D01*
X2369765D01*
X2372304Y2248765D01*
X2385000Y1807000D02*
X2369765D01*
Y1799382D01*
X2372304Y1796843D01*
X2377383D01*
X2379922Y1799382D01*
Y1807000D01*
Y1801922D02*
X2385000Y1796843D01*
Y1781608D02*
Y1791765D01*
X2374843Y1781608D01*
X2372304D01*
X2369765Y1784147D01*
Y1789226D01*
X2372304Y1791765D01*
X2366000Y2064000D02*
Y2079235D01*
X2358383D01*
X2355843Y2076696D01*
Y2071617D01*
X2358383Y2069078D01*
X2366000D01*
X2360922D02*
X2355843Y2064000D01*
X2343147D02*
Y2079235D01*
X2350765Y2071617D01*
X2340608D01*
X2375000Y2141000D02*
Y2156235D01*
X2367383D01*
X2364843Y2153696D01*
Y2148617D01*
X2367383Y2146078D01*
X2375000D01*
X2369922D02*
X2364843Y2141000D01*
X2349608Y2156235D02*
X2359765D01*
Y2148617D01*
X2354687Y2151157D01*
X2352147D01*
X2349608Y2148617D01*
Y2143539D01*
X2352147Y2141000D01*
X2357226D01*
X2359765Y2143539D01*
X2352000Y1963000D02*
Y1978235D01*
X2344382D01*
X2341843Y1975696D01*
Y1970617D01*
X2344382Y1968078D01*
X2352000D01*
X2346922D02*
X2341843Y1963000D01*
X2326608Y1978235D02*
X2331687Y1975696D01*
X2336765Y1970617D01*
Y1965539D01*
X2334226Y1963000D01*
X2329147D01*
X2326608Y1965539D01*
Y1968078D01*
X2329147Y1970617D01*
X2336765D01*
X2475000Y2242000D02*
X2459765D01*
Y2234382D01*
X2462304Y2231843D01*
X2467383D01*
X2469922Y2234382D01*
Y2242000D01*
Y2236922D02*
X2475000Y2231843D01*
X2459765Y2226765D02*
Y2216608D01*
X2462304D01*
X2472461Y2226765D01*
X2475000D01*
Y2173000D02*
X2459765D01*
Y2165382D01*
X2462304Y2162843D01*
X2467383D01*
X2469922Y2165382D01*
Y2173000D01*
Y2167921D02*
X2475000Y2162843D01*
X2462304Y2157765D02*
X2459765Y2155226D01*
Y2150147D01*
X2462304Y2147608D01*
X2464843D01*
X2467383Y2150147D01*
X2469922Y2147608D01*
X2472461D01*
X2475000Y2150147D01*
Y2155226D01*
X2472461Y2157765D01*
X2469922D01*
X2467383Y2155226D01*
X2464843Y2157765D01*
X2462304D01*
X2467383Y2155226D02*
Y2150147D01*
X2478000Y2074750D02*
X2462765D01*
Y2067132D01*
X2465304Y2064593D01*
X2470383D01*
X2472922Y2067132D01*
Y2074750D01*
Y2069671D02*
X2478000Y2064593D01*
X2475461Y2059515D02*
X2478000Y2056976D01*
Y2051897D01*
X2475461Y2049358D01*
X2465304D01*
X2462765Y2051897D01*
Y2056976D01*
X2465304Y2059515D01*
X2467843D01*
X2470383Y2056976D01*
Y2049358D01*
X1682765Y2351586D02*
Y2361742D01*
X1698000D01*
Y2351586D01*
X1690383Y2361742D02*
Y2356664D01*
X1698000Y2346507D02*
Y2341429D01*
Y2343968D01*
X1682765D01*
Y2346507D01*
X1698000Y2326194D02*
Y2331272D01*
X1695461Y2333811D01*
X1690383D01*
X1687843Y2331272D01*
Y2326194D01*
X1690383Y2323655D01*
X1692922D01*
Y2333811D01*
X1687843Y2308420D02*
Y2316037D01*
X1690383Y2318576D01*
X1695461D01*
X1698000Y2316037D01*
Y2308420D01*
X1685304Y2300802D02*
X1687843D01*
Y2303341D01*
Y2298263D01*
Y2300802D01*
X1695461D01*
X1698000Y2298263D01*
X1687843Y2290645D02*
X1698000D01*
X1692922D01*
X1690383Y2288106D01*
X1687843Y2285567D01*
Y2283028D01*
X1698000Y2272871D02*
Y2267793D01*
X1695461Y2265254D01*
X1690383D01*
X1687843Y2267793D01*
Y2272871D01*
X1690383Y2275410D01*
X1695461D01*
X1698000Y2272871D01*
Y2260175D02*
Y2255097D01*
Y2257636D01*
X1687843D01*
Y2260175D01*
X1698000Y2247479D02*
X1687843D01*
Y2239862D01*
X1690383Y2237323D01*
X1698000D01*
Y2232244D02*
Y2227166D01*
Y2229705D01*
X1687843D01*
Y2232244D01*
Y2209392D02*
Y2217009D01*
X1690383Y2219548D01*
X1695461D01*
X1698000Y2217009D01*
Y2209392D01*
X1682765Y2189078D02*
X1698000D01*
Y2178922D01*
Y2171304D02*
Y2166226D01*
X1695461Y2163687D01*
X1690383D01*
X1687843Y2166226D01*
Y2171304D01*
X1690383Y2173843D01*
X1695461D01*
X1698000Y2171304D01*
X1687843Y2156069D02*
Y2150991D01*
X1690383Y2148451D01*
X1698000D01*
Y2156069D01*
X1695461Y2158608D01*
X1692922Y2156069D01*
Y2148451D01*
X1682765Y2133216D02*
X1698000D01*
Y2140834D01*
X1695461Y2143373D01*
X1690383D01*
X1687843Y2140834D01*
Y2133216D01*
X1685304Y2102746D02*
X1682765Y2105285D01*
Y2110364D01*
X1685304Y2112903D01*
X1695461D01*
X1698000Y2110364D01*
Y2105285D01*
X1695461Y2102746D01*
X1690383D01*
Y2107825D01*
X1698000Y2090050D02*
Y2095129D01*
X1695461Y2097668D01*
X1690383D01*
X1687843Y2095129D01*
Y2090050D01*
X1690383Y2087511D01*
X1692922D01*
Y2097668D01*
X1698000Y2082433D02*
X1687843D01*
Y2074815D01*
X1690383Y2072276D01*
X1698000D01*
Y2041806D02*
Y2051963D01*
X1687843Y2041806D01*
X1685304D01*
X1682765Y2044345D01*
Y2049423D01*
X1685304Y2051963D01*
X1698000Y2021492D02*
X1682765D01*
Y2013875D01*
X1685304Y2011336D01*
X1690383D01*
X1692922Y2013875D01*
Y2021492D01*
Y2016414D02*
X1698000Y2011336D01*
Y1998640D02*
Y2003718D01*
X1695461Y2006257D01*
X1690383D01*
X1687843Y2003718D01*
Y1998640D01*
X1690383Y1996101D01*
X1692922D01*
Y2006257D01*
X1687843Y1991022D02*
X1698000Y1985944D01*
X1687843Y1980866D01*
X1698000Y1950396D02*
Y1960552D01*
X1687843Y1950396D01*
X1685304D01*
X1682765Y1952935D01*
Y1958013D01*
X1685304Y1960552D01*
X1698000Y1930082D02*
X1682765D01*
Y1922464D01*
X1685304Y1919925D01*
X1690383D01*
X1692922Y1922464D01*
Y1930082D01*
X1698000Y1912308D02*
Y1907229D01*
X1695461Y1904690D01*
X1690383D01*
X1687843Y1907229D01*
Y1912308D01*
X1690383Y1914847D01*
X1695461D01*
X1698000Y1912308D01*
X1687843Y1899612D02*
X1695461D01*
X1698000Y1897073D01*
X1695461Y1894534D01*
X1698000Y1891994D01*
X1695461Y1889455D01*
X1687843D01*
X1698000Y1876759D02*
Y1881838D01*
X1695461Y1884377D01*
X1690383D01*
X1687843Y1881838D01*
Y1876759D01*
X1690383Y1874220D01*
X1692922D01*
Y1884377D01*
X1687843Y1869142D02*
X1698000D01*
X1692922D01*
X1690383Y1866603D01*
X1687843Y1864063D01*
Y1861524D01*
X1698000Y1838672D02*
X1687843D01*
X1682765Y1833593D01*
X1687843Y1828515D01*
X1698000D01*
X1690383D01*
Y1838672D01*
X1698000Y1823436D02*
Y1815819D01*
X1695461Y1813280D01*
X1692922Y1815819D01*
Y1820897D01*
X1690383Y1823436D01*
X1687843Y1820897D01*
Y1813280D01*
X1698000Y1808201D02*
Y1800584D01*
X1695461Y1798045D01*
X1692922Y1800584D01*
Y1805662D01*
X1690383Y1808201D01*
X1687843Y1805662D01*
Y1798045D01*
X1698000Y1785349D02*
Y1790427D01*
X1695461Y1792966D01*
X1690383D01*
X1687843Y1790427D01*
Y1785349D01*
X1690383Y1782810D01*
X1692922D01*
Y1792966D01*
X1698000Y1777731D02*
X1687843D01*
Y1775192D01*
X1690383Y1772653D01*
X1698000D01*
X1690383D01*
X1687843Y1770114D01*
X1690383Y1767575D01*
X1698000D01*
X1682765Y1762496D02*
X1698000D01*
Y1754879D01*
X1695461Y1752339D01*
X1692922D01*
X1690383D01*
X1687843Y1754879D01*
Y1762496D01*
X1698000Y1747261D02*
Y1742183D01*
Y1744722D01*
X1682765D01*
Y1747261D01*
X1687843Y1734565D02*
X1695461D01*
X1698000Y1732026D01*
Y1724409D01*
X1700539D01*
X1703078Y1726948D01*
Y1729487D01*
X1698000Y1724409D02*
X1687843D01*
X1635000Y2138295D02*
X1619765D01*
X1624843Y2133216D01*
X1619765Y2128138D01*
X1635000D01*
Y2115442D02*
Y2120520D01*
X1632461Y2123060D01*
X1627383D01*
X1624843Y2120520D01*
Y2115442D01*
X1627383Y2112903D01*
X1629922D01*
Y2123060D01*
X1635000Y2107825D02*
Y2102746D01*
Y2105285D01*
X1619765D01*
Y2107825D01*
X1624843Y2092589D02*
Y2087511D01*
X1627383Y2084972D01*
X1635000D01*
Y2092589D01*
X1632461Y2095129D01*
X1629922Y2092589D01*
Y2084972D01*
X1635000Y2079894D02*
X1624843D01*
Y2072276D01*
X1627383Y2069737D01*
X1635000D01*
Y2064659D02*
Y2057041D01*
X1632461Y2054502D01*
X1629922Y2057041D01*
Y2062119D01*
X1627383Y2064659D01*
X1624843Y2062119D01*
Y2054502D01*
X1635000Y2046884D02*
Y2041806D01*
X1632461Y2039267D01*
X1627383D01*
X1624843Y2041806D01*
Y2046884D01*
X1627383Y2049423D01*
X1632461D01*
X1635000Y2046884D01*
Y2034188D02*
X1624843D01*
Y2026571D01*
X1627383Y2024032D01*
X1635000D01*
Y1993562D02*
Y2003718D01*
X1624843Y1993562D01*
X1622304D01*
X1619765Y1996101D01*
Y2001179D01*
X1622304Y2003718D01*
Y1988483D02*
X1619765Y1985944D01*
Y1980866D01*
X1622304Y1978326D01*
X1632461D01*
X1635000Y1980866D01*
Y1985944D01*
X1632461Y1988483D01*
X1622304D01*
X1635000Y1963091D02*
Y1973248D01*
X1624843Y1963091D01*
X1622304D01*
X1619765Y1965630D01*
Y1970709D01*
X1622304Y1973248D01*
Y1958013D02*
X1619765Y1955474D01*
Y1950395D01*
X1622304Y1947856D01*
X1632461D01*
X1635000Y1950395D01*
Y1955474D01*
X1632461Y1958013D01*
X1622304D01*
X1577000Y1161000D02*
Y2611000D01*
Y1161000D02*
X2877000D01*
Y2611000D01*
X1577000D02*
X2877000D01*
D38*
X2586303Y1965530D02*
G03*
X2586303Y1965530I-1250J0D01*
G01*
Y2047233D02*
G03*
X2586303Y2047233I-1250J0D01*
G01*
Y2128937D02*
G03*
X2586303Y2128937I-1250J0D01*
G01*
Y2210640D02*
G03*
X2586303Y2210640I-1250J0D01*
G01*
X2452713Y2095110D02*
G03*
X2452713Y2095110I-1250J0D01*
G01*
X2532250Y2269000D02*
G03*
X2532250Y2269000I-1250J0D01*
G01*
X2442963Y2008910D02*
X2460963D01*
Y1918910D02*
Y2008910D01*
X2443963Y1918910D02*
X2460963D01*
X2360963Y2008910D02*
X2377963D01*
X2360963Y1918910D02*
Y2008910D01*
Y1918910D02*
X2378963D01*
D39*
X2545583Y1961830D02*
X2557053D01*
Y1896430D02*
Y1961830D01*
X2545583Y1896430D02*
X2557053D01*
X2545583Y2043533D02*
X2557053D01*
Y1978133D02*
Y2043533D01*
X2545583Y1978133D02*
X2557053D01*
X2545583Y2125237D02*
X2557053D01*
Y2059837D02*
Y2125237D01*
X2545583Y2059837D02*
X2557053D01*
X2545583Y2206940D02*
X2557053D01*
Y2141540D02*
Y2206940D01*
X2545583Y2141540D02*
X2557053D01*
X2360963Y1918910D02*
Y1938910D01*
X2550000Y2262000D02*
Y2278000D01*
X2567800D02*
X2583000D01*
Y2262000D02*
Y2278000D01*
X2567800Y2262000D02*
X2583000D01*
X2537000D02*
Y2278000D01*
X2552200D01*
X2537000Y2262000D02*
X2552200D01*
X2567800D01*
X2552200Y2278000D02*
X2567800D01*
D67*
X2426375Y2042058D02*
X2434487D01*
Y2035962D02*
Y2042058D01*
X2426375Y2013834D02*
X2434487D01*
Y2019834D01*
X2436375Y2132058D02*
X2444487D01*
Y2125962D02*
Y2132058D01*
X2436375Y2103834D02*
X2444487D01*
Y2109834D01*
X2436375Y2202058D02*
X2444487D01*
Y2195962D02*
Y2202058D01*
X2436375Y2173834D02*
X2444487D01*
Y2179834D01*
D68*
X2382963Y2136910D02*
Y2158910D01*
X2389963D01*
X2382963Y2136910D02*
X2389963D01*
X2417963Y2158910D02*
X2424963D01*
X2417963Y2136910D02*
X2424963D01*
Y2158910D01*
X2477000Y2013000D02*
Y2019000D01*
X2459000Y2013000D02*
X2477000D01*
X2459000D02*
Y2019000D01*
X2477000Y2037000D02*
Y2043000D01*
X2459000D02*
X2477000D01*
X2459000Y2037000D02*
Y2043000D01*
Y2137000D02*
Y2143000D01*
X2477000D01*
Y2137000D02*
Y2143000D01*
X2459000Y2113000D02*
Y2119000D01*
Y2113000D02*
X2477000D01*
Y2119000D01*
X2458000Y2207000D02*
Y2213000D01*
X2476000D01*
Y2207000D02*
Y2213000D01*
X2458000Y2183000D02*
Y2189000D01*
Y2183000D02*
X2476000D01*
Y2189000D01*
M02*
