G04*
G04 #@! TF.GenerationSoftware,Altium Limited,CircuitStudio,1.5.2 (1.5.2.30)*
G04*
G04 Layer_Color=16770453*
%FSLAX44Y44*%
%MOMM*%
G71*
G01*
G75*
%ADD11C,0.2540*%
%ADD28R,3.0000X1.6000*%
%ADD29R,6.2000X5.8000*%
%ADD30R,0.9144X0.8128*%
%ADD31R,0.9000X1.6000*%
%ADD32R,1.6800X3.6500*%
%ADD33R,3.5000X1.6000*%
G04:AMPARAMS|DCode=34|XSize=1.6mm|YSize=3.5mm|CornerRadius=0.2mm|HoleSize=0mm|Usage=FLASHONLY|Rotation=90.000|XOffset=0mm|YOffset=0mm|HoleType=Round|Shape=RoundedRectangle|*
%AMROUNDEDRECTD34*
21,1,1.6000,3.1000,0,0,90.0*
21,1,1.2000,3.5000,0,0,90.0*
1,1,0.4000,1.5500,0.6000*
1,1,0.4000,1.5500,-0.6000*
1,1,0.4000,-1.5500,-0.6000*
1,1,0.4000,-1.5500,0.6000*
%
%ADD34ROUNDEDRECTD34*%
%ADD35R,1.3000X0.7000*%
%ADD36R,2.7500X7.8200*%
%ADD37R,0.9100X1.2200*%
D11*
X1577000Y1161000D02*
Y2611000D01*
Y1161000D02*
X2877000D01*
Y2611000D01*
X1577000D02*
X2877000D01*
D28*
X2585053Y1952030D02*
D03*
Y1906230D02*
D03*
Y2033733D02*
D03*
Y1987933D02*
D03*
Y2115437D02*
D03*
Y2069637D02*
D03*
Y2197140D02*
D03*
Y2151340D02*
D03*
D29*
X2513053Y1929130D02*
D03*
Y2010833D02*
D03*
Y2092537D02*
D03*
Y2174240D02*
D03*
D30*
X2417375Y2018334D02*
D03*
Y2037486D02*
D03*
X2438551Y2027834D02*
D03*
X2427375Y2108334D02*
D03*
Y2127486D02*
D03*
X2448551Y2117834D02*
D03*
X2427375Y2178334D02*
D03*
Y2197486D02*
D03*
X2448551Y2187834D02*
D03*
D31*
X2418463Y2147910D02*
D03*
X2389463D02*
D03*
D32*
X2383963Y2070910D02*
D03*
X2449963D02*
D03*
D33*
X2377000Y2175250D02*
D03*
Y1875500D02*
D03*
D34*
Y2229250D02*
D03*
Y1821500D02*
D03*
D35*
X2468000Y2018500D02*
D03*
Y2037500D02*
D03*
Y2137500D02*
D03*
Y2118500D02*
D03*
X2467000Y2207500D02*
D03*
Y2188500D02*
D03*
D36*
X2379663Y1963910D02*
D03*
X2442263D02*
D03*
D37*
X2543650Y2270000D02*
D03*
X2576350D02*
D03*
M02*
