G04*
G04 #@! TF.GenerationSoftware,Altium Limited,CircuitStudio,1.5.2 (1.5.2.30)*
G04*
G04 Layer_Color=11767835*
%FSLAX44Y44*%
%MOMM*%
G71*
G01*
G75*
%ADD11C,0.2540*%
%ADD13C,1.8000*%
%ADD14C,6.0000*%
%ADD15O,2.5400X3.1750*%
%ADD16C,2.1000*%
%ADD17R,2.1000X2.1000*%
%ADD18C,1.7500*%
%ADD19C,1.5240*%
%ADD20O,1.5000X2.5000*%
%ADD21C,3.0000*%
%ADD22C,1.9050*%
%ADD23R,1.9050X1.9050*%
%ADD24C,2.2500*%
%ADD25C,2.0000*%
%ADD28R,3.0000X1.6000*%
%ADD29R,6.2000X5.8000*%
%ADD30R,0.9144X0.8128*%
%ADD31R,0.9000X1.6000*%
%ADD32R,1.6800X3.6500*%
%ADD33R,3.5000X1.6000*%
G04:AMPARAMS|DCode=34|XSize=1.6mm|YSize=3.5mm|CornerRadius=0.2mm|HoleSize=0mm|Usage=FLASHONLY|Rotation=90.000|XOffset=0mm|YOffset=0mm|HoleType=Round|Shape=RoundedRectangle|*
%AMROUNDEDRECTD34*
21,1,1.6000,3.1000,0,0,90.0*
21,1,1.2000,3.5000,0,0,90.0*
1,1,0.4000,1.5500,0.6000*
1,1,0.4000,1.5500,-0.6000*
1,1,0.4000,-1.5500,-0.6000*
1,1,0.4000,-1.5500,0.6000*
%
%ADD34ROUNDEDRECTD34*%
%ADD35R,1.3000X0.7000*%
%ADD36R,2.7500X7.8200*%
%ADD37R,0.9100X1.2200*%
D11*
X1577000Y1161000D02*
Y2611000D01*
Y1161000D02*
X2877000D01*
Y2611000D01*
X1577000D02*
X2877000D01*
D13*
X2371000Y2250000D02*
D03*
Y2150000D02*
D03*
Y1802500D02*
D03*
Y1902500D02*
D03*
D14*
X2736000Y2566000D02*
D03*
X2492000Y1790000D02*
D03*
X2694920Y2281910D02*
D03*
Y1821910D02*
D03*
X2678000Y1464000D02*
D03*
X1613000Y2324500D02*
D03*
Y1681000D02*
D03*
D15*
X1707948Y1576000D02*
D03*
X1637844D02*
D03*
Y1526000D02*
D03*
X1707948D02*
D03*
X1637844Y1476000D02*
D03*
X1707948D02*
D03*
X2552948Y1576000D02*
D03*
X2482844D02*
D03*
Y1526000D02*
D03*
X2552948D02*
D03*
X2482844Y1476000D02*
D03*
X2552948D02*
D03*
X1634052Y2429500D02*
D03*
X1704156D02*
D03*
Y2479500D02*
D03*
X1634052D02*
D03*
X1704156Y2529500D02*
D03*
X1634052D02*
D03*
X2552948Y2527000D02*
D03*
X2482844D02*
D03*
Y2477000D02*
D03*
X2552948D02*
D03*
X2482844Y2427000D02*
D03*
X2552948D02*
D03*
D16*
X2184250Y1864600D02*
D03*
Y1919000D02*
D03*
Y2091500D02*
D03*
Y2037100D02*
D03*
D17*
Y1973400D02*
D03*
Y2145900D02*
D03*
D18*
X2115400Y1202000D02*
D03*
X2140800D02*
D03*
X2217000D02*
D03*
X2191600D02*
D03*
X2242400D02*
D03*
X2344000D02*
D03*
X2318600D02*
D03*
X2267800D02*
D03*
X2293200D02*
D03*
X2394800D02*
D03*
X2369400D02*
D03*
X2420200D02*
D03*
X2445600D02*
D03*
X2549300D02*
D03*
X2574700D02*
D03*
X2600100D02*
D03*
X2699600D02*
D03*
X2750400D02*
D03*
X2775800D02*
D03*
X2826600D02*
D03*
D19*
X1847750Y2015250D02*
D03*
Y1989850D02*
D03*
D20*
X1922000Y1231940D02*
D03*
X1902000D02*
D03*
X1882000D02*
D03*
X1862000D02*
D03*
D21*
X2772656Y1931718D02*
D03*
Y2031718D02*
D03*
Y2106718D02*
D03*
Y2181718D02*
D03*
D22*
X1818200Y1220460D02*
D03*
X1792800D02*
D03*
X1767400D02*
D03*
D23*
X1742000D02*
D03*
D24*
X2771000Y1668000D02*
D03*
X2671000D02*
D03*
X2770000Y2470000D02*
D03*
X2670000D02*
D03*
D25*
X1634600Y1225000D02*
D03*
X1660000D02*
D03*
X1685400D02*
D03*
D28*
X2585053Y1952030D02*
D03*
Y1906230D02*
D03*
Y2033733D02*
D03*
Y1987933D02*
D03*
Y2115437D02*
D03*
Y2069637D02*
D03*
Y2197140D02*
D03*
Y2151340D02*
D03*
D29*
X2513053Y1929130D02*
D03*
Y2010833D02*
D03*
Y2092537D02*
D03*
Y2174240D02*
D03*
D30*
X2417375Y2018334D02*
D03*
Y2037486D02*
D03*
X2438551Y2027834D02*
D03*
X2427375Y2108334D02*
D03*
Y2127486D02*
D03*
X2448551Y2117834D02*
D03*
X2427375Y2178334D02*
D03*
Y2197486D02*
D03*
X2448551Y2187834D02*
D03*
D31*
X2418463Y2147910D02*
D03*
X2389463D02*
D03*
D32*
X2383963Y2070910D02*
D03*
X2449963D02*
D03*
D33*
X2377000Y2175250D02*
D03*
Y1875500D02*
D03*
D34*
Y2229250D02*
D03*
Y1821500D02*
D03*
D35*
X2468000Y2018500D02*
D03*
Y2037500D02*
D03*
Y2137500D02*
D03*
Y2118500D02*
D03*
X2467000Y2207500D02*
D03*
Y2188500D02*
D03*
D36*
X2379663Y1963910D02*
D03*
X2442263D02*
D03*
D37*
X2543650Y2270000D02*
D03*
X2576350D02*
D03*
M02*
