G04*
G04 #@! TF.GenerationSoftware,Altium Limited,CircuitStudio,1.5.2 (1.5.2.30)*
G04*
G04 Layer_Physical_Order=2*
G04 Layer_Color=12500520*
%FSLAX44Y44*%
%MOMM*%
G71*
G01*
G75*
%ADD11C,0.2540*%
%ADD12C,0.5000*%
%ADD13C,1.8000*%
%ADD14C,6.0000*%
%ADD15O,2.5400X3.1750*%
%ADD16C,2.1000*%
%ADD17R,2.1000X2.1000*%
%ADD18C,1.7500*%
%ADD19C,1.5240*%
%ADD20O,1.5000X2.5000*%
%ADD21C,3.0000*%
%ADD22C,1.9050*%
%ADD23R,1.9050X1.9050*%
%ADD24C,2.2500*%
%ADD25C,2.0000*%
%ADD26C,0.6000*%
%ADD27C,0.3000*%
%ADD28R,3.0000X1.6000*%
%ADD29R,6.2000X5.8000*%
%ADD30R,0.9144X0.8128*%
%ADD31R,0.9000X1.6000*%
%ADD32R,1.6800X3.6500*%
%ADD33R,3.5000X1.6000*%
G04:AMPARAMS|DCode=34|XSize=1.6mm|YSize=3.5mm|CornerRadius=0.2mm|HoleSize=0mm|Usage=FLASHONLY|Rotation=90.000|XOffset=0mm|YOffset=0mm|HoleType=Round|Shape=RoundedRectangle|*
%AMROUNDEDRECTD34*
21,1,1.6000,3.1000,0,0,90.0*
21,1,1.2000,3.5000,0,0,90.0*
1,1,0.4000,1.5500,0.6000*
1,1,0.4000,1.5500,-0.6000*
1,1,0.4000,-1.5500,-0.6000*
1,1,0.4000,-1.5500,0.6000*
%
%ADD34ROUNDEDRECTD34*%
%ADD35R,1.3000X0.7000*%
%ADD36R,2.7500X7.8200*%
%ADD37R,0.9100X1.2200*%
G36*
X2874001Y2599102D02*
X2874000Y2066217D01*
X2873176Y2065876D01*
X2872730Y2065828D01*
X2858115Y2080443D01*
X2857216Y2081211D01*
X2856380Y2082047D01*
X2855507Y2082793D01*
X2855507Y2082793D01*
X2855507Y2082793D01*
X2855507Y2082793D01*
X2854550Y2083488D01*
X2854525Y2083510D01*
X2854496Y2083527D01*
X2851686Y2085568D01*
X2848660Y2087110D01*
X2847479Y2087712D01*
X2847479Y2087712D01*
X2847479Y2087712D01*
X2842988Y2089171D01*
X2839559Y2089714D01*
X2839526Y2089722D01*
X2839492Y2089725D01*
X2838762Y2089841D01*
X2838324Y2089910D01*
X2838324D01*
X2838324Y2089910D01*
X2838324D01*
X2837180Y2090000D01*
X2835997Y2090000D01*
X2834818Y2090093D01*
X2815876Y2090093D01*
X2815114Y2090805D01*
X2814885Y2091125D01*
X2816216Y2095046D01*
X2817367Y2100832D01*
X2817752Y2106718D01*
X2817367Y2112604D01*
X2816216Y2118390D01*
X2814320Y2123976D01*
X2811711Y2129266D01*
X2808434Y2134171D01*
X2804544Y2138606D01*
X2800109Y2142495D01*
X2795204Y2145773D01*
X2794915Y2145915D01*
X2789914Y2148382D01*
X2784328Y2150278D01*
X2778542Y2151429D01*
X2772656Y2151814D01*
X2766770Y2151429D01*
X2760984Y2150278D01*
X2755398Y2148382D01*
X2750108Y2145773D01*
X2745203Y2142495D01*
X2740768Y2138606D01*
X2736878Y2134171D01*
X2733601Y2129266D01*
X2730992Y2123976D01*
X2729096Y2118390D01*
X2727945Y2112604D01*
X2727560Y2106718D01*
X2727945Y2100832D01*
X2729096Y2095046D01*
X2730992Y2089460D01*
X2733601Y2084170D01*
X2733506Y2083913D01*
X2733113Y2083578D01*
X2732156Y2082882D01*
X2731650Y2082450D01*
X2731650Y2082450D01*
X2731178Y2082047D01*
X2730469Y2081338D01*
X2730088Y2081017D01*
X2730008Y2080925D01*
X2729915Y2080846D01*
X2729915Y2080846D01*
X2729915Y2080846D01*
X2729443Y2080443D01*
X2679650Y2030650D01*
X2678882Y2029751D01*
X2678046Y2028915D01*
X2677300Y2028042D01*
X2676606Y2027085D01*
X2676583Y2027059D01*
X2676566Y2027030D01*
X2675630Y2025743D01*
X2674525Y2024221D01*
X2674525Y2024221D01*
X2674525Y2024221D01*
X2673596Y2022398D01*
X2672381Y2020014D01*
X2672381Y2020014D01*
X2672381Y2020014D01*
X2671322Y2016756D01*
X2670922Y2015523D01*
Y2015523D01*
X2670922Y2015523D01*
X2670616Y2013597D01*
X2670379Y2012094D01*
X2670370Y2012061D01*
X2670368Y2012027D01*
X2670183Y2010859D01*
X2670093Y2009714D01*
Y2008532D01*
X2670000Y2007353D01*
X2670001Y1912182D01*
Y1912182D01*
Y1911000D01*
X2669418Y1910418D01*
X2669034Y1909890D01*
X2668382Y1909143D01*
X2668269Y1908991D01*
X2667799Y1908243D01*
X2667755Y1908186D01*
X2667755Y1908186D01*
X2667682Y1908058D01*
X2667551Y1907848D01*
X2666757Y1906756D01*
X2666296Y1905852D01*
X2665757Y1904992D01*
X2665226Y1903751D01*
X2664613Y1902548D01*
X2664300Y1901583D01*
X2663901Y1900650D01*
X2663571Y1899341D01*
X2663154Y1898057D01*
X2662995Y1897055D01*
X2662747Y1896071D01*
X2662626Y1894727D01*
X2662415Y1893393D01*
X2662415Y1892379D01*
X2662324Y1891368D01*
X2662415Y1890021D01*
X2662415Y1888671D01*
X2662573Y1887669D01*
X2662642Y1886657D01*
X2662942Y1885341D01*
X2663153Y1884007D01*
X2663244Y1883631D01*
X2663542Y1882711D01*
X2663636Y1882301D01*
X2658690Y1879568D01*
X2652463Y1875150D01*
X2646769Y1870061D01*
X2641680Y1864367D01*
X2637261Y1858139D01*
X2633568Y1851456D01*
X2630645Y1844401D01*
X2628531Y1837063D01*
X2627252Y1829534D01*
X2626824Y1821910D01*
X2627252Y1814286D01*
X2628531Y1806757D01*
X2630645Y1799419D01*
X2633568Y1792364D01*
X2636363Y1787306D01*
X2635342Y1786285D01*
X2634097Y1785147D01*
X2633675Y1784618D01*
X2633196Y1784139D01*
X2632205Y1782774D01*
X2631153Y1781455D01*
X2630818Y1780867D01*
X2630421Y1780319D01*
X2629655Y1778816D01*
X2628822Y1777348D01*
X2628584Y1776715D01*
X2628277Y1776112D01*
X2627755Y1774507D01*
X2627162Y1772927D01*
X2627027Y1772264D01*
X2626818Y1771621D01*
X2626554Y1769955D01*
X2626215Y1768301D01*
X2626185Y1767625D01*
X2626079Y1766957D01*
X2626000Y1765956D01*
X2626000Y1764774D01*
X2625907Y1763595D01*
Y1749182D01*
X2626000Y1748003D01*
X2626000Y1746821D01*
X2626082Y1745777D01*
X2626082Y1745776D01*
Y1745776D01*
X2626090Y1745675D01*
X2626237Y1744750D01*
X2626292Y1743882D01*
X2626292Y1743882D01*
X2626573Y1742628D01*
X2626829Y1741012D01*
X2626829Y1741012D01*
X2626829Y1741011D01*
X2627171Y1739959D01*
X2627324Y1739274D01*
X2627707Y1738309D01*
X2628288Y1736521D01*
X2628288Y1736521D01*
X2628289Y1736520D01*
X2628866Y1735388D01*
X2629065Y1734885D01*
X2629473Y1734196D01*
X2630432Y1732314D01*
X2630432Y1732314D01*
X2630432Y1732313D01*
X2631272Y1731157D01*
X2631471Y1730822D01*
X2631839Y1730377D01*
X2631952Y1730222D01*
X2631999Y1730157D01*
X2632151Y1729904D01*
X2632151Y1729904D01*
X2632229Y1729811D01*
X2632293Y1729707D01*
X2632513Y1729450D01*
X2633207Y1728494D01*
X2633208Y1728493D01*
X2633208Y1728493D01*
X2633208Y1728493D01*
X2633756Y1727852D01*
X2633756Y1727851D01*
X2633757Y1727851D01*
X2633954Y1727620D01*
X2634684Y1726890D01*
X2635189Y1726289D01*
X2635281Y1726209D01*
X2635360Y1726116D01*
X2635360Y1726116D01*
X2635360Y1726116D01*
X2635557Y1725885D01*
X2654279Y1707163D01*
X2654025Y1705622D01*
X2650331Y1703800D01*
X2645835Y1700796D01*
X2641769Y1697231D01*
X2638204Y1693165D01*
X2635200Y1688669D01*
X2632808Y1683819D01*
X2631070Y1678699D01*
X2630015Y1673396D01*
X2629662Y1668000D01*
X2630015Y1662604D01*
X2631070Y1657301D01*
X2632808Y1652180D01*
X2635200Y1647331D01*
X2638204Y1642835D01*
X2641769Y1638769D01*
X2645835Y1635204D01*
X2650331Y1632200D01*
X2655180Y1629808D01*
X2660301Y1628070D01*
X2665604Y1627015D01*
X2671000Y1626662D01*
X2676396Y1627015D01*
X2681699Y1628070D01*
X2686819Y1629808D01*
X2691669Y1632200D01*
X2696165Y1635204D01*
X2700231Y1638769D01*
X2703796Y1642835D01*
X2706800Y1647331D01*
X2708622Y1651025D01*
X2708975Y1651083D01*
X2710164Y1651280D01*
X2710164Y1651280D01*
X2710164Y1651280D01*
X2740887Y1620557D01*
X2741786Y1619789D01*
X2742622Y1618953D01*
X2743495Y1618207D01*
X2744452Y1617512D01*
X2744478Y1617490D01*
X2744506Y1617472D01*
X2745062Y1617068D01*
X2747315Y1615432D01*
X2751523Y1613288D01*
X2751523Y1613288D01*
X2756014Y1611828D01*
X2759309Y1611307D01*
X2759443Y1611285D01*
X2759476Y1611277D01*
X2759510Y1611275D01*
X2760678Y1611090D01*
X2761823Y1611000D01*
X2763005D01*
X2764183Y1610907D01*
X2843818D01*
X2844997Y1611000D01*
X2846179Y1611000D01*
X2847324Y1611090D01*
X2848492Y1611275D01*
X2848525Y1611277D01*
X2848559Y1611285D01*
X2851988Y1611829D01*
X2854906Y1612777D01*
X2856479Y1613288D01*
X2856479Y1613288D01*
X2856636Y1613368D01*
X2860686Y1615432D01*
X2863495Y1617473D01*
X2863524Y1617490D01*
X2863550Y1617512D01*
X2864507Y1618207D01*
X2865380Y1618953D01*
X2866216Y1619789D01*
X2867115Y1620557D01*
X2872826Y1626268D01*
X2874000Y1625782D01*
X2873999Y1168999D01*
X2849250Y1168999D01*
X2848905Y1170221D01*
X2849447Y1170554D01*
X2854085Y1174515D01*
X2858047Y1179153D01*
X2861234Y1184353D01*
X2863568Y1189988D01*
X2864991Y1195919D01*
X2865470Y1202000D01*
X2864991Y1208080D01*
X2863568Y1214011D01*
X2861234Y1219646D01*
X2858047Y1224847D01*
X2854085Y1229485D01*
X2849447Y1233446D01*
X2844247Y1236633D01*
X2838611Y1238967D01*
X2832681Y1240391D01*
X2826600Y1240870D01*
X2820520Y1240391D01*
X2814589Y1238967D01*
X2808954Y1236633D01*
X2803753Y1233446D01*
X2799115Y1229485D01*
X2795154Y1224847D01*
X2791967Y1219646D01*
X2789633Y1214011D01*
X2788209Y1208080D01*
X2787986Y1205240D01*
X2787485Y1205117D01*
X2786706Y1205173D01*
X2785662Y1207693D01*
X2783852Y1210052D01*
X2781494Y1211862D01*
X2778747Y1212999D01*
X2777070Y1213220D01*
Y1202000D01*
Y1190780D01*
X2778747Y1191001D01*
X2781494Y1192138D01*
X2783852Y1193948D01*
X2785662Y1196306D01*
X2786706Y1198827D01*
X2787485Y1198883D01*
X2787986Y1198760D01*
X2788209Y1195919D01*
X2789633Y1189988D01*
X2791967Y1184353D01*
X2795154Y1179153D01*
X2799115Y1174515D01*
X2803753Y1170554D01*
X2804295Y1170221D01*
X2803950Y1168999D01*
X2722250Y1168999D01*
X2721906Y1170222D01*
X2722447Y1170554D01*
X2727085Y1174515D01*
X2731046Y1179153D01*
X2734233Y1184353D01*
X2736567Y1189988D01*
X2737991Y1195919D01*
X2738215Y1198760D01*
X2738715Y1198883D01*
X2739494Y1198827D01*
X2740538Y1196306D01*
X2742348Y1193948D01*
X2744706Y1192138D01*
X2747453Y1191001D01*
X2749130Y1190780D01*
Y1202000D01*
Y1213220D01*
X2747453Y1212999D01*
X2744706Y1211862D01*
X2742348Y1210052D01*
X2740538Y1207693D01*
X2739494Y1205173D01*
X2738715Y1205117D01*
X2738215Y1205240D01*
X2737991Y1208080D01*
X2736567Y1214011D01*
X2734233Y1219646D01*
X2731046Y1224847D01*
X2727085Y1229485D01*
X2722447Y1233446D01*
X2717247Y1236633D01*
X2711612Y1238967D01*
X2705681Y1240391D01*
X2699600Y1240870D01*
X2693520Y1240391D01*
X2687589Y1238967D01*
X2681954Y1236633D01*
X2676753Y1233446D01*
X2672115Y1229485D01*
X2668154Y1224847D01*
X2664967Y1219646D01*
X2662633Y1214011D01*
X2661209Y1208080D01*
X2660730Y1202000D01*
X2661209Y1195919D01*
X2662633Y1189988D01*
X2664967Y1184353D01*
X2668154Y1179153D01*
X2672115Y1174515D01*
X2676753Y1170554D01*
X2677295Y1170222D01*
X2676950Y1168999D01*
X1587844Y1169000D01*
X1587844Y1625334D01*
X1588900Y1626039D01*
X1593152Y1624278D01*
X1599628Y1622412D01*
X1606272Y1621283D01*
X1613000Y1620905D01*
X1619729Y1621283D01*
X1626372Y1622412D01*
X1632848Y1624278D01*
X1639074Y1626857D01*
X1644972Y1630116D01*
X1650468Y1634016D01*
X1655493Y1638507D01*
X1659984Y1643532D01*
X1663884Y1649028D01*
X1667143Y1654926D01*
X1669722Y1661152D01*
X1671588Y1667628D01*
X1672717Y1674272D01*
X1673095Y1681000D01*
X1672717Y1687728D01*
X1671588Y1694372D01*
X1669722Y1700848D01*
X1667143Y1707074D01*
X1663884Y1712972D01*
X1659984Y1718468D01*
X1655493Y1723493D01*
X1650468Y1727984D01*
X1644972Y1731884D01*
X1639074Y1735143D01*
X1632848Y1737722D01*
X1626372Y1739588D01*
X1619729Y1740717D01*
X1613000Y1741095D01*
X1606272Y1740717D01*
X1599628Y1739588D01*
X1593152Y1737722D01*
X1588900Y1735961D01*
X1587844Y1736667D01*
X1587844Y2268833D01*
X1588900Y2269539D01*
X1593152Y2267778D01*
X1599628Y2265912D01*
X1606272Y2264783D01*
X1613000Y2264406D01*
X1619729Y2264783D01*
X1626372Y2265912D01*
X1632848Y2267778D01*
X1639074Y2270357D01*
X1644972Y2273616D01*
X1650468Y2277516D01*
X1655493Y2282007D01*
X1659984Y2287032D01*
X1663884Y2292528D01*
X1667143Y2298426D01*
X1669722Y2304652D01*
X1671588Y2311128D01*
X1672717Y2317771D01*
X1673095Y2324500D01*
X1672717Y2331228D01*
X1671588Y2337872D01*
X1669722Y2344348D01*
X1667143Y2350574D01*
X1663884Y2356472D01*
X1659984Y2361968D01*
X1655493Y2366993D01*
X1650468Y2371484D01*
X1644972Y2375383D01*
X1639074Y2378643D01*
X1632848Y2381222D01*
X1627120Y2382872D01*
X1627420Y2384108D01*
X1628466Y2383900D01*
X1634052Y2383533D01*
X1639637Y2383900D01*
X1645127Y2384991D01*
X1650428Y2386791D01*
X1655448Y2389266D01*
X1660102Y2392376D01*
X1664310Y2396067D01*
X1668001Y2400275D01*
X1668469Y2400976D01*
X1669739D01*
X1670207Y2400275D01*
X1673898Y2396067D01*
X1678106Y2392376D01*
X1682760Y2389266D01*
X1687780Y2386791D01*
X1693081Y2384991D01*
X1698571Y2383900D01*
X1704156Y2383533D01*
X1709741Y2383900D01*
X1715231Y2384991D01*
X1720532Y2386791D01*
X1725552Y2389266D01*
X1730206Y2392376D01*
X1734414Y2396067D01*
X1738105Y2400275D01*
X1741215Y2404929D01*
X1743690Y2409949D01*
X1745490Y2415250D01*
X1746582Y2420740D01*
X1746948Y2426325D01*
Y2432675D01*
X1746582Y2438260D01*
X1745490Y2443750D01*
X1743690Y2449051D01*
X1741215Y2454071D01*
X1740928Y2454500D01*
X1741215Y2454929D01*
X1743690Y2459949D01*
X1744515Y2462380D01*
X1745785D01*
X1746291Y2460892D01*
X1749482Y2454421D01*
X1753490Y2448422D01*
X1758247Y2442997D01*
X1763672Y2438240D01*
X1769671Y2434232D01*
X1776142Y2431040D01*
X1782974Y2428721D01*
X1790050Y2427314D01*
X1797250Y2426842D01*
X1804450Y2427314D01*
X1811526Y2428721D01*
X1818358Y2431040D01*
X1824829Y2434232D01*
X1830828Y2438240D01*
X1836253Y2442997D01*
X1841010Y2448422D01*
X1845018Y2454421D01*
X1848210Y2460892D01*
X1850529Y2467724D01*
X1851936Y2474800D01*
X1852408Y2482000D01*
X1851936Y2489200D01*
X1850529Y2496276D01*
X1848210Y2503108D01*
X1845018Y2509579D01*
X1841010Y2515578D01*
X1836253Y2521003D01*
X1830828Y2525760D01*
X1824829Y2529768D01*
X1818358Y2532959D01*
X1811526Y2535278D01*
X1804450Y2536686D01*
X1797250Y2537158D01*
X1790050Y2536686D01*
X1782974Y2535278D01*
X1776142Y2532959D01*
X1769671Y2529768D01*
X1763672Y2525760D01*
X1758247Y2521003D01*
X1753490Y2515578D01*
X1749482Y2509579D01*
X1746291Y2503108D01*
X1744913Y2499051D01*
X1744308D01*
X1743620Y2499193D01*
X1741215Y2504071D01*
X1740928Y2504500D01*
X1741215Y2504929D01*
X1743690Y2509949D01*
X1745490Y2515250D01*
X1746582Y2520740D01*
X1746948Y2526325D01*
Y2532675D01*
X1746582Y2538260D01*
X1745490Y2543750D01*
X1743690Y2549051D01*
X1741215Y2554071D01*
X1738105Y2558725D01*
X1734414Y2562933D01*
X1730206Y2566624D01*
X1725552Y2569734D01*
X1720532Y2572209D01*
X1715231Y2574008D01*
X1709741Y2575100D01*
X1704156Y2575467D01*
X1698571Y2575100D01*
X1693081Y2574008D01*
X1687780Y2572209D01*
X1682760Y2569734D01*
X1678106Y2566624D01*
X1673898Y2562933D01*
X1670207Y2558725D01*
X1669739Y2558024D01*
X1668469D01*
X1668001Y2558725D01*
X1664310Y2562933D01*
X1660102Y2566624D01*
X1655448Y2569734D01*
X1650428Y2572209D01*
X1645127Y2574008D01*
X1639637Y2575100D01*
X1634052Y2575467D01*
X1628466Y2575100D01*
X1622977Y2574008D01*
X1617676Y2572209D01*
X1612656Y2569734D01*
X1608002Y2566624D01*
X1603794Y2562933D01*
X1600103Y2558725D01*
X1596993Y2554071D01*
X1594518Y2549051D01*
X1592719Y2543750D01*
X1591626Y2538260D01*
X1591260Y2532675D01*
Y2526325D01*
X1591626Y2520740D01*
X1592719Y2515250D01*
X1594518Y2509949D01*
X1596993Y2504929D01*
X1597280Y2504500D01*
X1596993Y2504071D01*
X1594518Y2499051D01*
X1592719Y2493750D01*
X1591626Y2488260D01*
X1591260Y2482675D01*
Y2476325D01*
X1591626Y2470740D01*
X1592719Y2465250D01*
X1594518Y2459949D01*
X1596993Y2454929D01*
X1597280Y2454500D01*
X1596993Y2454071D01*
X1594518Y2449051D01*
X1592719Y2443750D01*
X1591626Y2438260D01*
X1591260Y2432675D01*
Y2426325D01*
X1591626Y2420740D01*
X1592719Y2415250D01*
X1594518Y2409949D01*
X1596993Y2404929D01*
X1600103Y2400275D01*
X1603794Y2396067D01*
X1608002Y2392376D01*
X1612656Y2389266D01*
X1617676Y2386791D01*
X1622977Y2384991D01*
X1624304Y2384727D01*
X1624073Y2383478D01*
X1619729Y2384217D01*
X1613000Y2384595D01*
X1606272Y2384217D01*
X1599628Y2383088D01*
X1593152Y2381222D01*
X1588900Y2379461D01*
X1587844Y2380166D01*
X1587844Y2600000D01*
X2685172Y2600001D01*
X2685755Y2598872D01*
X2685117Y2597972D01*
X2681857Y2592074D01*
X2679278Y2585848D01*
X2677412Y2579372D01*
X2676284Y2572728D01*
X2675905Y2566000D01*
X2676284Y2559271D01*
X2677412Y2552628D01*
X2679278Y2546152D01*
X2681857Y2539926D01*
X2685117Y2534028D01*
X2689016Y2528531D01*
X2693507Y2523507D01*
X2698532Y2519016D01*
X2704028Y2515116D01*
X2709926Y2511857D01*
X2716152Y2509278D01*
X2722628Y2507412D01*
X2729272Y2506283D01*
X2736000Y2505905D01*
X2742729Y2506283D01*
X2749372Y2507412D01*
X2750227Y2507658D01*
X2750688Y2506469D01*
X2749331Y2505800D01*
X2744835Y2502796D01*
X2740769Y2499231D01*
X2737204Y2495165D01*
X2734200Y2490669D01*
X2731808Y2485820D01*
X2730070Y2480699D01*
X2729015Y2475396D01*
X2728661Y2470000D01*
X2729015Y2464604D01*
X2730070Y2459301D01*
X2731808Y2454180D01*
X2734200Y2449331D01*
X2737204Y2444835D01*
X2740769Y2440769D01*
X2744835Y2437204D01*
X2749331Y2434200D01*
X2754180Y2431808D01*
X2759301Y2430070D01*
X2764604Y2429015D01*
X2770000Y2428661D01*
X2775396Y2429015D01*
X2780699Y2430070D01*
X2785819Y2431808D01*
X2790669Y2434200D01*
X2795165Y2437204D01*
X2799231Y2440769D01*
X2802796Y2444835D01*
X2805800Y2449331D01*
X2808192Y2454180D01*
X2809930Y2459301D01*
X2810985Y2464604D01*
X2811339Y2470000D01*
X2810985Y2475396D01*
X2809930Y2480699D01*
X2808192Y2485820D01*
X2805800Y2490669D01*
X2802796Y2495165D01*
X2799231Y2499231D01*
X2795165Y2502796D01*
X2790669Y2505800D01*
X2785819Y2508192D01*
X2780699Y2509930D01*
X2775396Y2510985D01*
X2770000Y2511339D01*
X2764604Y2510985D01*
X2762072Y2510481D01*
X2761702Y2511702D01*
X2762074Y2511857D01*
X2767972Y2515116D01*
X2773469Y2519016D01*
X2778493Y2523507D01*
X2782984Y2528531D01*
X2786884Y2534028D01*
X2790143Y2539926D01*
X2792722Y2546152D01*
X2794588Y2552628D01*
X2795717Y2559271D01*
X2796095Y2566000D01*
X2795717Y2572728D01*
X2794588Y2579372D01*
X2792722Y2585848D01*
X2790143Y2592074D01*
X2786884Y2597972D01*
X2786245Y2598872D01*
X2786828Y2600001D01*
X2873102Y2600001D01*
X2874001Y2599102D01*
D02*
G37*
G36*
X2835963Y2059910D02*
X2836836Y2059164D01*
X2851548Y2044452D01*
X2851548Y2044452D01*
X2874000Y2022000D01*
X2874000Y1670000D01*
X2845836Y1641836D01*
X2844962Y1641090D01*
X2843818Y1641000D01*
X2764183D01*
X2763039Y1641090D01*
X2762166Y1641836D01*
X2731442Y1672558D01*
X2731442Y1672558D01*
X2656836Y1747164D01*
X2656638Y1747395D01*
X2656638Y1747395D01*
X2656638Y1747395D01*
X2656090Y1748037D01*
X2656082Y1748138D01*
X2656082Y1748138D01*
X2656000Y1749182D01*
Y1763595D01*
X2656079Y1764595D01*
X2657093Y1765385D01*
X2658690Y1764251D01*
X2665374Y1760558D01*
X2672429Y1757635D01*
X2679767Y1755521D01*
X2687296Y1754242D01*
X2694920Y1753814D01*
X2702544Y1754242D01*
X2710073Y1755521D01*
X2717411Y1757635D01*
X2724466Y1760558D01*
X2731149Y1764251D01*
X2737377Y1768670D01*
X2743071Y1773759D01*
X2748159Y1779453D01*
X2752578Y1785681D01*
X2756272Y1792364D01*
X2759195Y1799419D01*
X2761309Y1806757D01*
X2762588Y1814286D01*
X2763016Y1821910D01*
X2762588Y1829534D01*
X2761309Y1837063D01*
X2759195Y1844401D01*
X2756272Y1851456D01*
X2752578Y1858139D01*
X2748159Y1864367D01*
X2743071Y1870061D01*
X2737377Y1875150D01*
X2731149Y1879568D01*
X2724466Y1883262D01*
X2717411Y1886185D01*
X2710073Y1888299D01*
X2702544Y1889578D01*
X2694920Y1890006D01*
X2692746Y1889884D01*
X2692505Y1890654D01*
X2692415Y1891031D01*
X2692528Y1891184D01*
X2692793Y1891494D01*
X2692793Y1891494D01*
X2692793Y1891494D01*
X2692824Y1891530D01*
X2694346Y1893312D01*
X2696813Y1897338D01*
X2696813Y1897339D01*
X2697653Y1899365D01*
X2698620Y1901701D01*
X2699723Y1906293D01*
Y1906293D01*
X2699723Y1906293D01*
X2699835Y1907720D01*
X2699910Y1908676D01*
Y1908676D01*
X2700001Y1909821D01*
Y1909821D01*
X2700093Y1911000D01*
X2700093Y1911001D01*
Y1912182D01*
Y1912182D01*
X2700093Y2007353D01*
X2700183Y2008498D01*
X2700929Y2009371D01*
X2750721Y2059164D01*
X2751194Y2059567D01*
X2751194Y2059567D01*
X2751194Y2059568D01*
X2751700Y2060000D01*
X2815625Y2060000D01*
X2815625D01*
X2834818Y2060000D01*
X2835963Y2059910D01*
D02*
G37*
%LPC*%
G36*
X2396070Y1213220D02*
Y1203270D01*
X2406020D01*
X2405800Y1204947D01*
X2404662Y1207693D01*
X2402852Y1210052D01*
X2400494Y1211862D01*
X2397747Y1212999D01*
X2396070Y1213220D01*
D02*
G37*
G36*
X2370670D02*
Y1203270D01*
X2380620D01*
X2380399Y1204947D01*
X2379262Y1207693D01*
X2377452Y1210052D01*
X2375094Y1211862D01*
X2372347Y1212999D01*
X2370670Y1213220D01*
D02*
G37*
G36*
X1740730Y1219190D02*
X1729935D01*
Y1208395D01*
X1740730D01*
Y1219190D01*
D02*
G37*
G36*
X2751670Y1213220D02*
Y1203270D01*
X2761620D01*
X2761400Y1204947D01*
X2760262Y1207693D01*
X2758452Y1210052D01*
X2756094Y1211862D01*
X2753347Y1212999D01*
X2751670Y1213220D01*
D02*
G37*
G36*
X2368130Y1213220D02*
X2366453Y1212999D01*
X2363706Y1211862D01*
X2361348Y1210052D01*
X2359538Y1207693D01*
X2358401Y1204947D01*
X2358180Y1203270D01*
X2368130D01*
Y1213220D01*
D02*
G37*
G36*
X2774530D02*
X2772853Y1212999D01*
X2770107Y1211862D01*
X2767748Y1210052D01*
X2765938Y1207693D01*
X2764801Y1204947D01*
X2764580Y1203270D01*
X2774530D01*
Y1213220D01*
D02*
G37*
G36*
X2393530D02*
X2391853Y1212999D01*
X2389106Y1211862D01*
X2386748Y1210052D01*
X2384938Y1207693D01*
X2383801Y1204947D01*
X2383580Y1203270D01*
X2393530D01*
Y1213220D01*
D02*
G37*
G36*
X2550570Y1213220D02*
Y1203270D01*
X2560520D01*
X2560300Y1204947D01*
X2559162Y1207693D01*
X2557352Y1210052D01*
X2554994Y1211862D01*
X2552247Y1212999D01*
X2550570Y1213220D01*
D02*
G37*
G36*
X2142070D02*
Y1203270D01*
X2152020D01*
X2151799Y1204947D01*
X2150662Y1207693D01*
X2148852Y1210052D01*
X2146494Y1211862D01*
X2143747Y1212999D01*
X2142070Y1213220D01*
D02*
G37*
G36*
X1830202Y1219190D02*
X1819470D01*
Y1208458D01*
X1821349Y1208706D01*
X1824284Y1209921D01*
X1826805Y1211855D01*
X1828739Y1214375D01*
X1829954Y1217310D01*
X1830202Y1219190D01*
D02*
G37*
G36*
X1923270Y1246899D02*
Y1233210D01*
X1932126D01*
Y1236940D01*
X1931781Y1239561D01*
X1930770Y1242003D01*
X1929160Y1244101D01*
X1927063Y1245710D01*
X1924621Y1246722D01*
X1923270Y1246899D01*
D02*
G37*
G36*
X1685400Y1237648D02*
X1682126Y1237217D01*
X1679076Y1235954D01*
X1676456Y1233944D01*
X1674446Y1231324D01*
X1673387Y1228767D01*
X1672013D01*
X1670954Y1231324D01*
X1668944Y1233944D01*
X1666324Y1235954D01*
X1663274Y1237217D01*
X1660000Y1237648D01*
X1656726Y1237217D01*
X1653676Y1235954D01*
X1651056Y1233944D01*
X1649046Y1231324D01*
X1647987Y1228767D01*
X1646613D01*
X1645554Y1231324D01*
X1643544Y1233944D01*
X1640924Y1235954D01*
X1637874Y1237217D01*
X1635870Y1237481D01*
Y1225000D01*
Y1212519D01*
X1637874Y1212783D01*
X1640924Y1214046D01*
X1643544Y1216056D01*
X1645554Y1218676D01*
X1646613Y1221233D01*
X1647987D01*
X1649046Y1218676D01*
X1651056Y1216056D01*
X1653676Y1214046D01*
X1654861Y1213555D01*
Y1209000D01*
X1655252Y1207033D01*
X1656366Y1205366D01*
X1671366Y1190366D01*
X1673033Y1189252D01*
X1675000Y1188861D01*
X1757000D01*
X1758966Y1189252D01*
X1760634Y1190366D01*
X1771033Y1200766D01*
X1772147Y1202433D01*
X1772539Y1204400D01*
Y1209529D01*
X1773484Y1209921D01*
X1776005Y1211855D01*
X1777939Y1214375D01*
X1779154Y1217310D01*
X1779459Y1219628D01*
X1780740D01*
X1781045Y1217310D01*
X1782261Y1214375D01*
X1784195Y1211855D01*
X1786715Y1209921D01*
X1789650Y1208706D01*
X1792800Y1208291D01*
X1795950Y1208706D01*
X1798884Y1209921D01*
X1801405Y1211855D01*
X1803339Y1214375D01*
X1804554Y1217310D01*
X1804859Y1219628D01*
X1806140D01*
X1806445Y1217310D01*
X1807661Y1214375D01*
X1809595Y1211855D01*
X1812115Y1209921D01*
X1815050Y1208706D01*
X1816930Y1208458D01*
Y1220460D01*
Y1232462D01*
X1815050Y1232215D01*
X1812115Y1230999D01*
X1809595Y1229065D01*
X1807661Y1226545D01*
X1806445Y1223610D01*
X1806140Y1221292D01*
X1804859D01*
X1804554Y1223610D01*
X1803339Y1226545D01*
X1801405Y1229065D01*
X1798884Y1230999D01*
X1795950Y1232215D01*
X1792800Y1232629D01*
X1789650Y1232215D01*
X1786715Y1230999D01*
X1784195Y1229065D01*
X1782261Y1226545D01*
X1781045Y1223610D01*
X1780740Y1221292D01*
X1779459D01*
X1779154Y1223610D01*
X1777939Y1226545D01*
X1776005Y1229065D01*
X1773484Y1230999D01*
X1770549Y1232215D01*
X1767400Y1232629D01*
X1764250Y1232215D01*
X1761315Y1230999D01*
X1758795Y1229065D01*
X1756861Y1226545D01*
X1755645Y1223610D01*
X1755335Y1221251D01*
X1754065Y1221334D01*
Y1232525D01*
X1743270D01*
Y1220460D01*
Y1208395D01*
X1754065D01*
Y1219586D01*
X1755335Y1219669D01*
X1755645Y1217310D01*
X1756861Y1214375D01*
X1758795Y1211855D01*
X1761315Y1209921D01*
X1762261Y1209529D01*
Y1206528D01*
X1754871Y1199139D01*
X1677128D01*
X1665139Y1211128D01*
Y1213555D01*
X1666324Y1214046D01*
X1668944Y1216056D01*
X1670954Y1218676D01*
X1672013Y1221233D01*
X1673387D01*
X1674446Y1218676D01*
X1676456Y1216056D01*
X1679076Y1214046D01*
X1682126Y1212783D01*
X1685400Y1212352D01*
X1688674Y1212783D01*
X1691724Y1214046D01*
X1694344Y1216056D01*
X1696354Y1218676D01*
X1697617Y1221726D01*
X1698048Y1225000D01*
X1697617Y1228274D01*
X1696354Y1231324D01*
X1694344Y1233944D01*
X1691724Y1235954D01*
X1688674Y1237217D01*
X1685400Y1237648D01*
D02*
G37*
G36*
X1902000Y1247067D02*
X1899379Y1246722D01*
X1896937Y1245710D01*
X1894839Y1244101D01*
X1893230Y1242003D01*
X1892687Y1240693D01*
X1891313D01*
X1890770Y1242003D01*
X1889160Y1244101D01*
X1887063Y1245710D01*
X1884621Y1246722D01*
X1882000Y1247067D01*
X1879379Y1246722D01*
X1876937Y1245710D01*
X1874839Y1244101D01*
X1873230Y1242003D01*
X1872687Y1240693D01*
X1871313D01*
X1870770Y1242003D01*
X1869160Y1244101D01*
X1867063Y1245710D01*
X1864621Y1246722D01*
X1862000Y1247067D01*
X1859379Y1246722D01*
X1856936Y1245710D01*
X1854839Y1244101D01*
X1853230Y1242003D01*
X1852218Y1239561D01*
X1851873Y1236940D01*
Y1226940D01*
X1852218Y1224319D01*
X1853230Y1221877D01*
X1854839Y1219779D01*
X1856936Y1218170D01*
X1859379Y1217158D01*
X1862000Y1216813D01*
X1864621Y1217158D01*
X1867063Y1218170D01*
X1869160Y1219779D01*
X1870770Y1221877D01*
X1871313Y1223187D01*
X1872687D01*
X1873230Y1221877D01*
X1874839Y1219779D01*
X1876937Y1218170D01*
X1879379Y1217158D01*
X1882000Y1216813D01*
X1884621Y1217158D01*
X1887063Y1218170D01*
X1889160Y1219779D01*
X1890770Y1221877D01*
X1891313Y1223187D01*
X1892687D01*
X1893230Y1221877D01*
X1894839Y1219779D01*
X1896937Y1218170D01*
X1899379Y1217158D01*
X1902000Y1216813D01*
X1904621Y1217158D01*
X1907063Y1218170D01*
X1909160Y1219779D01*
X1910770Y1221877D01*
X1911313Y1223187D01*
X1912687D01*
X1913230Y1221877D01*
X1914839Y1219779D01*
X1916937Y1218170D01*
X1919379Y1217158D01*
X1920730Y1216981D01*
Y1231940D01*
Y1246899D01*
X1919379Y1246722D01*
X1916937Y1245710D01*
X1914839Y1244101D01*
X1913230Y1242003D01*
X1912687Y1240693D01*
X1911313D01*
X1910770Y1242003D01*
X1909160Y1244101D01*
X1907063Y1245710D01*
X1904621Y1246722D01*
X1902000Y1247067D01*
D02*
G37*
G36*
X1792740Y1284630D02*
X1788614D01*
Y1280504D01*
X1789505Y1280681D01*
X1791338Y1281906D01*
X1792562Y1283739D01*
X1792740Y1284630D01*
D02*
G37*
G36*
X1786074D02*
X1781948D01*
X1782125Y1283739D01*
X1783350Y1281906D01*
X1785182Y1280681D01*
X1786074Y1280504D01*
Y1284630D01*
D02*
G37*
G36*
X1932126Y1230670D02*
X1923270D01*
Y1216981D01*
X1924621Y1217158D01*
X1927063Y1218170D01*
X1929160Y1219779D01*
X1930770Y1221877D01*
X1931781Y1224319D01*
X1932126Y1226940D01*
Y1230670D01*
D02*
G37*
G36*
X1633330Y1223730D02*
X1622119D01*
X1622383Y1221726D01*
X1623646Y1218676D01*
X1625656Y1216056D01*
X1628276Y1214046D01*
X1631326Y1212783D01*
X1633330Y1212519D01*
Y1223730D01*
D02*
G37*
G36*
X1740730Y1232525D02*
X1729935D01*
Y1221730D01*
X1740730D01*
Y1232525D01*
D02*
G37*
G36*
X1633330Y1237481D02*
X1631326Y1237217D01*
X1628276Y1235954D01*
X1625656Y1233944D01*
X1623646Y1231324D01*
X1622383Y1228274D01*
X1622119Y1226270D01*
X1633330D01*
Y1237481D01*
D02*
G37*
G36*
X1819470Y1232462D02*
Y1221730D01*
X1830202D01*
X1829954Y1223610D01*
X1828739Y1226545D01*
X1826805Y1229065D01*
X1824284Y1230999D01*
X1821349Y1232215D01*
X1819470Y1232462D01*
D02*
G37*
G36*
X2548030Y1213220D02*
X2546353Y1212999D01*
X2543607Y1211862D01*
X2541248Y1210052D01*
X2539438Y1207693D01*
X2538301Y1204947D01*
X2538080Y1203270D01*
X2548030D01*
Y1213220D01*
D02*
G37*
G36*
X2445600Y1213387D02*
X2442653Y1212999D01*
X2439906Y1211862D01*
X2437548Y1210052D01*
X2435738Y1207693D01*
X2434601Y1204947D01*
X2434213Y1202000D01*
X2434601Y1199053D01*
X2435738Y1196306D01*
X2437548Y1193948D01*
X2439906Y1192138D01*
X2442653Y1191001D01*
X2445600Y1190612D01*
X2448547Y1191001D01*
X2451294Y1192138D01*
X2453652Y1193948D01*
X2455462Y1196306D01*
X2456599Y1199053D01*
X2456987Y1202000D01*
X2456599Y1204947D01*
X2455462Y1207693D01*
X2453652Y1210052D01*
X2451294Y1211862D01*
X2448547Y1212999D01*
X2445600Y1213387D01*
D02*
G37*
G36*
X2420200D02*
X2417253Y1212999D01*
X2414506Y1211862D01*
X2412148Y1210052D01*
X2410338Y1207693D01*
X2409201Y1204947D01*
X2408813Y1202000D01*
X2409201Y1199053D01*
X2410338Y1196306D01*
X2412148Y1193948D01*
X2414506Y1192138D01*
X2417253Y1191001D01*
X2420200Y1190612D01*
X2423147Y1191001D01*
X2425894Y1192138D01*
X2428252Y1193948D01*
X2430062Y1196306D01*
X2431199Y1199053D01*
X2431588Y1202000D01*
X2431199Y1204947D01*
X2430062Y1207693D01*
X2428252Y1210052D01*
X2425894Y1211862D01*
X2423147Y1212999D01*
X2420200Y1213387D01*
D02*
G37*
G36*
X2574700D02*
X2571753Y1212999D01*
X2569006Y1211862D01*
X2566648Y1210052D01*
X2564838Y1207693D01*
X2563701Y1204947D01*
X2563313Y1202000D01*
X2563701Y1199053D01*
X2564838Y1196306D01*
X2566648Y1193948D01*
X2569006Y1192138D01*
X2571753Y1191001D01*
X2574700Y1190612D01*
X2577647Y1191001D01*
X2580394Y1192138D01*
X2582752Y1193948D01*
X2584562Y1196306D01*
X2585699Y1199053D01*
X2586088Y1202000D01*
X2585699Y1204947D01*
X2584562Y1207693D01*
X2582752Y1210052D01*
X2580394Y1211862D01*
X2577647Y1212999D01*
X2574700Y1213387D01*
D02*
G37*
G36*
X2139530Y1200730D02*
X2129580D01*
X2129801Y1199053D01*
X2130938Y1196306D01*
X2132748Y1193948D01*
X2135106Y1192138D01*
X2137853Y1191001D01*
X2139530Y1190780D01*
Y1200730D01*
D02*
G37*
G36*
X2600100Y1213387D02*
X2597153Y1212999D01*
X2594406Y1211862D01*
X2592048Y1210052D01*
X2590238Y1207693D01*
X2589101Y1204947D01*
X2588713Y1202000D01*
X2589101Y1199053D01*
X2590238Y1196306D01*
X2592048Y1193948D01*
X2594406Y1192138D01*
X2597153Y1191001D01*
X2600100Y1190612D01*
X2603047Y1191001D01*
X2605794Y1192138D01*
X2608152Y1193948D01*
X2609962Y1196306D01*
X2611100Y1199053D01*
X2611488Y1202000D01*
X2611100Y1204947D01*
X2609962Y1207693D01*
X2608152Y1210052D01*
X2605794Y1211862D01*
X2603047Y1212999D01*
X2600100Y1213387D01*
D02*
G37*
G36*
X2115400D02*
X2112453Y1212999D01*
X2109706Y1211862D01*
X2107348Y1210052D01*
X2105538Y1207693D01*
X2104401Y1204947D01*
X2104013Y1202000D01*
X2104401Y1199053D01*
X2105538Y1196306D01*
X2107348Y1193948D01*
X2109706Y1192138D01*
X2112453Y1191001D01*
X2115400Y1190612D01*
X2118347Y1191001D01*
X2121094Y1192138D01*
X2123452Y1193948D01*
X2125262Y1196306D01*
X2126400Y1199053D01*
X2126788Y1202000D01*
X2126400Y1204947D01*
X2125262Y1207693D01*
X2123452Y1210052D01*
X2121094Y1211862D01*
X2118347Y1212999D01*
X2115400Y1213387D01*
D02*
G37*
G36*
X1847750Y2000098D02*
X1845098Y1999748D01*
X1842626Y1998725D01*
X1840504Y1997096D01*
X1838875Y1994974D01*
X1837852Y1992502D01*
X1837502Y1989850D01*
X1837852Y1987198D01*
X1838875Y1984726D01*
X1840504Y1982604D01*
X1842626Y1980975D01*
X1845098Y1979951D01*
X1847750Y1979602D01*
X1850402Y1979951D01*
X1851642Y1980465D01*
X2034115Y1797991D01*
Y1223500D01*
X2034411Y1222013D01*
X2035253Y1220753D01*
X2076753Y1179253D01*
X2078013Y1178411D01*
X2079500Y1178115D01*
X2338250D01*
X2339737Y1178411D01*
X2340997Y1179253D01*
X2346747Y1185003D01*
X2347589Y1186263D01*
X2347885Y1187750D01*
Y1191389D01*
X2349694Y1192138D01*
X2352052Y1193948D01*
X2353862Y1196306D01*
X2355000Y1199053D01*
X2355388Y1202000D01*
X2355000Y1204947D01*
X2353862Y1207693D01*
X2352052Y1210052D01*
X2349694Y1211862D01*
X2346947Y1212999D01*
X2344000Y1213387D01*
X2341053Y1212999D01*
X2338306Y1211862D01*
X2335948Y1210052D01*
X2334138Y1207693D01*
X2333001Y1204947D01*
X2332613Y1202000D01*
X2333001Y1199053D01*
X2334138Y1196306D01*
X2335948Y1193948D01*
X2338306Y1192138D01*
X2340116Y1191389D01*
Y1189359D01*
X2336641Y1185884D01*
X2081109D01*
X2041885Y1225109D01*
Y1799600D01*
X2041589Y1801086D01*
X2040747Y1802347D01*
X1857135Y1985958D01*
X1857648Y1987198D01*
X1857998Y1989850D01*
X1857648Y1992502D01*
X1856625Y1994974D01*
X1854996Y1997096D01*
X1852874Y1998725D01*
X1850402Y1999748D01*
X1847750Y2000098D01*
D02*
G37*
G36*
X2191600Y1213387D02*
X2188653Y1212999D01*
X2185906Y1211862D01*
X2183548Y1210052D01*
X2181738Y1207693D01*
X2180601Y1204947D01*
X2180213Y1202000D01*
X2180601Y1199053D01*
X2181738Y1196306D01*
X2183548Y1193948D01*
X2185906Y1192138D01*
X2188653Y1191001D01*
X2191600Y1190612D01*
X2194547Y1191001D01*
X2197294Y1192138D01*
X2199652Y1193948D01*
X2201462Y1196306D01*
X2202599Y1199053D01*
X2202988Y1202000D01*
X2202599Y1204947D01*
X2201462Y1207693D01*
X2199652Y1210052D01*
X2197294Y1211862D01*
X2194547Y1212999D01*
X2191600Y1213387D01*
D02*
G37*
G36*
X2242400D02*
X2239453Y1212999D01*
X2236706Y1211862D01*
X2234348Y1210052D01*
X2232538Y1207693D01*
X2231401Y1204947D01*
X2231013Y1202000D01*
X2231401Y1199053D01*
X2232538Y1196306D01*
X2234348Y1193948D01*
X2236706Y1192138D01*
X2239453Y1191001D01*
X2242400Y1190612D01*
X2245347Y1191001D01*
X2248094Y1192138D01*
X2250452Y1193948D01*
X2252262Y1196306D01*
X2253400Y1199053D01*
X2253788Y1202000D01*
X2253400Y1204947D01*
X2252262Y1207693D01*
X2250452Y1210052D01*
X2248094Y1211862D01*
X2245347Y1212999D01*
X2242400Y1213387D01*
D02*
G37*
G36*
X2217000D02*
X2214053Y1212999D01*
X2211306Y1211862D01*
X2208948Y1210052D01*
X2207138Y1207693D01*
X2206001Y1204947D01*
X2205613Y1202000D01*
X2206001Y1199053D01*
X2207138Y1196306D01*
X2208948Y1193948D01*
X2211306Y1192138D01*
X2214053Y1191001D01*
X2217000Y1190612D01*
X2219947Y1191001D01*
X2222694Y1192138D01*
X2225052Y1193948D01*
X2226862Y1196306D01*
X2228000Y1199053D01*
X2228387Y1202000D01*
X2228000Y1204947D01*
X2226862Y1207693D01*
X2225052Y1210052D01*
X2222694Y1211862D01*
X2219947Y1212999D01*
X2217000Y1213387D01*
D02*
G37*
G36*
X2406020Y1200730D02*
X2396070D01*
Y1190780D01*
X2397747Y1191001D01*
X2400494Y1192138D01*
X2402852Y1193948D01*
X2404662Y1196306D01*
X2405800Y1199053D01*
X2406020Y1200730D01*
D02*
G37*
G36*
X2380620D02*
X2370670D01*
Y1190780D01*
X2372347Y1191001D01*
X2375094Y1192138D01*
X2377452Y1193948D01*
X2379262Y1196306D01*
X2380399Y1199053D01*
X2380620Y1200730D01*
D02*
G37*
G36*
X2560520D02*
X2550570D01*
Y1190780D01*
X2552247Y1191001D01*
X2554994Y1192138D01*
X2557352Y1193948D01*
X2559162Y1196306D01*
X2560300Y1199053D01*
X2560520Y1200730D01*
D02*
G37*
G36*
X2139530Y1213220D02*
X2137853Y1212999D01*
X2135106Y1211862D01*
X2132748Y1210052D01*
X2130938Y1207693D01*
X2129801Y1204947D01*
X2129580Y1203270D01*
X2139530D01*
Y1213220D01*
D02*
G37*
G36*
X2761620Y1200730D02*
X2751670D01*
Y1190780D01*
X2753347Y1191001D01*
X2756094Y1192138D01*
X2758452Y1193948D01*
X2760262Y1196306D01*
X2761400Y1199053D01*
X2761620Y1200730D01*
D02*
G37*
G36*
X2393530D02*
X2383580D01*
X2383801Y1199053D01*
X2384938Y1196306D01*
X2386748Y1193948D01*
X2389106Y1192138D01*
X2391853Y1191001D01*
X2393530Y1190780D01*
Y1200730D01*
D02*
G37*
G36*
X2368130D02*
X2358180D01*
X2358401Y1199053D01*
X2359538Y1196306D01*
X2361348Y1193948D01*
X2363706Y1192138D01*
X2366453Y1191001D01*
X2368130Y1190780D01*
Y1200730D01*
D02*
G37*
G36*
X2548030D02*
X2538080D01*
X2538301Y1199053D01*
X2539438Y1196306D01*
X2541248Y1193948D01*
X2543607Y1192138D01*
X2546353Y1191001D01*
X2548030Y1190780D01*
Y1200730D01*
D02*
G37*
G36*
X2152020D02*
X2142070D01*
Y1190780D01*
X2143747Y1191001D01*
X2146494Y1192138D01*
X2148852Y1193948D01*
X2150662Y1196306D01*
X2151799Y1199053D01*
X2152020Y1200730D01*
D02*
G37*
G36*
X2774530D02*
X2764580D01*
X2764801Y1199053D01*
X2765938Y1196306D01*
X2767748Y1193948D01*
X2770107Y1192138D01*
X2772853Y1191001D01*
X2774530Y1190780D01*
Y1200730D01*
D02*
G37*
G36*
X1647074Y1284730D02*
X1642948D01*
X1643125Y1283838D01*
X1644350Y1282006D01*
X1646183Y1280781D01*
X1647074Y1280604D01*
Y1284730D01*
D02*
G37*
G36*
X1857831Y2013980D02*
X1849020D01*
Y2005169D01*
X1850402Y2005351D01*
X1852874Y2006375D01*
X1854996Y2008004D01*
X1856625Y2010126D01*
X1857648Y2012598D01*
X1857831Y2013980D01*
D02*
G37*
G36*
X1846480D02*
X1837670D01*
X1837852Y2012598D01*
X1838875Y2010126D01*
X1840504Y2008004D01*
X1842626Y2006375D01*
X1845098Y2005351D01*
X1846480Y2005169D01*
Y2013980D01*
D02*
G37*
G36*
X1849020Y2025330D02*
Y2016520D01*
X1857831D01*
X1857648Y2017902D01*
X1856625Y2020374D01*
X1854996Y2022496D01*
X1852874Y2024125D01*
X1850402Y2025148D01*
X1849020Y2025330D01*
D02*
G37*
G36*
X1846480Y2025330D02*
X1845098Y2025148D01*
X1842626Y2024125D01*
X1840504Y2022496D01*
X1838875Y2020374D01*
X1837852Y2017902D01*
X1837670Y2016520D01*
X1846480D01*
Y2025330D01*
D02*
G37*
G36*
X1707948Y1621967D02*
X1702363Y1621600D01*
X1696873Y1620509D01*
X1691572Y1618709D01*
X1686552Y1616234D01*
X1681898Y1613124D01*
X1677690Y1609433D01*
X1673999Y1605225D01*
X1673531Y1604524D01*
X1672261D01*
X1671793Y1605225D01*
X1668102Y1609433D01*
X1663894Y1613124D01*
X1659240Y1616234D01*
X1654220Y1618709D01*
X1648919Y1620509D01*
X1643429Y1621600D01*
X1637844Y1621967D01*
X1632258Y1621600D01*
X1626769Y1620509D01*
X1621468Y1618709D01*
X1616448Y1616234D01*
X1611794Y1613124D01*
X1607586Y1609433D01*
X1603895Y1605225D01*
X1600785Y1600571D01*
X1598310Y1595551D01*
X1596510Y1590250D01*
X1595418Y1584760D01*
X1595052Y1579175D01*
Y1572825D01*
X1595418Y1567240D01*
X1596510Y1561750D01*
X1598310Y1556449D01*
X1600785Y1551429D01*
X1601072Y1551000D01*
X1600785Y1550571D01*
X1598310Y1545551D01*
X1596510Y1540250D01*
X1595418Y1534760D01*
X1595052Y1529175D01*
Y1522825D01*
X1595418Y1517240D01*
X1596510Y1511750D01*
X1598310Y1506449D01*
X1600785Y1501429D01*
X1601072Y1501000D01*
X1600785Y1500571D01*
X1598310Y1495551D01*
X1596510Y1490250D01*
X1595418Y1484760D01*
X1595052Y1479175D01*
Y1472825D01*
X1595418Y1467240D01*
X1596510Y1461750D01*
X1598310Y1456449D01*
X1600785Y1451429D01*
X1603895Y1446775D01*
X1607586Y1442567D01*
X1611794Y1438876D01*
X1616448Y1435766D01*
X1621468Y1433291D01*
X1626769Y1431492D01*
X1632258Y1430399D01*
X1637844Y1430033D01*
X1643429Y1430399D01*
X1648919Y1431492D01*
X1654220Y1433291D01*
X1659240Y1435766D01*
X1663894Y1438876D01*
X1668102Y1442567D01*
X1671793Y1446775D01*
X1672261Y1447476D01*
X1673531D01*
X1673999Y1446775D01*
X1677690Y1442567D01*
X1681898Y1438876D01*
X1686552Y1435766D01*
X1691572Y1433291D01*
X1696873Y1431492D01*
X1702363Y1430399D01*
X1707948Y1430033D01*
X1713533Y1430399D01*
X1719023Y1431492D01*
X1724324Y1433291D01*
X1729344Y1435766D01*
X1733998Y1438876D01*
X1738206Y1442567D01*
X1741897Y1446775D01*
X1745007Y1451429D01*
X1747482Y1456449D01*
X1749281Y1461750D01*
X1750374Y1467240D01*
X1750740Y1472825D01*
Y1479175D01*
X1750374Y1484760D01*
X1749281Y1490250D01*
X1747482Y1495551D01*
X1745317Y1499942D01*
X1745330Y1499967D01*
X1746758Y1499943D01*
X1749482Y1494421D01*
X1753490Y1488422D01*
X1758247Y1482997D01*
X1763672Y1478240D01*
X1769671Y1474232D01*
X1776142Y1471040D01*
X1782974Y1468721D01*
X1790050Y1467314D01*
X1797250Y1466842D01*
X1804450Y1467314D01*
X1811526Y1468721D01*
X1818358Y1471040D01*
X1824829Y1474232D01*
X1830828Y1478240D01*
X1836253Y1482997D01*
X1841010Y1488422D01*
X1845018Y1494421D01*
X1848210Y1500892D01*
X1850529Y1507724D01*
X1851936Y1514800D01*
X1852408Y1522000D01*
X1851936Y1529200D01*
X1850529Y1536276D01*
X1848210Y1543108D01*
X1845018Y1549579D01*
X1841010Y1555578D01*
X1836253Y1561003D01*
X1830828Y1565760D01*
X1824829Y1569768D01*
X1818358Y1572959D01*
X1811526Y1575278D01*
X1804450Y1576686D01*
X1797250Y1577158D01*
X1790050Y1576686D01*
X1782974Y1575278D01*
X1776142Y1572959D01*
X1769671Y1569768D01*
X1763672Y1565760D01*
X1758247Y1561003D01*
X1753490Y1555578D01*
X1749482Y1549579D01*
X1748197Y1546973D01*
X1746781D01*
X1745007Y1550571D01*
X1744720Y1551000D01*
X1745007Y1551429D01*
X1747482Y1556449D01*
X1749281Y1561750D01*
X1750374Y1567240D01*
X1750740Y1572825D01*
Y1579175D01*
X1750374Y1584760D01*
X1749281Y1590250D01*
X1747482Y1595551D01*
X1745007Y1600571D01*
X1741897Y1605225D01*
X1738206Y1609433D01*
X1733998Y1613124D01*
X1729344Y1616234D01*
X1724324Y1618709D01*
X1719023Y1620509D01*
X1713533Y1621600D01*
X1707948Y1621967D01*
D02*
G37*
G36*
X2277250Y1577158D02*
X2270051Y1576686D01*
X2262974Y1575278D01*
X2256142Y1572959D01*
X2249671Y1569768D01*
X2243672Y1565760D01*
X2238247Y1561003D01*
X2233490Y1555578D01*
X2229482Y1549579D01*
X2226291Y1543108D01*
X2223971Y1536276D01*
X2222564Y1529200D01*
X2222092Y1522000D01*
X2222564Y1514800D01*
X2223971Y1507724D01*
X2226291Y1500892D01*
X2229482Y1494421D01*
X2233490Y1488422D01*
X2238247Y1482997D01*
X2243672Y1478240D01*
X2249671Y1474232D01*
X2256142Y1471040D01*
X2262974Y1468721D01*
X2270051Y1467314D01*
X2277250Y1466842D01*
X2284450Y1467314D01*
X2291526Y1468721D01*
X2298358Y1471040D01*
X2304829Y1474232D01*
X2310828Y1478240D01*
X2316253Y1482997D01*
X2321010Y1488422D01*
X2325018Y1494421D01*
X2328210Y1500892D01*
X2330529Y1507724D01*
X2331936Y1514800D01*
X2332408Y1522000D01*
X2331936Y1529200D01*
X2330529Y1536276D01*
X2328210Y1543108D01*
X2325018Y1549579D01*
X2321010Y1555578D01*
X2316253Y1561003D01*
X2310828Y1565760D01*
X2304829Y1569768D01*
X2298358Y1572959D01*
X2291526Y1575278D01*
X2284450Y1576686D01*
X2277250Y1577158D01*
D02*
G37*
G36*
X2772656Y1976814D02*
X2766770Y1976429D01*
X2760984Y1975278D01*
X2755398Y1973382D01*
X2750108Y1970773D01*
X2745203Y1967495D01*
X2740768Y1963606D01*
X2736878Y1959171D01*
X2733601Y1954266D01*
X2730992Y1948976D01*
X2729096Y1943390D01*
X2727945Y1937604D01*
X2727560Y1931718D01*
X2727945Y1925832D01*
X2729096Y1920046D01*
X2730992Y1914460D01*
X2733601Y1909170D01*
X2736878Y1904265D01*
X2740768Y1899830D01*
X2745203Y1895940D01*
X2750108Y1892663D01*
X2755398Y1890054D01*
X2760984Y1888158D01*
X2766770Y1887007D01*
X2772656Y1886621D01*
X2778542Y1887007D01*
X2784328Y1888158D01*
X2789914Y1890054D01*
X2795204Y1892663D01*
X2800109Y1895940D01*
X2804544Y1899830D01*
X2808434Y1904265D01*
X2811711Y1909170D01*
X2814320Y1914460D01*
X2816216Y1920046D01*
X2817367Y1925832D01*
X2817752Y1931718D01*
X2817367Y1937604D01*
X2816216Y1943390D01*
X2814320Y1948976D01*
X2811711Y1954266D01*
X2808434Y1959171D01*
X2804544Y1963606D01*
X2800109Y1967495D01*
X2795204Y1970773D01*
X2789914Y1973382D01*
X2784328Y1975278D01*
X2778542Y1976429D01*
X2772656Y1976814D01*
D02*
G37*
G36*
X2552948Y1621967D02*
X2547363Y1621600D01*
X2541873Y1620509D01*
X2536572Y1618709D01*
X2531552Y1616234D01*
X2526898Y1613124D01*
X2522690Y1609433D01*
X2518999Y1605225D01*
X2518531Y1604524D01*
X2517261D01*
X2516793Y1605225D01*
X2513102Y1609433D01*
X2508894Y1613124D01*
X2504240Y1616234D01*
X2499220Y1618709D01*
X2493919Y1620509D01*
X2488429Y1621600D01*
X2482844Y1621967D01*
X2477258Y1621600D01*
X2471769Y1620509D01*
X2466468Y1618709D01*
X2461448Y1616234D01*
X2456794Y1613124D01*
X2452586Y1609433D01*
X2448895Y1605225D01*
X2445785Y1600571D01*
X2443310Y1595551D01*
X2441510Y1590250D01*
X2440418Y1584760D01*
X2440052Y1579175D01*
Y1572825D01*
X2440418Y1567240D01*
X2441510Y1561750D01*
X2443310Y1556449D01*
X2445785Y1551429D01*
X2446072Y1551000D01*
X2445785Y1550571D01*
X2443310Y1545551D01*
X2441510Y1540250D01*
X2440418Y1534760D01*
X2440052Y1529175D01*
Y1522825D01*
X2440418Y1517240D01*
X2441510Y1511750D01*
X2443310Y1506449D01*
X2445785Y1501429D01*
X2446072Y1501000D01*
X2445785Y1500571D01*
X2443310Y1495551D01*
X2441510Y1490250D01*
X2440418Y1484760D01*
X2440052Y1479175D01*
Y1472825D01*
X2440418Y1467240D01*
X2441510Y1461750D01*
X2443310Y1456449D01*
X2445785Y1451429D01*
X2448895Y1446775D01*
X2452586Y1442567D01*
X2456794Y1438876D01*
X2461448Y1435766D01*
X2466468Y1433291D01*
X2471769Y1431492D01*
X2477258Y1430399D01*
X2482844Y1430033D01*
X2488429Y1430399D01*
X2493919Y1431492D01*
X2499220Y1433291D01*
X2504240Y1435766D01*
X2508894Y1438876D01*
X2513102Y1442567D01*
X2516793Y1446775D01*
X2517261Y1447476D01*
X2518531D01*
X2518999Y1446775D01*
X2522690Y1442567D01*
X2526898Y1438876D01*
X2531552Y1435766D01*
X2536572Y1433291D01*
X2541873Y1431492D01*
X2547363Y1430399D01*
X2552948Y1430033D01*
X2558533Y1430399D01*
X2564023Y1431492D01*
X2569324Y1433291D01*
X2574344Y1435766D01*
X2578998Y1438876D01*
X2583206Y1442567D01*
X2586897Y1446775D01*
X2590007Y1451429D01*
X2592482Y1456449D01*
X2594282Y1461750D01*
X2595374Y1467240D01*
X2595740Y1472825D01*
Y1479175D01*
X2595374Y1484760D01*
X2594282Y1490250D01*
X2592482Y1495551D01*
X2590007Y1500571D01*
X2589720Y1501000D01*
X2590007Y1501429D01*
X2592482Y1506449D01*
X2594282Y1511750D01*
X2595374Y1517240D01*
X2595740Y1522825D01*
Y1529175D01*
X2595374Y1534760D01*
X2594282Y1540250D01*
X2592482Y1545551D01*
X2590007Y1550571D01*
X2589720Y1551000D01*
X2590007Y1551429D01*
X2592482Y1556449D01*
X2594282Y1561750D01*
X2595374Y1567240D01*
X2595740Y1572825D01*
Y1579175D01*
X2595374Y1584760D01*
X2594282Y1590250D01*
X2592482Y1595551D01*
X2590007Y1600571D01*
X2586897Y1605225D01*
X2583206Y1609433D01*
X2578998Y1613124D01*
X2574344Y1616234D01*
X2569324Y1618709D01*
X2564023Y1620509D01*
X2558533Y1621600D01*
X2552948Y1621967D01*
D02*
G37*
G36*
X2550740Y2278640D02*
X2536560D01*
Y2273885D01*
X2474000D01*
X2472514Y2273589D01*
X2471253Y2272747D01*
X2403763Y2205257D01*
X2402590Y2205743D01*
X2402590Y2268102D01*
X2402393Y2269093D01*
X2401831Y2269933D01*
X2400933Y2270831D01*
X2400093Y2271393D01*
X2399102Y2271590D01*
X2318000Y2271590D01*
X2317009Y2271392D01*
X2316169Y2270831D01*
X2198463Y2153126D01*
X2197290Y2153612D01*
Y2158940D01*
X2171210D01*
Y2150539D01*
X2161400D01*
X2159434Y2150148D01*
X2157767Y2149034D01*
X2101366Y2092634D01*
X2100252Y2090966D01*
X2099861Y2089000D01*
Y1515337D01*
X2100252Y1513370D01*
X2101366Y1511703D01*
X2273636Y1339433D01*
X2274256Y1338506D01*
X2276088Y1337281D01*
X2278250Y1336851D01*
X2280412Y1337281D01*
X2282244Y1338506D01*
X2283469Y1340338D01*
X2283898Y1342500D01*
X2283469Y1344661D01*
X2282680Y1345841D01*
X2283359Y1347111D01*
X2292945D01*
X2293439Y1346781D01*
X2295600Y1346351D01*
X2297762Y1346781D01*
X2299594Y1348006D01*
X2300819Y1349838D01*
X2301249Y1352000D01*
X2300819Y1354162D01*
X2299594Y1355994D01*
X2297762Y1357218D01*
X2295600Y1357648D01*
X2294294Y1357389D01*
X2280878D01*
X2117679Y1520588D01*
Y1774999D01*
X2118852Y1775485D01*
X2123796Y1770541D01*
X2125593Y1768744D01*
X2125593Y1768744D01*
X2125593Y1768744D01*
X2125593Y1768744D01*
X2125593Y1768744D01*
X2128988Y1765349D01*
X2129200Y1765207D01*
X2129381Y1765027D01*
X2129581Y1764893D01*
X2129581Y1764893D01*
X2129816Y1764796D01*
X2129829Y1764788D01*
X2129843Y1764785D01*
X2130194Y1764639D01*
X2130252Y1764615D01*
X2130264Y1764607D01*
X2130278Y1764604D01*
X2130514Y1764507D01*
X2130514D01*
X2130750Y1764460D01*
X2131005D01*
X2131255Y1764410D01*
X2345795D01*
Y1404289D01*
X2340253Y1398747D01*
X2339411Y1397487D01*
X2339115Y1396000D01*
Y1386067D01*
X2339006Y1385994D01*
X2337782Y1384162D01*
X2337352Y1382000D01*
X2337782Y1379838D01*
X2339006Y1378006D01*
X2340838Y1376781D01*
X2343000Y1376351D01*
X2345162Y1376781D01*
X2346994Y1378006D01*
X2348219Y1379838D01*
X2348649Y1382000D01*
X2348219Y1384162D01*
X2348027Y1384449D01*
X2348790Y1385592D01*
X2350000Y1385351D01*
X2352162Y1385781D01*
X2353994Y1387006D01*
X2354686Y1388040D01*
X2355956Y1387655D01*
Y1371449D01*
X2265053Y1280547D01*
X2264211Y1279286D01*
X2263916Y1277800D01*
Y1212611D01*
X2262106Y1211862D01*
X2259748Y1210052D01*
X2257938Y1207693D01*
X2256801Y1204947D01*
X2256413Y1202000D01*
X2256801Y1199053D01*
X2257938Y1196306D01*
X2259748Y1193948D01*
X2262106Y1192138D01*
X2264853Y1191001D01*
X2267800Y1190612D01*
X2270747Y1191001D01*
X2273494Y1192138D01*
X2275852Y1193948D01*
X2277662Y1196306D01*
X2278799Y1199053D01*
X2279187Y1202000D01*
X2278799Y1204947D01*
X2277662Y1207693D01*
X2275852Y1210052D01*
X2273494Y1211862D01*
X2271685Y1212611D01*
Y1276191D01*
X2359862Y1364368D01*
X2361035Y1363882D01*
Y1355529D01*
X2290453Y1284947D01*
X2289611Y1283687D01*
X2289315Y1282200D01*
Y1212611D01*
X2287506Y1211862D01*
X2285148Y1210052D01*
X2283338Y1207693D01*
X2282201Y1204947D01*
X2281813Y1202000D01*
X2282201Y1199053D01*
X2283338Y1196306D01*
X2285148Y1193948D01*
X2287506Y1192138D01*
X2290253Y1191001D01*
X2293200Y1190612D01*
X2296147Y1191001D01*
X2298894Y1192138D01*
X2301252Y1193948D01*
X2303062Y1196306D01*
X2304200Y1199053D01*
X2304588Y1202000D01*
X2304200Y1204947D01*
X2303062Y1207693D01*
X2301252Y1210052D01*
X2298894Y1211862D01*
X2297085Y1212611D01*
Y1280591D01*
X2364942Y1348448D01*
X2366116Y1347962D01*
Y1341609D01*
X2315853Y1291347D01*
X2315011Y1290086D01*
X2314716Y1288600D01*
Y1212611D01*
X2312906Y1211862D01*
X2310548Y1210052D01*
X2308738Y1207693D01*
X2307601Y1204947D01*
X2307213Y1202000D01*
X2307601Y1199053D01*
X2308738Y1196306D01*
X2310548Y1193948D01*
X2312906Y1192138D01*
X2315653Y1191001D01*
X2318600Y1190612D01*
X2321547Y1191001D01*
X2324294Y1192138D01*
X2326652Y1193948D01*
X2328462Y1196306D01*
X2329599Y1199053D01*
X2329987Y1202000D01*
X2329599Y1204947D01*
X2328462Y1207693D01*
X2326652Y1210052D01*
X2324294Y1211862D01*
X2322485Y1212611D01*
Y1286991D01*
X2372747Y1337253D01*
X2373589Y1338513D01*
X2373885Y1340000D01*
Y1748391D01*
X2433396Y1807902D01*
X2433531Y1807905D01*
X2434459Y1807006D01*
X2433412Y1803372D01*
X2432283Y1796728D01*
X2431906Y1790000D01*
X2432283Y1783271D01*
X2433412Y1776628D01*
X2435278Y1770152D01*
X2437857Y1763926D01*
X2441117Y1758028D01*
X2445016Y1752531D01*
X2449507Y1747507D01*
X2454532Y1743016D01*
X2460028Y1739116D01*
X2465926Y1735857D01*
X2472152Y1733278D01*
X2478628Y1731412D01*
X2485272Y1730283D01*
X2492000Y1729905D01*
X2498729Y1730283D01*
X2505372Y1731412D01*
X2511848Y1733278D01*
X2518074Y1735857D01*
X2523972Y1739116D01*
X2529468Y1743016D01*
X2534493Y1747507D01*
X2538984Y1752531D01*
X2542884Y1758028D01*
X2546143Y1763926D01*
X2548722Y1770152D01*
X2550588Y1776628D01*
X2551717Y1783271D01*
X2552095Y1790000D01*
X2551717Y1796728D01*
X2550588Y1803372D01*
X2548722Y1809848D01*
X2546143Y1816074D01*
X2542884Y1821972D01*
X2538984Y1827468D01*
X2534493Y1832493D01*
X2529468Y1836984D01*
X2523972Y1840883D01*
X2518074Y1844143D01*
X2513313Y1846115D01*
X2513566Y1847385D01*
X2542270D01*
X2543757Y1847681D01*
X2545017Y1848523D01*
X2566948Y1870454D01*
X2567790Y1871714D01*
X2568086Y1873201D01*
Y1882914D01*
Y1941490D01*
X2602593D01*
Y1962570D01*
X2568086D01*
Y1993861D01*
X2583979Y2009753D01*
X2586000Y2009351D01*
X2588162Y2009781D01*
X2589994Y2011006D01*
X2591219Y2012838D01*
X2591649Y2015000D01*
X2591219Y2017162D01*
X2589994Y2018994D01*
X2588938Y2019700D01*
Y2023193D01*
X2602593D01*
Y2044273D01*
X2567513D01*
Y2023193D01*
X2581169D01*
Y2017870D01*
X2580984Y2017747D01*
X2564179Y2000941D01*
X2563006Y2001427D01*
Y2097103D01*
X2565162Y2097531D01*
X2566994Y2098756D01*
X2568219Y2100588D01*
X2568649Y2102750D01*
X2568417Y2103915D01*
X2569223Y2104897D01*
X2602593D01*
Y2125977D01*
X2567513D01*
Y2119038D01*
X2567450Y2119026D01*
X2566190Y2118183D01*
X2560253Y2112247D01*
X2559411Y2110986D01*
X2559196Y2109904D01*
X2557926Y2110029D01*
Y2191291D01*
X2558000Y2191351D01*
X2559000Y2191550D01*
X2560162Y2191781D01*
X2561994Y2193006D01*
X2562161Y2193255D01*
X2567513D01*
Y2186600D01*
X2602593D01*
Y2207680D01*
X2567513D01*
Y2201025D01*
X2561949D01*
X2560162Y2202219D01*
X2558000Y2202648D01*
X2555838Y2202219D01*
X2554006Y2200994D01*
X2553860Y2200776D01*
X2552590Y2201161D01*
Y2206000D01*
Y2206000D01*
X2552393Y2206991D01*
X2551831Y2207831D01*
X2541831Y2217831D01*
X2541552Y2218017D01*
X2540991Y2218393D01*
X2540000Y2218590D01*
X2540000D01*
X2489000Y2218590D01*
X2488009Y2218393D01*
X2487169Y2217831D01*
X2477213Y2207876D01*
X2476040Y2208362D01*
Y2213540D01*
X2457960D01*
Y2211385D01*
X2430868D01*
X2429382Y2211089D01*
X2428121Y2210247D01*
X2424628Y2206754D01*
X2423786Y2205493D01*
X2423507Y2204090D01*
X2420263D01*
Y2201371D01*
X2413736D01*
X2413578Y2201339D01*
X2412159Y2202300D01*
X2412145Y2202348D01*
X2412105Y2202611D01*
X2475609Y2266115D01*
X2536560D01*
Y2261360D01*
X2550740D01*
Y2278640D01*
D02*
G37*
G36*
X2277250Y2537158D02*
X2270051Y2536686D01*
X2262974Y2535278D01*
X2256142Y2532959D01*
X2249671Y2529768D01*
X2243672Y2525760D01*
X2238247Y2521003D01*
X2233490Y2515578D01*
X2229482Y2509579D01*
X2226291Y2503108D01*
X2223971Y2496276D01*
X2222564Y2489200D01*
X2222092Y2482000D01*
X2222564Y2474800D01*
X2223971Y2467724D01*
X2226291Y2460892D01*
X2229482Y2454421D01*
X2233490Y2448422D01*
X2238247Y2442997D01*
X2243672Y2438240D01*
X2249671Y2434232D01*
X2256142Y2431040D01*
X2262974Y2428721D01*
X2270051Y2427314D01*
X2277250Y2426842D01*
X2284450Y2427314D01*
X2291526Y2428721D01*
X2298358Y2431040D01*
X2304829Y2434232D01*
X2310828Y2438240D01*
X2316253Y2442997D01*
X2321010Y2448422D01*
X2325018Y2454421D01*
X2328210Y2460892D01*
X2330529Y2467724D01*
X2331936Y2474800D01*
X2332408Y2482000D01*
X2331936Y2489200D01*
X2330529Y2496276D01*
X2328210Y2503108D01*
X2325018Y2509579D01*
X2321010Y2515578D01*
X2316253Y2521003D01*
X2310828Y2525760D01*
X2304829Y2529768D01*
X2298358Y2532959D01*
X2291526Y2535278D01*
X2284450Y2536686D01*
X2277250Y2537158D01*
D02*
G37*
G36*
X2583440Y2278640D02*
X2577620D01*
Y2271270D01*
X2583440D01*
Y2278640D01*
D02*
G37*
G36*
X2552948Y2572967D02*
X2547363Y2572600D01*
X2541873Y2571508D01*
X2536572Y2569709D01*
X2531552Y2567234D01*
X2526898Y2564124D01*
X2522690Y2560433D01*
X2518999Y2556225D01*
X2518531Y2555524D01*
X2517261D01*
X2516793Y2556225D01*
X2513102Y2560433D01*
X2508894Y2564124D01*
X2504240Y2567234D01*
X2499220Y2569709D01*
X2493919Y2571508D01*
X2488429Y2572600D01*
X2482844Y2572967D01*
X2477258Y2572600D01*
X2471769Y2571508D01*
X2466468Y2569709D01*
X2461448Y2567234D01*
X2456794Y2564124D01*
X2452586Y2560433D01*
X2448895Y2556225D01*
X2445785Y2551571D01*
X2443310Y2546551D01*
X2441510Y2541250D01*
X2440418Y2535760D01*
X2440052Y2530175D01*
Y2523825D01*
X2440418Y2518240D01*
X2441510Y2512750D01*
X2443310Y2507449D01*
X2445785Y2502429D01*
X2446072Y2502000D01*
X2445785Y2501571D01*
X2443310Y2496551D01*
X2441510Y2491250D01*
X2440418Y2485760D01*
X2440052Y2480175D01*
Y2473825D01*
X2440418Y2468240D01*
X2441510Y2462750D01*
X2443310Y2457449D01*
X2445785Y2452429D01*
X2446072Y2452000D01*
X2445785Y2451571D01*
X2443310Y2446551D01*
X2441510Y2441250D01*
X2440418Y2435760D01*
X2440052Y2430175D01*
Y2423825D01*
X2440418Y2418240D01*
X2441510Y2412750D01*
X2443310Y2407449D01*
X2445785Y2402429D01*
X2448895Y2397775D01*
X2452586Y2393567D01*
X2456794Y2389876D01*
X2461448Y2386766D01*
X2466468Y2384291D01*
X2471769Y2382491D01*
X2477258Y2381400D01*
X2482844Y2381033D01*
X2488429Y2381400D01*
X2493919Y2382491D01*
X2499220Y2384291D01*
X2504240Y2386766D01*
X2508894Y2389876D01*
X2513102Y2393567D01*
X2516793Y2397775D01*
X2517261Y2398476D01*
X2518531D01*
X2518999Y2397775D01*
X2522690Y2393567D01*
X2526898Y2389876D01*
X2531552Y2386766D01*
X2536572Y2384291D01*
X2541873Y2382491D01*
X2547363Y2381400D01*
X2552948Y2381033D01*
X2558533Y2381400D01*
X2564023Y2382491D01*
X2569324Y2384291D01*
X2574344Y2386766D01*
X2578998Y2389876D01*
X2583206Y2393567D01*
X2586897Y2397775D01*
X2590007Y2402429D01*
X2592482Y2407449D01*
X2594282Y2412750D01*
X2595374Y2418240D01*
X2595740Y2423825D01*
Y2430175D01*
X2595374Y2435760D01*
X2594282Y2441250D01*
X2592482Y2446551D01*
X2590007Y2451571D01*
X2589720Y2452000D01*
X2590007Y2452429D01*
X2592482Y2457449D01*
X2594282Y2462750D01*
X2595374Y2468240D01*
X2595740Y2473825D01*
Y2480175D01*
X2595374Y2485760D01*
X2594282Y2491250D01*
X2592482Y2496551D01*
X2590007Y2501571D01*
X2589720Y2502000D01*
X2590007Y2502429D01*
X2592482Y2507449D01*
X2594282Y2512750D01*
X2595374Y2518240D01*
X2595740Y2523825D01*
Y2530175D01*
X2595374Y2535760D01*
X2594282Y2541250D01*
X2592482Y2546551D01*
X2590007Y2551571D01*
X2586897Y2556225D01*
X2583206Y2560433D01*
X2578998Y2564124D01*
X2574344Y2567234D01*
X2569324Y2569709D01*
X2564023Y2571508D01*
X2558533Y2572600D01*
X2552948Y2572967D01*
D02*
G37*
G36*
X2670000Y2511339D02*
X2664604Y2510985D01*
X2659301Y2509930D01*
X2654180Y2508192D01*
X2649331Y2505800D01*
X2644835Y2502796D01*
X2640769Y2499231D01*
X2637204Y2495165D01*
X2634200Y2490669D01*
X2631808Y2485820D01*
X2630070Y2480699D01*
X2629015Y2475396D01*
X2628661Y2470000D01*
X2629015Y2464604D01*
X2630070Y2459301D01*
X2631808Y2454180D01*
X2634200Y2449331D01*
X2637204Y2444835D01*
X2640769Y2440769D01*
X2644835Y2437204D01*
X2649331Y2434200D01*
X2654180Y2431808D01*
X2659301Y2430070D01*
X2664604Y2429015D01*
X2670000Y2428661D01*
X2675396Y2429015D01*
X2680699Y2430070D01*
X2685819Y2431808D01*
X2690669Y2434200D01*
X2695165Y2437204D01*
X2699231Y2440769D01*
X2702796Y2444835D01*
X2705800Y2449331D01*
X2708192Y2454180D01*
X2709930Y2459301D01*
X2710985Y2464604D01*
X2711339Y2470000D01*
X2710985Y2475396D01*
X2709930Y2480699D01*
X2708192Y2485820D01*
X2705800Y2490669D01*
X2702796Y2495165D01*
X2699231Y2499231D01*
X2695165Y2502796D01*
X2690669Y2505800D01*
X2685819Y2508192D01*
X2680699Y2509930D01*
X2675396Y2510985D01*
X2670000Y2511339D01*
D02*
G37*
G36*
X2575080Y2268730D02*
X2569260D01*
Y2261360D01*
X2575080D01*
Y2268730D01*
D02*
G37*
G36*
X2694920Y2350006D02*
X2687296Y2349578D01*
X2679767Y2348299D01*
X2672429Y2346185D01*
X2665374Y2343262D01*
X2658690Y2339568D01*
X2652463Y2335150D01*
X2646769Y2330061D01*
X2641680Y2324367D01*
X2637261Y2318139D01*
X2633568Y2311456D01*
X2630645Y2304401D01*
X2628531Y2297063D01*
X2627252Y2289534D01*
X2626824Y2281910D01*
X2627252Y2274286D01*
X2628531Y2266757D01*
X2630645Y2259419D01*
X2633568Y2252364D01*
X2635980Y2248000D01*
X2637261Y2245681D01*
X2641680Y2239453D01*
X2646769Y2233759D01*
X2652463Y2228670D01*
X2658690Y2224251D01*
X2665374Y2220558D01*
X2672429Y2217635D01*
X2679767Y2215521D01*
X2687296Y2214242D01*
X2694920Y2213814D01*
X2702544Y2214242D01*
X2710073Y2215521D01*
X2717411Y2217635D01*
X2724466Y2220558D01*
X2731149Y2224251D01*
X2737377Y2228670D01*
X2743071Y2233759D01*
X2748159Y2239453D01*
X2752578Y2245681D01*
X2756272Y2252364D01*
X2759195Y2259419D01*
X2761309Y2266757D01*
X2762588Y2274286D01*
X2763016Y2281910D01*
X2762588Y2289534D01*
X2761309Y2297063D01*
X2759195Y2304401D01*
X2756272Y2311456D01*
X2752578Y2318139D01*
X2748159Y2324367D01*
X2743071Y2330061D01*
X2737377Y2335150D01*
X2731149Y2339568D01*
X2724466Y2343262D01*
X2717411Y2346185D01*
X2710073Y2348299D01*
X2702544Y2349578D01*
X2694920Y2350006D01*
D02*
G37*
G36*
X2575080Y2278640D02*
X2569260D01*
Y2271270D01*
X2575080D01*
Y2278640D01*
D02*
G37*
G36*
X2583440Y2268730D02*
X2577620D01*
Y2261360D01*
X2583440D01*
Y2268730D01*
D02*
G37*
G36*
X2678000Y1524094D02*
X2671272Y1523716D01*
X2664628Y1522588D01*
X2658152Y1520722D01*
X2651926Y1518143D01*
X2646028Y1514883D01*
X2640532Y1510984D01*
X2635507Y1506493D01*
X2631017Y1501468D01*
X2627117Y1495972D01*
X2623857Y1490074D01*
X2621278Y1483848D01*
X2619412Y1477372D01*
X2618283Y1470728D01*
X2617906Y1464000D01*
X2618283Y1457271D01*
X2619412Y1450628D01*
X2621278Y1444152D01*
X2623857Y1437926D01*
X2627117Y1432028D01*
X2631017Y1426532D01*
X2635507Y1421507D01*
X2640532Y1417016D01*
X2646028Y1413116D01*
X2651926Y1409857D01*
X2658152Y1407278D01*
X2664628Y1405412D01*
X2671272Y1404283D01*
X2678000Y1403905D01*
X2684729Y1404283D01*
X2691372Y1405412D01*
X2697848Y1407278D01*
X2704074Y1409857D01*
X2709973Y1413116D01*
X2715468Y1417016D01*
X2720493Y1421507D01*
X2724984Y1426532D01*
X2728884Y1432028D01*
X2732143Y1437926D01*
X2734722Y1444152D01*
X2736588Y1450628D01*
X2737717Y1457271D01*
X2738095Y1464000D01*
X2737717Y1470728D01*
X2736588Y1477372D01*
X2734722Y1483848D01*
X2732143Y1490074D01*
X2728884Y1495972D01*
X2724984Y1501468D01*
X2720493Y1506493D01*
X2715468Y1510984D01*
X2709973Y1514883D01*
X2704074Y1518143D01*
X2697848Y1520722D01*
X2691372Y1522588D01*
X2684729Y1523716D01*
X2678000Y1524094D01*
D02*
G37*
G36*
X1647074Y1291396D02*
X1646183Y1291219D01*
X1644350Y1289994D01*
X1643125Y1288162D01*
X1642948Y1287270D01*
X1647074D01*
Y1291396D01*
D02*
G37*
G36*
X1649614D02*
Y1287270D01*
X1653740D01*
X1653563Y1288162D01*
X1652338Y1289994D01*
X1650506Y1291219D01*
X1649614Y1291396D01*
D02*
G37*
G36*
X1833240Y1304030D02*
X1829114D01*
Y1299904D01*
X1830006Y1300081D01*
X1831838Y1301306D01*
X1833062Y1303138D01*
X1833240Y1304030D01*
D02*
G37*
G36*
X1826574D02*
X1822448D01*
X1822625Y1303138D01*
X1823850Y1301306D01*
X1825682Y1300081D01*
X1826574Y1299904D01*
Y1304030D01*
D02*
G37*
G36*
X1814074D02*
X1809948D01*
X1810125Y1303138D01*
X1811350Y1301306D01*
X1813182Y1300081D01*
X1814074Y1299904D01*
Y1304030D01*
D02*
G37*
G36*
X1808240D02*
X1804114D01*
Y1299904D01*
X1805006Y1300081D01*
X1806838Y1301306D01*
X1808062Y1303138D01*
X1808240Y1304030D01*
D02*
G37*
G36*
X1801574D02*
X1797448D01*
X1797625Y1303138D01*
X1798850Y1301306D01*
X1800682Y1300081D01*
X1801574Y1299904D01*
Y1304030D01*
D02*
G37*
G36*
X1820740D02*
X1816614D01*
Y1299904D01*
X1817506Y1300081D01*
X1819338Y1301306D01*
X1820562Y1303138D01*
X1820740Y1304030D01*
D02*
G37*
G36*
X1801574Y1310696D02*
X1800682Y1310518D01*
X1798850Y1309294D01*
X1797625Y1307462D01*
X1797448Y1306570D01*
X1801574D01*
Y1310696D01*
D02*
G37*
G36*
X1816614D02*
Y1306570D01*
X1820740D01*
X1820562Y1307462D01*
X1819338Y1309294D01*
X1817506Y1310518D01*
X1816614Y1310696D01*
D02*
G37*
G36*
X1653740Y1284730D02*
X1649614D01*
Y1280604D01*
X1650506Y1280781D01*
X1652338Y1282006D01*
X1653563Y1283838D01*
X1653740Y1284730D01*
D02*
G37*
G36*
X1829114Y1310696D02*
Y1306570D01*
X1833240D01*
X1833062Y1307462D01*
X1831838Y1309294D01*
X1830006Y1310518D01*
X1829114Y1310696D01*
D02*
G37*
G36*
X1826574D02*
X1825682Y1310518D01*
X1823850Y1309294D01*
X1822625Y1307462D01*
X1822448Y1306570D01*
X1826574D01*
Y1310696D01*
D02*
G37*
G36*
X1788614Y1291296D02*
Y1287170D01*
X1792740D01*
X1792562Y1288062D01*
X1791338Y1289894D01*
X1789505Y1291119D01*
X1788614Y1291296D01*
D02*
G37*
G36*
X1804114Y1310696D02*
Y1306570D01*
X1808240D01*
X1808062Y1307462D01*
X1806838Y1309294D01*
X1805006Y1310518D01*
X1804114Y1310696D01*
D02*
G37*
G36*
X1786074Y1291296D02*
X1785182Y1291119D01*
X1783350Y1289894D01*
X1782125Y1288062D01*
X1781948Y1287170D01*
X1786074D01*
Y1291296D01*
D02*
G37*
G36*
X1814074Y1310696D02*
X1813182Y1310518D01*
X1811350Y1309294D01*
X1810125Y1307462D01*
X1809948Y1306570D01*
X1814074D01*
Y1310696D01*
D02*
G37*
%LPD*%
G36*
X2549000Y2042000D02*
X2549000Y1898000D01*
X2542000Y1891000D01*
X2462000D01*
X2428000Y1925000D01*
Y2004000D01*
X2469000Y2004000D01*
X2478000Y2013000D01*
X2478000Y2041000D01*
X2485000Y2048000D01*
X2543000Y2048000D01*
X2549000Y2042000D01*
D02*
G37*
G36*
X2396000Y2183852D02*
X2396000Y1868275D01*
X2395116Y1867550D01*
X2359550D01*
Y1878592D01*
X2359550Y1878593D01*
X2359550Y1878847D01*
X2359503Y1879083D01*
X2359515Y1879175D01*
X2359500Y1879228D01*
Y1879352D01*
X2359492Y1879391D01*
X2359492Y1879391D01*
Y1879391D01*
X2359471Y1879496D01*
D01*
X2359471Y1879497D01*
X2359374Y1879732D01*
X2359353Y1879838D01*
X2359319Y1879888D01*
X2359248Y1880150D01*
X2359248Y1880150D01*
X2359189Y1880225D01*
X2359176Y1880258D01*
X2359175Y1880260D01*
X2359172Y1880274D01*
X2359168Y1880280D01*
X2359167Y1880287D01*
X2359166Y1880288D01*
X2359122Y1880354D01*
X2359100Y1880407D01*
X2359091Y1880417D01*
X2359086Y1880429D01*
X2359002Y1880554D01*
X2358934Y1880719D01*
X2358754Y1880900D01*
X2358611Y1881114D01*
X2358074Y1881651D01*
X2357859Y1881794D01*
X2357679Y1881974D01*
X2357514Y1882043D01*
X2357513Y1882043D01*
X2357513Y1882043D01*
X2357476Y1882068D01*
X2357476Y1882068D01*
X2357475Y1882068D01*
X2357466Y1882074D01*
X2357407Y1882099D01*
X2357250Y1882206D01*
X2357249Y1882206D01*
X2357241Y1882208D01*
X2357234Y1882212D01*
X2357219Y1882215D01*
X2357219Y1882216D01*
X2357078Y1882274D01*
X2357077Y1882274D01*
X2357018Y1882314D01*
X2356949Y1882327D01*
X2356815Y1882383D01*
X2356803Y1882391D01*
X2356803Y1882391D01*
X2356800Y1882391D01*
X2356798Y1882393D01*
X2356616Y1882429D01*
X2356548Y1882458D01*
X2356548Y1882458D01*
X2356540Y1882458D01*
X2356533Y1882461D01*
X2356532Y1882461D01*
X2356532Y1882461D01*
X2356532D01*
X2356485Y1882470D01*
X2356485D01*
X2356484Y1882470D01*
X2356477Y1882472D01*
X2356312Y1882540D01*
X2356061D01*
X2355812Y1882590D01*
X2355809Y1882590D01*
X2355807Y1882590D01*
X2346762Y1882590D01*
X2346762D01*
X2346728Y2023066D01*
X2348831Y2025169D01*
X2349393Y2026009D01*
X2349590Y2027000D01*
X2349590Y2178410D01*
X2356062D01*
X2357053Y2178607D01*
X2357893Y2179169D01*
X2358791Y2180067D01*
X2359353Y2180907D01*
X2359550Y2181898D01*
Y2183200D01*
X2384296D01*
X2385287Y2183397D01*
X2386128Y2183959D01*
X2386919Y2184750D01*
X2395102Y2184750D01*
X2396000Y2183852D01*
D02*
G37*
G36*
X2345771Y1880197D02*
X2345771Y1880197D01*
X2345771Y1880197D01*
X2346248Y1880103D01*
X2346762Y1880000D01*
X2346762D01*
X2355742Y1880000D01*
X2355824Y1879990D01*
X2355958Y1879935D01*
X2355969Y1879932D01*
D01*
X2355976Y1879931D01*
X2355977D01*
X2355979Y1879930D01*
X2355979Y1879930D01*
X2356026Y1879921D01*
X2356026D01*
X2356027Y1879921D01*
X2356027Y1879921D01*
X2356028Y1879921D01*
X2356036Y1879915D01*
D01*
X2356073Y1879890D01*
X2356074Y1879890D01*
X2356087Y1879881D01*
X2356096Y1879877D01*
X2356102Y1879871D01*
X2356103Y1879871D01*
X2356249Y1879813D01*
X2356421Y1879641D01*
X2356423Y1879639D01*
X2356599Y1879463D01*
X2356601Y1879461D01*
X2356780Y1879282D01*
X2356782Y1879269D01*
X2356796Y1879235D01*
X2356804Y1879224D01*
X2356848Y1879116D01*
X2356917Y1879014D01*
X2356934Y1878980D01*
X2356952Y1878886D01*
X2356952Y1878886D01*
D01*
X2356960Y1878847D01*
X2356960Y1878593D01*
X2356960Y1878593D01*
Y1878592D01*
Y1867550D01*
Y1864960D01*
X2395116D01*
Y1810359D01*
X2351756Y1767000D01*
X2131255D01*
X2131243Y1767008D01*
X2131185Y1767032D01*
X2131185Y1767032D01*
X2131185Y1767032D01*
X2130834Y1767177D01*
X2130820Y1767180D01*
D01*
X2127424Y1770575D01*
X2127424Y1770575D01*
D01*
X2127424Y1770575D01*
X2127424Y1770575D01*
X2127424Y1770575D01*
X2127424D01*
X2127424Y1770576D01*
X2125627Y1772373D01*
D01*
X2118000Y1780000D01*
Y1853000D01*
X2145249Y1880249D01*
X2345692Y1880250D01*
X2345771Y1880197D01*
D02*
G37*
G36*
X2400000Y2268102D02*
X2400000Y2201493D01*
X2384296Y2185790D01*
X2356960D01*
Y2181898D01*
X2356062Y2181000D01*
X2347000D01*
X2347000Y2027000D01*
X2306000Y1986000D01*
X2197730Y1986000D01*
X2197290Y1986440D01*
Y1986440D01*
X2171210D01*
Y1986000D01*
X2159000D01*
X2158999Y2064710D01*
X2160269Y2065296D01*
X2163319Y2062691D01*
X2168083Y2059771D01*
X2173246Y2057633D01*
X2178679Y2056329D01*
X2184250Y2055890D01*
X2189821Y2056329D01*
X2195254Y2057633D01*
X2200417Y2059771D01*
X2205181Y2062691D01*
X2209430Y2066320D01*
X2213059Y2070569D01*
X2215979Y2075333D01*
X2218117Y2080496D01*
X2219421Y2085929D01*
X2219860Y2091500D01*
X2219421Y2097070D01*
X2218117Y2102504D01*
X2215979Y2107666D01*
X2213059Y2112431D01*
X2209430Y2116680D01*
X2205181Y2120309D01*
X2200417Y2123228D01*
X2195254Y2125367D01*
X2189821Y2126671D01*
X2184250Y2127110D01*
X2178679Y2126671D01*
X2176996Y2126267D01*
X2176375Y2127375D01*
X2181860Y2132860D01*
X2197290D01*
Y2148290D01*
X2318000Y2269000D01*
X2399102Y2269000D01*
X2400000Y2268102D01*
D02*
G37*
G36*
X2550000Y2206000D02*
X2550000Y2142000D01*
X2544000Y2136000D01*
X2485000D01*
X2474000Y2147000D01*
X2472000Y2149000D01*
X2460000D01*
Y2148000D01*
X2453385Y2141385D01*
X2446528D01*
X2445042Y2141089D01*
X2443781Y2140247D01*
X2442534Y2139000D01*
X2414000D01*
Y2158102D01*
X2414898Y2159000D01*
X2453000Y2159000D01*
X2477000Y2183000D01*
X2477000Y2200000D01*
X2477000Y2204000D01*
X2489000Y2216000D01*
X2540000Y2216000D01*
X2550000Y2206000D01*
D02*
G37*
G36*
X2550000Y2125000D02*
Y2061000D01*
X2549000D01*
X2539000Y2051000D01*
X2441898D01*
X2441000Y2051898D01*
X2441000Y2090000D01*
X2451000Y2100000D01*
X2467000D01*
X2478000Y2111000D01*
X2478000Y2121000D01*
X2487000Y2130000D01*
X2545000Y2130000D01*
X2550000Y2125000D01*
D02*
G37*
D11*
X2349680Y1759430D02*
X2399000Y1808750D01*
X2349680Y1402680D02*
Y1759430D01*
X2399000Y1808750D02*
Y1965000D01*
X2359840Y1754208D02*
X2420570Y1814938D01*
X2364920Y1752104D02*
X2425650Y1812834D01*
X2370000Y1750000D02*
X2430730Y1810730D01*
X2354760Y1757010D02*
X2404338Y1806588D01*
X2354760Y1395760D02*
Y1757010D01*
X2404080Y2036748D02*
X2404338Y1806588D01*
X2462413Y1861430D02*
X2538062D01*
X2420570Y1819587D02*
X2462413Y1861430D01*
X2420570Y1814938D02*
Y1819587D01*
X2359840Y1369840D02*
Y1754208D01*
X2464517Y1856350D02*
X2540166D01*
X2425650Y1817483D02*
X2464517Y1856350D01*
X2425650Y1812834D02*
Y1817483D01*
X2364920Y1353920D02*
Y1752104D01*
X2466621Y1851270D02*
X2542270D01*
X2430730Y1815379D02*
X2466621Y1851270D01*
X2430730Y1810730D02*
Y1815379D01*
X2370000Y1340000D02*
Y1750000D01*
X2563000Y2102750D02*
Y2109500D01*
X2559121Y2098871D02*
X2563000Y2102750D01*
Y2109500D02*
X2568937Y2115437D01*
X2559121Y1875305D02*
Y2098871D01*
X2554041Y1877409D02*
Y2193041D01*
X2558000Y2197000D01*
X2038000Y1223500D02*
Y1799600D01*
X1847750Y1989850D02*
X2038000Y1799600D01*
Y1223500D02*
X2079500Y1182000D01*
X2267800Y1277800D02*
X2359840Y1369840D01*
X2293200Y1282200D02*
X2364920Y1353920D01*
X2318600Y1288600D02*
X2370000Y1340000D01*
X2318600Y1202000D02*
Y1288600D01*
X2293200Y1202000D02*
Y1282200D01*
X2344000Y1187750D02*
Y1202000D01*
X2338250Y1182000D02*
X2344000Y1187750D01*
X2079500Y1182000D02*
X2338250D01*
X2404080Y2036748D02*
X2404818Y2037486D01*
X2404080Y2187830D02*
X2413736Y2197486D01*
X2399000Y2071000D02*
Y2144000D01*
X2395090Y2147910D02*
X2399000Y2144000D01*
X2404080Y2036748D02*
Y2187830D01*
X2413736Y2197486D02*
X2427375D01*
X2350000Y1391000D02*
X2354760Y1395760D01*
X2404332Y2127486D02*
X2427375D01*
X2404818Y2037486D02*
X2417375D01*
X2343000Y1382000D02*
Y1396000D01*
X2349680Y1402680D01*
X2379663Y1963910D02*
X2397910D01*
X2399000Y1965000D02*
Y2071000D01*
X2397910Y1963910D02*
X2399000Y1965000D01*
X2383963Y2070910D02*
X2398910D01*
X2389463Y2147910D02*
X2395090D01*
X2398910Y2070910D02*
X2399000Y2071000D01*
X2459500Y2046000D02*
X2468000Y2037500D01*
X2425889Y2046000D02*
X2459500D01*
X2417375Y2037486D02*
X2425889Y2046000D01*
X2446528Y2137500D02*
X2468000D01*
X2436514Y2127486D02*
X2446528Y2137500D01*
X2427375Y2127486D02*
X2436514D01*
X2411117Y2149883D02*
Y2161064D01*
Y2149883D02*
X2413090Y2147910D01*
X2418463D01*
X2427963Y2087910D02*
X2448551Y2108498D01*
X2427963Y2077910D02*
Y2087910D01*
X2448551Y2108498D02*
Y2117834D01*
X2427963Y2077910D02*
X2434963Y2070910D01*
X2411117Y2161064D02*
X2420513Y2170460D01*
X2433644D01*
X2427375Y2178334D02*
Y2184625D01*
X2423000Y2189000D02*
X2427375Y2184625D01*
X2267800Y1202000D02*
Y1277800D01*
X2568937Y2115437D02*
X2585053D01*
X2564201Y1952000D02*
Y1995470D01*
Y1873201D02*
Y1952000D01*
X2564231Y1952030D01*
X2585053D01*
X2542270Y1851270D02*
X2564201Y1873201D01*
X2538062Y1861430D02*
X2554041Y1877409D01*
X2540166Y1856350D02*
X2559121Y1875305D01*
X2564201Y1995470D02*
X2583731Y2015000D01*
X2586000D01*
X2585053Y2015947D02*
X2586000Y2015000D01*
X2585053Y2015947D02*
Y2033733D01*
X2421963Y1963910D02*
X2442263D01*
X2417963Y1967910D02*
X2421963Y1963910D01*
X2417963Y1967910D02*
Y2001963D01*
X2438551Y2022551D01*
X2433644Y2170460D02*
X2448551Y2185367D01*
Y2187834D01*
X2438551Y2022551D02*
Y2027834D01*
X2372000Y2168000D02*
X2474000Y2270000D01*
X2543650D01*
X2417000Y2190000D02*
X2418000Y2189000D01*
X2423000D01*
X2430868Y2207500D02*
X2467000D01*
X2427375Y2204007D02*
X2430868Y2207500D01*
X2427375Y2197486D02*
Y2204007D01*
X2576350Y2231350D02*
Y2270000D01*
X2468000Y2118500D02*
Y2123000D01*
X2465000Y2126000D02*
X2468000Y2123000D01*
X2442693Y2126000D02*
X2465000D01*
X2438000Y2112000D02*
Y2121307D01*
X2434334Y2108334D02*
X2438000Y2112000D01*
X2427375Y2108334D02*
X2434334D01*
X2442000Y2199000D02*
X2464000D01*
X2438000Y2195000D02*
X2442000Y2199000D01*
X2438000Y2182000D02*
Y2195000D01*
X2434334Y2178334D02*
X2438000Y2182000D01*
X2464000Y2199000D02*
X2467000Y2196000D01*
X2427375Y2178334D02*
X2434334D01*
X2558140Y2197140D02*
X2585053D01*
X2467000Y2188500D02*
Y2196000D01*
X2438000Y2121307D02*
X2442693Y2126000D01*
X2434000Y2039000D02*
X2448000D01*
X2428000Y2033000D02*
X2434000Y2039000D01*
X2428000Y2022000D02*
Y2033000D01*
X2424334Y2018334D02*
X2428000Y2022000D01*
X2417375Y2018334D02*
X2424334D01*
X2458500Y2018500D02*
X2468000D01*
X2453000Y2024000D02*
X2458500Y2018500D01*
X2453000Y2024000D02*
Y2034000D01*
X2448000Y2039000D02*
X2453000Y2034000D01*
X2434963Y2070910D02*
X2444963D01*
X1577000Y1161000D02*
Y2611000D01*
Y1161000D02*
X2877000D01*
Y2611000D01*
X1577000D02*
X2877000D01*
D12*
X2112540Y1518460D02*
X2278750Y1352250D01*
X2112540Y1518460D02*
Y1922540D01*
X2162900Y1972900D01*
X2105000Y2089000D02*
X2161400Y2145400D01*
X2105000Y1515337D02*
Y2089000D01*
Y1515337D02*
X2277837Y1342500D01*
X2161400Y2145400D02*
X2187153D01*
X2162900Y1972900D02*
X2187153D01*
X2278750Y1352250D02*
X2295350D01*
X2295600Y1352000D01*
X2277837Y1342500D02*
X2278250D01*
X1767400Y1204400D02*
Y1220460D01*
X1757000Y1194000D02*
X1767400Y1204400D01*
X1660000Y1209000D02*
Y1225000D01*
Y1209000D02*
X1675000Y1194000D01*
X1757000D01*
D13*
X2371000Y2250000D02*
D03*
Y2150000D02*
D03*
Y1802500D02*
D03*
Y1902500D02*
D03*
D14*
X2736000Y2566000D02*
D03*
X2492000Y1790000D02*
D03*
X2694920Y2281910D02*
D03*
Y1821910D02*
D03*
X2678000Y1464000D02*
D03*
X1613000Y2324500D02*
D03*
Y1681000D02*
D03*
D15*
X1707948Y1576000D02*
D03*
X1637844D02*
D03*
Y1526000D02*
D03*
X1707948D02*
D03*
X1637844Y1476000D02*
D03*
X1707948D02*
D03*
X2552948Y1576000D02*
D03*
X2482844D02*
D03*
Y1526000D02*
D03*
X2552948D02*
D03*
X2482844Y1476000D02*
D03*
X2552948D02*
D03*
X1634052Y2429500D02*
D03*
X1704156D02*
D03*
Y2479500D02*
D03*
X1634052D02*
D03*
X1704156Y2529500D02*
D03*
X1634052D02*
D03*
X2552948Y2527000D02*
D03*
X2482844D02*
D03*
Y2477000D02*
D03*
X2552948D02*
D03*
X2482844Y2427000D02*
D03*
X2552948D02*
D03*
D16*
X2184250Y1864600D02*
D03*
Y1919000D02*
D03*
Y2091500D02*
D03*
Y2037100D02*
D03*
D17*
Y1973400D02*
D03*
Y2145900D02*
D03*
D18*
X2115400Y1202000D02*
D03*
X2140800D02*
D03*
X2217000D02*
D03*
X2191600D02*
D03*
X2242400D02*
D03*
X2344000D02*
D03*
X2318600D02*
D03*
X2267800D02*
D03*
X2293200D02*
D03*
X2394800D02*
D03*
X2369400D02*
D03*
X2420200D02*
D03*
X2445600D02*
D03*
X2549300D02*
D03*
X2574700D02*
D03*
X2600100D02*
D03*
X2699600D02*
D03*
X2750400D02*
D03*
X2775800D02*
D03*
X2826600D02*
D03*
D19*
X1847750Y2015250D02*
D03*
Y1989850D02*
D03*
D20*
X1922000Y1231940D02*
D03*
X1902000D02*
D03*
X1882000D02*
D03*
X1862000D02*
D03*
D21*
X2772656Y1931718D02*
D03*
Y2031718D02*
D03*
Y2106718D02*
D03*
Y2181718D02*
D03*
D22*
X1818200Y1220460D02*
D03*
X1792800D02*
D03*
X1767400D02*
D03*
D23*
X1742000D02*
D03*
D24*
X2771000Y1668000D02*
D03*
X2671000D02*
D03*
X2770000Y2470000D02*
D03*
X2670000D02*
D03*
D25*
X1634600Y1225000D02*
D03*
X1660000D02*
D03*
X1685400D02*
D03*
D26*
X2438000Y2112000D02*
D03*
X2563000Y2102750D02*
D03*
X2295600Y1352000D02*
D03*
X2278250Y1342500D02*
D03*
X2350000Y1391000D02*
D03*
X2343000Y1382000D02*
D03*
X1827844Y1305300D02*
D03*
X1815344D02*
D03*
X1802844D02*
D03*
X1787344Y1285900D02*
D03*
X1648344Y1286000D02*
D03*
X2453000Y2024000D02*
D03*
X2586000Y2015000D02*
D03*
X2417000Y2190000D02*
D03*
X2558000Y2197000D02*
D03*
D27*
X2405094Y2035250D02*
G03*
X2405156Y2038889I-799J1834D01*
G01*
X2405638Y2125652D02*
G03*
X2405700Y2129292I-799J1834D01*
G01*
X2398112Y1965744D02*
G03*
X2398050Y1962104I799J-1834D01*
G01*
X2398112Y2072744D02*
G03*
X2398050Y2069104I799J-1834D01*
G01*
X2565388Y1950166D02*
G03*
X2565450Y1953805I-799J1834D01*
G01*
D28*
X2585053Y1952030D02*
D03*
Y1906230D02*
D03*
Y2033733D02*
D03*
Y1987933D02*
D03*
Y2115437D02*
D03*
Y2069637D02*
D03*
Y2197140D02*
D03*
Y2151340D02*
D03*
D29*
X2513053Y1929130D02*
D03*
Y2010833D02*
D03*
Y2092537D02*
D03*
Y2174240D02*
D03*
D30*
X2417375Y2018334D02*
D03*
Y2037486D02*
D03*
X2438551Y2027834D02*
D03*
X2427375Y2108334D02*
D03*
Y2127486D02*
D03*
X2448551Y2117834D02*
D03*
X2427375Y2178334D02*
D03*
Y2197486D02*
D03*
X2448551Y2187834D02*
D03*
D31*
X2418463Y2147910D02*
D03*
X2389463D02*
D03*
D32*
X2383963Y2070910D02*
D03*
X2449963D02*
D03*
D33*
X2377000Y2175250D02*
D03*
Y1875500D02*
D03*
D34*
Y2229250D02*
D03*
Y1821500D02*
D03*
D35*
X2468000Y2018500D02*
D03*
Y2037500D02*
D03*
Y2137500D02*
D03*
Y2118500D02*
D03*
X2467000Y2207500D02*
D03*
Y2188500D02*
D03*
D36*
X2379663Y1963910D02*
D03*
X2442263D02*
D03*
D37*
X2543650Y2270000D02*
D03*
X2576350D02*
D03*
M02*
