G04*
G04 #@! TF.GenerationSoftware,Altium Limited,CircuitStudio,1.5.2 (1.5.2.30)*
G04*
G04 Layer_Color=15065295*
%FSLAX44Y44*%
%MOMM*%
G71*
G01*
G75*
%ADD11C,0.2540*%
%ADD12C,0.5000*%
%ADD38C,0.2500*%
%ADD39C,0.2000*%
%ADD40C,0.4000*%
D11*
X2371000Y2220000D02*
G03*
X2371000Y2200000I0J-10000D01*
G01*
Y2180000D02*
G03*
X2371000Y2200000I0J10000D01*
G01*
Y1832500D02*
G03*
X2371000Y1852500I0J10000D01*
G01*
Y1872500D02*
G03*
X2371000Y1852500I0J-10000D01*
G01*
X2804656Y2116718D02*
G03*
X2804656Y2106718I5000J-5000D01*
G01*
Y2096718D02*
G03*
X2804656Y2106718I-5000J5000D01*
G01*
Y2041718D02*
G03*
X2804656Y2031718I5000J-5000D01*
G01*
Y2021718D02*
G03*
X2804656Y2031718I-5000J5000D01*
G01*
X2775381Y1893718D02*
G03*
X2775381Y1893718I-7725J0D01*
G01*
X2708500Y1668000D02*
G03*
X2708500Y1668000I-37500J0D01*
G01*
X2707500Y2470000D02*
G03*
X2707500Y2470000I-37500J0D01*
G01*
X2371000Y2220000D02*
Y2235000D01*
Y2165000D02*
Y2180000D01*
Y1817500D02*
Y1832500D01*
Y1872500D02*
Y1887500D01*
X2140250Y1833910D02*
Y2002820D01*
Y2006410D02*
Y2175320D01*
X1641000Y1452500D02*
X2451750D01*
X1641000D02*
Y2550750D01*
X2450000D01*
X2451750Y2549000D01*
Y1452500D02*
Y2549000D01*
X1835250Y2027750D02*
X1860250D01*
X1835250Y1975250D02*
Y2027750D01*
Y1975250D02*
X1860250D01*
Y2027750D01*
X2752656Y1905718D02*
Y2207718D01*
Y1905718D02*
X2792656D01*
Y2207718D01*
X2752656D02*
X2792656D01*
X1830900Y1191250D02*
Y1249670D01*
X1729300Y1240780D02*
X1830900D01*
X1729300Y1191250D02*
X1830900D01*
X1729300Y1249670D02*
X1830900D01*
X1729300Y1191250D02*
Y1249670D01*
X1685400Y1190350D02*
X1685500Y1190250D01*
X1685400Y1190350D02*
Y1204500D01*
X1634600Y1190400D02*
X1634750Y1190250D01*
X1634600Y1190400D02*
Y1204500D01*
X1611250D02*
X1708000D01*
X1611250Y1190250D02*
X1708000D01*
X1708500Y1190750D01*
Y1269500D01*
X1611250D02*
X1708500D01*
X1611250Y1190250D02*
Y1269500D01*
X2306750Y2193250D02*
Y2208485D01*
X2314368D01*
X2316907Y2205946D01*
Y2200867D01*
X2314368Y2198328D01*
X2306750D01*
X2311828D02*
X2316907Y2193250D01*
X2321985D02*
X2327063D01*
X2324524D01*
Y2208485D01*
X2321985Y2205946D01*
X2334681D02*
X2337220Y2208485D01*
X2342298D01*
X2344838Y2205946D01*
Y2195789D01*
X2342298Y2193250D01*
X2337220D01*
X2334681Y2195789D01*
Y2205946D01*
X2306750Y1843000D02*
Y1858235D01*
X2314368D01*
X2316907Y1855696D01*
Y1850617D01*
X2314368Y1848078D01*
X2306750D01*
X2311828D02*
X2316907Y1843000D01*
X2321985Y1855696D02*
X2324524Y1858235D01*
X2329603D01*
X2332142Y1855696D01*
Y1853157D01*
X2329603Y1850617D01*
X2327063D01*
X2329603D01*
X2332142Y1848078D01*
Y1845539D01*
X2329603Y1843000D01*
X2324524D01*
X2321985Y1845539D01*
X1651618Y1336665D02*
X1649079Y1339204D01*
X1644000D01*
X1641461Y1336665D01*
Y1326508D01*
X1644000Y1323969D01*
X1649079D01*
X1651618Y1326508D01*
X1656696Y1336665D02*
X1659235Y1339204D01*
X1664314D01*
X1666853Y1336665D01*
Y1334126D01*
X1664314Y1331586D01*
X1661774D01*
X1664314D01*
X1666853Y1329047D01*
Y1326508D01*
X1664314Y1323969D01*
X1659235D01*
X1656696Y1326508D01*
X1846577Y1336874D02*
X1844037Y1339413D01*
X1838959D01*
X1836420Y1336874D01*
Y1326717D01*
X1838959Y1324178D01*
X1844037D01*
X1846577Y1326717D01*
X1861812Y1324178D02*
X1851655D01*
X1861812Y1334335D01*
Y1336874D01*
X1859273Y1339413D01*
X1854194D01*
X1851655Y1336874D01*
X1771473Y1336888D02*
X1768934Y1339427D01*
X1763855D01*
X1761316Y1336888D01*
Y1326731D01*
X1763855Y1324192D01*
X1768934D01*
X1771473Y1326731D01*
X1776551Y1324192D02*
X1781629D01*
X1779090D01*
Y1339427D01*
X1776551Y1336888D01*
X2461260Y1831086D02*
Y1846321D01*
X2466338Y1841243D01*
X2471417Y1846321D01*
Y1831086D01*
X2486652D02*
X2476495D01*
X2486652Y1841243D01*
Y1843782D01*
X2484113Y1846321D01*
X2479034D01*
X2476495Y1843782D01*
X2572766Y2335779D02*
Y2320544D01*
X2580384D01*
X2582923Y2323083D01*
Y2333240D01*
X2580384Y2335779D01*
X2572766D01*
X2588001D02*
Y2320544D01*
X2595619D01*
X2598158Y2323083D01*
Y2325622D01*
X2595619Y2328161D01*
X2588001D01*
X2595619D01*
X2598158Y2330701D01*
Y2333240D01*
X2595619Y2335779D01*
X2588001D01*
X2603236Y2320544D02*
X2608315D01*
X2605775D01*
Y2335779D01*
X2603236Y2333240D01*
X2638711Y1738251D02*
X2628554D01*
Y1730634D01*
X2633633D01*
X2628554D01*
Y1723016D01*
X2643789D02*
X2648867D01*
X2646328D01*
Y1738251D01*
X2643789Y1735712D01*
X2637703Y2540437D02*
X2627546D01*
Y2532820D01*
X2632625D01*
X2627546D01*
Y2525202D01*
X2652938D02*
X2642781D01*
X2652938Y2535359D01*
Y2537898D01*
X2650399Y2540437D01*
X2645320D01*
X2642781Y2537898D01*
X1622737Y1293691D02*
X1617658D01*
X1620197D01*
Y1280995D01*
X1617658Y1278456D01*
X1615119D01*
X1612580Y1280995D01*
X1627815Y1278456D02*
X1632893D01*
X1630354D01*
Y1293691D01*
X1627815Y1291152D01*
X2474719Y2575809D02*
X2469640D01*
X2472180D01*
Y2563113D01*
X2469640Y2560574D01*
X2467101D01*
X2464562Y2563113D01*
X2489954Y2560574D02*
X2479797D01*
X2489954Y2570731D01*
Y2573270D01*
X2487415Y2575809D01*
X2482336D01*
X2479797Y2573270D01*
X1625851Y2575809D02*
X1620772D01*
X1623311D01*
Y2563113D01*
X1620772Y2560574D01*
X1618233D01*
X1615694Y2563113D01*
X1630929Y2573270D02*
X1633468Y2575809D01*
X1638547D01*
X1641086Y2573270D01*
Y2570731D01*
X1638547Y2568192D01*
X1636007D01*
X1638547D01*
X1641086Y2565652D01*
Y2563113D01*
X1638547Y2560574D01*
X1633468D01*
X1630929Y2563113D01*
X1598001Y1538060D02*
X1592922D01*
X1595461D01*
Y1525364D01*
X1592922Y1522825D01*
X1590383D01*
X1587844Y1525364D01*
X1610697Y1522825D02*
Y1538060D01*
X1603079Y1530443D01*
X1613236D01*
X2474719Y1624833D02*
X2469640D01*
X2472180D01*
Y1612137D01*
X2469640Y1609598D01*
X2467101D01*
X2464562Y1612137D01*
X2489954Y1624833D02*
X2479797D01*
Y1617216D01*
X2484875Y1619755D01*
X2487415D01*
X2489954Y1617216D01*
Y1612137D01*
X2487415Y1609598D01*
X2482336D01*
X2479797Y1612137D01*
X1740617Y1273679D02*
X1735538D01*
X1738077D01*
Y1260983D01*
X1735538Y1258444D01*
X1732999D01*
X1730460Y1260983D01*
X1755852Y1273679D02*
X1750773Y1271140D01*
X1745695Y1266061D01*
Y1260983D01*
X1748234Y1258444D01*
X1753313D01*
X1755852Y1260983D01*
Y1263522D01*
X1753313Y1266061D01*
X1745695D01*
X1850815Y1273686D02*
X1845737D01*
X1848276D01*
Y1260990D01*
X1845737Y1258451D01*
X1843198D01*
X1840659Y1260990D01*
X1855894Y1273686D02*
X1866050D01*
Y1271146D01*
X1855894Y1260990D01*
Y1258451D01*
X1961000Y1212000D02*
Y1227235D01*
X1966078Y1222157D01*
X1971157Y1227235D01*
Y1212000D01*
X1983853Y1227235D02*
X1978774D01*
X1976235Y1224696D01*
Y1214539D01*
X1978774Y1212000D01*
X1983853D01*
X1986392Y1214539D01*
Y1224696D01*
X1983853Y1227235D01*
X1991470D02*
Y1212000D01*
X1999088D01*
X2001627Y1214539D01*
Y1224696D01*
X1999088Y1227235D01*
X1991470D01*
X2006705Y1212000D02*
X2011784D01*
X2009245D01*
Y1227235D01*
X2006705Y1224696D01*
X1825713Y1972160D02*
X1810478D01*
X1825713Y1982317D01*
X1810478D01*
Y1987395D02*
Y1997552D01*
Y1992473D01*
X1825713D01*
X1813017Y2012787D02*
X1810478Y2010248D01*
Y2005169D01*
X1813017Y2002630D01*
X1823174D01*
X1825713Y2005169D01*
Y2010248D01*
X1823174Y2012787D01*
X1825713Y2017865D02*
Y2022944D01*
Y2020404D01*
X1810478D01*
X1813017Y2017865D01*
X2039000Y2556000D02*
Y2571235D01*
X2046617D01*
X2049157Y2568696D01*
Y2563617D01*
X2046617Y2561078D01*
X2039000D01*
X2054235Y2556000D02*
Y2571235D01*
X2059313Y2566157D01*
X2064392Y2571235D01*
Y2556000D01*
X2069470D02*
X2074548D01*
X2072009D01*
Y2571235D01*
X2069470Y2568696D01*
X2647188Y1504950D02*
Y1520185D01*
X2652266Y1515107D01*
X2657345Y1520185D01*
Y1504950D01*
X2662423D02*
X2667502D01*
X2664962D01*
Y1520185D01*
X2662423Y1517646D01*
X2662000Y2559000D02*
Y2574235D01*
X2667078Y2569156D01*
X2672157Y2574235D01*
Y2559000D01*
X2687392Y2574235D02*
X2677235D01*
Y2566617D01*
X2682314Y2569156D01*
X2684853D01*
X2687392Y2566617D01*
Y2561539D01*
X2684853Y2559000D01*
X2679774D01*
X2677235Y2561539D01*
X1582166Y2365502D02*
Y2380737D01*
X1587244Y2375659D01*
X1592323Y2380737D01*
Y2365502D01*
X1605019D02*
Y2380737D01*
X1597401Y2373120D01*
X1607558D01*
X1582166Y1722120D02*
Y1737355D01*
X1587244Y1732277D01*
X1592323Y1737355D01*
Y1722120D01*
X1597401Y1734816D02*
X1599940Y1737355D01*
X1605019D01*
X1607558Y1734816D01*
Y1732277D01*
X1605019Y1729738D01*
X1602479D01*
X1605019D01*
X1607558Y1727198D01*
Y1724659D01*
X1605019Y1722120D01*
X1599940D01*
X1597401Y1724659D01*
X2836235Y1287470D02*
X2826078D01*
X2821000Y1282392D01*
X2826078Y1277313D01*
X2836235D01*
X2818461Y1272235D02*
Y1262078D01*
X2836235Y1257000D02*
X2821000D01*
Y1246843D01*
X2836235Y1241765D02*
X2821000D01*
Y1234147D01*
X2823539Y1231608D01*
X2833696D01*
X2836235Y1234147D01*
Y1241765D01*
X2821000Y1226530D02*
X2831157D01*
X2836235Y1221451D01*
X2831157Y1216373D01*
X2821000D01*
X2828618D01*
Y1226530D01*
X2708735Y1287470D02*
X2698578D01*
X2693500Y1282392D01*
X2698578Y1277313D01*
X2708735D01*
X2690961Y1272235D02*
Y1262078D01*
X2708735Y1257000D02*
X2693500D01*
Y1246843D01*
X2708735Y1241765D02*
X2693500D01*
Y1234147D01*
X2696039Y1231608D01*
X2706196D01*
X2708735Y1234147D01*
Y1241765D01*
Y1226530D02*
X2693500D01*
Y1218912D01*
X2696039Y1216373D01*
X2698578D01*
X2701118Y1218912D01*
Y1226530D01*
Y1218912D01*
X2703657Y1216373D01*
X2706196D01*
X2708735Y1218912D01*
Y1226530D01*
X2778696Y1246843D02*
X2781235Y1249382D01*
Y1254461D01*
X2778696Y1257000D01*
X2768539D01*
X2766000Y1254461D01*
Y1249382D01*
X2768539Y1246843D01*
X2773618D01*
Y1251921D01*
X2766000Y1241765D02*
X2781235D01*
X2766000Y1231608D01*
X2781235D01*
Y1226530D02*
X2766000D01*
Y1218912D01*
X2768539Y1216373D01*
X2778696D01*
X2781235Y1218912D01*
Y1226530D01*
X2753696Y1246843D02*
X2756235Y1249382D01*
Y1254461D01*
X2753696Y1257000D01*
X2743539D01*
X2741000Y1254461D01*
Y1249382D01*
X2743539Y1246843D01*
X2748618D01*
Y1251921D01*
X2741000Y1241765D02*
X2756235D01*
X2741000Y1231608D01*
X2756235D01*
Y1226530D02*
X2741000D01*
Y1218912D01*
X2743539Y1216373D01*
X2753696D01*
X2756235Y1218912D01*
Y1226530D01*
X2606235Y1338254D02*
Y1333175D01*
Y1335714D01*
X2591000D01*
Y1338254D01*
Y1333175D01*
X2603696Y1315401D02*
X2606235Y1317940D01*
Y1323018D01*
X2603696Y1325558D01*
X2601157D01*
X2598618Y1323018D01*
Y1317940D01*
X2596078Y1315401D01*
X2593539D01*
X2591000Y1317940D01*
Y1323018D01*
X2593539Y1325558D01*
X2591000Y1302705D02*
Y1307783D01*
X2593539Y1310323D01*
X2598618D01*
X2601157Y1307783D01*
Y1302705D01*
X2598618Y1300166D01*
X2596078D01*
Y1310323D01*
X2591000Y1295087D02*
X2601157D01*
Y1287470D01*
X2598618Y1284931D01*
X2591000D01*
Y1279853D02*
Y1272235D01*
X2593539Y1269696D01*
X2596078Y1272235D01*
Y1277313D01*
X2598618Y1279853D01*
X2601157Y1277313D01*
Y1269696D01*
X2591000Y1257000D02*
Y1262078D01*
X2593539Y1264617D01*
X2598618D01*
X2601157Y1262078D01*
Y1257000D01*
X2598618Y1254461D01*
X2596078D01*
Y1264617D01*
X2591000Y1244304D02*
X2596078Y1249382D01*
X2601157D01*
X2606235Y1244304D01*
X2598618Y1236686D02*
Y1226530D01*
X2591000Y1221451D02*
X2596078Y1216373D01*
X2601157D01*
X2606235Y1221451D01*
X2581235Y1338254D02*
Y1333175D01*
Y1335714D01*
X2566000D01*
Y1338254D01*
Y1333175D01*
X2578696Y1315401D02*
X2581235Y1317940D01*
Y1323018D01*
X2578696Y1325558D01*
X2576157D01*
X2573618Y1323018D01*
Y1317940D01*
X2571078Y1315401D01*
X2568539D01*
X2566000Y1317940D01*
Y1323018D01*
X2568539Y1325558D01*
X2566000Y1302705D02*
Y1307783D01*
X2568539Y1310323D01*
X2573618D01*
X2576157Y1307783D01*
Y1302705D01*
X2573618Y1300166D01*
X2571078D01*
Y1310323D01*
X2566000Y1295087D02*
X2576157D01*
Y1287470D01*
X2573618Y1284931D01*
X2566000D01*
Y1279853D02*
Y1272235D01*
X2568539Y1269696D01*
X2571078Y1272235D01*
Y1277313D01*
X2573618Y1279853D01*
X2576157Y1277313D01*
Y1269696D01*
X2566000Y1257000D02*
Y1262078D01*
X2568539Y1264617D01*
X2573618D01*
X2576157Y1262078D01*
Y1257000D01*
X2573618Y1254461D01*
X2571078D01*
Y1264617D01*
X2566000Y1244304D02*
X2571078Y1249382D01*
X2576157D01*
X2581235Y1244304D01*
X2573618Y1236686D02*
Y1226530D01*
X2578696Y1231608D02*
X2568539D01*
X2566000Y1221451D02*
X2571078Y1216373D01*
X2576157D01*
X2581235Y1221451D01*
X2553696Y1246843D02*
X2556235Y1249382D01*
Y1254461D01*
X2553696Y1257000D01*
X2543539D01*
X2541000Y1254461D01*
Y1249382D01*
X2543539Y1246843D01*
X2548618D01*
Y1251921D01*
X2541000Y1241765D02*
X2556235D01*
X2541000Y1231608D01*
X2556235D01*
Y1226530D02*
X2541000D01*
Y1218912D01*
X2543539Y1216373D01*
X2553696D01*
X2556235Y1218912D01*
Y1226530D01*
X2456235Y1333175D02*
X2441000D01*
Y1323018D01*
X2456235Y1317940D02*
X2441000D01*
Y1310323D01*
X2443539Y1307783D01*
X2453696D01*
X2456235Y1310323D01*
Y1317940D01*
X2438461Y1302705D02*
Y1292548D01*
X2456235Y1287470D02*
X2441000D01*
Y1279853D01*
X2443539Y1277313D01*
X2453696D01*
X2456235Y1279853D01*
Y1287470D01*
X2441000Y1272235D02*
X2456235D01*
Y1264617D01*
X2453696Y1262078D01*
X2448618D01*
X2446078Y1264617D01*
Y1272235D01*
Y1267157D02*
X2441000Y1262078D01*
X2456235Y1257000D02*
X2446078D01*
X2441000Y1251921D01*
X2446078Y1246843D01*
X2456235D01*
X2438461Y1241765D02*
Y1231608D01*
X2441000Y1226530D02*
X2451157D01*
X2456235Y1221451D01*
X2451157Y1216373D01*
X2441000D01*
X2448618D01*
Y1226530D01*
X2426235Y1333175D02*
X2411000D01*
Y1323018D01*
X2426235Y1317940D02*
X2411000D01*
Y1310323D01*
X2413539Y1307783D01*
X2423696D01*
X2426235Y1310323D01*
Y1317940D01*
X2408461Y1302705D02*
Y1292548D01*
X2426235Y1287470D02*
X2411000D01*
Y1279853D01*
X2413539Y1277313D01*
X2423696D01*
X2426235Y1279853D01*
Y1287470D01*
X2411000Y1272235D02*
X2426235D01*
Y1264617D01*
X2423696Y1262078D01*
X2418618D01*
X2416078Y1264617D01*
Y1272235D01*
Y1267157D02*
X2411000Y1262078D01*
X2426235Y1257000D02*
X2416078D01*
X2411000Y1251921D01*
X2416078Y1246843D01*
X2426235D01*
X2408461Y1241765D02*
Y1231608D01*
X2426235Y1226530D02*
X2411000D01*
Y1218912D01*
X2413539Y1216373D01*
X2416078D01*
X2418618Y1218912D01*
Y1226530D01*
Y1218912D01*
X2421157Y1216373D01*
X2423696D01*
X2426235Y1218912D01*
Y1226530D01*
X2398696Y1246843D02*
X2401235Y1249382D01*
Y1254461D01*
X2398696Y1257000D01*
X2388539D01*
X2386000Y1254461D01*
Y1249382D01*
X2388539Y1246843D01*
X2393618D01*
Y1251921D01*
X2386000Y1241765D02*
X2401235D01*
X2386000Y1231608D01*
X2401235D01*
Y1226530D02*
X2386000D01*
Y1218912D01*
X2388539Y1216373D01*
X2398696D01*
X2401235Y1218912D01*
Y1226530D01*
X2373696Y1246843D02*
X2376235Y1249382D01*
Y1254461D01*
X2373696Y1257000D01*
X2363539D01*
X2361000Y1254461D01*
Y1249382D01*
X2363539Y1246843D01*
X2368618D01*
Y1251921D01*
X2361000Y1241765D02*
X2376235D01*
X2361000Y1231608D01*
X2376235D01*
Y1226530D02*
X2361000D01*
Y1218912D01*
X2363539Y1216373D01*
X2373696D01*
X2376235Y1218912D01*
Y1226530D01*
X2351235Y1363645D02*
Y1353489D01*
Y1358567D01*
X2336000D01*
Y1340793D02*
Y1345871D01*
X2338539Y1348410D01*
X2343618D01*
X2346157Y1345871D01*
Y1340793D01*
X2343618Y1338254D01*
X2341078D01*
Y1348410D01*
X2336000Y1333175D02*
X2346157D01*
Y1330636D01*
X2343618Y1328097D01*
X2336000D01*
X2343618D01*
X2346157Y1325558D01*
X2343618Y1323018D01*
X2336000D01*
X2330922Y1317940D02*
X2346157D01*
Y1310323D01*
X2343618Y1307783D01*
X2338539D01*
X2336000Y1310323D01*
Y1317940D01*
X2348696Y1277313D02*
X2351235Y1279853D01*
Y1284931D01*
X2348696Y1287470D01*
X2346157D01*
X2343618Y1284931D01*
Y1279853D01*
X2341078Y1277313D01*
X2338539D01*
X2336000Y1279853D01*
Y1284931D01*
X2338539Y1287470D01*
X2336000Y1264617D02*
Y1269696D01*
X2338539Y1272235D01*
X2343618D01*
X2346157Y1269696D01*
Y1264617D01*
X2343618Y1262078D01*
X2341078D01*
Y1272235D01*
X2336000Y1257000D02*
X2346157D01*
Y1249382D01*
X2343618Y1246843D01*
X2336000D01*
Y1241765D02*
Y1234147D01*
X2338539Y1231608D01*
X2341078Y1234147D01*
Y1239226D01*
X2343618Y1241765D01*
X2346157Y1239226D01*
Y1231608D01*
X2336000Y1218912D02*
Y1223990D01*
X2338539Y1226530D01*
X2343618D01*
X2346157Y1223990D01*
Y1218912D01*
X2343618Y1216373D01*
X2341078D01*
Y1226530D01*
X2326235Y1328097D02*
Y1323018D01*
Y1325558D01*
X2311000D01*
Y1328097D01*
Y1323018D01*
X2308461Y1315401D02*
Y1305244D01*
X2326235Y1300166D02*
X2311000D01*
X2318618D01*
Y1290009D01*
X2326235D01*
X2311000D01*
X2326235Y1284931D02*
Y1279853D01*
Y1282392D01*
X2311000D01*
Y1284931D01*
Y1279853D01*
X2308461Y1272235D02*
Y1262078D01*
X2326235Y1257000D02*
X2311000D01*
Y1249382D01*
X2313539Y1246843D01*
X2323696D01*
X2326235Y1249382D01*
Y1257000D01*
X2311000Y1241765D02*
X2326235D01*
Y1234147D01*
X2323696Y1231608D01*
X2318618D01*
X2316078Y1234147D01*
Y1241765D01*
Y1236686D02*
X2311000Y1231608D01*
X2326235Y1226530D02*
X2316078D01*
X2311000Y1221451D01*
X2316078Y1216373D01*
X2326235D01*
X2301235Y1345871D02*
Y1340793D01*
Y1343332D01*
X2286000D01*
Y1345871D01*
Y1340793D01*
X2283461Y1333175D02*
Y1323018D01*
X2286000Y1317940D02*
X2301235D01*
X2296157Y1312862D01*
X2301235Y1307783D01*
X2286000D01*
X2301235Y1292548D02*
Y1302705D01*
X2286000D01*
Y1292548D01*
X2293618Y1302705D02*
Y1297627D01*
X2301235Y1287470D02*
X2286000D01*
Y1279853D01*
X2288539Y1277313D01*
X2298696D01*
X2301235Y1279853D01*
Y1287470D01*
X2283461Y1272235D02*
Y1262078D01*
X2301235Y1257000D02*
X2286000D01*
Y1249382D01*
X2288539Y1246843D01*
X2298696D01*
X2301235Y1249382D01*
Y1257000D01*
X2286000Y1241765D02*
X2301235D01*
Y1234147D01*
X2298696Y1231608D01*
X2293618D01*
X2291078Y1234147D01*
Y1241765D01*
Y1236686D02*
X2286000Y1231608D01*
X2301235Y1226530D02*
X2291078D01*
X2286000Y1221451D01*
X2291078Y1216373D01*
X2301235D01*
X2276235Y1330636D02*
Y1325558D01*
Y1328097D01*
X2261000D01*
Y1330636D01*
Y1325558D01*
X2258461Y1317940D02*
Y1307783D01*
X2276235Y1302705D02*
X2261000D01*
Y1292548D01*
X2276235Y1279853D02*
Y1284931D01*
X2273696Y1287470D01*
X2263539D01*
X2261000Y1284931D01*
Y1279853D01*
X2263539Y1277313D01*
X2273696D01*
X2276235Y1279853D01*
X2258461Y1272235D02*
Y1262078D01*
X2276235Y1257000D02*
X2261000D01*
Y1249382D01*
X2263539Y1246843D01*
X2273696D01*
X2276235Y1249382D01*
Y1257000D01*
X2261000Y1241765D02*
X2276235D01*
Y1234147D01*
X2273696Y1231608D01*
X2268618D01*
X2266078Y1234147D01*
Y1241765D01*
Y1236686D02*
X2261000Y1231608D01*
X2276235Y1226530D02*
X2266078D01*
X2261000Y1221451D01*
X2266078Y1216373D01*
X2276235D01*
X2248696Y1246843D02*
X2251235Y1249382D01*
Y1254461D01*
X2248696Y1257000D01*
X2246157D01*
X2243618Y1254461D01*
Y1249382D01*
X2241078Y1246843D01*
X2238539D01*
X2236000Y1249382D01*
Y1254461D01*
X2238539Y1257000D01*
X2248696Y1231608D02*
X2251235Y1234147D01*
Y1239226D01*
X2248696Y1241765D01*
X2238539D01*
X2236000Y1239226D01*
Y1234147D01*
X2238539Y1231608D01*
X2251235Y1226530D02*
X2236000D01*
Y1216373D01*
X2223696Y1246843D02*
X2226235Y1249382D01*
Y1254461D01*
X2223696Y1257000D01*
X2221157D01*
X2218618Y1254461D01*
Y1249382D01*
X2216078Y1246843D01*
X2213539D01*
X2211000Y1249382D01*
Y1254461D01*
X2213539Y1257000D01*
X2226235Y1241765D02*
X2211000D01*
Y1234147D01*
X2213539Y1231608D01*
X2223696D01*
X2226235Y1234147D01*
Y1241765D01*
X2211000Y1226530D02*
X2221157D01*
X2226235Y1221451D01*
X2221157Y1216373D01*
X2211000D01*
X2218618D01*
Y1226530D01*
X2198696Y1300166D02*
X2201235Y1297627D01*
Y1292548D01*
X2198696Y1290009D01*
X2196157D01*
X2193618Y1292548D01*
Y1295087D01*
Y1292548D01*
X2191078Y1290009D01*
X2188539D01*
X2186000Y1292548D01*
Y1297627D01*
X2188539Y1300166D01*
X2186000Y1284931D02*
X2188539D01*
Y1282392D01*
X2186000D01*
Y1284931D01*
X2198696Y1272235D02*
X2201235Y1269696D01*
Y1264617D01*
X2198696Y1262078D01*
X2196157D01*
X2193618Y1264617D01*
Y1267157D01*
Y1264617D01*
X2191078Y1262078D01*
X2188539D01*
X2186000Y1264617D01*
Y1269696D01*
X2188539Y1272235D01*
X2201235Y1257000D02*
X2191078D01*
X2186000Y1251921D01*
X2191078Y1246843D01*
X2201235D01*
Y1231608D02*
X2186000D01*
Y1239226D01*
X2188539Y1241765D01*
X2193618D01*
X2196157Y1239226D01*
Y1231608D01*
Y1216373D02*
Y1223990D01*
X2193618Y1226530D01*
X2188539D01*
X2186000Y1223990D01*
Y1216373D01*
X2143696Y1246843D02*
X2146235Y1249382D01*
Y1254461D01*
X2143696Y1257000D01*
X2133539D01*
X2131000Y1254461D01*
Y1249382D01*
X2133539Y1246843D01*
X2138618D01*
Y1251921D01*
X2131000Y1241765D02*
X2146235D01*
X2131000Y1231608D01*
X2146235D01*
Y1226530D02*
X2131000D01*
Y1218912D01*
X2133539Y1216373D01*
X2143696D01*
X2146235Y1218912D01*
Y1226530D01*
X2106000Y1284931D02*
Y1279853D01*
Y1282392D01*
X2121235D01*
X2118696Y1284931D01*
X2106000Y1262078D02*
Y1272235D01*
X2116157Y1262078D01*
X2118696D01*
X2121235Y1264617D01*
Y1269696D01*
X2118696Y1272235D01*
X2121235Y1257000D02*
X2111078D01*
X2106000Y1251921D01*
X2111078Y1246843D01*
X2121235D01*
Y1231608D02*
X2106000D01*
Y1239226D01*
X2108539Y1241765D01*
X2113618D01*
X2116157Y1239226D01*
Y1231608D01*
Y1216373D02*
Y1223990D01*
X2113618Y1226530D01*
X2108539D01*
X2106000Y1223990D01*
Y1216373D01*
X2804038Y1926718D02*
Y1936875D01*
X2798960Y1931796D02*
X2809117D01*
X2804038Y2178718D02*
Y2188875D01*
X1577000Y1161000D02*
Y2611000D01*
Y1161000D02*
X2877000D01*
Y2611000D01*
X1577000D02*
X2877000D01*
D12*
X2716000Y1665500D02*
X2748500D01*
X2715000Y2467500D02*
X2747500D01*
D38*
X2186500Y2001500D02*
G03*
X2186500Y2001500I-1250J0D01*
G01*
X2185500Y2179000D02*
G03*
X2185500Y2179000I-1250J0D01*
G01*
D39*
X2207250Y1833910D02*
Y2002820D01*
X1928980Y1833910D02*
X2207250D01*
X1928980Y2002820D02*
X2207250D01*
X1928980Y1833910D02*
Y2002820D01*
Y2175320D02*
X2207250D01*
X1928980Y2006410D02*
X2207250D01*
Y2175320D01*
X1928980Y2006410D02*
Y2175320D01*
X1759810Y1295140D02*
Y1315460D01*
X1795878Y1295140D02*
Y1315460D01*
X1759810D02*
X1795878D01*
X1759810Y1295140D02*
X1795878D01*
X1870878D02*
Y1315460D01*
X1834810Y1295140D02*
Y1315460D01*
Y1295140D02*
X1870878D01*
X1834810Y1315460D02*
X1870878D01*
X1675878Y1295140D02*
Y1315460D01*
X1639810Y1295140D02*
Y1315460D01*
Y1295140D02*
X1675878D01*
X1639810Y1315460D02*
X1675878D01*
X1952900Y1191000D02*
X2876000D01*
X1952900Y1167000D02*
Y1191000D01*
Y1167000D02*
X2876000D01*
Y1191000D01*
D40*
X1840000Y1166940D02*
X1870000D01*
X1840000Y1248940D02*
X1944500D01*
X1840000Y1166940D02*
Y1248940D01*
X1914500Y1166940D02*
X1944500D01*
Y1248940D01*
M02*
