G04*
G04 #@! TF.GenerationSoftware,Altium Limited,CircuitStudio,1.5.2 (1.5.2.30)*
G04*
G04 Layer_Color=128*
%FSLAX44Y44*%
%MOMM*%
G71*
G01*
G75*
%ADD11C,0.2540*%
%ADD74C,0.1270*%
D11*
X1577000Y1161000D02*
Y2611000D01*
Y1161000D02*
X2877000D01*
Y2611000D01*
X1577000D02*
X2877000D01*
D74*
X2366500Y2250000D02*
X2375500D01*
X2371000Y2245500D02*
Y2254500D01*
X2366500Y2150000D02*
X2375500D01*
X2371000Y2145500D02*
Y2154500D01*
X2366500Y1802500D02*
X2375500D01*
X2371000Y1798000D02*
Y1807000D01*
X2366500Y1902500D02*
X2375500D01*
X2371000Y1898000D02*
Y1907000D01*
X2721000Y2566000D02*
X2751000D01*
X2736000Y2551000D02*
Y2581000D01*
X1698296Y1576000D02*
X1717600D01*
X1707948Y1566348D02*
Y1585652D01*
X1628192Y1576000D02*
X1647496D01*
X1637844Y1566348D02*
Y1585652D01*
X1628192Y1526000D02*
X1647496D01*
X1637844Y1516348D02*
Y1535652D01*
X1698296Y1526000D02*
X1717600D01*
X1707948Y1516348D02*
Y1535652D01*
X1628192Y1476000D02*
X1647496D01*
X1637844Y1466348D02*
Y1485652D01*
X1698296Y1476000D02*
X1717600D01*
X1707948Y1466348D02*
Y1485652D01*
X2177250Y1864600D02*
X2191250D01*
X2184250Y1857600D02*
Y1871600D01*
X2177250Y1919000D02*
X2191250D01*
X2184250Y1912000D02*
Y1926000D01*
X2177250Y1973400D02*
X2191250D01*
X2184250Y1966400D02*
Y1980400D01*
X2224750Y1522000D02*
X2329750D01*
X2277250Y1469500D02*
Y1574500D01*
X1744750Y1522000D02*
X1849750D01*
X1797250Y1469500D02*
Y1574500D01*
X1744750Y2482000D02*
X1849750D01*
X1797250Y2429500D02*
Y2534500D01*
X2224750Y2482000D02*
X2329750D01*
X2277250Y2429500D02*
Y2534500D01*
X2177250Y2145900D02*
X2191250D01*
X2184250Y2138900D02*
Y2152900D01*
X2177250Y2091500D02*
X2191250D01*
X2184250Y2084500D02*
Y2098500D01*
X2177250Y2037100D02*
X2191250D01*
X2184250Y2030100D02*
Y2044100D01*
X2110320Y1202000D02*
X2120480D01*
X2115400Y1196920D02*
Y1207080D01*
X2135720Y1202000D02*
X2145880D01*
X2140800Y1196920D02*
Y1207080D01*
X2211920Y1202000D02*
X2222080D01*
X2217000Y1196920D02*
Y1207080D01*
X2186520Y1202000D02*
X2196680D01*
X2191600Y1196920D02*
Y1207080D01*
X2237320Y1202000D02*
X2247480D01*
X2242400Y1196920D02*
Y1207080D01*
X2338920Y1202000D02*
X2349080D01*
X2344000Y1196920D02*
Y1207080D01*
X2313520Y1202000D02*
X2323680D01*
X2318600Y1196920D02*
Y1207080D01*
X2262720Y1202000D02*
X2272880D01*
X2267800Y1196920D02*
Y1207080D01*
X2288120Y1202000D02*
X2298280D01*
X2293200Y1196920D02*
Y1207080D01*
X2389720Y1202000D02*
X2399880D01*
X2394800Y1196920D02*
Y1207080D01*
X2364320Y1202000D02*
X2374480D01*
X2369400Y1196920D02*
Y1207080D01*
X2415120Y1202000D02*
X2425280D01*
X2420200Y1196920D02*
Y1207080D01*
X2440520Y1202000D02*
X2450680D01*
X2445600Y1196920D02*
Y1207080D01*
X2544220Y1202000D02*
X2554380D01*
X2549300Y1196920D02*
Y1207080D01*
X2569620Y1202000D02*
X2579780D01*
X2574700Y1196920D02*
Y1207080D01*
X2595020Y1202000D02*
X2605180D01*
X2600100Y1196920D02*
Y1207080D01*
X2694520Y1202000D02*
X2704680D01*
X2699600Y1196920D02*
Y1207080D01*
X2745320Y1202000D02*
X2755480D01*
X2750400Y1196920D02*
Y1207080D01*
X2770720Y1202000D02*
X2780880D01*
X2775800Y1196920D02*
Y1207080D01*
X2821520Y1202000D02*
X2831680D01*
X2826600Y1196920D02*
Y1207080D01*
X1843940Y2015250D02*
X1851560D01*
X1847750Y2011440D02*
Y2019060D01*
X1843940Y1989850D02*
X1851560D01*
X1847750Y1986040D02*
Y1993660D01*
X2477000Y1790000D02*
X2507000D01*
X2492000Y1775000D02*
Y1805000D01*
X1918000Y1231940D02*
X1926000D01*
X1922000Y1227940D02*
Y1235940D01*
X1898000Y1231940D02*
X1906000D01*
X1902000Y1227940D02*
Y1235940D01*
X1878000Y1231940D02*
X1886000D01*
X1882000Y1227940D02*
Y1235940D01*
X1858000Y1231940D02*
X1866000D01*
X1862000Y1227940D02*
Y1235940D01*
X2677420Y2281910D02*
X2712420D01*
X2694920Y2264410D02*
Y2299410D01*
X2677420Y1821910D02*
X2712420D01*
X2694920Y1804410D02*
Y1839410D01*
X2765156Y1931718D02*
X2780156D01*
X2772656Y1924218D02*
Y1939218D01*
X2765156Y2031718D02*
X2780156D01*
X2772656Y2024218D02*
Y2039218D01*
X2765156Y2106718D02*
X2780156D01*
X2772656Y2099218D02*
Y2114218D01*
X2765156Y2181718D02*
X2780156D01*
X2772656Y2174218D02*
Y2189218D01*
X1812200Y1220460D02*
X1824200D01*
X1818200Y1214460D02*
Y1226460D01*
X1786800Y1220460D02*
X1798800D01*
X1792800Y1214460D02*
Y1226460D01*
X1761400Y1220460D02*
X1773400D01*
X1767400Y1214460D02*
Y1226460D01*
X1736000Y1220460D02*
X1748000D01*
X1742000Y1214460D02*
Y1226460D01*
X2764750Y1668000D02*
X2777250D01*
X2771000Y1661750D02*
Y1674250D01*
X2664750Y1668000D02*
X2677250D01*
X2671000Y1661750D02*
Y1674250D01*
X2763750Y2470000D02*
X2776250D01*
X2770000Y2463750D02*
Y2476250D01*
X2663750Y2470000D02*
X2676250D01*
X2670000Y2463750D02*
Y2476250D01*
X1629500Y1225000D02*
X1639700D01*
X1634600Y1219900D02*
Y1230100D01*
X1654900Y1225000D02*
X1665100D01*
X1660000Y1219900D02*
Y1230100D01*
X1680300Y1225000D02*
X1690500D01*
X1685400Y1219900D02*
Y1230100D01*
X2543296Y1576000D02*
X2562600D01*
X2552948Y1566348D02*
Y1585652D01*
X2473192Y1576000D02*
X2492496D01*
X2482844Y1566348D02*
Y1585652D01*
X2473192Y1526000D02*
X2492496D01*
X2482844Y1516348D02*
Y1535652D01*
X2543296Y1526000D02*
X2562600D01*
X2552948Y1516348D02*
Y1535652D01*
X2473192Y1476000D02*
X2492496D01*
X2482844Y1466348D02*
Y1485652D01*
X2543296Y1476000D02*
X2562600D01*
X2552948Y1466348D02*
Y1485652D01*
X1624400Y2429500D02*
X1643704D01*
X1634052Y2419848D02*
Y2439152D01*
X1694504Y2429500D02*
X1713808D01*
X1704156Y2419848D02*
Y2439152D01*
X1694504Y2479500D02*
X1713808D01*
X1704156Y2469848D02*
Y2489152D01*
X1624400Y2479500D02*
X1643704D01*
X1634052Y2469848D02*
Y2489152D01*
X1694504Y2529500D02*
X1713808D01*
X1704156Y2519848D02*
Y2539152D01*
X1624400Y2529500D02*
X1643704D01*
X1634052Y2519848D02*
Y2539152D01*
X2543296Y2527000D02*
X2562600D01*
X2552948Y2517348D02*
Y2536652D01*
X2473192Y2527000D02*
X2492496D01*
X2482844Y2517348D02*
Y2536652D01*
X2473192Y2477000D02*
X2492496D01*
X2482844Y2467348D02*
Y2486652D01*
X2543296Y2477000D02*
X2562600D01*
X2552948Y2467348D02*
Y2486652D01*
X2473192Y2427000D02*
X2492496D01*
X2482844Y2417348D02*
Y2436652D01*
X2543296Y2427000D02*
X2562600D01*
X2552948Y2417348D02*
Y2436652D01*
X2663000Y1464000D02*
X2693000D01*
X2678000Y1449000D02*
Y1479000D01*
X1598000Y2324500D02*
X1628000D01*
X1613000Y2309500D02*
Y2339500D01*
X1598000Y1681000D02*
X1628000D01*
X1613000Y1666000D02*
Y1696000D01*
X2436500Y2112000D02*
X2439500D01*
X2438000Y2110500D02*
Y2113500D01*
X2561500Y2102750D02*
X2564500D01*
X2563000Y2101250D02*
Y2104250D01*
X2294100Y1352000D02*
X2297100D01*
X2295600Y1350500D02*
Y1353500D01*
X2276750Y1342500D02*
X2279750D01*
X2278250Y1341000D02*
Y1344000D01*
X2348500Y1391000D02*
X2351500D01*
X2350000Y1389500D02*
Y1392500D01*
X2341500Y1382000D02*
X2344500D01*
X2343000Y1380500D02*
Y1383500D01*
X1826344Y1305300D02*
X1829344D01*
X1827844Y1303800D02*
Y1306800D01*
X1813844Y1305300D02*
X1816844D01*
X1815344Y1303800D02*
Y1306800D01*
X1801344Y1305300D02*
X1804344D01*
X1802844Y1303800D02*
Y1306800D01*
X1785844Y1285900D02*
X1788844D01*
X1787344Y1284400D02*
Y1287400D01*
X1646844Y1286000D02*
X1649844D01*
X1648344Y1284500D02*
Y1287500D01*
X2451500Y2024000D02*
X2454500D01*
X2453000Y2022500D02*
Y2025500D01*
X2584500Y2015000D02*
X2587500D01*
X2586000Y2013500D02*
Y2016500D01*
X2415500Y2190000D02*
X2418500D01*
X2417000Y2188500D02*
Y2191500D01*
X2556500Y2197000D02*
X2559500D01*
X2558000Y2195500D02*
Y2198500D01*
M02*
