M48
;Layer_Color=6321
;FILE_FORMAT=4:4
METRIC,LZ
;TYPE=PLATED
T1F00S00C0.3000
T2F00S00C0.7620
T3F00S00C0.8000
T4F00S00C0.9000
T5F00S00C1.0160
T6F00S00C1.0200
T7F00S00C1.2000
T8F00S00C1.2500
T9F00S00C1.4000
T10F00S00C1.5000
T11F00S00C1.9304
T12F00S00C3.0000
T13F00S00C3.5000
%
T01
X0227825Y013425
X022956Y01352
X02343Y01382
X0235Y01391
X01827844Y013053
X01815344
X01802844
X01787344Y012859
X01648344Y01286
X02453Y02024
X02438Y02112
X02417Y0219
X02558Y02197
X02563Y0210275
X02586Y02015
T02
X0184775Y0198985
Y0201525
T03
X01862Y0123194
X01882
X01902
X01922
T04
X02371Y018025
Y019025
Y0215
Y0225
T05
X028266Y01202
X027758
X027504
X026996
X026001
X025747
X025493
X024456
X024202
X023948
X023694
X02344
X023186
X022932
X022678
X022424
X02217
X021916
X021408
X021154
T06
X016346Y01225
X0166
X016854
T07
X01742Y0122046
X017674
X017928
X018182
T08
X02671Y01668
X02771
X0277Y0247
X0267
T09
X0218425Y018646
Y01919
Y019734
Y020371
Y020915
Y021459
T10
X02772656Y01931718
Y02031718
Y02106718
Y02181718
T11
X02482844Y01476
Y01526
Y01576
X02552948
Y01526
Y01476
X01707948
Y01526
Y01576
X01637844
Y01526
Y01476
X01634052Y024295
Y024795
Y025295
X01704156
Y024795
Y024295
X02482844Y02427
Y02477
Y02527
X02552948
Y02477
Y02427
T12
X02678Y01464
X01613Y01681
X02492Y0179
X01613Y023245
X02736Y02566
T13
X0269492Y0182191
Y0228191
M30
